	<svg xmlns="http://www.w3.org/2000/svg" xmlns:xlink="http://www.w3.org/1999/xlink" version="1.1" fill="currentColor" x="0px" y="0px" width="20px" height="20px" viewBox="0 0 24 24" enable-background="new 0 0 24 24" xml:space="preserve"> <g id="Rounded"> <path d="M12,2C6.48,2,2,6.48,2,12s4.48,10,10,10s10-4.48,10-10S17.52,2,12,2z M9.29,16.29l-3.59-3.59c-0.39-0.39-0.39-1.02,0-1.41 l0,0c0.39-0.39,1.02-0.39,1.41,0L10,14.17l6.88-6.88c0.39-0.39,1.02-0.39,1.41,0l0,0c0.39,0.39,0.39,1.02,0,1.41l-7.59,7.59 C10.32,16.68,9.68,16.68,9.29,16.29z"/> </g> </svg>