<svg version="1.1" id="Layer_1" xmlns="http://www.w3.org/2000/svg" xmlns:xlink="http://www.w3.org/1999/xlink" x="0px" y="0px"
	 viewBox="0 0 54 54" style="enable-background:new 0 0 54 54;" xml:space="preserve">
<style type="text/css">
	.st0{fill:none;}
</style>
<g>
	<rect x="-0.2" y="0.1" class="st0" width="53.8" height="53.4"/>
	<path d="M48.1,12.9v26.8c0,2.2-0.8,4.1-2.4,5.7c-1.6,1.6-3.5,2.4-5.7,2.4H13.3c-2.2,0-4.1-0.8-5.7-2.4c-1.6-1.6-2.4-3.5-2.4-5.7
		V12.9c0-2.2,0.8-4.1,2.4-5.7c1.6-1.6,3.5-2.4,5.7-2.4H40c2.2,0,4.1,0.8,5.7,2.4C47.3,8.8,48.1,10.7,48.1,12.9z M40.7,15.7
		c0.2-1,0.1-1.7-0.2-2.1c-0.8-1-2.2-1.8-4.3-2.5c-4-1.2-8.5-1.5-13.6-1c-2.5,0.2-4.6,0.7-6.3,1.3c-0.7,0.3-1.3,0.5-1.7,0.7
		c-0.4,0.2-0.8,0.5-1.3,0.9c-0.5,0.4-0.7,0.9-0.8,1.5c0.1,1.3,0.3,2.5,0.5,3.9c0.2,1.3,0.5,2.9,0.8,4.8s0.6,3.2,0.7,3.8
		c0,0.1,0.1,0.4,0.1,0.9c0.1,0.5,0.1,0.8,0.2,1s0.2,0.4,0.3,0.8s0.4,0.6,0.6,0.8c2,1.5,4.6,2.4,7.9,2.8c4.8,0.5,8.9-0.1,12.3-1.8
		c0.4-0.2,0.8-0.5,1.1-0.6c0.3-0.2,0.6-0.5,0.9-0.8c0.3-0.4,0.5-0.7,0.5-1.1C39.4,23.9,40.1,19.5,40.7,15.7z M37.1,35
		c0-0.1,0.1-0.4,0.2-0.7s0.1-0.7,0.1-0.9c0-0.2-0.2-0.4-0.5-0.5c-3,2-6.4,3-10.2,3c-3.8,0-7.2-1-10.2-3l-0.3,0.2L16,33.4
		c0.5,2.9,0.9,4.8,1.1,5.9c0.9,1.5,2.8,2.5,5.7,3c4.6,0.9,8.6,0.4,11.9-1.5c0.6-0.4,1.1-0.8,1.4-1.4c0.3-0.6,0.5-1.4,0.6-2.4
		C36.9,36,37,35.3,37.1,35z M35.9,14.2c-0.4,0.4-0.9,0.7-1.5,0.9c-0.6,0.2-1.1,0.4-1.5,0.4c-0.4,0.1-1,0.1-1.8,0.2
		c-2.9,0.4-5.9,0.4-9,0c-0.8-0.1-1.4-0.2-1.8-0.3c-0.4-0.1-0.8-0.2-1.5-0.4c-0.6-0.2-1.1-0.5-1.5-0.9c0.2-0.4,0.6-0.6,1-0.9
		s0.8-0.4,1.1-0.4c0.3-0.1,0.8-0.1,1.3-0.2c3.7-0.7,7.5-0.7,11.4,0c0.6,0.1,1.1,0.2,1.4,0.2c0.3,0.1,0.7,0.2,1.2,0.4
		C35.3,13.5,35.6,13.8,35.9,14.2z M31.1,25.1c0.1,1.2-0.2,2.4-1,3.4s-1.8,1.6-3.1,1.7c-1.2,0.1-2.3-0.3-3.3-1.1
		c-1-0.9-1.5-1.9-1.6-3.2c0-0.9,0.2-1.8,0.7-2.6c0.5-0.8,1.2-1.4,2-1.8c1.3-0.6,2.6-0.5,3.9,0.3S30.9,23.7,31.1,25.1z M28.9,25.5
		c0-0.8-0.4-1.4-1.1-1.8c-0.8-0.4-1.5-0.4-2.1,0c-0.8,0.4-1.2,1-1.2,2c0,1,0.4,1.6,1.2,2c0.7,0.4,1.5,0.4,2.3-0.1
		C28.7,27,29,26.4,28.9,25.5z"/>
</g>
</svg>
