
<svg version="1.1" id="Layer_1" xmlns="http://www.w3.org/2000/svg" xmlns:xlink="http://www.w3.org/1999/xlink" x="0px" y="0px"
	 viewBox="0 0 54 54" style="enable-background:new 0 0 54 54;" xml:space="preserve">
<style type="text/css">
	.st0{fill:none;}
</style>
<g>
	<rect x="-0.2" y="0.1" class="st0" width="53.8" height="53.4"/>
	<path d="M26.6,49.3L2.4,31.7c-0.3-0.2-0.6-0.6-0.7-1c-0.1-0.4-0.1-0.8,0-1.2L4.5,21L26.6,49.3z M11.9,3.9L17.4,21H4.5l5.5-17.1
		c0.1-0.4,0.5-0.6,0.9-0.6C11.5,3.2,11.8,3.5,11.9,3.9z M17.4,21h18.4l-9.2,28.3L17.4,21z M51.6,29.6c0.1,0.4,0.1,0.8,0,1.2
		c-0.1,0.4-0.4,0.7-0.7,1L26.6,49.3L48.7,21L51.6,29.6z M48.7,21H35.9l5.5-17.1c0.1-0.4,0.5-0.6,0.9-0.6c0.5,0,0.8,0.2,0.9,0.6
		L48.7,21z"/>
</g>
<g>
</g>
<g>
</g>
<g>
</g>
<g>
</g>
<g>
</g>
<g>
</g>
<g>
</g>
<g>
</g>
<g>
</g>
<g>
</g>
<g>
</g>
</svg>
