<svg width="593" height="121" viewBox="0 0 593 121" fill="none" xmlns="http://www.w3.org/2000/svg">
<path fill-rule="evenodd" clip-rule="evenodd" d="M70.6027 10.8667C70.8414 16.6307 66.3752 21.4974 60.6272 21.7368C35.8136 22.7702 20.7586 42.2726 21.496 60.7905C21.7255 66.5548 17.2515 71.4144 11.5031 71.6446C5.7547 71.8747 0.908612 67.3883 0.679085 61.624C-0.522491 31.4473 23.6092 2.3691 59.7627 0.863496C65.5108 0.62412 70.364 5.10272 70.6027 10.8667Z" fill="#53D096"/>
<path fill-rule="evenodd" clip-rule="evenodd" d="M0.662481 57.7649C0.48497 58.5291 0.391113 59.3255 0.391113 60.1439C0.391113 96.7496 30.1956 120.96 60.4353 120.213C66.1866 120.071 70.7341 115.281 70.5926 109.514C70.4511 103.747 65.674 99.1864 59.9228 99.3284C41.3998 99.7854 22.8558 85.507 21.3262 63.1413C20.4514 67.8213 16.4489 71.4465 11.5029 71.6445C5.75444 71.8747 0.908351 67.3883 0.678824 61.6239C0.627498 60.3349 0.622396 59.0479 0.662481 57.7649Z" fill="#53D096" fill-opacity="0.7"/>
<path fill-rule="evenodd" clip-rule="evenodd" d="M119.208 60.2239C118.933 54.4615 114.051 50.0143 108.305 50.2907C102.558 50.5671 98.1233 55.4625 98.3989 61.2248C99.2039 78.0547 84.1227 98.6165 60.3171 99.2779C60.0277 99.2859 59.7415 99.3057 59.4587 99.3368C59.6134 99.335 59.7682 99.3322 59.9229 99.3284C65.6741 99.1865 70.4512 103.747 70.5927 109.514C70.7262 114.954 66.6874 119.525 61.4017 120.145C97.002 118.873 120.546 88.1941 119.208 60.2239Z" fill="#53D096" fill-opacity="0.4"/>
<path d="M82.4312 61.0559C82.4312 55.1496 87.2059 50.3616 93.0959 50.3616L108.638 50.3616C114.528 50.3616 119.303 55.1496 119.303 61.0559C119.303 66.9623 114.528 71.7503 108.638 71.7503H93.0959C87.2059 71.7503 82.4312 66.9623 82.4312 61.0559Z" fill="#53D096"/>
<path d="M49.3623 61.0714C49.3623 55.1565 54.1494 50.3615 60.0479 50.3615C65.9465 50.3615 70.7336 55.1565 70.7336 61.0714C70.7336 66.9863 65.9465 71.7813 60.0479 71.7813C54.1494 71.7813 49.3623 66.9863 49.3623 61.0714Z" fill="#53D096"/>
<path d="M274.955 22.0901C271.798 22.0901 269.43 24.4638 269.43 27.6286C269.43 30.7935 271.798 33.1672 274.842 33.1672C277.887 33.1672 280.368 30.7935 280.368 27.7417C280.368 24.5768 278 22.0901 274.955 22.0901Z" fill="white"/>
<path fill-rule="evenodd" clip-rule="evenodd" d="M187.375 52.7561H224.92L224.978 53.5642C225.093 55.1774 225.093 57.2348 225.093 57.9145V57.921C225.093 68.1483 222.788 75.3526 217.125 82.5341L217.124 82.5361L217.122 82.5381C209.744 91.7822 199.798 96.6562 188.135 96.6562C166.187 96.6562 150.162 79.8362 150.162 56.9037C150.162 33.6391 166.067 16.8121 188.135 16.8121C199.792 16.8121 209.854 21.6821 217.123 30.8183L217.658 31.4911L209.239 38.3228L208.684 37.702C205.755 34.4277 204.464 33.1449 202.534 31.855L202.519 31.8447L202.504 31.8338C198.487 28.8962 193.37 27.2551 188.135 27.2551C173.14 27.2551 161.605 39.8876 161.605 56.7907C161.605 73.4727 173.145 86.2133 187.909 86.2133C195.98 86.2133 204.389 81.935 208.843 75.5116L208.85 75.5003L208.859 75.4893C211.52 71.8978 212.646 68.5083 213.42 62.6338H187.375V52.7561ZM234.665 41.4529H244.981V47.3496C245.93 45.7299 246.92 44.6406 248.305 43.5604C251.076 41.387 254.883 40.2096 258.768 40.2096H261.67V50.7687L260.689 50.6457C259.848 50.5404 258.997 50.5395 258.43 50.5395C254.096 50.5395 250.308 52.5431 247.877 56.1458L247.875 56.1491L247.873 56.1523C245.752 59.2337 244.981 62.0903 244.981 67.9808V95.2999H234.665V41.4529ZM280 41.4529V95.2999H269.685V41.4529H280ZM331.485 47.8863C326.599 42.6168 320.922 40.2096 313.752 40.2096C299.075 40.2096 288.408 52.4592 288.408 68.659C288.408 84.8782 298.867 96.5432 313.752 96.5432C317.818 96.5432 321.323 95.7555 324.49 94.0196C327.029 92.6284 329.314 90.6484 331.485 88.0424V95.2999H341.801V18.1685H331.485V47.8863ZM389.186 57.4344H378.829V55.9995C378.829 53.8276 377.959 52.1033 376.439 50.9022C374.899 49.6849 372.627 48.9571 369.779 48.9571C367.043 48.9571 364.915 49.6563 363.489 50.7995C362.083 51.9273 361.292 53.5388 361.292 55.5474C361.292 56.6103 361.425 57.4359 361.72 58.1254C362.01 58.8031 362.481 59.4048 363.245 59.9838C364.826 61.1825 367.57 62.2208 372.265 63.5252C378.956 65.3441 382.636 67.0883 385.283 69.7412C388.039 72.5041 389.709 76.4547 389.709 80.5273C389.709 85.3066 387.733 89.3404 384.288 92.1632C380.857 94.9742 376.023 96.5432 370.342 96.5432C364.295 96.5432 359.448 95.1291 355.985 92.259C352.508 89.3778 350.543 85.1262 350.077 79.6971L349.996 78.7533H360.197L360.273 79.5402C360.538 82.3017 361.556 84.3298 363.189 85.6788C364.833 87.0373 367.206 87.7958 370.342 87.7958C373.131 87.7958 375.347 87.0698 376.847 85.8799C378.328 84.7044 379.168 83.0344 379.168 80.9794C379.168 79.9435 379 79.0866 378.652 78.3452C378.306 77.6072 377.759 76.9353 376.929 76.3003C375.235 75.004 372.428 73.9074 367.985 72.7798L367.978 72.7781L367.971 72.7763C362.273 71.2342 358.023 69.2351 355.192 66.5319C352.325 63.7944 350.976 60.3945 350.976 56.2255C350.976 51.4511 352.92 47.4178 356.322 44.5932C359.711 41.7798 364.49 40.2096 370.117 40.2096C375.785 40.2096 380.434 41.6594 383.737 44.4732C387.052 47.2979 388.91 51.4116 389.144 56.5249L389.186 57.4344ZM458.904 41.4529H469.22V46.8668C470.791 44.9064 472.478 43.3986 474.369 42.3172C476.924 40.8558 479.788 40.2096 483.12 40.2096C486.797 40.2096 489.886 41.0002 492.379 42.6916C494.457 44.1014 496.064 46.0981 497.254 48.6604C499.01 45.9827 501.01 43.9651 503.417 42.5735C506.25 40.936 509.57 40.2096 513.567 40.2096C519.727 40.2096 524.539 42.1963 527.458 46.0941C528.765 47.8212 529.613 49.4886 530.122 51.8004C530.623 54.0744 530.791 56.9523 530.791 61.0859V95.2999H520.475V63.1205C520.475 59.9472 520.418 58.06 520.217 56.7058C520.024 55.4023 519.7 54.6015 519.127 53.6101C517.745 51.2355 514.7 49.6352 510.861 49.6352C507.294 49.6352 504.632 50.8257 502.84 53.0168C501.025 55.236 500.006 58.6003 500.006 63.1205V95.2999H489.69V63.2335C489.69 58.1797 489.236 55.7648 488.105 53.7041L488.097 53.6891L488.09 53.6739C486.811 51.1108 484.017 49.6352 480.414 49.6352C476.862 49.6352 474.105 50.9007 472.219 53.1642C470.315 55.4486 469.22 58.8458 469.22 63.2335V95.2999H458.904V41.4529ZM592.074 72.0154H548.95C549.161 73.7118 549.44 75.0307 549.854 76.1963C550.339 77.5625 551.022 78.756 552.053 80.1159L552.058 80.1222L552.063 80.1286C555.281 84.5377 559.981 86.8915 565.34 86.8915C571.462 86.8915 577.255 83.5489 580.141 78.4072L580.507 77.7549L589.665 81.1801L589.241 82.0407C584.802 91.0575 575.579 96.5432 565.34 96.5432C549.388 96.5432 537.967 84.8288 537.967 68.546C537.967 52.0569 549.256 40.2096 565.002 40.2096C580.607 40.2096 592.262 52.0272 592.262 67.7547V67.7649C592.262 68.4425 592.262 69.9419 592.146 71.224L592.074 72.0154ZM268.557 27.6286C268.557 23.9881 271.311 21.2203 274.955 21.2203C278.521 21.2203 281.241 24.1365 281.241 27.7417C281.241 31.2925 278.35 34.0369 274.842 34.0369C271.299 34.0369 268.557 31.2573 268.557 27.6286ZM327.013 54.8103C324.22 51.5314 320.264 49.6352 315.556 49.6352C310.673 49.6352 306.604 51.5638 303.743 54.8847C300.873 58.2163 299.175 63.0044 299.175 68.772C299.175 74.3092 300.843 78.9583 303.631 82.2085C306.412 85.4491 310.342 87.3436 314.992 87.3436C324.443 87.3436 331.485 79.4784 331.485 68.546C331.485 62.8335 329.815 58.1002 327.013 54.8103ZM404.459 48.0315C409.319 43.0574 416.206 40.2096 424.311 40.2096C440.168 40.2096 451.459 52.0543 451.459 68.546C451.459 84.2688 439.357 96.5432 423.973 96.5432C416.026 96.5432 409.224 93.6317 404.411 88.6168C399.601 83.6047 396.825 76.5427 396.825 68.3199C396.825 60.0413 399.601 53.0038 404.459 48.0315ZM436.333 54.9266C433.452 51.7189 429.325 49.8613 424.311 49.8613C419.179 49.8613 414.966 51.7234 412.03 54.9324C409.087 58.1488 407.367 62.7867 407.367 68.4329C407.367 74.0206 409.086 78.6311 412.016 81.8346C414.939 85.0311 419.125 86.8915 424.198 86.8915C433.901 86.8915 440.917 79.3365 440.917 68.4329C440.917 62.7831 439.222 58.1429 436.333 54.9266ZM549.119 63.9462H581.295C580.928 60.5961 580.17 58.6375 578.614 56.3931C575.509 52.214 570.473 49.6352 565.002 49.6352C559.532 49.6352 554.626 52.2106 551.75 56.475C550.391 58.6182 549.731 60.4898 549.119 63.9462ZM274.955 22.0901C271.798 22.0901 269.43 24.4638 269.43 27.6286C269.43 30.7935 271.798 33.1672 274.842 33.1672C277.887 33.1672 280.368 30.7935 280.368 27.7417C280.368 24.5768 278 22.0901 274.955 22.0901Z" fill="white"/>
</svg>
