<svg width="138" height="27" viewBox="0 0 138 27" fill="none" xmlns="http://www.w3.org/2000/svg">
<rect y="0.351379" width="26.5593" height="26.5593" rx="13.2796" fill="#00A672"/>
<g clip-path="url(#clip0)">
<path d="M47.2989 15.4235H51.5413C51.3265 16.2164 50.9878 16.935 50.5251 17.5793C50.0789 18.207 49.4923 18.7108 48.7653 19.0908C48.0382 19.4707 47.1542 19.6607 46.1132 19.6607C44.973 19.6607 43.9403 19.3964 43.0149 18.8678C42.1061 18.3392 41.3873 17.6041 40.8585 16.6625C40.3297 15.7043 40.0654 14.5976 40.0654 13.3421C40.0654 12.0701 40.3297 10.9716 40.8585 10.0465C41.4038 9.10492 42.1309 8.37808 43.0397 7.86598C43.965 7.35389 44.9895 7.09784 46.1132 7.09784C47.3194 7.09784 48.3439 7.34563 49.1866 7.8412C50.0459 8.33678 50.7151 8.99755 51.1943 9.82351L53.5738 8.21288C52.8137 7.00698 51.7974 6.06539 50.5251 5.3881C49.2693 4.71081 47.7986 4.37217 46.1132 4.37217C44.8078 4.37217 43.5932 4.59518 42.4696 5.0412C41.3625 5.4707 40.3958 6.08191 39.5696 6.87483C38.76 7.66775 38.1238 8.61761 37.6611 9.72439C37.215 10.8147 36.9919 12.0206 36.9919 13.3421C36.9919 14.6636 37.215 15.8778 37.6611 16.9846C38.1073 18.0914 38.7352 19.0495 39.5449 19.8589C40.3711 20.6684 41.3377 21.2961 42.4448 21.7421C43.5519 22.1716 44.7582 22.3864 46.0636 22.3864C47.4516 22.3864 48.6827 22.1386 49.7567 21.643C50.8308 21.1309 51.7314 20.4371 52.4584 19.5616C53.1855 18.6861 53.7308 17.6866 54.0943 16.5633C54.4578 15.4235 54.6231 14.2176 54.59 12.9456H47.6528L47.2989 15.4235Z" fill="#00A672"/>
<path d="M62.6465 13.4908L63.9601 11.2111C63.6957 10.9138 63.3818 10.699 63.0183 10.5669C62.6547 10.4347 62.2664 10.3686 61.8533 10.3686C61.3741 10.3686 60.9032 10.5173 60.4405 10.8147C59.9778 11.0955 59.5813 11.4919 59.2508 12.004V10.6164H56.5987V22.0147H59.2508V15.597C59.2508 14.771 59.3995 14.1102 59.6969 13.6147C59.9944 13.1191 60.4736 12.8713 61.1345 12.8713C61.465 12.8713 61.7376 12.9291 61.9525 13.0448C62.1673 13.1439 62.3986 13.2925 62.6465 13.4908Z" fill="#00A672"/>
<path d="M65.3015 10.6164V22.0147H67.9288V10.6164H65.3015ZM64.9297 6.43557C64.9297 6.89811 65.0949 7.28631 65.4254 7.60018C65.7559 7.91404 66.1525 8.07097 66.6151 8.07097C67.0943 8.07097 67.4992 7.91404 67.8297 7.60018C68.1601 7.28631 68.3254 6.89811 68.3254 6.43557C68.3254 5.97304 68.1601 5.58483 67.8297 5.27097C67.4992 4.9571 67.0943 4.80017 66.6151 4.80017C66.1525 4.80017 65.7559 4.9571 65.4254 5.27097C65.0949 5.58483 64.9297 5.97304 64.9297 6.43557Z" fill="#00A672"/>
<path d="M72.4237 16.3156C72.4237 15.1757 72.7624 14.292 73.4399 13.6642C74.1174 13.02 74.9188 12.6978 75.8442 12.6978C76.3564 12.6978 76.8604 12.8383 77.3561 13.1191C77.8518 13.3999 78.2649 13.8129 78.5954 14.358C78.9259 14.8866 79.0911 15.5392 79.0911 16.3156C79.0911 17.092 78.9259 17.7527 78.5954 18.2979C78.2649 18.8265 77.8518 19.2312 77.3561 19.512C76.8604 19.7928 76.3564 19.9333 75.8442 19.9333C74.9188 19.9333 74.1174 19.6194 73.4399 18.9917C72.7624 18.3474 72.4237 17.4554 72.4237 16.3156ZM69.6476 16.3156C69.6476 17.571 69.9038 18.6448 70.416 19.5368C70.9282 20.4123 71.6057 21.0896 72.4485 21.5687C73.2912 22.0312 74.2083 22.2625 75.1997 22.2625C76.0259 22.2625 76.7695 22.0808 77.4305 21.7173C78.108 21.3374 78.6615 20.8088 79.0911 20.1315V22.0147H81.7928V3.50064H79.0911V12.4996C78.6615 11.8223 78.108 11.302 77.4305 10.9386C76.7695 10.5586 76.0259 10.3686 75.1997 10.3686C74.2083 10.3686 73.2912 10.6082 72.4485 11.0872C71.6057 11.5498 70.9282 12.2271 70.416 13.1191C69.9038 13.9946 69.6476 15.0601 69.6476 16.3156Z" fill="#00A672"/>
<path d="M84.8352 17.9014L83.2737 19.4129C83.8025 20.2554 84.5047 20.9575 85.3805 21.5191C86.2728 22.0808 87.2725 22.3616 88.3796 22.3616C89.5859 22.3616 90.5691 22.0725 91.3292 21.4943C92.1058 20.8996 92.4941 19.9993 92.4941 18.7934C92.4941 18.1161 92.3454 17.5628 92.048 17.1333C91.7505 16.7038 91.3622 16.3486 90.883 16.0678C90.4038 15.7704 89.8916 15.5144 89.3463 15.2996C88.9167 15.1179 88.4788 14.9527 88.0326 14.804C87.603 14.6554 87.2477 14.4819 86.9668 14.2837C86.6859 14.0855 86.5455 13.8294 86.5455 13.5155C86.5455 13.1686 86.6777 12.9209 86.942 12.7722C87.2229 12.607 87.5947 12.5244 88.0574 12.5244C88.5201 12.5244 88.9993 12.6566 89.495 12.9209C90.0073 13.1852 90.4534 13.5238 90.8335 13.9368L92.3206 12.4005C91.891 11.8223 91.2796 11.3433 90.4865 10.9633C89.7098 10.5669 88.8588 10.3686 87.9335 10.3686C87.256 10.3686 86.6198 10.4925 86.025 10.7403C85.4301 10.9881 84.9509 11.3433 84.5874 11.8058C84.2238 12.2683 84.0421 12.83 84.0421 13.4908C84.0421 14.2011 84.199 14.7793 84.513 15.2253C84.8435 15.6548 85.2566 16.0017 85.7523 16.266C86.248 16.5303 86.7603 16.7698 87.289 16.9846C87.95 17.2324 88.5284 17.4967 89.0241 17.7775C89.5363 18.0583 89.7924 18.4465 89.7924 18.9421C89.7924 19.3221 89.652 19.6111 89.3711 19.8094C89.1067 19.9911 88.7349 20.0819 88.2557 20.0819C87.76 20.0819 87.1982 19.8837 86.5702 19.4872C85.9589 19.0743 85.3805 18.5456 84.8352 17.9014Z" fill="#00A672"/>
<path d="M96.3646 16.3156C96.3646 15.2418 96.6868 14.3745 97.3312 13.7138C97.9922 13.053 98.8019 12.7226 99.7603 12.7226C100.735 12.7226 101.545 13.053 102.189 13.7138C102.834 14.3745 103.156 15.2418 103.156 16.3156C103.156 17.3728 102.834 18.24 102.189 18.9173C101.545 19.5781 100.735 19.9085 99.7603 19.9085C98.8019 19.9085 97.9922 19.5781 97.3312 18.9173C96.6868 18.24 96.3646 17.3728 96.3646 16.3156ZM93.6133 16.3156C93.6133 17.4884 93.8777 18.5209 94.4065 19.4129C94.9518 20.3049 95.6871 21.007 96.6124 21.5191C97.5543 22.0147 98.6036 22.2625 99.7603 22.2625C100.933 22.2625 101.983 22.0147 102.908 21.5191C103.833 21.007 104.561 20.3049 105.089 19.4129C105.635 18.5209 105.907 17.4884 105.907 16.3156C105.907 15.1427 105.635 14.1102 105.089 13.2182C104.561 12.3262 103.833 11.6324 102.908 11.1368C101.983 10.6247 100.933 10.3686 99.7603 10.3686C98.6036 10.3686 97.5543 10.6247 96.6124 11.1368C95.6871 11.6324 94.9518 12.3262 94.4065 13.2182C93.8777 14.1102 93.6133 15.1427 93.6133 16.3156Z" fill="#00A672"/>
<path d="M123.79 14.7793C123.79 13.3421 123.493 12.2518 122.898 11.5085C122.303 10.7486 121.386 10.3686 120.146 10.3686C119.386 10.3686 118.692 10.5504 118.064 10.9138C117.436 11.2607 116.932 11.748 116.552 12.3757C116.04 11.0377 114.95 10.3686 113.281 10.3686C112.537 10.3686 111.893 10.5421 111.347 10.889C110.819 11.2359 110.397 11.6984 110.083 12.2766V10.6164H107.456V22.0147H110.083V15.0766C110.083 14.3167 110.273 13.7055 110.653 13.243C111.05 12.7639 111.612 12.5244 112.339 12.5244C113.033 12.5244 113.52 12.7474 113.801 13.1934C114.082 13.6229 114.222 14.2507 114.222 15.0766V22.0147H116.924V15.0766C116.924 14.3167 117.114 13.7055 117.494 13.243C117.891 12.7639 118.453 12.5244 119.18 12.5244C119.874 12.5244 120.361 12.7474 120.642 13.1934C120.94 13.6229 121.088 14.2507 121.088 15.0766V22.0147H123.79V14.7793Z" fill="#00A672"/>
<path d="M128.182 16.935H137.278C137.295 16.8029 137.303 16.6707 137.303 16.5386C137.319 16.4064 137.328 16.2908 137.328 16.1917C137.328 14.3911 136.568 12.9704 135.543 11.9297C134.535 10.889 133.147 10.3686 131.379 10.3686C129.743 10.3686 128.413 10.8064 127.389 11.6819C126.381 12.5574 125.761 13.6973 125.53 15.1014C125.497 15.2996 125.472 15.4979 125.455 15.6961C125.439 15.8943 125.43 16.1008 125.43 16.3156C125.43 17.4554 125.67 18.4796 126.149 19.3881C126.628 20.2802 127.306 20.9822 128.182 21.4943C129.057 22.0064 130.082 22.2625 131.255 22.2625C132.676 22.2625 133.841 21.9816 134.75 21.42C135.675 20.8583 136.667 20.115 137.229 19.1899L134.651 18.2483C134.32 18.81 133.883 19.256 133.337 19.5864C132.808 19.9002 132.156 20.0572 131.379 20.0572C130.503 20.0572 129.776 19.8011 129.198 19.289C128.62 18.7604 128.281 17.9757 128.182 16.935ZM128.231 15.0766C128.347 14.2341 128.694 13.5816 129.272 13.1191C129.851 12.64 130.545 12.4005 131.354 12.4005C132.214 12.4005 132.875 12.64 133.337 13.1191C133.8 13.5981 134.081 14.2507 134.18 15.0766H128.231Z" fill="#00A672"/>
</g>
<path fill-rule="evenodd" clip-rule="evenodd" d="M4.18213 13.6151C4.20496 19.1546 8.75468 22.815 13.3548 22.7019C18.7857 22.5082 22.709 17.7937 22.3827 13.5854C22.3071 12.7113 21.5313 12.0338 20.655 12.0758C19.7786 12.1178 19.1023 12.8618 19.1443 13.7375C19.2671 16.2951 16.907 19.4275 13.2766 19.528C10.3927 19.599 7.50549 17.3359 7.37928 13.8139C7.34573 14.6306 6.70162 15.2975 5.86963 15.3307C4.99297 15.3657 4.22205 14.6587 4.18704 13.7827C4.18481 13.7268 4.18317 13.6709 4.18213 13.6151Z" fill="url(#paint0_linear)"/>
<path d="M11.6685 13.6987C11.6685 12.7998 12.3986 12.0711 13.2981 12.0711C14.1977 12.0711 14.9277 12.7998 14.9277 13.6987C14.9277 14.5976 14.1977 15.3263 13.2981 15.3263C12.3986 15.3263 11.6685 14.5976 11.6685 13.6987Z" fill="white"/>
<path d="M16.6865 13.6963C16.6865 12.7987 17.4212 12.0711 18.3275 12.0711H20.719C21.6253 12.0711 22.3827 12.7987 22.3827 13.6963C22.3827 14.5939 21.6253 15.3215 20.719 15.3215H18.3275C17.4212 15.3215 16.6865 14.5939 16.6865 13.6963Z" fill="white"/>
<path fill-rule="evenodd" clip-rule="evenodd" d="M14.8826 6.09433C14.919 6.97029 14.2379 7.70988 13.3613 7.74625C9.57712 7.90329 7.26695 10.8671 7.3794 13.6812C7.4144 14.5572 6.74634 15.2957 5.86968 15.3307C4.99303 15.3657 4.22211 14.6587 4.1871 13.7827C4.00386 9.19675 7.83576 4.66318 13.2294 4.57415C14.106 4.53777 14.8462 5.21838 14.8826 6.09433Z" fill="white"/>
<defs>
<linearGradient id="paint0_linear" x1="13.6959" y1="23.6216" x2="13.6959" y2="13.3664" gradientUnits="userSpaceOnUse">
<stop stop-color="white" stop-opacity="0.95"/>
<stop offset="1" stop-color="white" stop-opacity="0.5"/>
</linearGradient>
<clipPath id="clip0">
<rect width="101.008" height="18.7796" fill="white" transform="translate(36.9919 3.57169)"/>
</clipPath>
</defs>
</svg>