<svg width="512" height="512" viewBox="0 0 512 512" fill="none" xmlns="http://www.w3.org/2000/svg">
<rect width="512" height="512" rx="256" fill="#00A672"/>
<path fill-rule="evenodd" clip-rule="evenodd" d="M84.0972 256.159C84.5066 360.915 170.485 430.139 257.416 428C360.034 424.338 434.165 335.203 428 255.638C426.571 239.112 411.913 226.303 395.355 227.098C378.796 227.892 366.016 241.957 366.811 258.514C369.13 306.869 324.537 366.093 255.939 367.993C201.45 369.333 146.897 326.55 144.508 259.967C143.871 275.404 131.701 288.008 115.983 288.635C99.4189 289.296 84.8521 275.93 84.1908 259.368C84.148 258.298 84.1169 257.229 84.0972 256.159Z" fill="url(#paint0_linear)"/>
<path d="M225.554 257.78C225.554 240.785 239.348 227.008 256.345 227.008C273.342 227.008 287.137 240.785 287.137 257.78C287.137 274.775 273.342 288.552 256.345 288.552C239.348 288.552 225.554 274.775 225.554 257.78Z" fill="white"/>
<path d="M320.368 257.735C320.368 240.765 334.25 227.008 351.375 227.008H396.563C413.688 227.008 428 240.765 428 257.735C428 274.705 413.688 288.462 396.563 288.462H351.375C334.25 288.462 320.368 274.705 320.368 257.735Z" fill="white"/>
<path fill-rule="evenodd" clip-rule="evenodd" d="M286.284 114.008C286.971 130.569 274.102 144.552 257.538 145.24C186.036 148.209 142.385 204.243 144.51 257.449C145.171 274.011 132.548 287.974 115.983 288.635C99.4189 289.296 84.8521 275.93 84.1907 259.367C80.7283 172.664 153.133 86.95 255.047 85.2667C271.611 84.5789 285.596 97.4468 286.284 114.008Z" fill="white"/>
<defs>
<linearGradient id="paint0_linear" x1="263.862" y1="445.388" x2="263.862" y2="251.498" gradientUnits="userSpaceOnUse">
<stop stop-color="white" stop-opacity="0.95"/>
<stop offset="1" stop-color="white" stop-opacity="0.5"/>
</linearGradient>
</defs>
</svg>
