<svg width="2122" height="566" viewBox="0 0 2122 566" fill="none" xmlns="http://www.w3.org/2000/svg">
<path d="M1067.66 157.584C1057.17 157.584 1049.3 165.491 1049.3 176.035C1049.3 186.579 1057.17 194.487 1067.29 194.487C1077.4 194.487 1085.65 186.579 1085.65 176.412C1085.65 165.868 1077.78 157.584 1067.66 157.584Z" fill="white"/>
<path fill-rule="evenodd" clip-rule="evenodd" d="M810.075 259.747H901.406L901.598 262.439C901.98 267.813 901.98 274.668 901.98 276.932V276.954C901.98 311.026 894.321 335.027 875.506 358.952L875.5 358.959L875.495 358.966C850.98 389.762 817.929 406 779.176 406C706.248 406 653 349.964 653 273.565C653 196.059 705.851 140 779.176 140C817.912 140 851.345 156.224 875.498 186.661L877.276 188.903L849.3 211.663L847.455 209.595C837.724 198.686 833.436 194.413 827.022 190.115L826.97 190.081L826.921 190.045C813.576 180.258 796.572 174.791 779.176 174.791C729.352 174.791 691.024 216.876 691.024 273.188C691.024 328.764 729.367 371.209 778.427 371.209C805.245 371.209 833.186 356.956 847.983 335.557L848.009 335.519L848.037 335.482C856.881 323.518 860.62 312.225 863.195 292.655H810.075V259.747ZM933.786 222.091H968.063V241.735C971.215 236.339 974.505 232.71 979.109 229.112C988.315 221.871 1000.97 217.948 1013.87 217.948H1023.52V253.126L1020.26 252.716C1017.46 252.365 1014.63 252.362 1012.75 252.362C998.352 252.362 985.765 259.037 977.686 271.04L977.679 271.051L977.671 271.061C970.627 281.327 968.063 290.844 968.063 310.468V401.481H933.786V222.091ZM1084.42 222.091V401.481H1050.15V222.091H1084.42ZM1255.5 243.523C1239.26 225.968 1220.4 217.948 1196.57 217.948C1147.8 217.948 1112.36 258.758 1112.36 312.727C1112.36 366.762 1147.11 405.623 1196.57 405.623C1210.08 405.623 1221.73 402.999 1232.25 397.216C1240.69 392.581 1248.28 385.985 1255.5 377.303V401.481H1289.77V144.519H1255.5V243.523ZM1447.22 275.333H1412.81V270.552C1412.81 263.317 1409.92 257.572 1404.87 253.571C1399.75 249.515 1392.2 247.091 1382.74 247.091C1373.65 247.091 1366.58 249.42 1361.84 253.229C1357.17 256.986 1354.54 262.355 1354.54 269.046C1354.54 272.587 1354.98 275.338 1355.96 277.635C1356.93 279.892 1358.49 281.897 1361.03 283.826C1366.28 287.819 1375.4 291.279 1391 295.624C1413.23 301.684 1425.46 307.495 1434.25 316.333C1443.41 325.537 1448.96 338.699 1448.96 352.266C1448.96 368.189 1442.4 381.627 1430.95 391.031C1419.55 400.396 1403.49 405.623 1384.61 405.623C1364.52 405.623 1348.41 400.912 1336.9 391.35C1325.35 381.752 1318.82 367.588 1317.27 349.501L1317 346.356H1350.9L1351.15 348.978C1352.03 358.178 1355.42 364.935 1360.84 369.429C1366.3 373.954 1374.19 376.481 1384.61 376.481C1393.88 376.481 1401.24 374.063 1406.22 370.099C1411.15 366.183 1413.94 360.619 1413.94 353.773C1413.94 350.322 1413.38 347.467 1412.22 344.997C1411.07 342.538 1409.26 340.3 1406.5 338.184C1400.87 333.866 1391.54 330.212 1376.78 326.456L1376.75 326.45L1376.73 326.444C1357.8 321.307 1343.68 314.647 1334.27 305.641C1324.74 296.521 1320.26 285.194 1320.26 271.305C1320.26 255.399 1326.72 241.963 1338.03 232.552C1349.29 223.18 1365.17 217.948 1383.86 217.948C1402.69 217.948 1418.14 222.778 1429.12 232.153C1440.13 241.563 1446.31 255.268 1447.08 272.303L1447.22 275.333ZM1678.88 222.091H1713.16V240.127C1718.38 233.596 1723.98 228.573 1730.27 224.97C1738.76 220.101 1748.27 217.948 1759.34 217.948C1771.56 217.948 1781.83 220.583 1790.11 226.217C1797.01 230.914 1802.35 237.566 1806.31 246.102C1812.14 237.182 1818.79 230.46 1826.79 225.824C1836.2 220.369 1847.23 217.948 1860.51 217.948C1880.98 217.948 1896.97 224.567 1906.67 237.553C1911.01 243.306 1913.83 248.861 1915.52 256.563C1917.19 264.139 1917.75 273.726 1917.75 287.498V401.481H1883.47V294.276C1883.47 283.704 1883.28 277.417 1882.61 272.906C1881.97 268.563 1880.89 265.895 1878.99 262.592C1874.4 254.681 1864.28 249.35 1851.52 249.35C1839.67 249.35 1830.82 253.316 1824.87 260.616C1818.84 268.009 1815.45 279.217 1815.45 294.276V401.481H1781.18V294.652C1781.18 277.816 1779.67 269.77 1775.91 262.905L1775.88 262.855L1775.86 262.805C1771.61 254.266 1762.32 249.35 1750.35 249.35C1738.55 249.35 1729.39 253.566 1723.12 261.107C1716.8 268.717 1713.16 280.035 1713.16 294.652V401.481H1678.88V222.091ZM2121.37 323.909H1978.08C1978.78 329.561 1979.71 333.955 1981.09 337.838C1982.7 342.389 1984.97 346.365 1988.4 350.896L1988.41 350.917L1988.43 350.938C1999.12 365.627 2014.74 373.469 2032.54 373.469C2052.89 373.469 2072.13 362.333 2081.72 345.204L2082.94 343.03L2113.37 354.441L2111.96 357.309C2097.21 387.348 2066.57 405.623 2032.54 405.623C1979.54 405.623 1941.59 366.597 1941.59 312.351C1941.59 257.418 1979.1 217.948 2031.42 217.948C2083.27 217.948 2122 257.319 2122 309.715V309.749C2122 312.006 2122 317.001 2121.61 321.273L2121.37 323.909ZM1046.4 176.035C1046.4 163.907 1055.55 154.686 1067.66 154.686C1079.51 154.686 1088.55 164.401 1088.55 176.412C1088.55 188.241 1078.94 197.384 1067.29 197.384C1055.51 197.384 1046.4 188.124 1046.4 176.035ZM1240.64 266.591C1231.36 255.667 1218.21 249.35 1202.57 249.35C1186.34 249.35 1172.82 255.775 1163.32 266.839C1153.78 277.938 1148.14 293.889 1148.14 313.104C1148.14 331.551 1153.68 347.039 1162.95 357.867C1172.18 368.663 1185.24 374.975 1200.69 374.975C1232.1 374.975 1255.5 348.772 1255.5 312.351C1255.5 293.32 1249.95 277.551 1240.64 266.591ZM1497.97 244.007C1514.12 227.436 1537 217.948 1563.94 217.948C1616.62 217.948 1654.14 257.409 1654.14 312.351C1654.14 364.731 1613.93 405.623 1562.81 405.623C1536.41 405.623 1513.81 395.924 1497.81 379.217C1481.83 362.519 1472.61 338.992 1472.61 311.598C1472.61 284.018 1481.83 260.572 1497.97 244.007ZM1603.88 266.978C1594.31 256.292 1580.6 250.103 1563.94 250.103C1546.88 250.103 1532.88 256.307 1523.13 266.997C1513.35 277.713 1507.63 293.164 1507.63 311.974C1507.63 330.589 1513.35 345.949 1523.08 356.622C1532.8 367.271 1546.7 373.469 1563.56 373.469C1595.8 373.469 1619.12 348.3 1619.12 311.974C1619.12 293.152 1613.48 277.693 1603.88 266.978ZM1978.64 297.027H2085.56C2084.34 285.866 2081.82 279.341 2076.65 271.864C2066.33 257.941 2049.6 249.35 2031.42 249.35C2013.25 249.35 1996.94 257.93 1987.39 272.137C1982.87 279.277 1980.68 285.512 1978.64 297.027ZM1067.66 157.584C1057.17 157.584 1049.3 165.491 1049.3 176.035C1049.3 186.579 1057.17 194.487 1067.29 194.487C1077.4 194.487 1085.65 186.579 1085.65 176.412C1085.65 165.868 1077.78 157.584 1067.66 157.584Z" fill="white"/>
<path opacity="0.5" d="M252.925 497.054L279.125 512.156L469.2 165.988L443 150.886L252.925 497.054Z" fill="url(#paint0_linear)"/>
<path opacity="0.5" d="M238.35 522.357L264.55 507.255L68.4414 148.845L42.2419 163.948L238.35 522.357Z" fill="url(#paint1_linear)"/>
<path opacity="0.7" d="M59.9909 397.239L44.8645 423.398L228.611 533.799L243.737 507.641L59.9909 397.239Z" fill="url(#paint2_linear)"/>
<path opacity="0.7" d="M275.295 540.163L463.131 424.195L448.005 398.036L260.168 514.005L275.295 540.163Z" fill="url(#paint3_linear)"/>
<path opacity="0.7" d="M451.485 380.989L481.738 380.988L481.736 171.668L451.485 158.861V380.989Z" fill="url(#paint4_linear)"/>
<path opacity="0.7" d="M272.903 30.126L263.359 57.8791L446.128 160.658L449.733 142.579L461.255 134.499L272.903 30.126Z" fill="url(#paint5_linear)"/>
<path opacity="0.7" d="M58.3956 161.447L231.229 61.3017L220.09 31.9536L43.2695 135.288L58.3956 161.447Z" fill="url(#paint6_linear)"/>
<path opacity="0.7" d="M25.6621 379.18L55.9148 379.179L55.9124 180.273L25.6597 180.274L25.6621 379.18Z" fill="url(#paint7_linear)"/>
<path d="M272.498 330.473L208.818 212.829L340.435 213.161L359.409 180.001L147.176 180.005L200.35 271.819L253.524 363.634L272.498 330.473Z" fill="url(#paint8_linear)"/>
<path d="M321.512 245.414L272.498 330.473L248.447 305.801L283.071 245.41L321.512 245.414Z" fill="url(#paint9_linear)"/>
<path d="M262.862 245.414H287.25L275.056 266.681L262.862 245.414Z" fill="url(#paint10_linear)"/>
<path d="M70.2607 156.802C70.2607 173.298 56.8878 186.671 40.3915 186.671C23.8951 186.671 10.5222 173.298 10.5222 156.802C10.5222 140.305 23.8951 126.932 40.3915 126.932C56.8878 126.932 70.2607 140.305 70.2607 156.802Z" fill="url(#paint11_linear)"/>
<path d="M279.345 38.3546C279.345 54.8509 265.973 68.2239 249.476 68.2239C232.98 68.2239 219.607 54.8509 219.607 38.3546C219.607 21.8583 232.98 8.48535 249.476 8.48535C265.973 8.48535 279.345 21.8583 279.345 38.3546Z" fill="url(#paint12_linear)"/>
<path d="M496.67 399.876C496.67 416.372 483.297 429.745 466.801 429.745C450.304 429.745 436.932 416.372 436.932 399.876C436.932 383.379 450.304 370.006 466.801 370.006C483.297 370.006 496.67 383.379 496.67 399.876Z" fill="url(#paint13_linear)"/>
<path d="M284.495 525.532C284.495 542.029 271.122 555.402 254.626 555.402C238.13 555.402 224.757 542.029 224.757 525.532C224.757 509.036 238.13 495.663 254.626 495.663C271.122 495.663 284.495 509.036 284.495 525.532Z" fill="url(#paint14_linear)"/>
<path d="M71.2907 399.876C71.2907 416.372 57.9178 429.745 41.4214 429.745C24.9251 429.745 11.5522 416.372 11.5522 399.876C11.5522 383.379 24.9251 370.006 41.4214 370.006C57.9178 370.006 71.2907 383.379 71.2907 399.876Z" fill="url(#paint15_linear)"/>
<path d="M496.67 156.802C496.67 173.298 483.297 186.671 466.801 186.671C450.304 186.671 436.932 173.298 436.932 156.802C436.932 140.305 450.304 126.932 466.801 126.932C483.297 126.932 496.67 140.305 496.67 156.802Z" fill="url(#paint16_linear)"/>
<defs>
<linearGradient id="paint0_linear" x1="221.835" y1="178.134" x2="487.995" y2="605.38" gradientUnits="userSpaceOnUse">
<stop stop-color="#65D4BB"/>
<stop offset="1" stop-color="#65D4BB"/>
</linearGradient>
<linearGradient id="paint1_linear" x1="10.2844" y1="177.017" x2="286.167" y2="617.301" gradientUnits="userSpaceOnUse">
<stop stop-color="#65D4BB"/>
<stop offset="1" stop-color="#65D4BB"/>
</linearGradient>
<linearGradient id="paint2_linear" x1="16.2758" y1="407.539" x2="70.1511" y2="617.917" gradientUnits="userSpaceOnUse">
<stop stop-color="#65D4BB"/>
<stop offset="1" stop-color="#65D4BB"/>
</linearGradient>
<linearGradient id="paint3_linear" x1="230.992" y1="408.756" x2="288.033" y2="627.173" gradientUnits="userSpaceOnUse">
<stop stop-color="#65D4BB"/>
<stop offset="1" stop-color="#65D4BB"/>
</linearGradient>
<linearGradient id="paint4_linear" x1="447.136" y1="175.615" x2="564.631" y2="218.523" gradientUnits="userSpaceOnUse">
<stop stop-color="#65D4BB"/>
<stop offset="1" stop-color="#65D4BB"/>
</linearGradient>
<linearGradient id="paint5_linear" x1="234.91" y1="39.9711" x2="284.614" y2="242.024" gradientUnits="userSpaceOnUse">
<stop stop-color="#65D4BB"/>
<stop offset="1" stop-color="#65D4BB"/>
</linearGradient>
<linearGradient id="paint6_linear" x1="16.2496" y1="41.7203" x2="67.4849" y2="241.13" gradientUnits="userSpaceOnUse">
<stop stop-color="#65D4BB"/>
<stop offset="1" stop-color="#65D4BB"/>
</linearGradient>
<linearGradient id="paint7_linear" x1="21.3104" y1="195.276" x2="135.491" y2="241.845" gradientUnits="userSpaceOnUse">
<stop stop-color="#65D4BB"/>
<stop offset="1" stop-color="#65D4BB"/>
</linearGradient>
<linearGradient id="paint8_linear" x1="116.667" y1="193.851" x2="204.767" y2="466.871" gradientUnits="userSpaceOnUse">
<stop stop-color="#65D4BB"/>
<stop offset="1" stop-color="#65D4BB"/>
</linearGradient>
<linearGradient id="paint9_linear" x1="116.667" y1="193.851" x2="204.767" y2="466.871" gradientUnits="userSpaceOnUse">
<stop stop-color="#65D4BB"/>
<stop offset="1" stop-color="#65D4BB"/>
</linearGradient>
<linearGradient id="paint10_linear" x1="116.667" y1="193.851" x2="204.767" y2="466.871" gradientUnits="userSpaceOnUse">
<stop stop-color="#65D4BB"/>
<stop offset="1" stop-color="#65D4BB"/>
</linearGradient>
<linearGradient id="paint11_linear" x1="-59.3633" y1="49.7354" x2="260.939" y2="813.16" gradientUnits="userSpaceOnUse">
<stop stop-color="#65D4BB"/>
<stop offset="1" stop-color="#65D4BB"/>
</linearGradient>
<linearGradient id="paint12_linear" x1="-59.3633" y1="49.7354" x2="260.939" y2="813.16" gradientUnits="userSpaceOnUse">
<stop stop-color="#65D4BB"/>
<stop offset="1" stop-color="#65D4BB"/>
</linearGradient>
<linearGradient id="paint13_linear" x1="-59.3633" y1="49.7354" x2="260.939" y2="813.16" gradientUnits="userSpaceOnUse">
<stop stop-color="#65D4BB"/>
<stop offset="1" stop-color="#65D4BB"/>
</linearGradient>
<linearGradient id="paint14_linear" x1="-59.3633" y1="49.7354" x2="260.939" y2="813.16" gradientUnits="userSpaceOnUse">
<stop stop-color="#65D4BB"/>
<stop offset="1" stop-color="#65D4BB"/>
</linearGradient>
<linearGradient id="paint15_linear" x1="-59.3633" y1="49.7354" x2="260.939" y2="813.16" gradientUnits="userSpaceOnUse">
<stop stop-color="#65D4BB"/>
<stop offset="1" stop-color="#65D4BB"/>
</linearGradient>
<linearGradient id="paint16_linear" x1="-59.3633" y1="49.7354" x2="260.939" y2="813.16" gradientUnits="userSpaceOnUse">
<stop stop-color="#65D4BB"/>
<stop offset="1" stop-color="#65D4BB"/>
</linearGradient>
</defs>
</svg>
