<svg width="27" height="27" viewBox="0 0 27 27" fill="none" xmlns="http://www.w3.org/2000/svg">
<rect y="0.351379" width="26.5593" height="26.5593" rx="13.2796" fill="#00A672"/>
<path fill-rule="evenodd" clip-rule="evenodd" d="M4.18213 13.6151C4.20496 19.1546 8.75468 22.815 13.3548 22.7019C18.7857 22.5082 22.709 17.7937 22.3827 13.5854C22.3071 12.7113 21.5313 12.0338 20.655 12.0758C19.7786 12.1178 19.1023 12.8618 19.1443 13.7375C19.2671 16.2951 16.907 19.4275 13.2766 19.528C10.3927 19.599 7.50549 17.3359 7.37928 13.8139C7.34573 14.6306 6.70162 15.2975 5.86963 15.3307C4.99297 15.3657 4.22205 14.6587 4.18704 13.7827C4.18481 13.7268 4.18317 13.6709 4.18213 13.6151Z" fill="url(#paint0_linear)"/>
<path d="M11.6685 13.6987C11.6685 12.7998 12.3986 12.0711 13.2981 12.0711C14.1977 12.0711 14.9277 12.7998 14.9277 13.6987C14.9277 14.5976 14.1977 15.3263 13.2981 15.3263C12.3986 15.3263 11.6685 14.5976 11.6685 13.6987Z" fill="white"/>
<path d="M16.6865 13.6963C16.6865 12.7987 17.4212 12.0711 18.3275 12.0711H20.719C21.6253 12.0711 22.3827 12.7987 22.3827 13.6963C22.3827 14.5939 21.6253 15.3215 20.719 15.3215H18.3275C17.4212 15.3215 16.6865 14.5939 16.6865 13.6963Z" fill="white"/>
<path fill-rule="evenodd" clip-rule="evenodd" d="M14.8826 6.09433C14.919 6.97029 14.2379 7.70988 13.3613 7.74625C9.57712 7.90329 7.26695 10.8671 7.3794 13.6812C7.4144 14.5572 6.74634 15.2957 5.86968 15.3307C4.99303 15.3657 4.22211 14.6587 4.1871 13.7827C4.00386 9.19675 7.83576 4.66318 13.2294 4.57415C14.106 4.53777 14.8462 5.21838 14.8826 6.09433Z" fill="white"/>
<defs>
<linearGradient id="paint0_linear" x1="13.6959" y1="23.6216" x2="13.6959" y2="13.3664" gradientUnits="userSpaceOnUse">
<stop stop-color="white" stop-opacity="0.95"/>
<stop offset="1" stop-color="white" stop-opacity="0.5"/>
</linearGradient>
</defs>
</svg>
