<svg width="48" height="47" viewBox="0 0 48 47" fill="none" xmlns="http://www.w3.org/2000/svg">
<path d="M32.4924 23.9257C32.4924 21.6364 34.3636 19.7806 36.6718 19.7806H42.7627C45.0709 19.7806 47 21.6364 47 23.9257C47 26.2149 45.0709 28.0707 42.7627 28.0707H36.6718C34.3636 28.0707 32.4924 26.2149 32.4924 23.9257Z" fill="white"/>
<path d="M19.7124 23.9317C19.7124 21.6391 21.5717 19.7806 23.8628 19.7806C26.1538 19.7806 28.0131 21.6391 28.0131 23.9317C28.0131 26.2243 26.1538 28.0828 23.8628 28.0828C21.5717 28.0828 19.7124 26.2243 19.7124 23.9317Z" fill="white"/>
<path fill-rule="evenodd" clip-rule="evenodd" d="M27.8981 4.53679C27.9908 6.7709 26.2561 8.65721 24.0236 8.74999C14.3859 9.15051 8.5022 16.7095 8.78859 23.887C8.87774 26.1212 7.17628 28.0048 4.94358 28.094C2.71087 28.1832 0.747432 26.38 0.658284 24.1458C0.191585 12.4495 9.95088 0.886669 23.6878 0.65959C25.9204 0.566809 27.8054 2.30269 27.8981 4.53679Z" fill="white"/>
<path d="M24.3821 46.8679C38.2141 46.3742 47.8311 34.3762 47.0001 23.6427C46.8075 21.4134 44.8318 19.6856 42.5999 19.7927C40.3679 19.8998 38.6454 21.7973 38.7525 24.0307C39.0652 30.5539 33.2076 38.5236 23.9614 38.7799C23.8491 38.783 23.738 38.7907 23.6283 38.8027C23.6882 38.802 23.7482 38.8009 23.8081 38.7994C26.0419 38.7444 27.8973 40.5119 27.9523 42.7473C28.0041 44.856 26.4353 46.6277 24.3821 46.8679Z" fill="url(#paint0_linear)"/>
<path d="M0.645264 23.7003C0.693467 37.839 12.2859 47.183 24.0067 46.8944C26.2405 46.8394 28.0072 44.9827 27.9523 42.7473C27.8973 40.5119 26.0419 38.7444 23.8081 38.7994C16.4642 38.9803 9.11132 33.2099 8.78813 24.2291C8.70101 26.3105 7.06119 28.0095 4.9434 28.0941C2.7107 28.1833 0.74726 26.3801 0.658111 24.1459C0.652183 23.9973 0.647905 23.8488 0.645264 23.7003Z" fill="url(#paint1_linear)"/>
<defs>
<linearGradient id="paint0_linear" x1="25.7787" y1="52.1621" x2="25.7787" y2="13.9" gradientUnits="userSpaceOnUse">
<stop stop-color="white"/>
<stop offset="1" stop-color="white" stop-opacity="0.36"/>
</linearGradient>
<linearGradient id="paint1_linear" x1="25.7787" y1="52.1621" x2="25.7787" y2="13.9" gradientUnits="userSpaceOnUse">
<stop stop-color="white"/>
<stop offset="1" stop-color="white" stop-opacity="0.36"/>
</linearGradient>
</defs>
</svg>
