<svg width="1289" height="245" viewBox="0 0 1289 245" fill="none" xmlns="http://www.w3.org/2000/svg">
<path d="M221.494 101.381C233.274 100.815 243.701 109.953 244.718 121.743C249.124 178.78 196.925 242.674 123.366 244.717C61.3771 246.247 0.0683594 196.619 0.0683594 121.58C0.0683594 109.754 9.84059 100.167 21.6338 100.167C33.427 100.167 42.9873 109.754 42.9873 121.58C42.9873 170.939 82.675 202.883 122.316 201.905C171.115 200.549 202.839 158.295 201.189 123.795C200.623 111.983 209.715 101.948 221.494 101.381Z" fill="url(#paint0_linear)"/>
<path d="M168.15 123.24C168.15 111.133 178.026 101.318 190.208 101.318L222.354 101.318C234.537 101.318 244.718 111.133 244.718 123.24C244.718 135.348 234.537 145.163 222.354 145.163H190.208C178.026 145.163 168.15 135.348 168.15 123.24Z" fill="#00A672"/>
<path d="M100.7 123.272C100.7 111.147 110.513 101.318 122.604 101.318C134.696 101.318 144.509 111.147 144.509 123.272C144.509 135.397 134.696 145.227 122.604 145.227C110.513 145.227 100.7 135.397 100.7 123.272Z" fill="#00A672"/>
<path fill-rule="evenodd" clip-rule="evenodd" d="M143.902 20.6961C144.392 32.5119 135.236 42.4882 123.453 42.9789C72.5875 45.0972 41.5346 85.0757 43.0461 123.036C43.5166 134.852 34.5367 144.814 22.7528 145.286C10.969 145.758 0.606386 136.221 0.135873 124.405C-2.32727 62.5448 49.1805 1.39121 121.681 0.190226C133.464 -0.300477 143.413 8.88031 143.902 20.6961Z" fill="#00A672"/>
<g clip-path="url(#clip0)">
<path d="M402.407 141.248H440.658C437.756 151.033 432.639 159.212 425.308 165.786C417.976 172.36 407.742 175.647 394.606 175.647C384.678 175.647 375.742 173.43 367.799 168.996C360.009 164.41 353.823 157.989 349.241 149.733C344.659 141.477 342.367 131.769 342.367 120.609C342.367 109.449 344.659 99.8935 349.241 91.9437C353.976 83.8409 360.315 77.6492 368.258 73.3685C376.2 68.9349 384.983 66.7181 394.606 66.7181C404.993 66.7181 413.623 68.9349 420.496 73.3685C427.522 77.8021 433.098 83.4587 437.222 90.3384L465.403 73.8271C458.071 62.6667 448.525 53.7995 436.763 47.2256C425.002 40.4988 410.95 37.1354 394.606 37.1354C377.957 37.1354 363.064 40.6517 349.928 47.6843C336.945 54.564 326.711 64.272 319.227 76.8083C311.742 89.3447 308 103.945 308 120.609C308 137.273 311.666 151.95 318.998 164.639C326.329 177.328 336.41 187.266 349.241 194.451C362.224 201.484 377.04 205 393.69 205C406.978 205 418.74 202.63 428.973 197.891C439.207 193.152 447.761 186.654 454.634 178.399C461.508 170.143 466.625 160.588 469.985 149.733C473.346 138.878 474.797 127.336 474.338 115.105H402.407V141.248Z" fill="#3E3E3E"/>
<path d="M552.525 126.571L566.043 101.346C564.057 98.594 561.308 96.5301 557.795 95.1542C554.282 93.7782 550.616 93.0903 546.797 93.0903C542.062 93.0903 537.48 94.4662 533.05 97.2181C528.621 99.97 524.802 103.716 521.595 108.455V95.3835H492.268V200.872H521.595V145.147C521.595 137.503 523.046 131.54 525.948 127.259C528.85 122.826 533.127 120.609 538.778 120.609C541.833 120.609 544.353 121.144 546.339 122.214C548.478 123.285 550.54 124.737 552.525 126.571Z" fill="#3E3E3E"/>
<path d="M579.704 95.3835V200.872H608.573V95.3835H579.704ZM576.496 58.0103C576.496 62.7496 578.177 66.801 581.537 70.1644C585.05 73.3749 589.327 74.9802 594.367 74.9802C599.408 74.9802 603.608 73.3749 606.969 70.1644C610.482 66.801 612.239 62.7496 612.239 58.0103C612.239 53.1181 610.482 49.0667 606.969 45.8561C603.608 42.6456 599.408 41.0404 594.367 41.0404C589.327 41.0404 585.05 42.6456 581.537 45.8561C578.177 49.0667 576.496 53.1181 576.496 58.0103Z" fill="#3E3E3E"/>
<path d="M660.229 148.128C660.229 138.649 662.979 131.234 668.477 125.883C674.129 120.533 680.85 117.857 688.64 117.857C692.917 117.857 697.117 119.08 701.241 121.526C705.518 123.82 709.031 127.259 711.78 131.846C714.683 136.28 716.134 141.707 716.134 148.128C716.134 154.549 714.683 160.053 711.78 164.639C709.031 169.073 705.518 172.513 701.241 174.959C697.117 177.252 692.917 178.399 688.64 178.399C680.85 178.399 674.129 175.723 668.477 170.372C662.979 164.868 660.229 157.454 660.229 148.128ZM629.299 148.128C629.299 159.9 631.666 169.914 636.401 178.169C641.136 186.272 647.322 192.464 654.96 196.744C662.75 201.025 671.074 203.165 679.933 203.165C687.571 203.165 694.52 201.484 700.783 198.12C707.045 194.604 712.162 189.712 716.134 183.444V200.872H745.919V28.8927H716.134V112.812C712.162 106.544 707.045 101.728 700.783 98.3647C694.52 94.8484 687.571 93.0903 679.933 93.0903C671.074 93.0903 662.75 95.2306 654.96 99.5113C647.322 103.792 641.136 110.06 636.401 118.316C631.666 126.419 629.299 136.356 629.299 148.128Z" fill="#3E3E3E"/>
<path d="M775.369 161.887L760.706 179.774C766.204 186.96 773.307 192.922 782.013 197.662C790.72 202.248 800.343 204.541 810.882 204.541C822.796 204.541 832.266 201.713 839.292 196.056C846.471 190.4 850.061 182.068 850.061 171.06C850.061 164.639 848.686 159.441 845.937 155.466C843.187 151.338 839.598 147.975 835.168 145.376C830.739 142.777 826.004 140.484 820.963 138.496C816.839 136.815 812.791 135.362 808.82 134.139C804.849 132.763 801.565 131.234 798.968 129.553C796.524 127.871 795.302 125.807 795.302 123.361C795.302 118.163 799.426 115.564 807.674 115.564C811.951 115.564 816.457 116.711 821.192 119.004C826.08 121.297 830.662 124.431 834.939 128.406L847.999 110.519C843.417 105.474 837.383 101.346 829.899 98.1354C822.567 94.772 814.472 93.0903 805.612 93.0903C798.739 93.0903 792.476 94.3133 786.825 96.7595C781.173 99.2056 776.667 102.645 773.307 107.079C769.947 111.513 768.266 116.634 768.266 122.444C768.266 129.018 769.717 134.445 772.62 138.726C775.522 142.853 779.264 146.217 783.846 148.816C788.429 151.415 793.164 153.632 798.052 155.466C804.009 157.759 809.278 160.129 813.861 162.575C818.596 164.868 820.963 168.003 820.963 171.977C820.963 177.787 816.839 180.692 808.591 180.692C804.314 180.692 799.273 178.934 793.469 175.417C787.665 171.901 781.631 167.391 775.369 161.887Z" fill="#3E3E3E"/>
<path d="M893.718 148.128C893.718 139.108 896.391 131.922 901.737 126.571C907.236 121.068 913.881 118.316 921.671 118.316C929.46 118.316 936.028 121.068 941.374 126.571C946.873 131.922 949.623 139.108 949.623 148.128C949.623 156.995 946.873 164.181 941.374 169.684C936.028 175.188 929.46 177.94 921.671 177.94C913.881 177.94 907.236 175.188 901.737 169.684C896.391 164.181 893.718 156.995 893.718 148.128ZM863.246 148.128C863.246 159.135 865.766 168.767 870.807 177.023C876 185.278 882.95 191.699 891.656 196.286C900.515 200.872 910.52 203.165 921.671 203.165C932.821 203.165 942.826 200.872 951.685 196.286C960.544 191.699 967.494 185.278 972.534 177.023C977.728 168.767 980.324 159.135 980.324 148.128C980.324 137.12 977.728 127.489 972.534 119.233C967.494 110.977 960.544 104.556 951.685 99.97C942.826 95.3835 932.821 93.0903 921.671 93.0903C910.52 93.0903 900.515 95.3835 891.656 99.97C882.95 104.556 876 110.977 870.807 119.233C865.766 127.489 863.246 137.12 863.246 148.128Z" fill="#3E3E3E"/>
<path d="M1154.72 133.451C1154.72 120.303 1152.04 110.29 1146.7 103.41C1141.5 96.5301 1132.95 93.0903 1121.04 93.0903C1114.01 93.0903 1107.59 94.6955 1101.79 97.9061C1096.14 101.117 1091.48 105.474 1087.81 110.977C1083.23 99.0527 1073.15 93.0903 1057.57 93.0903C1050.54 93.0903 1044.51 94.6955 1039.47 97.9061C1034.43 101.117 1030.46 105.397 1027.56 110.748V95.3835H998.687V200.872H1027.56V136.662C1027.56 129.935 1029.16 124.66 1032.37 120.838C1035.58 117.016 1040 115.105 1045.66 115.105C1051.46 115.105 1055.43 117.016 1057.57 120.838C1059.86 124.508 1061.01 129.782 1061.01 136.662V200.872H1091.02V136.662C1091.02 129.935 1092.63 124.66 1095.83 120.838C1099.04 117.016 1103.47 115.105 1109.12 115.105C1114.93 115.105 1118.97 117.016 1121.26 120.838C1123.56 124.508 1124.7 129.782 1124.7 136.662V200.872H1154.72V133.451Z" fill="#3E3E3E"/>
<path d="M1202.51 154.549H1282.7C1283 152.867 1283.16 151.415 1283.16 150.192C1283.16 148.816 1283.16 147.669 1283.16 146.752C1283.16 135.592 1280.87 126.036 1276.28 118.087C1271.85 110.137 1265.59 104.021 1257.5 99.7407C1249.55 95.3071 1240.39 93.0903 1230 93.0903C1215.03 93.0903 1202.58 97.1416 1192.66 105.244C1182.73 113.194 1176.69 123.667 1174.56 136.662C1174.25 138.496 1174.02 140.407 1173.87 142.395C1173.72 144.229 1173.64 146.14 1173.64 148.128C1173.64 158.677 1176.08 168.155 1180.97 176.564C1186.01 184.82 1192.81 191.317 1201.36 196.056C1210.07 200.796 1219.92 203.165 1230.92 203.165C1240.69 203.165 1248.71 201.942 1254.98 199.496C1261.39 197.05 1266.66 193.687 1270.78 189.406C1275.06 185.125 1278.73 180.157 1281.78 174.5L1256.58 165.327C1254.14 170.066 1251 173.659 1247.19 176.105C1243.37 178.551 1238.4 179.774 1232.29 179.774C1224.81 179.774 1218.24 177.711 1212.59 173.583C1207.09 169.302 1203.73 162.957 1202.51 154.549ZM1203.2 135.744C1204.42 129.17 1207.4 124.125 1212.13 120.609C1216.87 116.94 1222.67 115.105 1229.54 115.105C1236.72 115.105 1242.3 116.94 1246.27 120.609C1250.39 124.278 1252.99 129.323 1254.06 135.744H1203.2Z" fill="#3E3E3E"/>
</g>
<defs>
<linearGradient id="paint0_linear" x1="122.359" y1="244.718" x2="122.359" y2="138.843" gradientUnits="userSpaceOnUse">
<stop stop-color="#00A672"/>
<stop offset="1" stop-color="#006B4A"/>
</linearGradient>
<clipPath id="clip0">
<rect width="981" height="183" fill="white" transform="translate(308 22)"/>
</clipPath>
</defs>
</svg>