<svg width="1382" height="245" viewBox="0 0 1382 245" fill="none" xmlns="http://www.w3.org/2000/svg">
<path d="M221.494 101.381C233.274 100.815 243.701 109.953 244.718 121.743C249.124 178.78 196.925 242.674 123.366 244.717C61.3771 246.247 0.0683594 196.619 0.0683594 121.58C0.0683594 109.754 9.84059 100.167 21.6338 100.167C33.427 100.167 42.9873 109.754 42.9873 121.58C42.9873 170.939 82.675 202.883 122.316 201.905C171.115 200.549 202.839 158.295 201.189 123.795C200.623 111.983 209.715 101.948 221.494 101.381Z" fill="url(#paint0_linear)"/>
<path d="M168.15 123.24C168.15 111.133 178.026 101.318 190.208 101.318L222.354 101.318C234.537 101.318 244.718 111.133 244.718 123.24C244.718 135.348 234.537 145.163 222.354 145.163H190.208C178.026 145.163 168.15 135.348 168.15 123.24Z" fill="#00A672"/>
<path d="M100.7 123.272C100.7 111.147 110.513 101.318 122.604 101.318C134.696 101.318 144.509 111.147 144.509 123.272C144.509 135.397 134.696 145.227 122.604 145.227C110.513 145.227 100.7 135.397 100.7 123.272Z" fill="#00A672"/>
<path fill-rule="evenodd" clip-rule="evenodd" d="M143.902 20.6961C144.392 32.5119 135.236 42.4882 123.453 42.979C72.5875 45.0972 41.5346 85.0757 43.0461 123.036C43.5166 134.852 34.5367 144.814 22.7528 145.286C10.969 145.758 0.606388 136.221 0.135872 124.405C-2.32727 62.5448 49.1805 1.3912 121.681 0.190227C133.464 -0.300477 143.413 8.88031 143.902 20.6961Z" fill="#00A672"/>
<path d="M411.274 140.867H445.452C443.649 147.601 440.806 153.704 436.922 159.175C433.177 164.506 428.254 168.785 422.151 172.012C416.048 175.239 408.628 176.852 399.89 176.852C390.32 176.852 381.652 174.607 373.885 170.118C366.256 165.629 360.223 159.386 355.785 151.389C351.346 143.252 349.127 133.853 349.127 123.191C349.127 112.388 351.346 103.059 355.785 95.2029C360.362 87.2063 366.464 81.0335 374.093 76.6845C381.86 72.3355 390.459 70.161 399.89 70.161C410.015 70.161 418.614 72.2653 425.688 76.474C432.9 80.6828 438.517 86.2944 442.539 93.3089L462.512 79.6306C456.132 69.3894 447.602 61.3928 436.922 55.6409C426.381 49.889 414.037 47.013 399.89 47.013C388.933 47.013 378.739 48.9069 369.308 52.6948C360.015 56.3423 351.901 61.5331 344.966 68.267C338.17 75.001 332.83 83.0677 328.947 92.4672C325.202 101.726 323.33 111.968 323.33 123.191C323.33 134.414 325.202 144.725 328.947 154.125C332.692 163.524 337.962 171.661 344.758 178.536C351.693 185.41 359.807 190.741 369.1 194.529C378.392 198.176 388.517 200 399.474 200C411.125 200 421.458 197.896 430.473 193.687C439.488 189.338 447.047 183.446 453.15 176.01C459.252 168.575 463.829 160.087 466.881 150.548C469.932 140.867 471.319 130.626 471.042 119.824H411.274V140.867Z" fill="white"/>
<path d="M520.565 141.078H535.544L572.368 196.843H602.118L560.925 138.342C571.05 135.256 578.956 129.995 584.642 122.56C590.468 115.124 593.38 106.075 593.38 95.4133C593.38 86.1541 591.161 78.0874 586.723 71.2131C582.423 64.3389 576.321 59.0079 568.415 55.22C560.648 51.4322 551.494 49.5382 540.953 49.5382H496.015V196.843H520.565V141.078ZM520.565 120.666V71.0027H539.913C548.373 71.0027 555.169 73.1772 560.301 77.5262C565.433 81.8752 567.999 87.9779 567.999 95.8342C567.999 103.69 565.433 109.793 560.301 114.142C555.169 118.491 548.373 120.666 539.913 120.666H520.565Z" fill="white"/>
<path d="M619.745 49.5382V196.843H644.711V49.5382H619.745Z" fill="white"/>
<path d="M724.057 196.843C738.898 196.843 751.935 193.827 763.17 187.795C774.404 181.622 783.142 173.064 789.383 162.122C795.763 151.039 798.953 138.062 798.953 123.191C798.953 108.32 795.763 95.4133 789.383 84.4706C783.142 73.3876 774.404 64.8299 763.17 58.7974C751.935 52.6246 738.898 49.5382 724.057 49.5382H677.039V196.843H724.057ZM702.004 173.485V72.8966H723.433C733.003 72.8966 741.533 74.7906 749.022 78.5784C756.651 82.3663 762.615 87.9779 766.914 95.4133C771.353 102.849 773.572 112.108 773.572 123.191C773.572 134.274 771.353 143.533 766.914 150.968C762.615 158.404 756.651 164.015 749.022 167.803C741.533 171.591 733.003 173.485 723.433 173.485H702.004Z" fill="white"/>
<path d="M833.316 147.181L814.592 159.596C819.169 171.661 826.312 181.411 836.021 188.847C845.869 196.282 857.034 200 869.516 200C885.05 200 897.048 196.142 905.508 188.426C913.969 180.57 918.199 169.908 918.199 156.44C918.199 147.742 916.327 140.517 912.582 134.765C908.837 128.873 904.121 124.173 898.435 120.666C892.887 117.018 887.2 114.142 881.375 112.038C875.55 109.793 870.071 107.548 864.939 105.304C859.808 103.059 855.647 100.464 852.457 97.5176C849.405 94.5715 847.88 90.9941 847.88 86.7854C847.88 81.4544 849.752 77.2456 853.497 74.1593C857.38 70.9326 862.512 69.3192 868.892 69.3192C875.966 69.3192 881.652 71.4236 885.952 75.6323C890.39 79.841 894.135 84.8915 897.186 90.7837L916.327 78.7888C914.385 73.7384 911.333 68.8282 907.173 64.0583C903.012 59.1481 897.672 55.0797 891.153 51.853C884.634 48.6263 876.937 47.013 868.06 47.013C859.322 47.013 851.486 48.6263 844.551 51.853C837.755 54.9394 832.346 59.3586 828.323 65.1105C824.301 70.8624 822.29 77.6665 822.29 85.5228C822.29 92.1165 823.538 97.8684 826.035 102.779C828.531 107.548 831.721 111.617 835.605 114.984C839.489 118.351 843.58 121.157 847.88 123.401C852.318 125.506 856.34 127.259 859.946 128.662C865.494 130.767 870.695 133.011 875.55 135.396C880.543 137.641 884.565 140.517 887.616 144.024C890.806 147.531 892.401 152.021 892.401 157.492C892.401 163.805 890.529 168.715 886.784 172.222C883.178 175.73 877.699 177.483 870.349 177.483C861.888 177.483 854.745 174.818 848.92 169.487C843.095 164.156 837.893 156.72 833.316 147.181Z" fill="white"/>
<path d="M935.072 123.191C935.072 134.134 936.944 144.305 940.689 153.704C944.434 162.963 949.704 171.1 956.5 178.115C963.297 184.989 971.272 190.39 980.426 194.318C989.58 198.106 999.635 200 1010.59 200C1021.55 200 1031.6 198.106 1040.76 194.318C1050.05 190.39 1058.1 184.989 1064.89 178.115C1071.69 171.1 1076.96 162.963 1080.7 153.704C1084.45 144.305 1086.32 134.134 1086.32 123.191C1086.32 112.248 1084.45 102.147 1080.7 92.8881C1076.96 83.4886 1071.62 75.4219 1064.68 68.6879C1057.89 61.8137 1049.84 56.4826 1040.55 52.6948C1031.4 48.9069 1021.41 47.013 1010.59 47.013C999.774 47.013 989.788 48.9069 980.634 52.6948C971.48 56.4826 963.435 61.8137 956.5 68.6879C949.704 75.4219 944.434 83.4886 940.689 92.8881C936.944 102.147 935.072 112.248 935.072 123.191ZM961.077 123.191C961.077 113.09 963.158 104.111 967.319 96.255C971.618 88.2585 977.513 82.0155 985.003 77.5262C992.492 73.0369 1001.02 70.7923 1010.59 70.7923C1020.3 70.7923 1028.83 73.0369 1036.18 77.5262C1043.67 82.0155 1049.5 88.2585 1053.66 96.255C1057.96 104.111 1060.11 113.09 1060.11 123.191C1060.11 133.292 1057.96 142.341 1053.66 150.337C1049.5 158.193 1043.67 164.366 1036.18 168.855C1028.83 173.345 1020.3 175.589 1010.59 175.589C1001.02 175.589 992.492 173.345 985.003 168.855C977.513 164.366 971.618 158.193 967.319 150.337C963.158 142.341 961.077 133.292 961.077 123.191Z" fill="white"/>
<path d="M1137.24 115.966L1181.55 183.165L1225.87 116.176L1235.85 196.843H1261.44L1241.47 50.9411L1181.55 133.362L1121.85 50.9411L1101.87 196.843H1127.26L1137.24 115.966Z" fill="white"/>
<path d="M1309.46 128.662H1369.79V107.198H1309.46V71.4236H1373.95V49.5382H1285.33V196.843H1373.95V174.958H1309.46V128.662Z" fill="white"/>
<defs>
<linearGradient id="paint0_linear" x1="122.359" y1="244.718" x2="122.359" y2="138.843" gradientUnits="userSpaceOnUse">
<stop stop-color="#00A672"/>
<stop offset="1" stop-color="#006B4A"/>
</linearGradient>
</defs>
</svg>
