<svg width="593" height="121" viewBox="0 0 593 121" fill="none" xmlns="http://www.w3.org/2000/svg">
<path fill-rule="evenodd" clip-rule="evenodd" d="M59.9445 115.178C90.072 115.178 114.495 90.6866 114.495 60.4754L104.238 60.4754C104.195 84.9626 84.381 104.8 59.9448 104.8C35.4823 104.8 15.6515 84.92 15.6515 60.3965C15.6515 35.873 35.4823 15.9928 59.9448 15.9928C72.1061 15.9928 83.1226 20.9061 91.127 28.8608L98.345 21.6227C88.4872 11.8249 74.9206 5.77319 59.9445 5.77319C29.817 5.77319 5.3938 30.2642 5.3938 60.4754C5.3938 90.6866 29.817 115.178 59.9445 115.178Z" fill="#52B988"/>
<path d="M81.8833 56.2673H114.17C114.627 59.8411 114.58 61.8354 114.17 65.3742H81.8833V56.2673Z" fill="#52B988"/>
<path fill-rule="evenodd" clip-rule="evenodd" d="M81.7336 38.9064C76.1416 33.3493 68.4462 29.917 59.9513 29.917C42.8603 29.917 29.0054 43.8105 29.0054 60.9489C29.0054 78.0874 42.8603 91.9808 59.9513 91.9808C68.5442 91.9808 76.3191 88.4688 81.9264 82.7981L75.492 76.3458C71.5224 80.3519 66.0226 82.8323 59.9449 82.8323C47.8424 82.8323 38.0314 72.9968 38.0314 60.8642C38.0314 48.7315 47.8424 38.896 59.9449 38.896C65.9675 38.896 71.4226 41.3316 75.3837 45.274L81.7336 38.9064Z" fill="#52B988" fill-opacity="0.5"/>
<path d="M65.9587 60.5725C65.9587 63.9898 63.196 66.7601 59.7882 66.7601C56.3803 66.7601 53.6177 63.9898 53.6177 60.5725C53.6177 57.1552 56.3803 54.3849 59.7882 54.3849C63.196 54.3849 65.9587 57.1552 65.9587 60.5725Z" fill="#84DCB5"/>
<path d="M274.955 24.1012C271.798 24.1012 269.43 26.4749 269.43 29.6397C269.43 32.8046 271.798 35.1783 274.842 35.1783C277.887 35.1783 280.368 32.8046 280.368 29.7528C280.368 26.5879 278 24.1012 274.955 24.1012Z" fill="white"/>
<path fill-rule="evenodd" clip-rule="evenodd" d="M187.375 54.7672H224.92L224.978 55.5753C225.093 57.1885 225.093 59.2458 225.093 59.9256V59.9321C225.093 70.1593 222.788 77.3637 217.125 84.5452L217.124 84.5472L217.122 84.5492C209.744 93.7933 199.798 98.6673 188.135 98.6673C166.187 98.6673 150.162 81.8472 150.162 58.9148C150.162 35.6502 166.067 18.8232 188.135 18.8232C199.792 18.8232 209.854 23.6933 217.123 32.8294L217.658 33.5022L209.239 40.3339L208.684 39.7131C205.755 36.4388 204.464 35.156 202.534 33.8661L202.519 33.8558L202.504 33.8449C198.487 30.9073 193.37 29.2662 188.135 29.2662C173.14 29.2662 161.605 41.8987 161.605 58.8018C161.605 75.4837 173.145 88.2244 187.909 88.2244C195.98 88.2244 204.389 83.9461 208.843 77.5227L208.85 77.5114L208.859 77.5003C211.52 73.9089 212.646 70.5194 213.42 64.6449H187.375V54.7672ZM234.665 43.464H244.981V49.3607C245.93 47.741 246.92 46.6517 248.305 45.5715C251.076 43.3981 254.883 42.2207 258.768 42.2207H261.67V52.7798L260.689 52.6568C259.848 52.5515 258.997 52.5506 258.43 52.5506C254.096 52.5506 250.308 54.5542 247.877 58.1569L247.875 58.1602L247.873 58.1634C245.752 61.2447 244.981 64.1014 244.981 69.9919V97.311H234.665V43.464ZM280 43.464V97.311H269.685V43.464H280ZM331.485 49.8974C326.599 44.6279 320.922 42.2207 313.752 42.2207C299.075 42.2207 288.408 54.4703 288.408 70.6701C288.408 86.8893 298.867 98.5543 313.752 98.5543C317.818 98.5543 321.323 97.7665 324.49 96.0306C327.029 94.6395 329.314 92.6594 331.485 90.0535V97.311H341.801V20.1796H331.485V49.8974ZM389.186 59.4455H378.829V58.0106C378.829 55.8387 377.959 54.1144 376.439 52.9133C374.899 51.696 372.627 50.9682 369.779 50.9682C367.043 50.9682 364.915 51.6674 363.489 52.8106C362.083 53.9384 361.292 55.5499 361.292 57.5584C361.292 58.6213 361.425 59.447 361.72 60.1365C362.01 60.8142 362.481 61.4159 363.245 61.9949C364.826 63.1936 367.57 64.2319 372.265 65.5363C378.956 67.3551 382.636 69.0994 385.283 71.7523C388.039 74.5152 389.709 78.4658 389.709 82.5383C389.709 87.3177 387.733 91.3515 384.288 94.1743C380.857 96.9853 376.023 98.5543 370.342 98.5543C364.295 98.5543 359.448 97.1402 355.985 94.27C352.508 91.3889 350.543 87.1373 350.077 81.7082L349.996 80.7643H360.197L360.273 81.5513C360.538 84.3127 361.556 86.3409 363.189 87.6899C364.833 89.0483 367.206 89.8068 370.342 89.8068C373.131 89.8068 375.347 89.0809 376.847 87.8909C378.328 86.7155 379.168 85.0455 379.168 82.9905C379.168 81.9546 379 81.0977 378.652 80.3563C378.306 79.6183 377.759 78.9463 376.929 78.3114C375.235 77.0151 372.428 75.9185 367.985 74.7908L367.978 74.7891L367.971 74.7873C362.273 73.2453 358.023 71.2462 355.192 68.543C352.325 65.8055 350.976 62.4056 350.976 58.2366C350.976 53.4622 352.92 49.4289 356.322 46.6043C359.711 43.7909 364.49 42.2207 370.117 42.2207C375.785 42.2207 380.434 43.6705 383.737 46.4843C387.052 49.309 388.91 53.4227 389.144 58.536L389.186 59.4455ZM458.904 43.464H469.22V48.8779C470.791 46.9175 472.478 45.4097 474.369 44.3283C476.924 42.8669 479.788 42.2207 483.12 42.2207C486.797 42.2207 489.886 43.0113 492.379 44.7027C494.457 46.1125 496.064 48.1091 497.254 50.6715C499.01 47.9938 501.01 45.9762 503.417 44.5846C506.25 42.9471 509.57 42.2207 513.567 42.2207C519.727 42.2207 524.539 44.2074 527.458 48.1052C528.765 49.8323 529.613 51.4997 530.122 53.8115C530.623 56.0855 530.791 58.9633 530.791 63.097V97.311H520.475V65.1315C520.475 61.9583 520.418 60.071 520.217 58.7169C520.024 57.4134 519.7 56.6126 519.127 55.6212C517.745 53.2466 514.7 51.6463 510.861 51.6463C507.294 51.6463 504.632 52.8367 502.84 55.0279C501.025 57.2471 500.006 60.6113 500.006 65.1315V97.311H489.69V65.2446C489.69 60.1908 489.236 57.7759 488.105 55.7152L488.097 55.7002L488.09 55.685C486.811 53.1219 484.017 51.6463 480.414 51.6463C476.862 51.6463 474.105 52.9118 472.219 55.1753C470.315 57.4597 469.22 60.8569 469.22 65.2446V97.311H458.904V43.464ZM592.074 74.0265H548.95C549.161 75.7229 549.44 77.0418 549.854 78.2074C550.339 79.5736 551.022 80.7671 552.053 82.127L552.058 82.1333L552.063 82.1397C555.281 86.5488 559.981 88.9026 565.34 88.9026C571.462 88.9026 577.255 85.5599 580.141 80.4183L580.507 79.766L589.665 83.1912L589.241 84.0518C584.802 93.0686 575.579 98.5543 565.34 98.5543C549.388 98.5543 537.967 86.8399 537.967 70.557C537.967 54.068 549.256 42.2207 565.002 42.2207C580.607 42.2207 592.262 54.0383 592.262 69.7658V69.776C592.262 70.4536 592.262 71.9529 592.146 73.2351L592.074 74.0265ZM268.557 29.6397C268.557 25.9992 271.311 23.2315 274.955 23.2315C278.521 23.2315 281.241 26.1476 281.241 29.7528C281.241 33.3036 278.35 36.048 274.842 36.048C271.299 36.048 268.557 33.2684 268.557 29.6397ZM327.013 56.8214C324.22 53.5425 320.264 51.6463 315.556 51.6463C310.673 51.6463 306.604 53.5749 303.743 56.8958C300.873 60.2274 299.175 65.0155 299.175 70.7831C299.175 76.3203 300.843 80.9694 303.631 84.2195C306.412 87.4602 310.342 89.3547 314.992 89.3547C324.443 89.3547 331.485 81.4895 331.485 70.557C331.485 64.8445 329.815 60.1113 327.013 56.8214ZM404.459 50.0426C409.319 45.0685 416.206 42.2207 424.311 42.2207C440.168 42.2207 451.459 54.0654 451.459 70.557C451.459 86.2799 439.357 98.5543 423.973 98.5543C416.026 98.5543 409.224 95.6428 404.411 90.6279C399.601 85.6158 396.825 78.5537 396.825 70.331C396.825 62.0524 399.601 55.0149 404.459 50.0426ZM436.333 56.9377C433.452 53.73 429.325 51.8724 424.311 51.8724C419.178 51.8724 414.966 53.7345 412.03 56.9435C409.087 60.1599 407.367 64.7978 407.367 70.444C407.367 76.0317 409.086 80.6421 412.016 83.8457C414.939 87.0422 419.125 88.9026 424.198 88.9026C433.901 88.9026 440.917 81.3476 440.917 70.444C440.917 64.7941 439.222 60.1539 436.333 56.9377ZM549.119 65.9572H581.295C580.928 62.6071 580.17 60.6486 578.614 58.4042C575.509 54.2251 570.473 51.6463 565.002 51.6463C559.533 51.6463 554.626 54.2217 551.75 58.4861C550.391 60.6293 549.731 62.5009 549.119 65.9572ZM274.955 24.1012C271.798 24.1012 269.43 26.4749 269.43 29.6397C269.43 32.8046 271.798 35.1783 274.842 35.1783C277.887 35.1783 280.368 32.8046 280.368 29.7528C280.368 26.5879 278 24.1012 274.955 24.1012Z" fill="white"/>
</svg>