<svg width="2078" height="550" viewBox="0 0 2078 550" fill="none" xmlns="http://www.w3.org/2000/svg">
<path d="M1023.66 148.583C1013.17 148.583 1005.3 156.49 1005.3 167.034C1005.3 177.578 1013.17 185.486 1023.29 185.486C1033.4 185.486 1041.65 177.578 1041.65 167.411C1041.65 156.867 1033.78 148.583 1023.66 148.583Z" fill="white"/>
<path fill-rule="evenodd" clip-rule="evenodd" d="M766.075 250.746H857.406L857.597 253.438C857.979 258.812 857.979 265.667 857.979 267.931V267.953C857.979 302.025 850.32 326.026 831.505 349.951L831.5 349.958L831.494 349.965C806.979 380.761 773.928 396.999 735.175 396.999C662.247 396.999 608.999 340.963 608.999 264.564C608.999 187.058 661.85 130.999 735.175 130.999C773.911 130.999 807.345 147.223 831.497 177.66L833.276 179.902L805.299 202.662L803.454 200.594C793.723 189.685 789.435 185.412 783.021 181.114L782.97 181.08L782.92 181.044C769.575 171.257 752.571 165.79 735.175 165.79C685.352 165.79 647.023 207.875 647.023 264.187C647.023 319.763 685.366 362.209 734.426 362.209C761.244 362.209 789.185 347.955 803.983 326.556L804.009 326.518L804.036 326.481C812.88 314.517 816.619 303.224 819.194 283.654H766.075V250.746ZM889.785 213.09H924.062V232.734C927.215 227.338 930.505 223.709 935.108 220.111C944.315 212.87 956.965 208.947 969.873 208.947H979.517V244.125L976.256 243.715C973.462 243.364 970.634 243.361 968.749 243.361C954.351 243.361 941.764 250.036 933.685 262.039L933.678 262.05L933.67 262.06C926.626 272.326 924.062 281.843 924.062 301.467V392.48H889.785V213.09ZM1040.42 213.09V392.48H1006.15V213.09H1040.42ZM1211.5 234.522C1195.26 216.967 1176.4 208.947 1152.57 208.947C1103.8 208.947 1068.36 249.757 1068.36 303.726C1068.36 357.761 1103.11 396.622 1152.57 396.622C1166.08 396.622 1177.73 393.998 1188.25 388.215C1196.69 383.58 1204.28 376.984 1211.5 368.302V392.48H1245.77V135.518H1211.5V234.522ZM1403.22 266.332H1368.81V261.551C1368.81 254.316 1365.92 248.571 1360.87 244.57C1355.75 240.514 1348.2 238.09 1338.74 238.09C1329.65 238.09 1322.58 240.419 1317.84 244.228C1313.16 247.985 1310.54 253.354 1310.54 260.045C1310.54 263.586 1310.98 266.337 1311.96 268.634C1312.92 270.891 1314.49 272.896 1317.03 274.825C1322.28 278.819 1331.4 282.278 1347 286.623C1369.23 292.683 1381.46 298.494 1390.25 307.332C1399.41 316.536 1404.96 329.698 1404.96 343.265C1404.96 359.188 1398.4 372.626 1386.95 382.03C1375.55 391.395 1359.49 396.622 1340.61 396.622C1320.52 396.622 1304.41 391.911 1292.9 382.35C1281.35 372.751 1274.82 358.587 1273.27 340.5L1273 337.355H1306.9L1307.15 339.977C1308.03 349.177 1311.42 355.934 1316.84 360.428C1322.3 364.953 1330.19 367.48 1340.61 367.48C1349.88 367.48 1357.24 365.062 1362.22 361.098C1367.14 357.182 1369.93 351.618 1369.93 344.772C1369.93 341.321 1369.38 338.466 1368.22 335.996C1367.07 333.537 1365.25 331.299 1362.5 329.183C1356.87 324.865 1347.54 321.211 1332.78 317.455L1332.75 317.449L1332.73 317.443C1313.8 312.306 1299.67 305.646 1290.27 296.64C1280.74 287.52 1276.26 276.193 1276.26 262.305C1276.26 246.398 1282.72 232.962 1294.02 223.551C1305.29 214.179 1321.16 208.947 1339.86 208.947C1358.69 208.947 1374.14 213.777 1385.12 223.152C1396.13 232.562 1402.3 246.267 1403.08 263.302L1403.22 266.332ZM1634.88 213.09H1669.16V231.126C1674.38 224.595 1679.98 219.572 1686.27 215.969C1694.76 211.1 1704.27 208.947 1715.34 208.947C1727.56 208.947 1737.82 211.582 1746.11 217.216C1753.01 221.913 1758.35 228.565 1762.31 237.101C1768.14 228.181 1774.79 221.459 1782.79 216.823C1792.2 211.368 1803.23 208.947 1816.51 208.947C1836.98 208.947 1852.97 215.566 1862.67 228.552C1867.01 234.305 1869.83 239.86 1871.52 247.562C1873.19 255.138 1873.74 264.726 1873.74 278.497V392.48H1839.47V285.275C1839.47 274.703 1839.28 268.416 1838.61 263.905C1837.97 259.562 1836.89 256.894 1834.99 253.591C1830.4 245.68 1820.28 240.349 1807.52 240.349C1795.67 240.349 1786.82 244.315 1780.87 251.615C1774.84 259.008 1771.45 270.216 1771.45 285.275V392.48H1737.17V285.651C1737.17 268.815 1735.67 260.769 1731.91 253.904L1731.88 253.855L1731.86 253.804C1727.61 245.265 1718.32 240.349 1706.35 240.349C1694.55 240.349 1685.39 244.565 1679.12 252.106C1672.8 259.716 1669.16 271.034 1669.16 285.651V392.48H1634.88V213.09ZM2077.37 314.908H1934.08C1934.78 320.56 1935.71 324.954 1937.09 328.837C1938.7 333.388 1940.97 337.365 1944.39 341.895L1944.41 341.916L1944.43 341.937C1955.12 356.626 1970.74 364.468 1988.54 364.468C2008.89 364.468 2028.13 353.332 2037.72 336.203L2038.94 334.029L2069.37 345.44L2067.96 348.308C2053.21 378.347 2022.56 396.622 1988.54 396.622C1935.54 396.622 1897.59 357.596 1897.59 303.35C1897.59 248.417 1935.1 208.947 1987.42 208.947C2039.27 208.947 2078 248.318 2078 300.714V300.748C2078 303.005 2078 308 2077.61 312.272L2077.37 314.908ZM1002.4 167.034C1002.4 154.906 1011.55 145.685 1023.66 145.685C1035.51 145.685 1044.55 155.4 1044.55 167.411C1044.55 179.24 1034.94 188.383 1023.29 188.383C1011.51 188.383 1002.4 179.123 1002.4 167.034ZM1196.64 257.59C1187.36 246.666 1174.21 240.349 1158.57 240.349C1142.34 240.349 1128.82 246.774 1119.32 257.838C1109.78 268.937 1104.14 284.888 1104.14 304.103C1104.14 322.55 1109.68 338.038 1118.94 348.866C1128.18 359.663 1141.24 365.974 1156.69 365.974C1188.1 365.974 1211.5 339.771 1211.5 303.35C1211.5 284.319 1205.95 268.55 1196.64 257.59ZM1453.97 235.006C1470.12 218.435 1493 208.947 1519.94 208.947C1572.62 208.947 1610.14 248.408 1610.14 303.35C1610.14 355.73 1569.93 396.622 1518.81 396.622C1492.41 396.622 1469.81 386.923 1453.81 370.216C1437.83 353.518 1428.61 329.991 1428.61 302.597C1428.61 275.017 1437.83 251.571 1453.97 235.006ZM1559.88 257.977C1550.31 247.291 1536.6 241.102 1519.94 241.102C1502.88 241.102 1488.88 247.306 1479.13 257.996C1469.35 268.712 1463.63 284.163 1463.63 302.973C1463.63 321.588 1469.35 336.948 1479.08 347.621C1488.8 358.27 1502.7 364.468 1519.56 364.468C1551.8 364.468 1575.11 339.299 1575.11 302.973C1575.11 284.151 1569.48 268.692 1559.88 257.977ZM1934.64 288.026H2041.56C2040.34 276.865 2037.82 270.34 2032.65 262.863C2022.33 248.94 2005.6 240.349 1987.42 240.349C1969.25 240.349 1952.94 248.929 1943.39 263.136C1938.87 270.276 1936.68 276.511 1934.64 288.026ZM1023.66 148.583C1013.17 148.583 1005.3 156.49 1005.3 167.034C1005.3 177.578 1013.17 185.486 1023.29 185.486C1033.4 185.486 1041.65 177.578 1041.65 167.411C1041.65 156.867 1033.78 148.583 1023.66 148.583Z" fill="white"/>
<path opacity="0.5" d="M245.348 472.35L270.786 487.013L445.329 170.919L419.892 156.257L245.348 472.35Z" fill="url(#paint0_linear)"/>
<path opacity="0.5" d="M221.198 486.918L246.634 472.254L74.2334 161.275L48.7964 175.939L221.198 486.918Z" fill="url(#paint1_linear)"/>
<path opacity="0.7" d="M68.029 395.44L53.3428 420.837L209.742 512.026L224.428 486.629L68.029 395.44Z" fill="url(#paint2_linear)"/>
<path opacity="0.7" d="M277.067 515.205L439.437 421.612L424.751 396.214L262.381 489.808L277.067 515.205Z" fill="url(#paint3_linear)"/>
<path opacity="0.7" d="M438.13 359.663L467.503 359.662L467.5 179.434L438.128 179.434L438.13 359.663Z" fill="url(#paint4_linear)"/>
<path opacity="0.7" d="M274.745 30.0107L265.478 56.9562L422.928 147.744L426.428 130.192L437.615 122.347L274.745 30.0107Z" fill="url(#paint5_linear)"/>
<path opacity="0.7" d="M66.48 148.51L224.284 59.2792L213.469 30.7852L51.7942 123.112L66.48 148.51Z" fill="url(#paint6_linear)"/>
<path opacity="0.7" d="M24.6991 357.907L54.0715 357.906L54.0691 174.789L24.6968 174.789L24.6991 357.907Z" fill="url(#paint7_linear)"/>
<path d="M264.352 320.618L202.525 206.398L330.311 206.72L348.733 174.524L142.677 174.528L194.303 263.671L245.93 352.813L264.352 320.618Z" fill="url(#paint8_linear)"/>
<path d="M311.94 238.033L264.352 320.618L241.001 296.663L274.617 238.03L311.94 238.033Z" fill="url(#paint9_linear)"/>
<path d="M254.996 238.033H278.674L266.835 258.682L254.996 238.033Z" fill="url(#paint10_linear)"/>
<path d="M77.708 152.231C77.708 173.69 60.3125 191.085 38.854 191.085C17.3955 191.085 0 173.69 0 152.231C0 130.773 17.3955 113.377 38.854 113.377C60.3125 113.377 77.708 130.773 77.708 152.231Z" fill="url(#paint11_linear)"/>
<path d="M281.532 38.854C281.532 60.3125 264.137 77.708 242.678 77.708C221.22 77.708 203.824 60.3125 203.824 38.854C203.824 17.3955 221.22 0 242.678 0C264.137 0 281.532 17.3955 281.532 38.854Z" fill="url(#paint12_linear)"/>
<path d="M491.726 152.231C491.726 173.69 474.331 191.085 452.872 191.085C431.414 191.085 414.018 173.69 414.018 152.231C414.018 130.773 431.414 113.377 452.872 113.377C474.331 113.377 491.726 130.773 491.726 152.231Z" fill="url(#paint13_linear)"/>
<path d="M493 387.903C493 409.362 475.604 426.757 454.146 426.757C432.688 426.757 415.292 409.362 415.292 387.903C415.292 366.445 432.688 349.049 454.146 349.049C475.604 349.049 493 366.445 493 387.903Z" fill="url(#paint14_linear)"/>
<path d="M285.354 510.198C285.354 531.656 267.958 549.052 246.5 549.052C225.042 549.052 207.646 531.656 207.646 510.198C207.646 488.739 225.042 471.344 246.5 471.344C267.958 471.344 285.354 488.739 285.354 510.198Z" fill="url(#paint15_linear)"/>
<path d="M78.9819 387.903C78.9819 409.362 61.5864 426.757 40.1279 426.757C18.6694 426.757 1.2739 409.362 1.2739 387.903C1.2739 366.445 18.6694 349.049 40.1279 349.049C61.5864 349.049 78.9819 366.445 78.9819 387.903Z" fill="url(#paint16_linear)"/>
<defs>
<linearGradient id="paint0_linear" x1="201.215" y1="156.257" x2="478.058" y2="601.665" gradientUnits="userSpaceOnUse">
<stop stop-color="#53D096"/>
<stop offset="1" stop-color="#8DD6F9"/>
</linearGradient>
<linearGradient id="paint1_linear" x1="5.13556" y1="161.275" x2="277.116" y2="600.97" gradientUnits="userSpaceOnUse">
<stop stop-color="#53D096"/>
<stop offset="1" stop-color="#8DD6F9"/>
</linearGradient>
<linearGradient id="paint2_linear" x1="15.5861" y1="395.44" x2="67.8935" y2="599.696" gradientUnits="userSpaceOnUse">
<stop stop-color="#53D096"/>
<stop offset="1" stop-color="#8DD6F9"/>
</linearGradient>
<linearGradient id="paint3_linear" x1="223.306" y1="396.214" x2="276.046" y2="605.036" gradientUnits="userSpaceOnUse">
<stop stop-color="#53D096"/>
<stop offset="1" stop-color="#8DD6F9"/>
</linearGradient>
<linearGradient id="paint4_linear" x1="431.645" y1="179.434" x2="554.468" y2="232.703" gradientUnits="userSpaceOnUse">
<stop stop-color="#53D096"/>
<stop offset="1" stop-color="#8DD6F9"/>
</linearGradient>
<linearGradient id="paint5_linear" x1="227.489" y1="30.0107" x2="280.481" y2="236.183" gradientUnits="userSpaceOnUse">
<stop stop-color="#53D096"/>
<stop offset="1" stop-color="#8DD6F9"/>
</linearGradient>
<linearGradient id="paint6_linear" x1="13.7275" y1="30.7852" x2="66.6174" y2="236.997" gradientUnits="userSpaceOnUse">
<stop stop-color="#53D096"/>
<stop offset="1" stop-color="#8DD6F9"/>
</linearGradient>
<linearGradient id="paint7_linear" x1="18.2141" y1="174.789" x2="141.649" y2="227.479" gradientUnits="userSpaceOnUse">
<stop stop-color="#53D096"/>
<stop offset="1" stop-color="#8DD6F9"/>
</linearGradient>
<linearGradient id="paint8_linear" x1="97.2026" y1="174.524" x2="195.08" y2="475.541" gradientUnits="userSpaceOnUse">
<stop stop-color="#53D096"/>
<stop offset="1" stop-color="#8DD6F9"/>
</linearGradient>
<linearGradient id="paint9_linear" x1="97.2026" y1="174.524" x2="195.08" y2="475.541" gradientUnits="userSpaceOnUse">
<stop stop-color="#53D096"/>
<stop offset="1" stop-color="#8DD6F9"/>
</linearGradient>
<linearGradient id="paint10_linear" x1="97.2026" y1="174.524" x2="195.08" y2="475.541" gradientUnits="userSpaceOnUse">
<stop stop-color="#53D096"/>
<stop offset="1" stop-color="#8DD6F9"/>
</linearGradient>
<linearGradient id="paint11_linear" x1="-108.8" y1="-2.54005e-06" x2="256.25" y2="872.228" gradientUnits="userSpaceOnUse">
<stop stop-color="#53D096"/>
<stop offset="1" stop-color="#8DD6F9"/>
</linearGradient>
<linearGradient id="paint12_linear" x1="-108.8" y1="-2.54005e-06" x2="256.25" y2="872.228" gradientUnits="userSpaceOnUse">
<stop stop-color="#53D096"/>
<stop offset="1" stop-color="#8DD6F9"/>
</linearGradient>
<linearGradient id="paint13_linear" x1="-108.8" y1="-2.54005e-06" x2="256.25" y2="872.228" gradientUnits="userSpaceOnUse">
<stop stop-color="#53D096"/>
<stop offset="1" stop-color="#8DD6F9"/>
</linearGradient>
<linearGradient id="paint14_linear" x1="-108.8" y1="-2.54005e-06" x2="256.25" y2="872.228" gradientUnits="userSpaceOnUse">
<stop stop-color="#53D096"/>
<stop offset="1" stop-color="#8DD6F9"/>
</linearGradient>
<linearGradient id="paint15_linear" x1="-108.8" y1="-2.54005e-06" x2="256.25" y2="872.228" gradientUnits="userSpaceOnUse">
<stop stop-color="#53D096"/>
<stop offset="1" stop-color="#8DD6F9"/>
</linearGradient>
<linearGradient id="paint16_linear" x1="-108.8" y1="-2.54005e-06" x2="256.25" y2="872.228" gradientUnits="userSpaceOnUse">
<stop stop-color="#53D096"/>
<stop offset="1" stop-color="#8DD6F9"/>
</linearGradient>
</defs>
</svg>