<svg width="593" height="121" viewBox="0 0 593 121" fill="none" xmlns="http://www.w3.org/2000/svg">
<path fill-rule="evenodd" clip-rule="evenodd" d="M108.305 50.2905C114.051 50.014 118.933 54.4613 119.209 60.2236C120.553 88.3266 96.7781 119.164 60.8942 120.161C55.1434 120.321 50.3523 115.775 50.193 110.009C50.0337 104.242 54.5665 99.4374 60.3173 99.2777C84.1229 98.6163 99.2041 78.0545 98.399 61.2246C98.1234 55.4623 102.558 50.5669 108.305 50.2905Z" fill="#44BA83"/>
<path fill-rule="evenodd" clip-rule="evenodd" d="M10.8079 49.6982C16.5609 49.6982 21.2246 54.3749 21.2246 60.1438C21.2246 84.2224 40.5852 99.8055 59.9228 99.3283C65.6741 99.1864 70.4511 103.747 70.5926 109.514C70.7342 115.281 66.1866 120.071 60.4353 120.213C30.1956 120.959 0.391136 96.7496 0.391135 60.1438C0.391134 54.3749 5.05486 49.6982 10.8079 49.6982Z" fill="#8DD6F9"/>
<path fill-rule="evenodd" clip-rule="evenodd" d="M70.4123 10.8551C70.651 16.6191 66.1848 21.4859 60.4367 21.7252C35.6232 22.7586 20.5682 42.261 21.3055 60.7789C21.5351 66.5433 17.0611 71.4028 11.3127 71.633C5.56427 71.8631 0.718188 67.3768 0.488661 61.6124C-0.712921 31.4357 23.4188 2.3575 59.5723 0.851896C65.3203 0.61252 70.1736 5.09112 70.4123 10.8551Z" fill="#E535AB"/>
<path d="M82.4312 61.0558C82.4312 55.1495 87.2059 50.3615 93.0959 50.3615L108.638 50.3615C114.528 50.3615 119.303 55.1495 119.303 61.0558C119.303 66.9622 114.528 71.7502 108.638 71.7502H93.0959C87.2059 71.7502 82.4312 66.9622 82.4312 61.0558Z" fill="#53D096"/>
<path d="M49.3623 61.0714C49.3623 55.1565 54.1494 50.3615 60.0479 50.3615C65.9465 50.3615 70.7336 55.1565 70.7336 61.0714C70.7336 66.9863 65.9465 71.7813 60.0479 71.7813C54.1494 71.7813 49.3623 66.9863 49.3623 61.0714Z" fill="#53D096"/>
<path d="M274.955 27.1012C271.798 27.1012 269.43 29.4749 269.43 32.6397C269.43 35.8046 271.798 38.1783 274.842 38.1783C277.887 38.1783 280.368 35.8046 280.368 32.7528C280.368 29.5879 278 27.1012 274.955 27.1012Z" fill="white"/>
<path fill-rule="evenodd" clip-rule="evenodd" d="M187.375 57.7672H224.92L224.978 58.5753C225.093 60.1885 225.093 62.2458 225.093 62.9256V62.9321C225.093 73.1593 222.788 80.3637 217.125 87.5452L217.124 87.5472L217.122 87.5492C209.744 96.7933 199.798 101.667 188.135 101.667C166.187 101.667 150.162 84.8473 150.162 61.9148C150.162 38.6503 166.067 21.8232 188.135 21.8232C199.792 21.8232 209.854 26.6933 217.123 35.8294L217.658 36.5022L209.239 43.3339L208.684 42.7131C205.755 39.4388 204.464 38.156 202.534 36.8661L202.519 36.8558L202.504 36.8449C198.487 33.9073 193.37 32.2662 188.135 32.2662C173.14 32.2662 161.605 44.8987 161.605 61.8018C161.605 78.4837 173.145 91.2244 187.909 91.2244C195.98 91.2244 204.389 86.9461 208.843 80.5227L208.85 80.5114L208.859 80.5003C211.52 76.9089 212.646 73.5194 213.42 67.6449H187.375V57.7672ZM234.665 46.464H244.981V52.3607C245.93 50.741 246.92 49.6517 248.305 48.5715C251.076 46.3981 254.883 45.2207 258.768 45.2207H261.67V55.7798L260.689 55.6568C259.848 55.5515 258.997 55.5506 258.43 55.5506C254.096 55.5506 250.308 57.5542 247.877 61.1569L247.875 61.1602L247.873 61.1634C245.752 64.2447 244.981 67.1014 244.981 72.9919V100.311H234.665V46.464ZM280 46.464V100.311H269.685V46.464H280ZM331.485 52.8974C326.599 47.6279 320.922 45.2207 313.752 45.2207C299.075 45.2207 288.408 57.4703 288.408 73.6701C288.408 89.8893 298.867 101.554 313.752 101.554C317.818 101.554 321.323 100.767 324.49 99.0306C327.029 97.6395 329.314 95.6594 331.485 93.0535V100.311H341.801V23.1796H331.485V52.8974ZM389.186 62.4455H378.829V61.0106C378.829 58.8387 377.959 57.1144 376.439 55.9133C374.899 54.696 372.627 53.9682 369.779 53.9682C367.043 53.9682 364.915 54.6674 363.489 55.8106C362.083 56.9384 361.292 58.5499 361.292 60.5585C361.292 61.6213 361.425 62.447 361.72 63.1365C362.01 63.8142 362.481 64.4159 363.245 64.9949C364.826 66.1936 367.57 67.2319 372.265 68.5363C378.956 70.3551 382.636 72.0994 385.283 74.7523C388.039 77.5152 389.709 81.4658 389.709 85.5383C389.709 90.3177 387.733 94.3515 384.288 97.1743C380.857 99.9853 376.023 101.554 370.342 101.554C364.295 101.554 359.448 100.14 355.985 97.27C352.508 94.3889 350.543 90.1373 350.077 84.7082L349.996 83.7643H360.197L360.273 84.5513C360.538 87.3127 361.556 89.3409 363.189 90.6899C364.833 92.0483 367.206 92.8068 370.342 92.8068C373.131 92.8068 375.347 92.0809 376.847 90.8909C378.328 89.7155 379.168 88.0455 379.168 85.9905C379.168 84.9546 379 84.0977 378.652 83.3563C378.306 82.6183 377.759 81.9463 376.929 81.3114C375.235 80.0151 372.428 78.9185 367.985 77.7908L367.978 77.7891L367.971 77.7873C362.273 76.2453 358.023 74.2462 355.192 71.543C352.325 68.8055 350.976 65.4056 350.976 61.2366C350.976 56.4621 352.92 52.4289 356.322 49.6043C359.711 46.7909 364.49 45.2207 370.117 45.2207C375.785 45.2207 380.434 46.6705 383.737 49.4843C387.052 52.309 388.91 56.4227 389.144 61.536L389.186 62.4455ZM458.904 46.464H469.22V51.8779C470.791 49.9175 472.478 48.4097 474.369 47.3283C476.924 45.8669 479.788 45.2207 483.12 45.2207C486.797 45.2207 489.885 46.0113 492.379 47.7027C494.457 49.1125 496.064 51.1092 497.254 53.6715C499.01 50.9938 501.01 48.9762 503.417 47.5846C506.25 45.9471 509.57 45.2207 513.567 45.2207C519.727 45.2207 524.539 47.2074 527.458 51.1052C528.765 52.8323 529.613 54.4997 530.122 56.8115C530.623 59.0855 530.791 61.9633 530.791 66.097V100.311H520.475V68.1315C520.475 64.9583 520.418 63.071 520.217 61.7169C520.024 60.4134 519.7 59.6126 519.127 58.6212C517.745 56.2466 514.7 54.6463 510.861 54.6463C507.294 54.6463 504.632 55.8367 502.84 58.0279C501.025 60.2471 500.006 63.6113 500.006 68.1315V100.311H489.69V68.2446C489.69 63.1908 489.236 60.7759 488.105 58.7152L488.097 58.7002L488.09 58.685C486.811 56.1219 484.017 54.6463 480.414 54.6463C476.862 54.6463 474.105 55.9118 472.219 58.1753C470.315 60.4597 469.22 63.8569 469.22 68.2446V100.311H458.904V46.464ZM592.074 77.0265H548.95C549.161 78.7229 549.44 80.0418 549.854 81.2074C550.339 82.5736 551.022 83.7671 552.053 85.127L552.058 85.1333L552.063 85.1397C555.281 89.5488 559.981 91.9026 565.34 91.9026C571.462 91.9026 577.255 88.5599 580.141 83.4183L580.507 82.766L589.665 86.1912L589.241 87.0518C584.802 96.0686 575.579 101.554 565.34 101.554C549.388 101.554 537.967 89.8399 537.967 73.557C537.967 57.068 549.256 45.2207 565.002 45.2207C580.607 45.2207 592.262 57.0383 592.262 72.7658V72.776C592.262 73.4536 592.262 74.9529 592.146 76.2351L592.074 77.0265ZM268.557 32.6397C268.557 28.9992 271.311 26.2315 274.955 26.2315C278.521 26.2315 281.241 29.1476 281.241 32.7528C281.241 36.3036 278.35 39.048 274.842 39.048C271.299 39.048 268.557 36.2684 268.557 32.6397ZM327.013 59.8214C324.22 56.5425 320.264 54.6463 315.556 54.6463C310.673 54.6463 306.604 56.5749 303.743 59.8958C300.873 63.2274 299.175 68.0155 299.175 73.7831C299.175 79.3203 300.843 83.9694 303.631 87.2195C306.412 90.4602 310.342 92.3547 314.992 92.3547C324.443 92.3547 331.485 84.4895 331.485 73.557C331.485 67.8445 329.815 63.1113 327.013 59.8214ZM404.459 53.0426C409.319 48.0685 416.206 45.2207 424.311 45.2207C440.168 45.2207 451.459 57.0654 451.459 73.557C451.459 89.2799 439.357 101.554 423.973 101.554C416.026 101.554 409.224 98.6428 404.411 93.6279C399.601 88.6158 396.825 81.5537 396.825 73.331C396.825 65.0524 399.601 58.0149 404.459 53.0426ZM436.333 59.9377C433.452 56.73 429.325 54.8724 424.311 54.8724C419.178 54.8724 414.966 56.7345 412.03 59.9435C409.087 63.1599 407.367 67.7978 407.367 73.444C407.367 79.0317 409.086 83.6422 412.016 86.8457C414.939 90.0422 419.125 91.9026 424.198 91.9026C433.901 91.9026 440.917 84.3476 440.917 73.444C440.917 67.7941 439.222 63.1539 436.333 59.9377ZM549.119 68.9572H581.295C580.928 65.6071 580.17 63.6486 578.614 61.4042C575.508 57.2251 570.473 54.6463 565.002 54.6463C559.532 54.6463 554.626 57.2217 551.75 61.4861C550.391 63.6293 549.731 65.5009 549.119 68.9572ZM274.955 27.1012C271.798 27.1012 269.43 29.4749 269.43 32.6397C269.43 35.8046 271.798 38.1783 274.842 38.1783C277.887 38.1783 280.368 35.8046 280.368 32.7528C280.368 29.5879 278 27.1012 274.955 27.1012Z" fill="white"/>
</svg>