<svg width="163" height="30" viewBox="0 0 163 30" fill="none" xmlns="http://www.w3.org/2000/svg">
<g clip-path="url(#clip0)">
<path d="M26.6871 12.6207C28.0831 12.5535 29.3188 13.6365 29.4393 15.0337C29.9614 21.7927 23.887 29.3517 15.17 29.5939C13.773 29.6327 12.6091 28.5285 12.5704 27.1276C12.5317 25.7268 13.6328 24.5597 15.0299 24.5208C20.8128 24.3602 24.4764 19.3652 24.2808 15.2769C24.2139 13.877 25.2912 12.6878 26.6871 12.6207Z" fill="url(#paint0_linear)"/>
<path d="M3.00285 12.4768C4.40039 12.4768 5.53333 13.6129 5.53333 15.0143C5.53333 20.8636 10.2365 24.6491 14.934 24.5332C16.3312 24.4987 17.4916 25.6065 17.526 27.0075C17.5604 28.4085 16.4557 29.5722 15.0586 29.6066C7.71259 29.7879 0.447266 23.9067 0.447266 15.0143C0.447266 13.6129 1.60531 12.4768 3.00285 12.4768Z" fill="url(#paint1_linear)"/>
<path d="M20.3657 15.2111C20.3657 13.7763 21.536 12.6132 22.9797 12.6132L26.7892 12.6132C28.2328 12.6132 29.4393 13.7763 29.4393 15.2111C29.4393 16.6459 28.2328 17.809 26.7892 17.809H22.9797C21.536 17.809 20.3657 16.6459 20.3657 15.2111Z" fill="#45C492"/>
<path d="M12.3726 15.2149C12.3726 13.778 13.5355 12.6132 14.9684 12.6132C16.4013 12.6132 17.5641 13.778 17.5641 15.2149C17.5641 16.6517 16.4013 17.8166 14.9684 17.8166C13.5355 17.8166 12.3726 16.6517 12.3726 15.2149Z" fill="#45C492"/>
<path fill-rule="evenodd" clip-rule="evenodd" d="M17.4921 3.0592C17.5501 4.45942 16.4651 5.64166 15.0688 5.69981C9.04099 5.95083 5.3611 10.6884 5.54022 15.1869C5.59598 16.5872 4.53181 17.7677 3.13539 17.8236C1.73896 17.8795 0.510944 16.7494 0.455187 15.3491C0.163295 8.01844 6.26716 0.771496 14.8588 0.629175C16.2551 0.571025 17.4341 1.65898 17.4921 3.0592Z" fill="#45C492"/>
<path d="M49.3526 16.5358H52.0388C51.838 17.2841 51.5214 17.9622 51.0889 18.5702C50.6719 19.1626 50.1236 19.638 49.4439 19.9966C48.7643 20.3551 47.938 20.5344 46.9649 20.5344C45.8992 20.5344 44.9338 20.285 44.0689 19.7861C43.2194 19.2873 42.5475 18.5936 42.0532 17.705C41.559 16.8008 41.3118 15.7563 41.3118 14.5716C41.3118 13.3712 41.559 12.3345 42.0532 11.4615C42.5629 10.5729 43.2425 9.887 44.0921 9.40374C44.957 8.92047 45.9146 8.67884 46.9649 8.67884C48.0925 8.67884 49.0501 8.91268 49.8378 9.38036C50.641 9.84803 51.2665 10.4716 51.7145 11.2511L53.9386 9.73111C53.2281 8.5931 52.2782 7.70452 51.0889 7.06536C49.915 6.42621 48.5404 6.10663 46.9649 6.10663C45.7447 6.10663 44.6095 6.31708 43.5592 6.73799C42.5243 7.14331 41.6208 7.72011 40.8485 8.46839C40.0916 9.21667 39.497 10.113 39.0645 11.1575C38.6475 12.1864 38.439 13.3244 38.439 14.5716C38.439 15.8187 38.6475 16.9645 39.0645 18.009C39.4815 19.0534 40.0685 19.9576 40.8253 20.7215C41.5976 21.4854 42.5012 22.0777 43.536 22.4986C44.5709 22.904 45.6984 23.1066 46.9186 23.1066C48.216 23.1066 49.3667 22.8728 50.3707 22.4051C51.3746 21.9219 52.2164 21.2671 52.896 20.4409C53.5756 19.6147 54.0854 18.6715 54.4252 17.6114C54.765 16.5358 54.9194 15.3978 54.8885 14.1974H49.3526V16.5358Z" fill="#555555"/>
<path d="M60.4035 16.5592H62.0716L66.1724 22.7559H69.4855L64.8982 16.2552C66.0257 15.9122 66.9061 15.3276 67.5394 14.5014C68.1881 13.6752 68.5124 12.6697 68.5124 11.4849C68.5124 10.456 68.2653 9.55963 67.771 8.79576C67.2922 8.03189 66.6126 7.4395 65.7322 7.01859C64.8673 6.59769 63.8479 6.38723 62.674 6.38723H57.6696V22.7559H60.4035V16.5592ZM60.4035 14.2909V8.77238H62.5582C63.5003 8.77238 64.2572 9.01401 64.8287 9.49727C65.4002 9.98054 65.6859 10.6587 65.6859 11.5317C65.6859 12.4047 65.4002 13.0828 64.8287 13.5661C64.2572 14.0493 63.5003 14.2909 62.5582 14.2909H60.4035Z" fill="#555555"/>
<path d="M71.4485 6.38723V22.7559H74.2287V6.38723H71.4485Z" fill="#555555"/>
<path d="M83.0649 22.7559C84.7176 22.7559 86.1695 22.4207 87.4206 21.7504C88.6716 21.0644 89.6447 20.1135 90.3398 18.8976C91.0503 17.666 91.4055 16.224 91.4055 14.5716C91.4055 12.9191 91.0503 11.4849 90.3398 10.2689C89.6447 9.03739 88.6716 8.08645 87.4206 7.41612C86.1695 6.7302 84.7176 6.38723 83.0649 6.38723H77.8288V22.7559H83.0649ZM80.6091 20.1603V8.98283H82.9954C84.0611 8.98283 85.011 9.19329 85.8451 9.61419C86.6946 10.0351 87.3588 10.6587 87.8376 11.4849C88.3318 12.3111 88.579 13.34 88.579 14.5716C88.579 15.8031 88.3318 16.832 87.8376 17.6582C87.3588 18.4844 86.6946 19.108 85.8451 19.5289C85.011 19.9498 84.0611 20.1603 82.9954 20.1603H80.6091Z" fill="#555555"/>
<path d="M95.2323 17.2373L93.1471 18.6169C93.6568 19.9576 94.4523 21.0411 95.5335 21.8673C96.6301 22.6935 97.8735 23.1066 99.2636 23.1066C100.993 23.1066 102.33 22.6779 103.272 21.8205C104.214 20.9475 104.685 19.7627 104.685 18.2662C104.685 17.2997 104.476 16.4968 104.059 15.8577C103.642 15.2029 103.117 14.6807 102.484 14.2909C101.866 13.8856 101.233 13.5661 100.584 13.3322C99.9355 13.0828 99.3254 12.8334 98.7539 12.5839C98.1824 12.3345 97.719 12.0461 97.3638 11.7187C97.024 11.3914 96.8541 10.9938 96.8541 10.5262C96.8541 9.93377 97.0626 9.4661 97.4796 9.12313C97.9121 8.76458 98.4836 8.58531 99.1941 8.58531C99.9818 8.58531 100.615 8.81915 101.094 9.28682C101.588 9.7545 102.005 10.3157 102.345 10.9705L104.476 9.63758C104.26 9.07637 103.92 8.53075 103.457 8.00071C102.994 7.45509 102.399 7.00301 101.673 6.64446C100.947 6.2859 100.09 6.10663 99.1014 6.10663C98.1283 6.10663 97.2557 6.2859 96.4834 6.64446C95.7265 6.98742 95.1242 7.47848 94.6762 8.11763C94.2283 8.75679 94.0044 9.51286 94.0044 10.3859C94.0044 11.1185 94.1434 11.7577 94.4214 12.3033C94.6994 12.8334 95.0547 13.2854 95.4871 13.6596C95.9196 14.0337 96.3753 14.3455 96.8541 14.5949C97.3483 14.8288 97.7962 15.0236 98.1978 15.1795C98.8157 15.4134 99.3949 15.6628 99.9355 15.9278C100.492 16.1772 100.939 16.4968 101.279 16.8865C101.634 17.2763 101.812 17.7751 101.812 18.3831C101.812 19.0846 101.604 19.6302 101.187 20.02C100.785 20.4097 100.175 20.6046 99.3563 20.6046C98.4141 20.6046 97.6186 20.3084 96.9699 19.716C96.3212 19.1236 95.742 18.2974 95.2323 17.2373Z" fill="#555555"/>
<path d="M106.564 14.5716C106.564 15.7875 106.772 16.9177 107.19 17.9622C107.607 18.9911 108.193 19.8953 108.95 20.6747C109.707 21.4386 110.595 22.0388 111.615 22.4753C112.634 22.8962 113.754 23.1066 114.974 23.1066C116.194 23.1066 117.314 22.8962 118.334 22.4753C119.368 22.0388 120.264 21.4386 121.021 20.6747C121.778 19.8953 122.365 18.9911 122.782 17.9622C123.199 16.9177 123.407 15.7875 123.407 14.5716C123.407 13.3556 123.199 12.2332 122.782 11.2043C122.365 10.1598 121.77 9.26344 120.998 8.51516C120.241 7.75129 119.345 7.1589 118.31 6.73799C117.291 6.31708 116.179 6.10663 114.974 6.10663C113.769 6.10663 112.657 6.31708 111.638 6.73799C110.618 7.1589 109.723 7.75129 108.95 8.51516C108.193 9.26344 107.607 10.1598 107.19 11.2043C106.772 12.2332 106.564 13.3556 106.564 14.5716ZM109.46 14.5716C109.46 13.4491 109.692 12.4514 110.155 11.5784C110.634 10.6898 111.29 9.99613 112.124 9.49727C112.958 8.99842 113.908 8.74899 114.974 8.74899C116.055 8.74899 117.005 8.99842 117.824 9.49727C118.658 9.99613 119.307 10.6898 119.77 11.5784C120.249 12.4514 120.488 13.4491 120.488 14.5716C120.488 15.694 120.249 16.6995 119.77 17.5881C119.307 18.4611 118.658 19.147 117.824 19.6458C117.005 20.1447 116.055 20.3941 114.974 20.3941C113.908 20.3941 112.958 20.1447 112.124 19.6458C111.29 19.147 110.634 18.4611 110.155 17.5881C109.692 16.6995 109.46 15.694 109.46 14.5716Z" fill="#555555"/>
<path d="M129.078 13.7687L134.013 21.2359L138.948 13.7921L140.06 22.7559H142.91L140.685 6.54313L134.013 15.7018L127.364 6.54313L125.139 22.7559H127.966L129.078 13.7687Z" fill="#555555"/>
<path d="M148.257 15.1795H154.976V12.7944H148.257V8.81915H155.439V6.38723H145.569V22.7559H155.439V20.324H148.257V15.1795Z" fill="#555555"/>
</g>
<defs>
<linearGradient id="paint0_linear" x1="15.4392" y1="10.1066" x2="15.4392" y2="37.1066" gradientUnits="userSpaceOnUse">
<stop offset="0.0129262" stop-color="#117069"/>
<stop offset="1" stop-color="#45C492"/>
</linearGradient>
<linearGradient id="paint1_linear" x1="15.4392" y1="10.1066" x2="15.4392" y2="37.1066" gradientUnits="userSpaceOnUse">
<stop offset="0.0129262" stop-color="#117069"/>
<stop offset="1" stop-color="#45C492"/>
</linearGradient>
<clipPath id="clip0">
<rect width="163" height="30" fill="white"/>
</clipPath>
</defs>
</svg>
