<svg width="137" height="27" viewBox="0 0 137 27" fill="none" xmlns="http://www.w3.org/2000/svg">
<path d="M23.5774 10.7711C24.8314 10.7109 25.9413 11.6818 26.0496 12.9345C26.5186 18.9943 20.9621 25.7828 13.1318 25.9999C6.5331 26.1624 0.00683594 20.8896 0.00683594 12.9171C0.00683594 11.6606 1.04708 10.6421 2.30246 10.6421C3.55783 10.6421 4.57551 11.6606 4.57551 12.9171C4.57551 18.1613 8.80024 21.5552 13.0199 21.4513C18.2146 21.3072 21.5916 16.818 21.4159 13.1525C21.3557 11.8975 22.3235 10.8313 23.5774 10.7711Z" fill="url(#paint0_linear)"/>
<path d="M17.8994 13.0937C17.8994 11.8073 18.9507 10.7645 20.2475 10.7645L23.6694 10.7645C24.9662 10.7645 26.05 11.8073 26.05 13.0937C26.05 14.38 24.9662 15.4228 23.6694 15.4228H20.2475C18.9507 15.4228 17.8994 14.38 17.8994 13.0937Z" fill="#00A672"/>
<path d="M10.7188 13.0971C10.7188 11.8088 11.7634 10.7645 13.0505 10.7645C14.3376 10.7645 15.3822 11.8088 15.3822 13.0971C15.3822 14.3853 14.3376 15.4296 13.0505 15.4296C11.7634 15.4296 10.7188 14.3853 10.7188 13.0971Z" fill="#00A672"/>
<path fill-rule="evenodd" clip-rule="evenodd" d="M15.3175 2.19886C15.3696 3.45423 14.395 4.51416 13.1407 4.5663C7.72611 4.79136 4.42055 9.03886 4.58145 13.0719C4.63154 14.3274 3.67563 15.3858 2.42125 15.4359C1.16687 15.486 0.0637748 14.4728 0.0136891 13.2174C-0.248511 6.64507 5.23445 0.147813 12.9521 0.0202155C14.2064 -0.0319192 15.2654 0.943493 15.3175 2.19886Z" fill="#00A672"/>
<g clip-path="url(#clip0)">
<path d="M43.229 14.6081H47.6151C47.393 15.429 47.0428 16.1729 46.5645 16.8399C46.1032 17.4898 45.4968 18.0115 44.7451 18.4048C43.9934 18.7982 43.0795 18.9949 42.0032 18.9949C40.8245 18.9949 39.7568 18.7212 38.8001 18.1739C37.8605 17.6267 37.1174 16.8656 36.5707 15.8907C36.0241 14.8988 35.7507 13.7529 35.7507 12.4531C35.7507 11.1362 36.0241 9.99891 36.5707 9.04117C37.1345 8.06632 37.8862 7.31381 38.8257 6.78363C39.7824 6.25345 40.8416 5.98836 42.0032 5.98836C43.2503 5.98836 44.3095 6.2449 45.1807 6.75797C46.0691 7.27105 46.7609 7.95515 47.2563 8.81028L49.7163 7.14278C48.9305 5.89429 47.8799 4.91945 46.5645 4.21824C45.2661 3.51704 43.7457 3.16644 42.0032 3.16644C40.6536 3.16644 39.398 3.39732 38.2364 3.85909C37.0918 4.30376 36.0924 4.93655 35.2382 5.75748C34.4012 6.5784 33.7434 7.5618 33.2651 8.70767C32.8039 9.83644 32.5732 11.0849 32.5732 12.4531C32.5732 13.8213 32.8039 15.0784 33.2651 16.2242C33.7264 17.3701 34.3755 18.3621 35.2126 19.2001C36.0668 20.0381 37.0662 20.688 38.2107 21.1498C39.3553 21.5945 40.6024 21.8168 41.952 21.8168C43.387 21.8168 44.6597 21.5602 45.7701 21.0472C46.8805 20.517 47.8116 19.7987 48.5632 18.8922C49.3149 17.9858 49.8786 16.9511 50.2545 15.7881C50.6303 14.6081 50.8011 13.3596 50.767 12.0427H43.5949L43.229 14.6081Z" fill="#313131"/>
<path d="M59.0961 12.6071L60.4542 10.2469C60.1809 9.93905 59.8563 9.71672 59.4805 9.5799C59.1046 9.44308 58.7032 9.37467 58.2761 9.37467C57.7807 9.37467 57.2938 9.52859 56.8155 9.83644C56.3371 10.1272 55.9271 10.5376 55.5855 11.0678V9.63121H52.8436V21.432H55.5855V14.7876C55.5855 13.9325 55.7392 13.2484 56.0467 12.7353C56.3542 12.2222 56.8496 11.9657 57.533 11.9657C57.8746 11.9657 58.1565 12.0256 58.3786 12.1453C58.6007 12.2479 58.8398 12.4018 59.0961 12.6071Z" fill="#313131"/>
<path d="M61.841 9.63121V21.432H64.5572V9.63121H61.841ZM61.4566 5.30271C61.4566 5.78158 61.6274 6.18349 61.9691 6.50844C62.3107 6.83339 62.7207 6.99586 63.1991 6.99586C63.6945 6.99586 64.113 6.83339 64.4547 6.50844C64.7964 6.18349 64.9672 5.78158 64.9672 5.30271C64.9672 4.82383 64.7964 4.42192 64.4547 4.09697C64.113 3.77203 63.6945 3.60955 63.1991 3.60955C62.7207 3.60955 62.3107 3.77203 61.9691 4.09697C61.6274 4.42192 61.4566 4.82383 61.4566 5.30271Z" fill="#313131"/>
<path d="M69.2042 15.5316C69.2042 14.3515 69.5544 13.4365 70.2548 12.7866C70.9552 12.1196 71.7838 11.7861 72.7404 11.7861C73.27 11.7861 73.7911 11.9315 74.3036 12.2222C74.8161 12.513 75.2431 12.9406 75.5848 13.5049C75.9265 14.0522 76.0973 14.7278 76.0973 15.5316C76.0973 16.3354 75.9265 17.0195 75.5848 17.5839C75.2431 18.1312 74.8161 18.5502 74.3036 18.8409C73.7911 19.1317 73.27 19.2771 72.7404 19.2771C71.7838 19.2771 70.9552 18.9521 70.2548 18.3022C69.5544 17.6352 69.2042 16.7117 69.2042 15.5316ZM66.3342 15.5316C66.3342 16.8314 66.599 17.9431 67.1286 18.8666C67.6581 19.773 68.3586 20.4742 69.2298 20.9702C70.1011 21.4491 71.0492 21.6885 72.0742 21.6885C72.9283 21.6885 73.6971 21.5004 74.3804 21.1241C75.0808 20.7308 75.6531 20.1835 76.0973 19.4823V21.432H78.8904V2.26413H76.0973V11.5809C75.6531 10.8797 75.0808 10.341 74.3804 9.9647C73.6971 9.57135 72.9283 9.37467 72.0742 9.37467C71.0492 9.37467 70.1011 9.62265 69.2298 10.1186C68.3586 10.5975 67.6581 11.2987 67.1286 12.2222C66.599 13.1287 66.3342 14.2318 66.3342 15.5316Z" fill="#313131"/>
<path d="M82.0358 17.1734L80.4214 18.7383C80.9681 19.6106 81.6941 20.3374 82.5995 20.9189C83.522 21.5004 84.5556 21.7911 85.7002 21.7911C86.9472 21.7911 87.9637 21.4918 88.7495 20.8932C89.5524 20.2776 89.9539 19.3455 89.9539 18.097C89.9539 17.3958 89.8002 16.8228 89.4927 16.3782C89.1852 15.9335 88.7837 15.5658 88.2883 15.2751C87.7929 14.9672 87.2633 14.7021 86.6995 14.4798C86.2554 14.2917 85.8027 14.1206 85.3414 13.9667C84.8972 13.8128 84.53 13.6332 84.2395 13.428C83.9491 13.2227 83.8039 12.9577 83.8039 12.6327C83.8039 12.2736 83.9406 12.017 84.2139 11.8631C84.5043 11.6921 84.8887 11.6066 85.367 11.6066C85.8454 11.6066 86.3408 11.7434 86.8533 12.017C87.3829 12.2907 87.8441 12.6413 88.237 13.0688L89.7745 11.4783C89.3304 10.8797 88.6983 10.3837 87.8783 9.99036C87.0754 9.5799 86.1956 9.37467 85.2389 9.37467C84.5385 9.37467 83.8808 9.50294 83.2658 9.75947C82.6508 10.016 82.1554 10.3837 81.7795 10.8626C81.4037 11.3415 81.2158 11.9229 81.2158 12.6071C81.2158 13.3425 81.3781 13.9411 81.7027 14.4028C82.0443 14.8475 82.4714 15.2066 82.9839 15.4803C83.4964 15.7539 84.026 16.0019 84.5727 16.2242C85.256 16.4808 85.8539 16.7544 86.3664 17.0452C86.896 17.3359 87.1608 17.7378 87.1608 18.2509C87.1608 18.6443 87.0156 18.9436 86.7252 19.1488C86.4518 19.3369 86.0675 19.431 85.572 19.431C85.0595 19.431 84.4787 19.2257 83.8295 18.8153C83.1975 18.3877 82.5995 17.8404 82.0358 17.1734Z" fill="#313131"/>
<path d="M93.9553 15.5316C93.9553 14.4199 94.2885 13.522 94.9547 12.8379C95.638 12.1538 96.4751 11.8118 97.466 11.8118C98.4739 11.8118 99.311 12.1538 99.9772 12.8379C100.643 13.522 100.977 14.4199 100.977 15.5316C100.977 16.6262 100.643 17.524 99.9772 18.2252C99.311 18.9093 98.4739 19.2514 97.466 19.2514C96.4751 19.2514 95.638 18.9093 94.9547 18.2252C94.2885 17.524 93.9553 16.6262 93.9553 15.5316ZM91.111 15.5316C91.111 16.7459 91.3843 17.8148 91.931 18.7383C92.4947 19.6619 93.2549 20.3887 94.2116 20.9189C95.1853 21.432 96.2701 21.6885 97.466 21.6885C98.6789 21.6885 99.7637 21.432 100.72 20.9189C101.677 20.3887 102.429 19.6619 102.975 18.7383C103.539 17.8148 103.821 16.7459 103.821 15.5316C103.821 14.3173 103.539 13.2484 102.975 12.3249C102.429 11.4013 101.677 10.683 100.72 10.1699C99.7637 9.63976 98.6789 9.37467 97.466 9.37467C96.2701 9.37467 95.1853 9.63976 94.2116 10.1699C93.2549 10.683 92.4947 11.4013 91.931 12.3249C91.3843 13.2484 91.111 14.3173 91.111 15.5316Z" fill="#313131"/>
<path d="M122.309 13.9411C122.309 12.4531 122.001 11.3244 121.386 10.5547C120.771 9.76803 119.823 9.37467 118.542 9.37467C117.756 9.37467 117.039 9.56279 116.39 9.93905C115.74 10.2982 115.219 10.8027 114.826 11.4526C114.297 10.0673 113.169 9.37467 111.444 9.37467C110.675 9.37467 110.009 9.55424 109.445 9.9134C108.898 10.2726 108.463 10.7514 108.138 11.35V9.63121H105.422V21.432H108.138V14.2489C108.138 13.4622 108.335 12.8294 108.728 12.3505C109.138 11.8545 109.718 11.6066 110.47 11.6066C111.188 11.6066 111.692 11.8374 111.982 12.2992C112.272 12.7439 112.418 13.3938 112.418 14.2489V21.432H115.211V14.2489C115.211 13.4622 115.407 12.8294 115.8 12.3505C116.21 11.8545 116.791 11.6066 117.543 11.6066C118.26 11.6066 118.764 11.8374 119.055 12.2992C119.362 12.7439 119.516 13.3938 119.516 14.2489V21.432H122.309V13.9411Z" fill="#313131"/>
<path d="M126.849 16.1729H136.254C136.271 16.0361 136.279 15.8993 136.279 15.7625C136.296 15.6257 136.305 15.5059 136.305 15.4033C136.305 13.5391 135.519 12.0683 134.46 10.9909C133.418 9.9134 131.983 9.37467 130.155 9.37467C128.464 9.37467 127.088 9.82788 126.029 10.7343C124.987 11.6408 124.347 12.8208 124.107 14.2746C124.073 14.4798 124.048 14.685 124.031 14.8902C124.013 15.0955 124.005 15.3093 124.005 15.5316C124.005 16.7117 124.253 17.772 124.748 18.7127C125.243 19.6362 125.944 20.3631 126.849 20.8932C127.755 21.4234 128.814 21.6885 130.027 21.6885C131.496 21.6885 132.7 21.3978 133.64 20.8163C134.597 20.2348 135.621 19.4652 136.202 18.5074L133.537 17.5326C133.196 18.1141 132.743 18.5758 132.179 18.9179C131.633 19.2428 130.958 19.4053 130.155 19.4053C129.249 19.4053 128.498 19.1402 127.9 18.6101C127.302 18.0628 126.952 17.2504 126.849 16.1729ZM126.901 14.2489C127.02 13.3767 127.379 12.7011 127.977 12.2222C128.575 11.7263 129.292 11.4783 130.129 11.4783C131.018 11.4783 131.701 11.7263 132.179 12.2222C132.658 12.7182 132.948 13.3938 133.051 14.2489H126.901Z" fill="#313131"/>
</g>
<defs>
<linearGradient id="paint0_linear" x1="14.0709" y1="26.8485" x2="14.0709" y2="12.8193" gradientUnits="userSpaceOnUse">
<stop stop-color="#007A55"/>
<stop offset="1" stop-color="#005037"/>
</linearGradient>
<clipPath id="clip0">
<rect width="104.427" height="19.4428" fill="white" transform="translate(32.5732 2.33737)"/>
</clipPath>
</defs>
</svg>
