<svg width="1392" height="245" viewBox="0 0 1392 245" fill="none" xmlns="http://www.w3.org/2000/svg">
<path d="M221.494 101.381C233.274 100.815 243.701 109.953 244.718 121.743C249.124 178.78 196.925 242.674 123.366 244.717C61.3771 246.247 0.0683594 196.619 0.0683594 121.58C0.0683594 109.754 9.84059 100.167 21.6338 100.167C33.427 100.167 42.9873 109.754 42.9873 121.58C42.9873 170.939 82.675 202.883 122.316 201.905C171.115 200.549 202.839 158.295 201.189 123.795C200.623 111.983 209.715 101.948 221.494 101.381Z" fill="url(#paint0_linear)"/>
<path d="M168.15 123.24C168.15 111.133 178.026 101.318 190.208 101.318L222.354 101.318C234.537 101.318 244.718 111.133 244.718 123.24C244.718 135.348 234.537 145.163 222.354 145.163H190.208C178.026 145.163 168.15 135.348 168.15 123.24Z" fill="#00A672"/>
<path d="M100.7 123.272C100.7 111.147 110.513 101.318 122.604 101.318C134.696 101.318 144.509 111.147 144.509 123.272C144.509 135.397 134.696 145.227 122.604 145.227C110.513 145.227 100.7 135.397 100.7 123.272Z" fill="#00A672"/>
<path fill-rule="evenodd" clip-rule="evenodd" d="M143.902 20.6961C144.392 32.5119 135.236 42.4882 123.453 42.979C72.5875 45.0972 41.5346 85.0757 43.0461 123.036C43.5166 134.852 34.5367 144.814 22.7528 145.286C10.969 145.758 0.606388 136.221 0.135872 124.405C-2.32727 62.5448 49.1805 1.3912 121.681 0.190227C133.464 -0.300477 143.413 8.88031 143.902 20.6961Z" fill="#00A672"/>
<path d="M412.099 139.104H446.6C444.78 145.925 441.91 152.107 437.99 157.649C434.209 163.048 429.239 167.383 423.079 170.651C416.918 173.919 409.428 175.553 400.608 175.553C390.947 175.553 382.196 173.28 374.356 168.732C366.656 164.185 360.565 157.862 356.085 149.762C351.605 141.52 349.365 131.999 349.365 121.2C349.365 110.258 351.605 100.808 356.085 92.8506C360.705 84.7509 366.866 78.4984 374.566 74.0933C382.406 69.6881 391.087 67.4856 400.608 67.4856C410.828 67.4856 419.509 69.6171 426.649 73.8801C433.929 78.1432 439.6 83.8272 443.66 90.9322L463.821 77.0774C457.381 66.704 448.77 58.6043 437.99 52.7781C427.349 46.952 414.888 44.0389 400.608 44.0389C389.547 44.0389 379.256 45.9573 369.736 49.794C360.355 53.4886 352.165 58.7464 345.164 65.5672C338.304 72.3881 332.914 80.5589 328.994 90.0796C325.213 99.4583 323.323 109.832 323.323 121.2C323.323 132.568 325.213 143.012 328.994 152.533C332.774 162.054 338.094 170.296 344.954 177.259C351.955 184.221 360.145 189.621 369.526 193.458C378.906 197.153 389.127 199 400.187 199C411.948 199 422.379 196.868 431.479 192.605C440.58 188.2 448.21 182.232 454.37 174.701C460.531 167.169 465.151 158.572 468.231 148.909C471.311 139.104 472.711 128.731 472.431 117.789H412.099V139.104Z" fill="#1E3F59"/>
<path d="M522.422 139.318H537.543L574.715 195.803H604.747L563.165 136.547C573.385 133.42 581.366 128.092 587.106 120.56C592.986 113.029 595.926 103.863 595.926 93.0637C595.926 83.6851 593.686 75.5143 589.206 68.5514C584.866 61.5884 578.705 56.1886 570.725 52.3518C562.885 48.5151 553.644 46.5967 543.004 46.5967H497.641V195.803H522.422V139.318ZM522.422 118.642V68.3382H541.953C550.494 68.3382 557.354 70.5408 562.535 74.9459C567.715 79.351 570.305 85.5324 570.305 93.4901C570.305 101.448 567.715 107.629 562.535 112.034C557.354 116.439 550.494 118.642 541.953 118.642H522.422Z" fill="#1E3F59"/>
<path d="M622.54 46.5967V195.803H647.742V46.5967H622.54Z" fill="#1E3F59"/>
<path d="M727.838 195.803C742.819 195.803 755.98 192.748 767.32 186.637C778.661 180.385 787.482 171.717 793.782 160.633C800.222 149.407 803.442 136.262 803.442 121.2C803.442 106.137 800.222 93.0637 793.782 81.9799C787.482 70.7539 778.661 62.0858 767.32 55.9754C755.98 49.723 742.819 46.5967 727.838 46.5967H680.376V195.803H727.838ZM705.577 172.143V70.2566H727.208C736.869 70.2566 745.479 72.1749 753.04 76.0116C760.74 79.8484 766.76 85.5324 771.101 93.0637C775.581 100.595 777.821 109.974 777.821 121.2C777.821 132.426 775.581 141.804 771.101 149.336C766.76 156.867 760.74 162.551 753.04 166.388C745.479 170.225 736.869 172.143 727.208 172.143H705.577Z" fill="#1E3F59"/>
<path d="M838.13 145.499L819.229 158.075C823.85 170.296 831.06 180.172 840.861 187.703C850.801 195.234 862.072 199 874.672 199C890.353 199 902.464 195.092 911.004 187.277C919.545 179.319 923.815 168.519 923.815 154.878C923.815 146.067 921.925 138.749 918.145 132.923C914.365 126.955 909.604 122.194 903.864 118.642C898.264 114.947 892.523 112.034 886.643 109.903C880.763 107.629 875.233 105.355 870.052 103.082C864.872 100.808 860.672 98.1794 857.452 95.1953C854.371 92.2111 852.831 88.5876 852.831 84.3246C852.831 78.9247 854.721 74.6617 858.502 71.5355C862.422 68.2671 867.602 66.633 874.042 66.633C881.183 66.633 886.923 68.7645 891.263 73.0275C895.744 77.2906 899.524 82.4062 902.604 88.3744L921.925 76.2248C919.965 71.1092 916.885 66.1356 912.685 61.3042C908.484 56.3307 903.094 52.2097 896.514 48.9414C889.933 45.6731 882.163 44.0389 873.202 44.0389C864.382 44.0389 856.471 45.6731 849.471 48.9414C842.611 52.0676 837.15 56.5438 833.09 62.37C829.03 68.1961 827 75.088 827 83.0456C827 89.7244 828.26 95.5505 830.78 100.524C833.3 105.355 836.52 109.476 840.441 112.887C844.361 116.297 848.491 119.139 852.831 121.413C857.312 123.544 861.372 125.321 865.012 126.742C870.612 128.873 875.863 131.147 880.763 133.563C885.803 135.836 889.863 138.749 892.944 142.302C896.164 145.854 897.774 150.401 897.774 155.943C897.774 162.338 895.884 167.311 892.103 170.864C888.463 174.417 882.933 176.193 875.512 176.193C866.972 176.193 859.762 173.493 853.881 168.093C848.001 162.693 842.751 155.162 838.13 145.499Z" fill="#1E3F59"/>
<path d="M940.847 121.2C940.847 132.284 942.738 142.586 946.518 152.107C950.298 161.485 955.618 169.727 962.479 176.832C969.339 183.795 977.389 189.266 986.63 193.245C995.87 197.082 1006.02 199 1017.08 199C1028.14 199 1038.29 197.082 1047.53 193.245C1056.91 189.266 1065.03 183.795 1071.89 176.832C1078.75 169.727 1084.08 161.485 1087.86 152.107C1091.64 142.586 1093.53 132.284 1093.53 121.2C1093.53 110.116 1091.64 99.8846 1087.86 90.5059C1084.08 80.9852 1078.69 72.8144 1071.68 65.9935C1064.82 59.0306 1056.7 53.6307 1047.32 49.794C1038.08 45.9573 1028 44.0389 1017.08 44.0389C1006.16 44.0389 996.08 45.9573 986.84 49.794C977.599 53.6307 969.479 59.0306 962.479 65.9935C955.618 72.8144 950.298 80.9852 946.518 90.5059C942.738 99.8846 940.847 110.116 940.847 121.2ZM967.099 121.2C967.099 110.968 969.199 101.874 973.399 93.9164C977.739 85.8166 983.69 79.4931 991.25 74.9459C998.811 70.3987 1007.42 68.125 1017.08 68.125C1026.88 68.125 1035.49 70.3987 1042.91 74.9459C1050.47 79.4931 1056.35 85.8166 1060.55 93.9164C1064.89 101.874 1067.06 110.968 1067.06 121.2C1067.06 131.431 1064.89 140.597 1060.55 148.696C1056.35 156.654 1050.47 162.906 1042.91 167.454C1035.49 172.001 1026.88 174.274 1017.08 174.274C1007.42 174.274 998.811 172.001 991.25 167.454C983.69 162.906 977.739 156.654 973.399 148.696C969.199 140.597 967.099 131.431 967.099 121.2Z" fill="#1E3F59"/>
<path d="M1144.93 113.882L1189.66 181.948L1234.39 114.095L1244.47 195.803H1270.3L1250.14 48.0178L1189.66 131.502L1129.39 48.0178L1109.23 195.803H1134.85L1144.93 113.882Z" fill="#1E3F59"/>
<path d="M1318.77 126.742H1379.68V105H1318.77V68.7645H1383.88V46.5967H1294.41V195.803H1383.88V173.635H1318.77V126.742Z" fill="#1E3F59"/>
<defs>
<linearGradient id="paint0_linear" x1="122.359" y1="244.718" x2="122.359" y2="138.843" gradientUnits="userSpaceOnUse">
<stop stop-color="#00A672"/>
<stop offset="1" stop-color="#006B4A"/>
</linearGradient>
</defs>
</svg>
