<svg  width="486" height="418" viewBox="0 0 486 418" fill="none" xmlns="http://www.w3.org/2000/svg">
<rect x="182" y="190" width="98" height="98" rx="49" fill="url(#paint0_linear)"/>
<circle opacity="0.4" cx="231" cy="239" r="68.5" stroke="#5FB096"/>
<circle opacity="0.15" cx="231" cy="239" r="85.5" stroke="#5FB096"/>
<path opacity="0.6" fill-rule="evenodd" clip-rule="evenodd" d="M231.659 265.969C247.768 265.392 258.968 251.391 258 238.864C257.776 236.262 255.475 234.246 252.875 234.371C250.276 234.496 248.27 236.71 248.395 239.317C248.759 246.93 241.937 256.231 231.169 256.53C231.038 256.534 230.908 256.543 230.781 256.557C230.85 256.556 230.92 256.555 230.99 256.553C233.592 256.489 235.753 258.551 235.817 261.16C235.877 263.621 234.05 265.689 231.659 265.969Z" fill="url(#paint1_linear)"/>
<path d="M241.104 239.194C241.104 236.523 243.284 234.357 245.972 234.357H253.065C255.753 234.357 258 236.523 258 239.194C258 241.866 255.753 244.032 253.065 244.032H245.972C243.284 244.032 241.104 241.866 241.104 239.194Z" fill="white"/>
<path d="M226.221 239.202C226.221 236.526 228.386 234.357 231.054 234.357C233.722 234.357 235.888 236.526 235.888 239.202C235.888 241.877 233.722 244.046 231.054 244.046C228.386 244.046 226.221 241.877 226.221 239.202Z" fill="white"/>
<path fill-rule="evenodd" clip-rule="evenodd" d="M235.754 216.567C235.862 219.174 233.842 221.376 231.241 221.484C220.017 221.951 213.165 230.773 213.499 239.149C213.602 241.757 211.621 243.955 209.021 244.059C206.42 244.163 204.134 242.059 204.03 239.451C203.486 225.801 214.852 212.307 230.85 212.042C233.45 211.934 235.646 213.96 235.754 216.567Z" fill="white"/>
<path opacity="0.7" fill-rule="evenodd" clip-rule="evenodd" d="M204.015 238.945C204.079 255.438 217.576 266.337 231.222 266C233.824 265.936 235.881 263.769 235.817 261.16C235.753 258.551 233.592 256.489 230.99 256.553C222.437 256.764 213.873 250.028 213.498 239.546C213.398 241.976 211.488 243.96 209.021 244.059C206.42 244.163 204.134 242.059 204.03 239.452C204.023 239.283 204.018 239.114 204.015 238.945Z" fill="url(#paint2_linear)"/>
<defs>
<linearGradient id="paint0_linear" x1="297" y1="219" x2="206.993" y2="174.739" gradientUnits="userSpaceOnUse">
<stop stop-color="#27A59B"/>
<stop offset="1" stop-color="#4BCB8F"/>
</linearGradient>
<linearGradient id="paint1_linear" x1="255.831" y1="244.55" x2="179.7" y2="264.958" gradientUnits="userSpaceOnUse">
<stop stop-color="white" stop-opacity="0.89"/>
<stop offset="1" stop-color="white" stop-opacity="0.51"/>
</linearGradient>
<linearGradient id="paint2_linear" x1="229.28" y1="258.388" x2="188.809" y2="214.699" gradientUnits="userSpaceOnUse">
<stop stop-color="white"/>
<stop offset="1" stop-color="white" stop-opacity="0.8"/>
</linearGradient>
</defs>
</svg>