<svg width="28" height="28" viewBox="0 0 28 28" fill="none" xmlns="http://www.w3.org/2000/svg">
<rect x="3" y="4" width="22" height="20" rx="3" fill="#45C492" fill-opacity="0.09"/>
<path d="M22.1667 19.7167C23.5844 19.4288 24.8445 18.6244 25.7025 17.4597C26.5605 16.295 26.9551 14.853 26.8097 13.4138C26.6643 11.9745 25.9893 10.6405 24.9157 9.67094C23.8422 8.70133 22.4466 8.16521 21 8.16667H19.53C19.1435 6.6702 18.3914 5.29315 17.3412 4.15915C16.2911 3.02514 14.9757 2.16968 13.5133 1.66957C12.0509 1.16946 10.4871 1.04035 8.96249 1.29384C7.43785 1.54733 6.00002 2.17548 4.77809 3.12189C3.55617 4.06831 2.5884 5.30336 1.96168 6.71616C1.33495 8.12897 1.06889 9.6753 1.18738 11.2163C1.30587 12.7573 1.8052 14.2448 2.64055 15.5452C3.47589 16.8456 4.62109 17.9182 5.97334 18.6667" stroke="#686969" stroke-width="1.5" stroke-linecap="round" stroke-linejoin="round"/>
<path fill-rule="evenodd" clip-rule="evenodd" d="M15.7214 12.0013C16.1809 12.3076 16.3051 12.9285 15.9987 13.388L12.3685 18.8333H17.5C17.8688 18.8333 18.2077 19.0363 18.3817 19.3615C18.5557 19.6866 18.5366 20.0812 18.3321 20.388L13.6654 27.388C13.359 27.8476 12.7382 27.9717 12.2786 27.6654C11.8191 27.359 11.6949 26.7382 12.0013 26.2786L15.6315 20.8333H10.5C10.1312 20.8333 9.79235 20.6303 9.61833 20.3052C9.44431 19.98 9.46338 19.5855 9.66795 19.2786L14.3346 12.2786C14.641 11.8191 15.2618 11.6949 15.7214 12.0013Z" fill="#45C492" fill-opacity="0.4"/>
</svg>
