<svg width="28" height="28" viewBox="0 0 28 28" fill="none" xmlns="http://www.w3.org/2000/svg">
<path d="M13.9999 2.33333H4.92584C4.23825 2.33333 3.57881 2.60648 3.0926 3.09268C2.6064 3.57889 2.33325 4.23832 2.33325 4.92592V23.0741C2.33325 23.7617 2.6064 24.4211 3.0926 24.9073C3.57881 25.3935 4.23825 25.6667 4.92584 25.6667H23.074C23.7616 25.6667 24.421 25.3935 24.9072 24.9073C25.3934 24.4211 25.6666 23.7617 25.6666 23.0741V14" stroke="var(--primary-color-dark)" stroke-width="1.5" stroke-linecap="round" stroke-linejoin="round"/>
<rect x="4.8667" y="4.53334" width="20.5333" height="19.6" rx="3" fill="#45C492" fill-opacity="0.09"/>
<rect opacity="0.4" x="8.83325" y="8.33333" width="10.5" height="2.33333" fill="#45C492"/>
<rect opacity="0.4" x="8.83325" y="13" width="10.5" height="2.33333" fill="#45C492"/>
<rect opacity="0.4" x="8.83325" y="17.6667" width="10.5" height="2.33333" fill="#45C492"/>
<path d="M23.4098 1.61598C23.8042 1.22158 24.3391 1 24.8969 1C25.4547 1 25.9896 1.22158 26.384 1.61598C26.7784 2.01039 27 2.54532 27 3.1031C27 3.66087 26.7784 4.1958 26.384 4.59021L16.9656 14.0086L13 15L13.9914 11.0344L23.4098 1.61598Z" stroke="var(--primary-color-dark)" stroke-width="1.5" stroke-linecap="round" stroke-linejoin="round"/>
</svg>
