<svg width="20" height="20" fill="none">
  <path fill="#3B9CDA" d="M4.297 9.147a5.98 5.98 0 0 0 .885 5.43l-1.801.918a8.014 8.014 0 0 1-.994-6.968l1.91.62Z"/>
  <path fill="#3B9CDA" d="M5.76 6.76A5.98 5.98 0 0 0 4.083 12H2.062A8.014 8.014 0 0 1 4.34 5.34l1.42 1.42Z"/>
  <path fill="#3B9CDA" d="M10 3c-.03 0-.06.002-.09.005-.03.002-.06.005-.09.005l1.09-1.09L9.5.5 6 4l3.5 3.5 1.41-1.41-1.08-1.08c.031 0 .063-.003.093-.005C9.95 5.002 9.976 5 10 5h.002A6 6 0 0 1 10 17H0v2h10a8 8 0 0 0 0-16ZM15.5 19H20v-2h-2a9.998 9.998 0 0 1-2 2h-.5Z"/>
</svg>
