<?xml version="1.0" encoding="UTF-8" standalone="no"?>
<svg width="217px" height="237px" viewBox="0 0 217 237" version="1.1" xmlns="http://www.w3.org/2000/svg" xmlns:xlink="http://www.w3.org/1999/xlink">
    <!-- Generator: Sketch 49 (51002) - http://www.bohemiancoding.com/sketch -->
    <title>Avataaar/Circle</title>
    <desc>Created with Sketch.</desc>
    <defs>
        <circle id="path-1" cx="108" cy="108" r="108"></circle>
        <path d="M10.8,144 L-3.19744231e-14,144 L-3.19744231e-14,-1.42108547e-14 L237.6,-1.42108547e-14 L237.6,144 L226.8,144 C226.8,203.646753 178.446753,252 118.8,252 C59.153247,252 10.8,203.646753 10.8,144 Z" id="path-3"></path>
        <path d="M111.6,130.149856 L111.6,146.7 L115.2,146.7 C150.988052,146.7 180,175.711948 180,211.5 L180,219.6 L0,219.6 L0,211.5 C-4.38277231e-15,175.711948 29.0119482,146.7 64.8,146.7 L68.4,146.7 L68.4,130.149856 C52.8863711,122.780134 41.7350021,107.71831 39.8746249,89.8931146 C34.6322794,89.152008 30.6,84.6468986 30.6,79.2 L30.6,66.6 C30.6,61.2486067 34.492116,56.8062658 39.6,55.9493252 L39.6,50.4 C39.6,22.5648486 62.1648486,5.11323436e-15 90,0 C117.835151,-5.11323436e-15 140.4,22.5648486 140.4,50.4 L140.4,55.9493252 C145.507884,56.8062658 149.4,61.2486067 149.4,66.6 L149.4,79.2 C149.4,84.6468986 145.367721,89.152008 140.125375,89.8931146 C138.264998,107.71831 127.113629,122.780134 111.6,130.149856 Z" id="path-5"></path>
        <path d="M97.2,11.763797 L97.2,28.8 C97.2,40.7293506 106.870649,50.4 118.8,50.4 C130.729351,50.4 140.4,40.7293506 140.4,28.8 L140.4,11.763797 C156.526829,13.5683442 168.948142,18.4966507 169.196217,31.1804708 C192.46821,41.0112839 208.8,64.0481632 208.8,90.8995362 L208.8,99 L28.8,99 L28.8,90.8995362 C28.8,64.0481632 45.1317896,41.0112839 68.4037824,31.1804849 C68.6518582,18.4966507 81.0731706,13.5683442 97.2,11.763797 Z" id="path-7"></path>
        <path d="M31.6060596,13.6152695 C32.5581409,22.1578223 39.8033886,28.8 48.6,28.8 C57.4237849,28.8 64.6866067,22.1167224 65.6025833,13.5360492 C65.6763017,12.8454714 64.9050687,11.7 63.9384903,11.7 C50.5338783,11.7 40.2641292,11.7 33.3781419,11.7 C32.4059551,11.7 31.5108052,12.7605992 31.6060596,13.6152695 Z" id="path-9"></path>
        <path d="M12.6,12.6433068 C21.2489845,12.6433068 25.2,16.6495019 25.2,10.4055945 C25.2,4.16168706 19.5587878,0 12.6,0 C5.64121215,0 0,4.16168706 0,10.4055945 C0,16.6495019 3.95101553,12.6433068 12.6,12.6433068 Z" id="path-11"></path>
        <path d="M12.6,12.6433068 C21.2489845,12.6433068 25.2,16.6495019 25.2,10.4055945 C25.2,4.16168706 19.5587878,0 12.6,0 C5.64121215,0 0,4.16168706 0,10.4055945 C0,16.6495019 3.95101553,12.6433068 12.6,12.6433068 Z" id="path-13"></path>
        <rect id="path-15" x="0" y="0" width="237.6" height="252"></rect>
        <path d="M162.134982,35.9283675 C159.651186,33.3903589 156.767321,31.2361467 153.962327,29.0758953 C153.34341,28.5996978 152.714559,28.134975 152.109489,27.6406597 C151.971919,27.528329 150.562799,26.5191649 150.394222,26.147749 C149.988434,25.2542371 150.223538,25.9499625 150.27953,24.8837271 C150.350272,23.5354572 153.099576,19.7273874 151.048059,18.8541071 C150.145572,18.4700088 148.535665,19.4921574 147.669903,19.8297533 C145.976612,20.4904508 144.262549,21.0539159 142.512061,21.5397762 C143.35073,19.8687067 144.949799,16.5235479 141.944319,17.4188716 C139.60291,18.1164087 137.421047,19.9097738 135.068199,20.7534616 C135.846662,19.4773611 138.959911,15.5231407 136.146788,15.302103 C135.271394,15.2332551 132.724081,16.8753361 131.781557,17.2256145 C128.958501,18.2749399 126.074937,18.9531514 123.110999,19.4873259 C113.032827,21.3036403 101.247515,20.7857717 91.9231203,25.3741169 C84.7345316,28.9113248 77.6362518,34.399825 73.4835474,41.3887851 C69.4810568,48.1253031 67.9840362,55.4977576 67.1462706,63.2171688 C66.531568,68.8823181 66.4815971,74.7383087 66.7690804,80.4239915 C66.8630017,82.2868082 67.0725183,90.8737625 69.7787751,88.2732473 C71.1270871,86.9775192 71.1171531,81.7453865 71.4567146,79.9743669 C72.1325262,76.4507473 72.7830513,72.9114256 73.9098054,69.5004387 C75.8953972,63.4895405 78.2377091,60.6866929 83.1842288,56.5467645 C86.3585867,53.890386 88.5877115,50.3000323 91.625402,47.6201006 C92.9899695,46.4164715 91.9487079,46.5417866 94.1426122,46.6997139 C95.6164535,46.8057033 97.0969174,46.8461665 98.573769,46.8848179 C101.990155,46.9735954 105.411959,46.950948 108.829248,46.9630266 C115.711389,46.9877877 122.561319,47.0850201 129.436837,46.7247769 C132.492288,46.5647359 135.556168,46.4780722 138.603492,46.1954338 C140.305814,46.0375065 143.326346,44.9465101 144.727639,45.7802331 C146.010026,46.5429945 147.341781,49.0335947 148.262631,50.0536296 C150.438172,52.4642093 153.032145,54.3052847 155.576147,56.2819419 C160.880892,60.4034505 163.559153,61.9800218 165.170264,68.4209169 C166.775354,74.8379568 166.325315,80.791335 168.312111,87.106311 C168.661606,88.2166332 169.586068,90.1304819 170.725767,88.4150236 C170.93739,88.0964515 170.882603,86.3451249 170.882603,85.3374051 C170.882603,81.269634 171.912727,78.2175395 171.899782,74.1232077 C171.849209,61.6744341 171.446733,45.4417478 162.134982,35.9283675 Z" id="path-17"></path>
    </defs>
    <g id="Website" stroke="none" stroke-width="1" fill="none" fill-rule="evenodd">
        <g id="Home" transform="translate(-611.000000, -372.000000)">
            <g id="Avataaar/Circle" transform="translate(601.000000, 357.000000)">
                <g id="Circle" stroke-width="1" fill-rule="evenodd" transform="translate(10.800000, 36.000000)">
                    <mask id="mask-2" fill="white">
                        <use xlink:href="#path-1"></use>
                    </mask>
                    <use id="Circle-Background" fill="#E6E6E6" xlink:href="#path-1"></use>
                    <g id="Color/Palette/Purple" mask="url(#mask-2)" fill="#8C43FF">
                        <rect id="ðŸ–Color" x="0" y="0" width="216.445361" height="216"></rect>
                    </g>
                </g>
                <mask id="mask-4" fill="white">
                    <use xlink:href="#path-3"></use>
                </mask>
                <g id="Mask"></g>
                <g id="Avataaar" stroke-width="1" fill-rule="evenodd" mask="url(#mask-4)">
                    <g id="Body" transform="translate(28.800000, 32.400000)">
                        <mask id="mask-6" fill="white">
                            <use xlink:href="#path-5"></use>
                        </mask>
                        <use fill="#D0C6AC" xlink:href="#path-5"></use>
                        <g id="Skin/ðŸ‘¶ðŸ»-05-Pale" mask="url(#mask-6)" fill="#FFDBB4">
                            <g transform="translate(-28.800000, 0.000000)" id="Color">
                                <rect x="0" y="0" width="238.383871" height="220.354839"></rect>
                            </g>
                        </g>
                        <path d="M140.4,84.6 L140.4,91.8 C140.4,119.635151 117.835151,142.2 90,142.2 C62.1648486,142.2 39.6,119.635151 39.6,91.8 L39.6,84.6 C39.6,112.435151 62.1648486,135 90,135 C117.835151,135 140.4,112.435151 140.4,84.6 Z" id="Neck-Shadow" fill-opacity="0.100000001" fill="#000000" mask="url(#mask-6)"></path>
                    </g>
                    <g id="Clothing/Hoodie" transform="translate(0.000000, 153.000000)">
                        <mask id="mask-8" fill="white">
                            <use xlink:href="#path-7"></use>
                        </mask>
                        <use id="Hoodie" fill="#B7C1DB" fill-rule="evenodd" xlink:href="#path-7"></use>
                        <g id="Color/Palette/Slate" mask="url(#mask-8)" fill="#293347" fill-rule="evenodd">
                            <rect id="ðŸ–Color" x="0" y="0" width="238.490722" height="99"></rect>
                        </g>
                        <path d="M91.8,55.5651478 L91.8,99 L85.5,99 L85.5,52.3352363 C87.4833788,53.5140519 89.5920924,54.594709 91.8,55.5651478 Z M152.1,52.3352363 L152.1,88.65 C152.1,90.389697 150.689697,91.8 148.95,91.8 C147.210303,91.8 145.8,90.389697 145.8,88.65 L145.8,55.5651478 C148.007908,54.594709 150.116621,53.5140519 152.1,52.3352363 Z" id="Straps" fill="#F4F4F4" fill-rule="evenodd" mask="url(#mask-8)"></path>
                        <path d="M118.790834,61.1999996 C88.6778795,61.1970817 58.95,46.8162086 58.95,29.0769231 C58.95,19.1185963 68.3183786,14.0140604 81.8641196,11.4519183 C73.6875715,14.4670138 68.4,19.5354491 68.4,27.9692308 C68.4,46.3198667 93.4330513,61.196415 118.790834,61.1999994 Z M155.73588,11.4519183 C169.281621,14.0140604 178.65,19.1185963 178.65,29.0769231 C178.65,46.8162086 148.92212,61.1970817 118.809166,61.1999996 C144.166949,61.196415 169.2,46.3198667 169.2,27.9692308 C169.2,19.5354491 163.912428,14.4670138 155.73588,11.4519183 Z" id="Shadow" fill-opacity="0.16" fill="#000000" fill-rule="evenodd" mask="url(#mask-8)"></path>
                    </g>
                    <g id="Face" transform="translate(68.400000, 73.800000)">
                        <g id="Mouth/Smile" transform="translate(1.800000, 46.800000)">
                            <mask id="mask-10" fill="white">
                                <use xlink:href="#path-9"></use>
                            </mask>
                            <use id="Mouth" fill-opacity="0.699999988" fill="#000000" fill-rule="evenodd" xlink:href="#path-9"></use>
                            <rect id="Teeth" fill="#FFFFFF" fill-rule="evenodd" mask="url(#mask-10)" x="35.1" y="1.8" width="27.9" height="14.4" rx="4.5"></rect>
                            <g id="Tongue" stroke-width="1" fill-rule="evenodd" mask="url(#mask-10)" fill="#FF4F6D">
                                <g transform="translate(34.200000, 21.600000)">
                                    <circle cx="9.9" cy="9.9" r="9.9"></circle>
                                    <circle cx="18.9" cy="9.9" r="9.9"></circle>
                                </g>
                            </g>
                        </g>
                        <g id="Nose/Default" transform="translate(25.200000, 36.000000)" fill="#000000" fill-opacity="0.16">
                            <path d="M14.4,7.2 C14.4,11.1764502 19.2353247,14.4 25.2,14.4 C31.1646753,14.4 36,11.1764502 36,7.2" id="Nose"></path>
                        </g>
                        <g id="Eyes/Squint-ðŸ˜Š-Hazel" transform="translate(0.000000, 7.200000)">
                            <g id="Eye" transform="translate(14.400000, 11.700000)">
                                <mask id="mask-12" fill="white">
                                    <use xlink:href="#path-11"></use>
                                </mask>
                                <use id="The-white-stuff" fill="#FFFFFF" xlink:href="#path-11"></use>
                                <circle fill="#2B5C52" mask="url(#mask-12)" cx="12.6" cy="9" r="5.4"></circle>
                                <circle fill="#212121" mask="url(#mask-12)" cx="12.6" cy="9" r="2.7"></circle>
                            </g>
                            <g id="Eye" transform="translate(61.200000, 11.700000)">
                                <mask id="mask-14" fill="white">
                                    <use xlink:href="#path-13"></use>
                                </mask>
                                <use id="Eyeball-Mask" fill="#FFFFFF" xlink:href="#path-13"></use>
                                <circle fill="#2B5C52" mask="url(#mask-14)" cx="12.6" cy="9" r="5.4"></circle>
                                <circle fill="#212121" mask="url(#mask-14)" cx="12.6" cy="9" r="2.7"></circle>
                            </g>
                        </g>
                        <g id="Eyebrow/Natural/Default-Natural" fill="#000000" fill-opacity="0.599999964">
                            <path d="M23.4351841,5.58911128 C18.2497998,6.28511594 10.1636382,10.8047231 10.839834,16.03603 C10.8620533,16.2072489 11.1210572,16.2606121 11.2328169,16.1176444 C13.4706637,13.2483016 30.7735176,9.03289328 37.0748406,9.91324359 C37.6515471,9.99400182 38.0322596,9.39873091 37.6389451,9.02718599 C34.2689096,5.84536884 28.0803412,4.96102342 23.4351841,5.58911128" id="Eyebrow" transform="translate(24.300000, 10.800000) rotate(5.000000) translate(-24.300000, -10.800000) "></path>
                            <path d="M76.5351841,5.58911128 C71.3497998,6.28511594 63.2636382,10.8047231 63.939834,16.03603 C63.9620533,16.2072489 64.2210572,16.2606121 64.3328169,16.1176444 C66.5706637,13.2483016 83.8735176,9.03289328 90.1748406,9.91324359 C90.7515471,9.99400182 91.1322596,9.39873091 90.7389451,9.02718599 C87.3689096,5.84536884 81.1803412,4.96102342 76.5351841,5.58911128" id="Eyebrow" transform="translate(77.400000, 10.800000) scale(-1, 1) rotate(5.000000) translate(-77.400000, -10.800000) "></path>
                        </g>
                    </g>
                    <g id="Top">
                        <mask id="mask-16" fill="white">
                            <use xlink:href="#path-15"></use>
                        </mask>
                        <g id="Mask"></g>
                        <g id="Top/Short-Hair/Short-Flat-Low" mask="url(#mask-16)">
                            <g transform="translate(-0.900000, 0.000000)">
                                <mask id="mask-18" fill="white">
                                    <use xlink:href="#path-17"></use>
                                </mask>
                                <use id="Short-Hair" stroke="none" fill="#1F3140" fill-rule="evenodd" xlink:href="#path-17"></use>
                                <g id="Color/Hair/Brown-Dark" stroke="none" fill="none" mask="url(#mask-18)" fill-rule="evenodd">
                                    <g transform="translate(0.900000, 0.000000)" fill="#4A312C" id="Color">
                                        <rect x="0" y="0" width="239.106977" height="252.406452"></rect>
                                    </g>
                                </g>
                            </g>
                        </g>
                    </g>
                </g>
            </g>
        </g>
    </g>
</svg>