<svg width="615" height="152" viewBox="0 0 615 152" fill="none" xmlns="http://www.w3.org/2000/svg">
<path d="M31.2 126.8C28.48 126.8 27.12 125.92 27.12 124.16C27.12 119.12 27.72 112.96 28.92 105.68C30.04 98 30.68 92.08 30.84 87.92C28.44 87.76 25.68 87.68 22.56 87.68L19.68 87.92C19.44 89.28 19.28 91.28 19.2 93.92C18.56 103.12 17.96 109.96 17.4 114.44C17 118.12 16.4 121.08 15.6 123.32C14.88 125.56 14.04 126.68 13.08 126.68C12.2 126.68 11.4 126.44 10.68 125.96C10.04 125.48 9.72 124.88 9.72 124.16C9.72 114.72 11.12 102.76 13.92 88.28L10.32 88.52C7.04 88.52 5.4 87.24 5.4 84.68C5.4 82.92 7.28 82.04 11.04 82.04H13.08H14.64C15.36 77.88 15.96 72.68 16.44 66.44L13.44 66.68C9.68 66.68 7.8 65.52 7.8 63.2V62.6L9.6 60.68H11.4H13.2C14.88 60.68 16.12 60.64 16.92 60.56L18 53.12C19.04 46.4 19.56 40.92 19.56 36.68V35.6V34.52C19.56 33.08 19.76 32 20.16 31.28C20.56 30.56 21.36 30.2 22.56 30.2H23.52L24.84 32.96C24.84 36.08 24.48 40.64 23.76 46.64C23.04 52.64 22.68 57.08 22.68 59.96C23.16 60.12 24.24 60.2 25.92 60.2H27.96C30.36 60.2 32.08 60.04 33.12 59.72C33.92 56.28 34.96 49.96 36.24 40.76C36.56 38.28 37 35.36 37.56 32C38.44 30.8 39.44 30.2 40.56 30.2C41.2 30.2 41.84 30.48 42.48 31.04C43.12 31.52 43.44 32.04 43.44 32.6C43.44 35.56 42.76 40.08 41.4 46.16C40.04 51.84 39.28 56.28 39.12 59.48H42.96L45.48 62.24C45.32 63.04 45.16 63.68 45 64.16C44.84 64.56 44.52 64.92 44.04 65.24C43.48 65.64 42.92 65.84 42.36 65.84L38.4 65.6C37.6 69.76 37.12 74.92 36.96 81.08H37.56H38.16C41.52 81.08 43.2 82.28 43.2 84.68C43.2 86.68 41.68 87.68 38.64 87.68H38.28L36.6 87.56C36.44 89.24 36 93.12 35.28 99.2C33.92 110.32 33.24 118.68 33.24 124.28L31.2 126.8ZM21.6 81.92C25.68 81.92 28.72 81.8 30.72 81.56C31.84 74.68 32.48 69.56 32.64 66.2C30.88 65.88 29 65.72 27 65.72C24.92 65.72 23.24 65.84 21.96 66.08C20.92 70.16 20.28 75.4 20.04 81.8C20.28 81.88 20.8 81.92 21.6 81.92ZM61.7878 122.6C60.9078 122.6 60.1878 122.24 59.6278 121.52C59.1478 120.72 58.9078 119.76 58.9078 118.64L59.1478 98.48C59.3878 88.72 59.5078 81.16 59.5078 75.8C59.5078 57.16 58.4678 42.88 56.3878 32.96C57.5878 31.12 59.1078 30.2 60.9478 30.2C63.9078 30.2 66.5878 30.88 68.9878 32.24C71.4678 33.52 73.5078 35.28 75.1078 37.52C78.2278 42.16 79.7878 47.36 79.7878 53.12C79.7878 59.12 78.5078 64.48 75.9478 69.2C73.3878 73.92 69.6678 77.6 64.7878 80.24L65.0278 92.36L65.2678 98.72C65.3478 100.08 65.3878 102.04 65.3878 104.6C65.6278 109.96 65.7478 114.32 65.7478 117.68C65.7478 119.2 65.4278 120.4 64.7878 121.28C64.1478 122.16 63.1478 122.6 61.7878 122.6ZM64.5478 74.48C67.6678 71.52 69.9478 68.44 71.3878 65.24C72.9078 61.96 73.6678 58.28 73.6678 54.2V54.08C73.6678 52.24 73.4678 49.92 73.0678 47.12C72.8278 46.16 72.3878 45.2 71.7478 44.24C71.1078 43.28 70.7478 42.72 70.6678 42.56C70.1078 41.76 68.6278 40.52 66.2278 38.84L63.1078 36.56C63.1078 40.64 63.3478 46.96 63.8278 55.52L64.5478 74.48ZM97.9181 123.56C96.8781 123.56 95.9181 123.2 95.0381 122.48C94.2381 121.76 93.7981 120.88 93.7181 119.84V116.72V114.32C93.6381 113.6 93.5981 112.76 93.5981 111.8C93.5981 110.12 93.4781 107.56 93.2381 104.12L92.9981 96.44C92.9981 92.52 93.1181 86.68 93.3581 78.92C93.6781 71.96 93.8381 66.12 93.8381 61.4C93.8381 60.28 93.7181 58.6 93.4781 56.36C93.2381 54.04 93.1181 52.36 93.1181 51.32C93.1181 45.64 94.7981 42.8 98.1581 42.8C100.798 42.8 103.838 43.32 107.278 44.36C110.798 45.4 112.558 46.64 112.558 48.08C112.558 48.88 112.198 49.64 111.478 50.36C110.838 51 110.038 51.52 109.078 51.92C105.718 50.72 102.678 49.92 99.9581 49.52C100.038 50.72 100.078 52.44 100.078 54.68C100.078 57.88 100.038 60.76 99.9581 63.32C99.7181 67.16 99.5981 70.04 99.5981 71.96L99.9581 73.88L101.878 73.76C102.518 73.68 103.318 73.64 104.278 73.64C108.118 73.64 110.038 74.76 110.038 77C110.038 77.88 109.678 78.64 108.958 79.28C108.238 79.84 107.318 80.12 106.198 80.12C104.758 80.12 103.638 80.04 102.838 79.88H99.8381C99.9981 81.96 100.078 85 100.078 89C100.078 93 100.038 96.6 99.9581 99.8C99.7181 104.68 99.5981 108.32 99.5981 110.72C99.5981 115.2 99.6781 117.44 99.8381 117.44L103.798 117.32C105.158 117.24 106.798 117.2 108.718 117.2C111.758 117.2 113.278 118.16 113.278 120.08C113.278 121.2 112.758 122.04 111.718 122.6C110.758 123.24 109.558 123.56 108.118 123.56H97.9181ZM147.5 124.04C145.74 124.04 144.14 122.12 142.7 118.28C141.02 114.12 139.78 109.84 138.98 105.44L138.14 101.36C135.82 89.92 134.34 83.4 133.7 81.8H132.26C132.26 84.12 132.22 86.24 132.14 88.16V94.76C132.14 105.48 132.9 113.84 134.42 119.84L133.1 123.08H129.74L128.18 121.28L128.3 113.24C128.3 106.04 127.94 95.12 127.22 80.48C126.58 64.88 126.26 53.96 126.26 47.72C126.26 43.88 127.58 41.96 130.22 41.96C134.54 41.96 138.06 43.08 140.78 45.32C143.58 47.56 144.98 50.68 144.98 54.68V63.08C144.98 64.28 144.78 65.68 144.38 67.28C143.98 68.8 143.54 70.04 143.06 71L140.78 75.32L138.86 78.92L139.46 81.8L141.14 90.32C142.26 96.48 143.34 101.48 144.38 105.32C145.42 109.16 146.7 112.64 148.22 115.76L148.94 117.2C149.74 118.8 150.14 120.08 150.14 121.04C150.14 121.84 149.9 122.52 149.42 123.08C148.94 123.72 148.3 124.04 147.5 124.04ZM132.74 75.92C134.5 75.04 135.98 72.64 137.18 68.72C138.46 64.72 139.1 61.04 139.1 57.68C139.1 55.12 138.78 52.72 138.14 50.48C137.74 49.2 137.06 48.24 136.1 47.6C135.22 46.88 134.1 46.52 132.74 46.52L132.5 47.12L132.26 48.2L132.5 62.36C132.66 66.52 132.74 71.04 132.74 75.92ZM164.41 123.08C163.21 123.08 161.77 122.48 160.09 121.28C160.73 114.64 161.25 104.44 161.65 90.68C162.05 76.36 162.33 67.76 162.49 64.88V62C162.81 54.16 162.97 48.72 162.97 45.68C162.97 44.56 163.41 43.68 164.29 43.04C165.25 42.4 166.33 42.08 167.53 42.08C170.33 42.08 173.33 42.32 176.53 42.8C178.61 43.12 180.25 43.64 181.45 44.36C182.73 45.08 183.37 45.96 183.37 47C183.37 49.24 181.33 50.36 177.25 50.36C175.73 49.56 173.65 49.16 171.01 49.16H169.57V50.6C169.57 53.72 169.41 57.68 169.09 62.48C168.69 66.96 168.49 71 168.49 74.6V77.84H169.45H170.65C174.57 77.84 176.53 78.88 176.53 80.96C176.53 82 176.09 82.84 175.21 83.48C174.41 84.12 173.41 84.44 172.21 84.44C170.29 84.44 168.73 84.24 167.53 83.84V117.8C167.53 121.32 166.49 123.08 164.41 123.08ZM225.979 125.12C225.179 125.12 224.539 124.72 224.059 123.92C223.579 123.12 223.339 121.96 223.339 120.44L223.219 102.68C223.139 101.16 223.099 98.64 223.099 95.12C222.939 87.68 222.859 79.28 222.859 69.92V63.8C222.139 67.64 220.899 73.04 219.139 80C217.379 87.2 216.139 93.12 215.419 97.76V98.48L215.059 100.76C214.899 102.52 214.499 104.32 213.859 106.16C213.059 108.08 211.819 109.04 210.139 109.04C207.259 109.04 205.819 105.28 205.819 97.76C205.819 93.6 205.379 89.16 204.499 84.44C203.699 79.64 202.379 73.76 200.539 66.8L196.939 53.36L196.699 67.76C196.699 72.08 196.899 80.32 197.299 92.48L197.539 100.64L197.779 117.08C197.779 118.76 197.179 120.28 195.979 121.64C193.979 121.64 192.579 121.04 191.779 119.84C191.059 118.56 190.699 116.72 190.699 114.32L190.939 104.48C191.179 100.16 191.299 96.92 191.299 94.76L191.059 71.6L190.819 48.32C190.819 44.88 190.899 39.72 191.059 32.84L194.299 30.92C194.939 31 195.579 31.48 196.219 32.36C196.859 33.16 197.579 34.48 198.379 36.32C200.379 41.28 202.979 51.2 206.179 66.08C206.659 68.16 206.979 69.88 207.139 71.24C208.099 75.88 208.779 79.4 209.179 81.8L210.979 91.04L211.819 87.08L214.099 77.24C215.379 71.48 216.419 66.44 217.219 62.12C218.099 57.8 218.939 53.12 219.739 48.08C220.619 42.08 221.179 37.08 221.419 33.08V32.36C221.579 31.32 222.059 30.52 222.859 29.96C223.659 29.32 224.619 29 225.739 29C226.459 29 227.099 29.32 227.659 29.96C228.219 30.6 228.499 31.28 228.499 32C228.499 41.6 228.859 55.96 229.579 75.08C229.979 84.44 230.259 93.6 230.419 102.56C230.579 106.64 230.659 111.8 230.659 118.04C230.659 119.88 230.179 121.52 229.219 122.96C228.259 124.4 227.179 125.12 225.979 125.12ZM269.554 123.08C267.714 123.08 266.354 122.8 265.474 122.24C264.594 121.68 264.154 120.64 264.154 119.12C264.154 116.72 263.754 112.64 262.954 106.88L262.474 104.36L250.594 102.56C250.114 104.4 249.434 108.12 248.554 113.72C248.074 117.64 247.314 120.24 246.274 121.52C245.714 122.24 244.914 122.6 243.874 122.6C242.914 122.6 242.034 122.32 241.234 121.76C240.434 121.12 240.034 120.36 240.034 119.48L240.274 118.88L240.394 118.4C245.674 97.84 249.674 77.56 252.394 57.56C252.394 57.24 252.434 56.72 252.514 56C252.594 55.2 252.674 54.08 252.754 52.64C252.994 49.68 253.234 47.32 253.474 45.56C253.794 43.8 254.274 42.48 254.914 41.6H258.994C260.114 41.6 261.074 41.88 261.874 42.44C262.674 42.92 263.074 43.64 263.074 44.6C263.074 50.68 263.914 59.72 265.594 71.72C267.194 84.04 267.994 92.68 267.994 97.64C267.994 98.12 268.194 99.36 268.594 101.36C268.994 103.2 269.194 104.4 269.194 104.96C269.194 105.52 269.594 107.92 270.394 112.16C271.114 116 271.474 118.48 271.474 119.6V119.72C271.474 121.48 270.834 122.6 269.554 123.08ZM261.634 100.04C261.394 98.84 261.274 97.36 261.274 95.6C261.274 88.4 260.634 79.2 259.354 68L258.154 55.52C254.714 74.32 252.354 88.52 251.074 98.12C252.274 98.92 255.794 99.56 261.634 100.04ZM288.493 120.08L288.373 115.4C288.293 114.04 288.253 112.52 288.253 110.84L288.373 106.76C288.133 105.88 287.533 97.12 286.573 80.48C285.613 63.84 285.053 53.16 284.893 48.44C280.253 48.28 277.293 47.8 276.013 47C275.133 46.36 274.693 45.64 274.693 44.84C274.693 44.2 275.093 43.64 275.893 43.16C276.773 42.6 277.653 42.32 278.533 42.32C280.773 42.32 283.493 42.48 286.693 42.8C289.733 43.2 292.453 43.4 294.853 43.4H295.813H296.773C299.253 43.4 300.493 44.36 300.493 46.28C300.493 47.24 300.093 48.04 299.293 48.68C298.493 49.24 297.573 49.52 296.533 49.52C295.813 49.52 294.773 49.4 293.413 49.16L291.013 48.68L290.893 49.28L290.773 49.88C290.773 57 291.453 68.36 292.813 83.96C294.093 98.6 294.733 109.96 294.733 118.04C294.733 119 294.293 119.84 293.413 120.56C292.613 121.28 291.693 121.64 290.653 121.64L288.493 120.08ZM319.196 120.08L319.076 115.4C318.996 114.04 318.956 112.52 318.956 110.84L319.076 106.76C318.836 105.88 318.236 97.12 317.276 80.48C316.316 63.84 315.756 53.16 315.596 48.44C310.956 48.28 307.996 47.8 306.716 47C305.836 46.36 305.396 45.64 305.396 44.84C305.396 44.2 305.796 43.64 306.596 43.16C307.476 42.6 308.356 42.32 309.236 42.32C311.476 42.32 314.196 42.48 317.396 42.8C320.436 43.2 323.156 43.4 325.556 43.4H326.516H327.476C329.956 43.4 331.196 44.36 331.196 46.28C331.196 47.24 330.796 48.04 329.996 48.68C329.196 49.24 328.276 49.52 327.236 49.52C326.516 49.52 325.476 49.4 324.116 49.16L321.716 48.68L321.596 49.28L321.476 49.88C321.476 57 322.156 68.36 323.516 83.96C324.796 98.6 325.436 109.96 325.436 118.04C325.436 119 324.996 119.84 324.116 120.56C323.316 121.28 322.396 121.64 321.356 121.64L319.196 120.08ZM348.699 123.56C347.659 123.56 346.699 123.2 345.819 122.48C345.019 121.76 344.579 120.88 344.499 119.84V116.72V114.32C344.419 113.6 344.379 112.76 344.379 111.8C344.379 110.12 344.259 107.56 344.019 104.12L343.779 96.44C343.779 92.52 343.899 86.68 344.139 78.92C344.459 71.96 344.619 66.12 344.619 61.4C344.619 60.28 344.499 58.6 344.259 56.36C344.019 54.04 343.899 52.36 343.899 51.32C343.899 45.64 345.579 42.8 348.939 42.8C351.579 42.8 354.619 43.32 358.059 44.36C361.579 45.4 363.339 46.64 363.339 48.08C363.339 48.88 362.979 49.64 362.259 50.36C361.619 51 360.819 51.52 359.859 51.92C356.499 50.72 353.459 49.92 350.739 49.52C350.819 50.72 350.859 52.44 350.859 54.68C350.859 57.88 350.819 60.76 350.739 63.32C350.499 67.16 350.379 70.04 350.379 71.96L350.739 73.88L352.659 73.76C353.299 73.68 354.099 73.64 355.059 73.64C358.899 73.64 360.819 74.76 360.819 77C360.819 77.88 360.459 78.64 359.739 79.28C359.019 79.84 358.099 80.12 356.979 80.12C355.539 80.12 354.419 80.04 353.619 79.88H350.619C350.779 81.96 350.859 85 350.859 89C350.859 93 350.819 96.6 350.739 99.8C350.499 104.68 350.379 108.32 350.379 110.72C350.379 115.2 350.459 117.44 350.619 117.44L354.579 117.32C355.939 117.24 357.579 117.2 359.499 117.2C362.539 117.2 364.059 118.16 364.059 120.08C364.059 121.2 363.539 122.04 362.499 122.6C361.539 123.24 360.339 123.56 358.899 123.56H348.699ZM398.281 124.04C396.521 124.04 394.921 122.12 393.481 118.28C391.801 114.12 390.561 109.84 389.761 105.44L388.921 101.36C386.601 89.92 385.121 83.4 384.481 81.8H383.041C383.041 84.12 383.001 86.24 382.921 88.16V94.76C382.921 105.48 383.681 113.84 385.201 119.84L383.881 123.08H380.521L378.961 121.28L379.081 113.24C379.081 106.04 378.721 95.12 378.001 80.48C377.361 64.88 377.041 53.96 377.041 47.72C377.041 43.88 378.361 41.96 381.001 41.96C385.321 41.96 388.841 43.08 391.561 45.32C394.361 47.56 395.761 50.68 395.761 54.68V63.08C395.761 64.28 395.561 65.68 395.161 67.28C394.761 68.8 394.321 70.04 393.841 71L391.561 75.32L389.641 78.92L390.241 81.8L391.921 90.32C393.041 96.48 394.121 101.48 395.161 105.32C396.201 109.16 397.481 112.64 399.001 115.76L399.721 117.2C400.521 118.8 400.921 120.08 400.921 121.04C400.921 121.84 400.681 122.52 400.201 123.08C399.721 123.72 399.081 124.04 398.281 124.04ZM383.521 75.92C385.281 75.04 386.761 72.64 387.961 68.72C389.241 64.72 389.881 61.04 389.881 57.68C389.881 55.12 389.561 52.72 388.921 50.48C388.521 49.2 387.841 48.24 386.881 47.6C386.001 46.88 384.881 46.52 383.521 46.52L383.281 47.12L383.041 48.2L383.281 62.36C383.441 66.52 383.521 71.04 383.521 75.92ZM414.832 123.68C413.392 123.44 412.152 122.92 411.112 122.12C410.152 121.32 409.592 120.28 409.432 119L410.752 116.96C411.232 116.96 411.992 117.12 413.032 117.44C414.232 117.68 415.152 117.8 415.792 117.8C417.232 117.8 418.512 117.16 419.632 115.88C420.832 114.6 421.712 112.92 422.272 110.84C423.312 107 423.832 103.56 423.832 100.52C423.832 95.24 422.152 89.68 418.792 83.84L417.472 81.56C415.952 78.92 414.672 76.56 413.632 74.48C412.592 72.4 411.712 70.16 410.992 67.76C410.032 64.64 409.552 61.52 409.552 58.4C409.552 54.88 410.352 51.2 411.952 47.36C412.752 45.52 413.872 44.04 415.312 42.92C416.832 41.72 418.512 41.12 420.352 41.12C421.792 41.12 423.112 41.6 424.312 42.56C425.592 43.44 426.232 44.52 426.232 45.8C426.232 46.52 425.952 47.08 425.392 47.48C424.832 47.88 424.152 48.08 423.352 48.08C422.472 48.08 421.632 47.84 420.832 47.36C419.072 47.44 417.672 49 416.632 52.04C415.752 54.84 415.312 57.16 415.312 59C415.312 61.32 415.672 63.68 416.392 66.08C417.112 68.4 418.032 70.52 419.152 72.44L421.792 77.24L425.992 85.16C427.112 87.4 427.992 90 428.632 92.96C429.352 95.92 429.712 98.92 429.712 101.96C429.712 106.84 428.592 111.48 426.352 115.88C425.232 118.12 423.632 119.92 421.552 121.28C419.552 122.64 417.312 123.32 414.832 123.32V123.68Z" fill="#00A672"/>
<rect x="484" y="15.1528" width="130.615" height="130.615" rx="65.3073" fill="#00A672"/>
<path fill-rule="evenodd" clip-rule="evenodd" d="M505.455 80.5146C505.567 107.231 527.497 124.884 549.67 124.338C575.848 123.404 594.76 100.665 593.187 80.3676C592.822 76.1517 589.083 72.8842 584.859 73.0868C580.635 73.2894 577.374 76.8776 577.577 81.1013C578.169 93.4371 566.793 108.545 549.293 109.03C535.392 109.372 521.474 98.4568 520.866 81.4694C520.705 85.4088 517.6 88.6255 513.589 88.7856C509.364 88.9543 505.647 85.5444 505.479 81.3193C505.468 81.051 505.46 80.7827 505.455 80.5146Z" fill="url(#paint0_linear)"/>
<path d="M541.541 80.9142C541.541 76.5787 545.06 73.0641 549.396 73.0641C553.732 73.0641 557.251 76.5787 557.251 80.9142C557.251 85.2497 553.732 88.7643 549.396 88.7643C545.06 88.7643 541.541 85.2497 541.541 80.9142Z" fill="white"/>
<path d="M565.729 80.9028C565.729 76.5736 569.27 73.0641 573.639 73.0641H585.166C589.535 73.0641 593.186 76.5736 593.186 80.9028C593.186 85.232 589.535 88.7415 585.166 88.7415H573.639C569.27 88.7415 565.729 85.232 565.729 80.9028Z" fill="white"/>
<path fill-rule="evenodd" clip-rule="evenodd" d="M557.034 44.2369C557.209 48.4618 553.926 52.0289 549.701 52.2044C531.46 52.9618 520.324 67.2565 520.866 80.8296C521.035 85.0548 517.815 88.6167 513.589 88.7854C509.363 88.9541 505.647 85.5442 505.479 81.319C504.595 59.2004 523.066 37.3342 549.065 36.9048C553.291 36.7293 556.858 40.012 557.034 44.2369Z" fill="white"/>
<defs>
<linearGradient id="paint0_linear" x1="551.314" y1="128.774" x2="551.314" y2="79.3115" gradientUnits="userSpaceOnUse">
<stop stop-color="white" stop-opacity="0.95"/>
<stop offset="1" stop-color="white" stop-opacity="0.5"/>
</linearGradient>
</defs>
</svg>
