<svg width="495" height="495" viewBox="0 0 495 495" fill="none" xmlns="http://www.w3.org/2000/svg">
<g opacity="0.1">
<path d="M248.487 0.351447C248.487 0.351447 248.889 1.00413 249.089 2.2091C249.34 3.41406 249.19 5.2215 249.24 7.4808C249.24 11.9994 249.19 18.5263 249.19 26.3083C249.14 41.8724 249.089 62.658 249.039 83.4436C248.939 104.229 248.939 124.965 248.788 140.579C248.637 156.143 248.537 166.536 248.537 166.536C248.537 166.887 248.286 167.138 247.935 167.138C247.633 167.138 247.332 166.887 247.332 166.536C247.332 166.536 247.232 156.143 247.081 140.579C246.88 125.015 246.88 104.229 246.83 83.4436C246.78 62.658 246.679 41.9226 246.679 26.3083C246.679 18.5263 246.629 12.0496 246.629 7.4808C246.629 5.2215 246.529 3.41406 246.78 2.2091C246.981 1.00413 247.382 0.351447 247.382 0.351447C247.483 0.15062 247.734 0 247.935 0H247.985C248.085 0 248.186 0.0502067 248.286 0.100413C248.386 0.15062 248.487 0.251034 248.537 0.351447H248.487Z" fill="#40BF93"/>
<path d="M247.283 493.833C247.283 493.833 246.931 493.181 246.68 491.976C246.429 490.771 246.58 488.963 246.53 486.704C246.53 482.185 246.58 475.659 246.58 467.877C246.63 452.312 246.68 431.527 246.731 410.741C246.831 389.956 246.781 369.22 246.982 353.606C247.132 338.042 247.233 327.649 247.233 327.649C247.233 327.298 247.484 327.047 247.835 327.047C248.136 327.047 248.438 327.298 248.438 327.649C248.438 327.649 248.538 338.042 248.689 353.606C248.889 369.17 248.889 389.956 248.94 410.741C248.99 431.527 249.04 452.262 249.09 467.877C249.09 475.659 249.14 482.135 249.14 486.704C249.14 488.963 249.241 490.771 248.99 491.976C248.789 493.181 248.387 493.833 248.387 493.833C248.287 494.034 248.036 494.185 247.835 494.185H247.785C247.684 494.185 247.584 494.135 247.484 494.084C247.383 494.034 247.283 493.934 247.233 493.833H247.283Z" fill="#40BF93"/>
<path d="M221.479 41.3202C221.479 41.3202 221.931 41.7219 222.232 42.475C222.583 43.2783 222.583 44.4833 222.834 45.9895C223.236 49.0019 223.788 53.3698 224.441 58.5411C225.796 68.9339 227.554 82.791 229.361 96.6982C232.876 124.463 236.089 152.227 236.089 152.227C236.139 152.528 235.888 152.829 235.587 152.88C235.286 152.93 234.984 152.679 234.934 152.378C234.934 152.378 230.867 124.714 227.052 96.9995C225.194 83.1424 223.286 69.2854 221.931 58.8926C221.228 53.6711 220.675 49.3533 220.223 46.3409C220.073 44.8347 219.772 43.6297 219.872 42.8264C219.972 41.9729 220.274 41.5211 220.274 41.5211C220.525 41.1696 220.977 41.0692 221.378 41.3202C221.428 41.3202 221.428 41.3704 221.479 41.3704V41.3202Z" fill="#40BF93"/>
<path d="M274.292 451.56C274.292 451.56 273.84 451.158 273.539 450.405C273.188 449.602 273.188 448.397 272.937 446.89C272.535 443.878 271.983 439.51 271.33 434.339C269.974 423.946 268.217 410.089 266.41 396.182C262.895 368.417 259.682 340.653 259.682 340.653C259.632 340.352 259.883 340.05 260.184 340C260.485 339.95 260.787 340.201 260.837 340.502C260.837 340.502 264.903 368.166 268.719 395.88C270.577 409.737 272.485 423.594 273.84 433.987C274.543 439.209 275.095 443.526 275.547 446.539C275.698 448.045 275.999 449.25 275.899 450.053C275.798 450.907 275.497 451.359 275.497 451.359C275.246 451.71 274.794 451.811 274.443 451.56C274.393 451.56 274.393 451.509 274.342 451.509L274.292 451.56Z" fill="#40BF93"/>
<path d="M178.046 76.3144C178.046 76.3144 178.548 76.5152 179 77.1177C179.502 77.7202 179.803 78.7243 180.355 79.9795C181.41 82.4898 182.866 86.1047 184.623 90.4225C188.137 99.0581 192.857 110.555 197.576 122.053C206.965 145.098 216.102 168.243 216.102 168.243C216.203 168.544 216.052 168.896 215.751 168.996C215.45 169.096 215.098 168.996 214.998 168.695C214.998 168.695 205.107 145.901 195.417 122.956C190.597 111.509 185.828 100.012 182.213 91.4266C180.405 87.1089 178.899 83.5442 177.895 81.0339C177.393 79.7787 176.891 78.8248 176.791 78.0717C176.69 77.3186 176.891 76.8165 176.891 76.8165C177.042 76.4148 177.544 76.1638 177.945 76.3646C177.945 76.3646 177.945 76.3646 177.996 76.3646L178.046 76.3144Z" fill="#40BF93"/>
<path d="M317.724 416.565C317.724 416.565 317.222 416.364 316.77 415.762C316.268 415.159 315.967 414.155 315.414 412.9C314.36 410.39 312.904 406.775 311.147 402.457C307.632 393.822 302.913 382.324 298.193 370.827C288.805 347.782 279.667 324.637 279.667 324.637C279.567 324.335 279.717 323.984 280.019 323.884C280.32 323.783 280.671 323.934 280.772 324.185C280.772 324.185 290.662 346.979 300.352 369.923C305.172 381.37 309.942 392.868 313.557 401.453C315.364 405.771 316.87 409.335 317.874 411.846C318.376 413.101 318.879 414.055 318.979 414.808C319.079 415.561 318.879 416.063 318.879 416.063C318.728 416.465 318.226 416.716 317.824 416.515L317.724 416.565Z" fill="#40BF93"/>
<path d="M161.281 95.2922C161.281 95.2922 161.783 95.4428 162.336 95.8947C162.888 96.3967 163.289 97.3005 163.942 98.405C165.248 100.664 167.055 103.827 169.264 107.643C173.632 115.325 179.506 125.517 185.33 135.759C196.978 156.243 208.375 176.828 208.375 176.828C208.526 177.129 208.425 177.481 208.124 177.631C207.823 177.782 207.471 177.681 207.321 177.43C207.321 177.43 195.171 157.247 183.272 136.914C177.347 126.722 171.423 116.58 166.955 108.898C164.745 105.083 162.888 101.919 161.582 99.6602C160.98 98.5054 160.327 97.7021 160.227 96.9992C160.076 96.2963 160.227 95.7943 160.227 95.7943C160.327 95.3424 160.829 95.0914 161.231 95.1918L161.281 95.2922Z" fill="#40BF93"/>
<path d="M334.491 397.637C334.491 397.637 333.989 397.487 333.436 397.035C332.884 396.533 332.482 395.629 331.83 394.525C330.524 392.265 328.717 389.102 326.508 385.287C322.14 377.605 316.266 367.413 310.442 357.171C298.794 336.686 287.397 316.102 287.397 316.102C287.246 315.8 287.347 315.449 287.648 315.298C287.949 315.148 288.3 315.248 288.451 315.499C288.451 315.499 300.601 335.682 312.5 356.016C318.424 366.208 324.349 376.35 328.817 384.031C331.026 387.847 332.884 391.01 334.189 393.269C334.792 394.374 335.445 395.228 335.595 395.93C335.746 396.633 335.595 397.135 335.595 397.135C335.495 397.587 334.993 397.838 334.591 397.738L334.491 397.637Z" fill="#40BF93"/>
<path d="M122.469 82.0379C122.469 82.0379 123.021 82.1384 123.724 82.6906C124.377 83.1927 125.029 84.247 125.983 85.4018C127.841 87.8117 130.502 91.3262 133.665 95.4933C140.041 103.828 148.476 114.974 156.961 126.069C173.88 148.361 190.549 170.803 190.549 170.803C190.75 171.054 190.7 171.456 190.449 171.607C190.198 171.808 189.846 171.757 189.645 171.506C189.645 171.506 172.274 149.566 155.153 127.475C146.618 116.43 138.033 105.334 131.657 97.0498C128.443 92.8826 125.782 89.4183 123.925 87.0084C123.021 85.7532 122.167 84.8997 121.866 84.0964C121.515 83.2931 121.565 82.7408 121.565 82.7408C121.565 82.289 121.967 81.9877 122.368 81.9877C122.419 81.9877 122.469 81.9877 122.469 81.9877V82.0379Z" fill="#40BF93"/>
<path d="M373.353 410.892C373.353 410.892 372.801 410.792 372.098 410.239C371.446 409.737 370.793 408.683 369.839 407.478C367.981 405.068 365.32 401.554 362.157 397.386C355.781 389.052 347.346 377.906 338.861 366.811C321.942 344.519 305.273 322.076 305.273 322.076C305.072 321.825 305.122 321.424 305.373 321.273C305.625 321.072 305.976 321.122 306.177 321.373C306.177 321.373 323.548 343.314 340.669 365.405C349.204 376.45 357.789 387.546 364.166 395.83C367.379 399.997 370.04 403.461 371.897 405.871C372.801 407.076 373.655 407.98 373.956 408.783C374.307 409.587 374.257 410.139 374.257 410.139C374.257 410.591 373.855 410.892 373.454 410.892C373.404 410.892 373.353 410.892 373.353 410.892Z" fill="#40BF93"/>
<path d="M102.338 134.052C102.338 134.052 102.891 134.002 103.594 134.253C104.296 134.504 105.1 135.257 106.204 136.06C108.363 137.717 111.426 140.077 115.141 142.938C122.521 148.662 132.362 156.243 142.202 163.875C161.833 179.137 181.314 194.601 181.314 194.601C181.565 194.802 181.615 195.153 181.414 195.455C181.213 195.706 180.862 195.756 180.611 195.555C180.611 195.555 160.628 180.744 140.797 165.732C130.906 158.201 121.015 150.67 113.585 144.997C109.869 142.185 106.807 139.826 104.648 138.169C103.594 137.315 102.64 136.763 102.238 136.161C101.786 135.558 101.736 135.006 101.736 135.006C101.686 134.554 101.987 134.152 102.439 134.052C102.439 134.052 102.439 134.052 102.489 134.052H102.338Z" fill="#40BF93"/>
<path d="M393.437 358.878C393.437 358.878 392.885 358.928 392.182 358.677C391.479 358.426 390.676 357.673 389.571 356.869C387.412 355.213 384.35 352.853 380.635 349.991C373.254 344.268 363.414 336.686 353.573 329.055C333.942 313.792 314.462 298.328 314.462 298.328C314.211 298.128 314.161 297.776 314.362 297.475C314.562 297.224 314.914 297.174 315.165 297.375C315.165 297.375 335.147 312.186 354.979 327.197C364.87 334.728 374.76 342.259 382.191 347.933C385.906 350.744 388.969 353.104 391.128 354.761C392.182 355.614 393.136 356.167 393.538 356.769C393.99 357.372 394.09 357.924 394.09 357.924C394.14 358.376 393.839 358.777 393.387 358.878C393.387 358.878 393.387 358.878 393.337 358.878H393.437Z" fill="#40BF93"/>
<path d="M57.0485 166.787C57.0485 166.787 57.6007 166.586 58.4543 166.736C59.3078 166.837 60.3621 167.389 61.7679 167.992C64.5795 169.146 68.6462 170.853 73.4661 172.862C83.156 176.928 96.0591 182.3 108.962 187.673C134.768 198.517 160.424 209.613 160.424 209.613C160.725 209.764 160.876 210.115 160.725 210.366C160.575 210.667 160.274 210.818 159.972 210.667C159.972 210.667 133.965 200.375 108.059 189.781C95.1052 184.459 82.202 179.137 72.4619 175.171C67.5919 173.163 63.5753 171.506 60.7638 170.351C59.358 169.749 58.2032 169.397 57.5505 168.845C56.8978 168.343 56.5966 167.841 56.5966 167.841C56.3958 167.439 56.5464 166.987 56.9481 166.787C56.9983 166.787 56.9983 166.736 57.0485 166.736V166.787Z" fill="#40BF93"/>
<path d="M438.719 326.143C438.719 326.143 438.167 326.344 437.313 326.193C436.46 326.093 435.406 325.54 434 324.938C431.188 323.783 427.121 322.076 422.302 320.068C412.612 316.001 399.709 310.629 386.805 305.257C360.999 294.412 335.343 283.316 335.343 283.316C335.042 283.166 334.892 282.814 335.042 282.563C335.193 282.262 335.494 282.111 335.795 282.262C335.795 282.262 361.802 292.554 387.709 303.148C400.662 308.47 413.566 313.792 423.306 317.758C428.176 319.766 432.192 321.423 435.004 322.578C436.41 323.181 437.564 323.532 438.217 324.084C438.87 324.586 439.171 325.088 439.171 325.088C439.372 325.49 439.221 325.942 438.82 326.143C438.769 326.143 438.769 326.193 438.719 326.193V326.143Z" fill="#40BF93"/>
<path d="M65.6327 221.864C65.6327 221.864 66.0846 221.563 66.8377 221.412C67.5908 221.261 68.6451 221.563 70.0007 221.713C72.7119 222.065 76.5276 222.617 81.1466 223.219C90.3847 224.475 102.685 226.131 115.036 227.788C139.688 231.152 164.289 234.867 164.289 234.867C164.59 234.918 164.841 235.219 164.791 235.52C164.741 235.821 164.44 236.072 164.138 236.022C164.138 236.022 139.437 233.21 114.735 230.098C102.384 228.541 90.0834 226.935 80.7952 225.78C76.1761 225.177 72.3102 224.675 69.5991 224.324C68.2435 224.123 67.1891 224.123 66.4863 223.772C65.7834 223.47 65.4319 223.019 65.4319 223.019C65.1307 222.667 65.2311 222.165 65.5825 221.864H65.6327Z" fill="#40BF93"/>
<path d="M430.134 271.066C430.134 271.066 429.682 271.367 428.929 271.518C428.176 271.668 427.121 271.367 425.766 271.217C423.054 270.865 419.239 270.313 414.62 269.71C405.382 268.455 393.081 266.798 380.73 265.142C356.079 261.778 331.477 258.062 331.477 258.062C331.176 258.012 330.925 257.711 330.975 257.41C331.026 257.109 331.327 256.857 331.628 256.908C331.628 256.908 356.33 259.719 381.031 262.832C393.382 264.388 405.683 265.995 414.971 267.15C419.59 267.752 423.456 268.254 426.167 268.606C427.523 268.807 428.577 268.807 429.28 269.158C429.983 269.459 430.334 269.911 430.334 269.911C430.636 270.263 430.535 270.765 430.184 271.066H430.134Z" fill="#40BF93"/>
<path d="M42.7908 272.874C42.7908 272.874 43.1925 272.422 43.9456 272.12C44.7489 271.769 45.9538 271.769 47.46 271.518C50.4724 271.116 54.8404 270.564 60.0117 269.911C70.4045 268.556 84.2616 266.799 98.1688 264.991C125.933 261.477 153.697 258.263 153.697 258.263C153.999 258.213 154.3 258.464 154.35 258.765C154.4 259.067 154.149 259.368 153.848 259.418C153.848 259.418 126.184 263.485 98.4701 267.301C84.613 269.158 70.756 271.016 60.3632 272.422C55.1417 273.125 50.8239 273.677 47.8115 274.129C46.3053 274.279 45.1003 274.581 44.297 274.48C43.4435 274.38 42.9916 274.078 42.9916 274.078C42.6402 273.827 42.5398 273.376 42.7908 273.024C42.7908 272.974 42.841 272.974 42.841 272.924L42.7908 272.874Z" fill="#40BF93"/>
<path d="M453.033 220.056C453.033 220.056 452.631 220.508 451.878 220.809C451.075 221.161 449.87 221.161 448.363 221.412C445.351 221.813 440.983 222.366 435.812 223.018C425.419 224.374 411.562 226.131 397.655 227.939C369.89 231.453 342.126 234.666 342.126 234.666C341.825 234.716 341.523 234.465 341.473 234.164C341.423 233.863 341.674 233.562 341.975 233.512C341.975 233.512 369.639 229.445 397.353 225.629C411.21 223.771 425.067 221.864 435.46 220.508C440.682 219.805 445 219.253 448.012 218.801C449.518 218.65 450.723 218.349 451.526 218.45C452.38 218.55 452.832 218.851 452.832 218.851C453.183 219.102 453.284 219.554 453.033 219.906C453.033 219.956 452.982 219.956 452.982 220.006L453.033 220.056Z" fill="#40BF93"/>
<path d="M77.7824 316.303C77.7824 316.303 77.9832 315.801 78.5857 315.349C79.1882 314.847 80.1923 314.545 81.4475 314.043C83.9578 312.989 87.5727 311.533 91.8905 309.776C100.526 306.261 112.023 301.542 123.521 296.822C146.566 287.434 169.711 278.296 169.711 278.296C170.012 278.196 170.364 278.346 170.464 278.648C170.564 278.949 170.464 279.3 170.163 279.401C170.163 279.401 147.369 289.291 124.424 298.981C112.977 303.801 101.48 308.571 92.8946 312.186C88.5768 313.993 85.0122 315.499 82.5018 316.503C81.2467 317.006 80.2927 317.508 79.5396 317.608C78.7865 317.708 78.2845 317.508 78.2845 317.508C77.8828 317.357 77.6318 316.855 77.8326 316.453L77.7824 316.303Z" fill="#40BF93"/>
<path d="M418.037 176.627C418.037 176.627 417.837 177.129 417.234 177.581C416.632 178.083 415.628 178.384 414.372 178.937C411.862 179.991 408.247 181.447 403.929 183.204C395.294 186.719 383.796 191.438 372.299 196.158C349.254 205.546 326.109 214.684 326.109 214.684C325.808 214.784 325.456 214.634 325.356 214.332C325.255 214.031 325.356 213.68 325.657 213.579C325.657 213.579 348.451 203.689 371.395 193.999C382.843 189.179 394.34 184.409 402.925 180.794C407.243 178.987 410.808 177.481 413.318 176.477C414.573 175.974 415.527 175.472 416.28 175.372C417.033 175.272 417.535 175.472 417.535 175.472C417.937 175.623 418.188 176.125 417.987 176.527C417.987 176.527 417.987 176.527 417.987 176.577L418.037 176.627Z" fill="#40BF93"/>
<path d="M83.4554 371.881C83.4554 371.881 83.5558 371.329 84.108 370.626C84.6101 369.923 85.6645 369.321 86.8694 368.367C89.2793 366.509 92.7938 363.848 96.961 360.685C105.295 354.309 116.441 345.874 127.537 337.389C149.829 320.47 172.271 303.801 172.271 303.801C172.522 303.6 172.924 303.651 173.074 303.902C173.275 304.153 173.225 304.504 172.974 304.705C172.974 304.705 151.034 322.076 128.943 339.197C117.897 347.732 106.801 356.317 98.5174 362.694C94.3502 365.907 90.886 368.568 88.476 370.425C87.2711 371.329 86.3674 372.183 85.564 372.484C84.7607 372.835 84.2085 372.785 84.2085 372.785C83.7566 372.785 83.4554 372.384 83.4554 371.982C83.4554 371.932 83.4554 371.881 83.4554 371.881Z" fill="#40BF93"/>
<path d="M412.31 120.998C412.31 120.998 412.209 121.55 411.657 122.253C411.155 122.956 410.101 123.559 408.896 124.513C406.486 126.37 402.971 129.031 398.804 132.194C390.47 138.57 379.324 147.005 368.228 155.49C345.936 172.41 323.494 189.078 323.494 189.078C323.243 189.279 322.841 189.229 322.691 188.978C322.49 188.727 322.54 188.376 322.791 188.175C322.791 188.175 344.731 170.803 366.822 153.683C377.868 145.148 388.964 136.562 397.248 130.186C401.415 126.973 404.879 124.312 407.289 122.454C408.494 121.55 409.398 120.697 410.201 120.396C411.004 120.044 411.557 120.094 411.557 120.094C412.008 120.094 412.31 120.496 412.31 120.898C412.31 120.948 412.31 120.998 412.31 120.998Z" fill="#40BF93"/>
<path d="M135.472 392.014C135.472 392.014 135.422 391.462 135.673 390.759C135.924 390.056 136.677 389.253 137.481 388.148C139.137 385.989 141.497 382.927 144.359 379.212C150.082 371.831 157.664 361.991 165.295 352.15C180.558 332.519 196.022 313.039 196.022 313.039C196.222 312.788 196.574 312.738 196.875 312.939C197.126 313.139 197.176 313.491 196.976 313.742C196.976 313.742 182.165 333.724 167.153 353.556C159.622 363.447 152.091 373.337 146.417 380.768C143.606 384.483 141.246 387.546 139.589 389.705C138.736 390.759 138.183 391.713 137.581 392.115C136.978 392.567 136.426 392.617 136.426 392.617C135.974 392.667 135.573 392.366 135.472 391.914C135.472 391.914 135.472 391.914 135.472 391.864V392.014Z" fill="#40BF93"/>
<path d="M360.298 100.915C360.298 100.915 360.349 101.468 360.098 102.171C359.847 102.873 359.094 103.677 358.29 104.781C356.633 106.94 354.274 110.003 351.412 113.718C345.688 121.099 338.107 130.939 330.476 140.78C315.213 160.41 299.749 179.891 299.749 179.891C299.548 180.142 299.197 180.192 298.896 179.991C298.645 179.79 298.594 179.439 298.795 179.188C298.795 179.188 313.606 159.205 328.618 139.374C336.149 129.483 343.68 119.592 349.353 112.162C352.165 108.446 354.525 105.384 356.182 103.225C357.035 102.171 357.587 101.217 358.19 100.815C358.792 100.363 359.345 100.313 359.345 100.313C359.796 100.263 360.198 100.564 360.298 101.016C360.298 101.016 360.298 101.016 360.298 101.066V100.915Z" fill="#40BF93"/>
<path d="M168.209 437.301C168.209 437.301 168.008 436.748 168.159 435.895C168.259 435.041 168.811 433.987 169.414 432.581C170.569 429.77 172.276 425.703 174.284 420.883C178.351 411.193 183.723 398.29 189.095 385.387C199.939 359.581 211.035 333.925 211.035 333.925C211.186 333.624 211.537 333.473 211.788 333.624C212.089 333.774 212.24 334.076 212.089 334.377C212.089 334.377 201.797 360.384 191.203 386.291C185.882 399.244 180.61 412.147 176.593 421.887C174.585 426.757 172.928 430.774 171.773 433.585C171.171 434.991 170.82 436.146 170.267 436.798C169.765 437.451 169.263 437.752 169.263 437.752C168.861 437.953 168.41 437.803 168.209 437.401C168.209 437.351 168.159 437.351 168.159 437.301H168.209Z" fill="#40BF93"/>
<path d="M327.615 55.6291C327.615 55.6291 327.815 56.1814 327.665 57.0349C327.564 57.8884 327.012 58.9428 326.41 60.3485C325.255 63.1601 323.548 67.2269 321.54 72.0467C317.473 81.7366 312.101 94.6397 306.729 107.543C295.884 133.349 284.788 159.005 284.788 159.005C284.638 159.306 284.286 159.457 284.035 159.306C283.734 159.155 283.583 158.854 283.734 158.553C283.734 158.553 294.026 132.546 304.62 106.639C309.942 93.6858 315.264 80.7827 319.23 71.0426C321.238 66.1725 322.895 62.156 324.05 59.3444C324.652 57.9386 325.004 56.7839 325.556 56.1312C326.058 55.4785 326.56 55.1773 326.56 55.1773C326.962 54.9764 327.414 55.127 327.615 55.5287C327.615 55.5789 327.665 55.5789 327.665 55.6291H327.615Z" fill="#40BF93"/>
<path d="M223.287 428.716C223.287 428.716 222.985 428.264 222.835 427.511C222.684 426.757 222.985 425.703 223.136 424.348C223.487 421.636 224.04 417.821 224.642 413.202C225.897 403.964 227.554 391.663 229.211 379.312C232.575 354.661 236.29 330.059 236.29 330.059C236.34 329.758 236.642 329.507 236.943 329.557C237.244 329.607 237.495 329.909 237.445 330.21C237.445 330.21 234.633 354.912 231.521 379.613C229.964 391.964 228.358 404.265 227.203 413.553C226.6 418.172 226.098 422.038 225.747 424.749C225.546 426.105 225.546 427.159 225.194 427.862C224.893 428.565 224.441 428.916 224.441 428.916C224.09 429.218 223.588 429.117 223.287 428.766V428.716Z" fill="#40BF93"/>
<path d="M272.486 64.2145C272.486 64.2145 272.787 64.6663 272.938 65.4194C273.088 66.1725 272.787 67.2269 272.636 68.5824C272.285 71.2936 271.733 75.1093 271.13 79.7283C269.875 88.9664 268.218 101.317 266.561 113.618C263.198 138.269 259.482 162.871 259.482 162.871C259.432 163.172 259.131 163.423 258.83 163.373C258.528 163.323 258.277 163.021 258.328 162.72C258.328 162.72 261.139 138.018 264.252 113.317C265.808 100.966 267.415 88.6651 268.57 79.3769C269.172 74.7579 269.674 70.892 270.026 68.1808C270.226 66.8252 270.226 65.7709 270.578 65.068C270.879 64.3651 271.331 64.0136 271.331 64.0136C271.682 63.7124 272.185 63.8128 272.486 64.1643V64.2145Z" fill="#40BF93"/>
<path d="M153.043 151.474C153.043 151.474 153.244 151.574 153.545 151.825C153.847 152.076 154.248 152.478 154.75 153.03C155.755 154.085 157.261 155.541 159.018 157.348C162.533 160.913 167.202 165.632 171.921 170.402C181.31 179.891 190.648 189.38 190.648 189.38C191.1 189.832 191.1 190.635 190.648 191.087C190.146 191.539 189.393 191.539 188.941 191.087C188.941 191.087 179.553 181.648 170.114 172.209C165.394 167.49 160.725 162.77 157.16 159.206C155.403 157.448 153.947 155.942 152.893 154.938C152.391 154.436 151.989 154.034 151.688 153.733C151.437 153.432 151.336 153.231 151.336 153.231C150.985 152.629 151.186 151.876 151.788 151.524C152.19 151.273 152.692 151.323 153.043 151.524V151.474Z" fill="#40BF93"/>
<path d="M115.287 113.869C115.287 113.869 115.588 113.818 115.889 113.969C116.191 114.07 116.492 114.471 116.894 114.873C117.697 115.726 118.852 116.881 120.257 118.287C123.019 121.149 126.734 124.914 130.449 128.73C137.93 136.261 145.16 143.993 145.16 143.993C145.511 144.344 145.461 144.896 145.11 145.248C144.758 145.549 144.256 145.549 143.905 145.248C143.905 145.248 136.223 137.918 128.742 130.387C124.977 126.671 121.211 122.906 118.4 120.094C116.994 118.689 115.789 117.534 114.986 116.73C114.584 116.329 114.233 116.028 114.082 115.726C113.982 115.425 113.982 115.124 113.982 115.124C114.082 114.471 114.584 114.019 115.237 113.919L115.287 113.869Z" fill="#40BF93"/>
<path d="M73.1662 71.8455C73.1662 71.8455 73.5678 71.6949 73.9193 71.7451C74.2707 71.7953 74.5218 72.197 74.9234 72.5484C75.6765 73.3517 76.7811 74.4563 78.1366 75.8119C80.7474 78.523 84.3121 82.0877 87.8265 85.7528C94.8053 92.9826 101.633 100.463 101.633 100.463C101.834 100.714 101.834 101.066 101.583 101.317C101.332 101.518 101.031 101.518 100.78 101.317C100.78 101.317 93.3995 94.4888 86.1697 87.4096C82.5548 83.8951 78.9902 80.3305 76.3292 77.6695C74.9736 76.3139 73.8691 75.2094 73.0658 74.4563C72.7143 74.0546 72.3127 73.8538 72.2625 73.4521C72.2123 73.1007 72.3629 72.699 72.3629 72.699C72.5135 72.2974 72.8147 71.9961 73.2164 71.8455H73.1662Z" fill="#40BF93"/>
<path d="M342.075 343.916C342.075 343.916 341.874 343.816 341.573 343.565C341.272 343.314 340.87 342.912 340.368 342.41C339.314 341.406 337.858 339.899 336.101 338.142C332.536 334.628 327.817 329.908 323.097 325.189C313.658 315.8 304.219 306.361 304.219 306.361C303.768 305.91 303.768 305.106 304.219 304.654C304.671 304.202 305.475 304.152 305.926 304.654C305.926 304.654 315.416 314.043 324.905 323.381C329.624 328.051 334.394 332.77 337.958 336.285C339.716 338.042 341.222 339.498 342.276 340.552C342.778 341.054 343.23 341.456 343.481 341.757C343.732 342.058 343.833 342.259 343.833 342.259C344.184 342.862 343.983 343.615 343.381 343.966C342.979 344.217 342.477 344.167 342.126 343.966L342.075 343.916Z" fill="#40BF93"/>
<path d="M380.129 381.17C380.129 381.17 379.828 381.22 379.526 381.069C379.225 380.969 378.924 380.567 378.522 380.165C377.719 379.362 376.514 378.157 375.158 376.751C372.347 373.94 368.632 370.174 364.866 366.409C357.335 358.928 350.005 351.246 350.005 351.246C349.653 350.895 349.704 350.343 350.055 349.991C350.407 349.69 350.909 349.69 351.26 349.991C351.26 349.991 358.992 357.271 366.523 364.702C370.339 368.417 374.104 372.132 376.966 374.894C378.372 376.3 379.577 377.454 380.38 378.258C380.782 378.659 381.133 378.96 381.284 379.262C381.434 379.563 381.384 379.864 381.384 379.864C381.284 380.517 380.782 381.019 380.179 381.119L380.129 381.17Z" fill="#40BF93"/>
<path d="M422.604 422.942C422.604 422.942 422.253 423.092 421.851 423.042C421.5 422.992 421.249 422.59 420.847 422.239C420.094 421.435 418.939 420.331 417.634 418.975C414.973 416.264 411.408 412.75 407.894 409.135C400.815 401.955 393.986 394.525 393.986 394.525C393.786 394.273 393.786 393.922 394.037 393.671C394.288 393.47 394.589 393.47 394.84 393.671C394.84 393.671 402.321 400.449 409.55 407.478C413.216 410.942 416.78 414.507 419.491 417.168C420.847 418.473 421.952 419.578 422.755 420.381C423.106 420.783 423.508 420.983 423.558 421.385C423.608 421.737 423.458 422.138 423.458 422.138C423.307 422.54 423.006 422.841 422.604 422.992V422.942Z" fill="#40BF93"/>
<path d="M117.802 211.722C117.802 211.722 118.003 211.722 118.405 211.772C118.806 211.872 119.359 212.023 120.061 212.224C121.467 212.625 123.476 213.178 125.885 213.83C130.705 215.136 137.132 216.893 143.558 218.7C156.411 222.215 169.264 225.779 169.264 225.779C169.917 225.98 170.268 226.633 170.118 227.286C169.917 227.938 169.264 228.29 168.611 228.139C168.611 228.139 155.758 224.675 142.855 221.211C136.429 219.453 130.002 217.746 125.132 216.441C122.722 215.788 120.714 215.236 119.308 214.885C118.605 214.684 118.053 214.533 117.702 214.433C117.35 214.282 117.149 214.182 117.149 214.182C116.547 213.83 116.346 213.077 116.698 212.475C116.949 212.073 117.35 211.872 117.802 211.872V211.722Z" fill="#40BF93"/>
<path d="M66.338 198.066C66.338 198.066 66.5388 197.865 66.8902 197.815C67.2417 197.764 67.6433 197.965 68.1956 198.116C69.3001 198.417 70.9068 198.869 72.8146 199.421C76.6303 200.475 81.7514 201.931 86.8725 203.337C97.1147 206.149 107.256 209.211 107.256 209.211C107.708 209.362 107.959 209.814 107.859 210.316C107.708 210.768 107.256 211.019 106.805 210.918C106.805 210.918 96.5122 208.408 86.27 205.647C81.1489 204.291 76.0279 202.936 72.1619 201.931C70.2541 201.429 68.6475 200.978 67.4927 200.726C66.9404 200.576 66.4886 200.526 66.2375 200.275C65.9865 200.074 65.8861 199.773 65.8861 199.773C65.6351 199.17 65.8861 198.467 66.338 198.116V198.066Z" fill="#40BF93"/>
<path d="M8.79864 182.702C8.79864 182.702 9.04967 182.401 9.40112 182.25C9.75257 182.1 10.1542 182.351 10.6563 182.451C11.7106 182.753 13.2168 183.154 15.0745 183.656C18.6894 184.711 23.5594 186.016 28.4295 187.422C38.1194 190.183 47.7089 193.246 47.7089 193.246C48.0101 193.346 48.2109 193.698 48.1105 193.999C48.0101 194.3 47.7089 194.451 47.4076 194.4C47.4076 194.4 37.5671 192.191 27.827 189.681C22.9569 188.476 18.0869 187.121 14.4218 186.167C12.6144 185.665 11.0579 185.263 10.0036 185.012C9.50153 184.861 9.04967 184.861 8.79864 184.56C8.54761 184.259 8.4974 183.857 8.4974 183.857C8.44719 183.455 8.54761 183.004 8.79864 182.702Z" fill="#40BF93"/>
<path d="M377.719 283.869C377.719 283.869 377.518 283.869 377.116 283.819C376.715 283.768 376.162 283.568 375.459 283.417C374.054 283.065 372.045 282.513 369.635 281.861C364.816 280.555 358.339 278.848 351.912 277.141C339.009 273.727 326.156 270.263 326.156 270.263C325.504 270.112 325.102 269.409 325.303 268.757C325.454 268.104 326.156 267.702 326.759 267.903C326.759 267.903 339.662 271.267 352.565 274.631C358.992 276.338 365.468 277.995 370.288 279.25C372.698 279.902 374.706 280.405 376.112 280.756C376.815 280.957 377.367 281.057 377.769 281.208C378.12 281.358 378.321 281.459 378.321 281.459C378.924 281.81 379.124 282.563 378.773 283.166C378.522 283.568 378.12 283.819 377.669 283.819L377.719 283.869Z" fill="#40BF93"/>
<path d="M429.331 297.124C429.331 297.124 429.13 297.324 428.778 297.375C428.427 297.425 428.025 297.224 427.473 297.124C426.369 296.822 424.762 296.37 422.854 295.868C419.038 294.814 413.917 293.458 408.796 292.053C398.554 289.342 388.362 286.329 388.362 286.329C387.91 286.178 387.659 285.727 387.76 285.225C387.91 284.773 388.362 284.522 388.814 284.622C388.814 284.622 399.157 287.032 409.399 289.743C414.52 291.049 419.691 292.354 423.507 293.358C425.415 293.86 427.021 294.262 428.176 294.563C428.728 294.714 429.18 294.764 429.481 294.965C429.732 295.165 429.833 295.417 429.833 295.417C430.084 296.019 429.883 296.722 429.381 297.124H429.331Z" fill="#40BF93"/>
<path d="M486.971 312.035C486.971 312.035 486.72 312.336 486.368 312.487C486.017 312.637 485.615 312.386 485.113 312.286C484.059 311.985 482.553 311.583 480.695 311.081C477.03 310.077 472.16 308.822 467.34 307.416C457.65 304.705 448.01 301.743 448.01 301.743C447.709 301.642 447.508 301.291 447.609 300.99C447.709 300.688 448.01 300.538 448.312 300.588C448.312 300.588 458.152 302.747 467.942 305.157C472.863 306.362 477.683 307.667 481.348 308.571C483.155 309.023 484.711 309.424 485.766 309.725C486.268 309.876 486.72 309.876 486.971 310.177C487.222 310.479 487.272 310.88 487.272 310.88C487.322 311.282 487.222 311.734 486.971 312.035Z" fill="#40BF93"/>
<path d="M117.398 281.509C117.398 281.509 117.599 281.409 117.95 281.258C118.302 281.107 118.854 281.007 119.607 280.806C121.013 280.455 123.021 279.902 125.431 279.3C130.251 278.045 136.728 276.338 143.154 274.681C156.057 271.317 168.96 267.953 168.96 267.953C169.613 267.803 170.266 268.154 170.416 268.807C170.567 269.459 170.216 270.112 169.563 270.263C169.563 270.263 156.66 273.677 143.807 277.141C137.38 278.848 130.904 280.555 126.084 281.86C123.674 282.513 121.666 283.015 120.26 283.417C119.557 283.618 119.005 283.768 118.603 283.819C118.201 283.869 118.001 283.869 118.001 283.869C117.298 283.869 116.745 283.316 116.745 282.614C116.745 282.162 116.997 281.76 117.398 281.509Z" fill="#40BF93"/>
<path d="M65.9879 295.467C65.9879 295.467 66.0883 295.215 66.3393 295.015C66.5903 294.814 67.0422 294.764 67.6447 294.613C68.7492 294.312 70.3558 293.91 72.3139 293.408C76.1798 292.404 81.3009 291.099 86.422 289.793C96.6642 287.082 107.007 284.672 107.007 284.672C107.459 284.572 107.961 284.873 108.061 285.325C108.162 285.777 107.91 286.228 107.459 286.379C107.459 286.379 97.2667 289.341 87.0245 292.103C81.9034 293.508 76.7823 294.864 72.9666 295.918C71.0587 296.42 69.4521 296.872 68.3476 297.174C67.7953 297.324 67.3434 297.475 67.0422 297.425C66.6908 297.374 66.4899 297.174 66.4899 297.174C65.9879 296.772 65.8372 296.069 66.0381 295.467H65.9879Z" fill="#40BF93"/>
<path d="M8.4974 310.88C8.4974 310.88 8.54761 310.478 8.79864 310.177C8.99947 309.876 9.50153 309.876 10.0036 309.725C11.0579 309.474 12.6144 309.072 14.4218 308.57C18.0869 307.667 22.9569 306.361 27.827 305.156C37.6173 302.696 47.4578 300.588 47.4578 300.588C47.7591 300.537 48.1105 300.738 48.1607 301.039C48.2109 301.341 48.0603 301.642 47.7591 301.742C47.7591 301.742 38.1194 304.704 28.4295 307.416C23.5594 308.771 18.6894 310.077 15.0745 311.081C13.267 311.583 11.7106 311.984 10.6563 312.286C10.104 312.386 9.75257 312.637 9.40112 312.487C9.04967 312.336 8.79864 312.035 8.79864 312.035C8.54761 311.683 8.44719 311.282 8.4974 310.88Z" fill="#40BF93"/>
<path d="M378.572 214.031C378.572 214.031 378.372 214.132 378.02 214.282C377.669 214.433 377.116 214.533 376.413 214.734C375.008 215.136 372.999 215.638 370.589 216.291C365.77 217.596 359.343 219.353 352.867 221.06C340.014 224.525 327.11 227.989 327.11 227.989C326.458 228.139 325.805 227.788 325.604 227.135C325.454 226.483 325.805 225.83 326.458 225.629C326.458 225.629 339.311 222.115 352.164 218.55C358.59 216.793 365.017 215.035 369.836 213.68C372.246 213.027 374.255 212.475 375.66 212.073C376.363 211.872 376.916 211.722 377.317 211.621C377.719 211.571 377.92 211.571 377.92 211.571C378.623 211.571 379.175 212.123 379.175 212.826C379.175 213.278 378.924 213.68 378.572 213.931V214.031Z" fill="#40BF93"/>
<path d="M429.885 199.722C429.885 199.722 429.785 199.973 429.534 200.224C429.283 200.425 428.831 200.475 428.279 200.676C427.174 200.978 425.568 201.379 423.61 201.881C419.744 202.885 414.623 204.241 409.502 205.597C399.259 208.358 388.967 210.868 388.967 210.868C388.515 210.969 388.013 210.718 387.913 210.216C387.812 209.764 388.063 209.312 388.515 209.161C388.515 209.161 398.657 206.099 408.899 203.287C414.02 201.881 419.091 200.425 422.957 199.371C424.865 198.819 426.471 198.367 427.576 198.066C428.128 197.915 428.58 197.714 428.881 197.764C429.233 197.815 429.434 198.015 429.434 198.015C429.936 198.417 430.086 199.12 429.885 199.672V199.722Z" fill="#40BF93"/>
<path d="M487.273 183.857C487.273 183.857 487.223 184.259 486.971 184.56C486.771 184.861 486.319 184.861 485.767 185.012C484.712 185.313 483.156 185.715 481.348 186.167C477.683 187.121 472.813 188.476 467.943 189.681C458.203 192.191 448.362 194.4 448.362 194.4C448.061 194.451 447.71 194.25 447.66 193.949C447.609 193.647 447.76 193.346 448.061 193.246C448.061 193.246 457.651 190.183 467.341 187.422C472.16 186.016 477.031 184.711 480.696 183.656C482.503 183.154 484.009 182.702 485.114 182.451C485.666 182.351 486.018 182.1 486.369 182.25C486.72 182.401 486.971 182.702 486.971 182.702C487.223 183.054 487.323 183.455 487.273 183.857Z" fill="#40BF93"/>
<path d="M151.939 342.209C151.939 342.209 152.039 342.008 152.29 341.707C152.541 341.406 152.943 341.004 153.495 340.502C154.55 339.498 156.006 337.992 157.813 336.235C161.378 332.72 166.097 328.051 170.867 323.331C180.356 313.943 189.845 304.604 189.845 304.604C190.297 304.153 191.1 304.153 191.552 304.604C192.004 305.056 192.004 305.86 191.552 306.311C191.552 306.311 182.113 315.7 172.674 325.139C167.955 329.858 163.235 334.528 159.671 338.092C157.914 339.849 156.407 341.305 155.403 342.36C154.901 342.862 154.5 343.264 154.198 343.515C153.897 343.766 153.696 343.866 153.696 343.866C153.094 344.217 152.341 344.017 151.989 343.414C151.738 343.013 151.788 342.51 151.989 342.159L151.939 342.209Z" fill="#40BF93"/>
<path d="M114.388 379.965C114.388 379.965 114.338 379.663 114.488 379.362C114.589 379.061 114.99 378.76 115.392 378.358C116.245 377.555 117.4 376.4 118.806 374.994C121.668 372.233 125.433 368.518 129.249 364.802C136.78 357.322 144.512 350.092 144.512 350.092C144.863 349.74 145.416 349.791 145.767 350.142C146.068 350.493 146.068 350.995 145.767 351.347C145.767 351.347 138.437 359.029 130.906 366.509C127.19 370.275 123.425 374.04 120.613 376.852C119.208 378.258 118.053 379.463 117.25 380.266C116.848 380.668 116.547 381.019 116.245 381.17C115.944 381.27 115.643 381.27 115.643 381.27C114.99 381.17 114.538 380.668 114.438 380.015L114.388 379.965Z" fill="#40BF93"/>
<path d="M72.3138 422.088C72.3138 422.088 72.1631 421.687 72.2134 421.335C72.2636 420.984 72.6652 420.733 73.0167 420.331C73.82 419.578 74.9245 418.473 76.2801 417.118C78.9913 414.507 82.5559 410.942 86.221 407.428C93.4508 400.449 100.932 393.621 100.932 393.621C101.183 393.42 101.534 393.42 101.785 393.671C101.986 393.922 101.986 394.224 101.785 394.475C101.785 394.475 94.957 401.855 87.8779 409.085C84.3634 412.7 80.7987 416.264 78.1378 418.925C76.7822 420.281 75.6776 421.385 74.9245 422.189C74.5229 422.54 74.2718 422.942 73.9204 422.992C73.5689 423.042 73.1673 422.892 73.1673 422.892C72.7656 422.741 72.4644 422.44 72.3138 422.038V422.088Z" fill="#40BF93"/>
<path d="M344.432 153.181C344.432 153.181 344.331 153.382 344.08 153.683C343.829 153.984 343.428 154.386 342.926 154.888C341.871 155.942 340.415 157.398 338.658 159.155C335.144 162.72 330.424 167.44 325.705 172.159C316.316 181.598 306.877 191.037 306.877 191.037C306.425 191.489 305.622 191.489 305.17 191.037C304.718 190.585 304.668 189.782 305.17 189.33C305.17 189.33 314.559 179.841 323.897 170.352C328.567 165.632 333.286 160.862 336.8 157.298C338.558 155.541 340.014 154.034 341.068 152.98C341.57 152.478 341.972 152.026 342.273 151.775C342.574 151.524 342.775 151.424 342.775 151.424C343.378 151.072 344.131 151.273 344.482 151.875C344.733 152.277 344.683 152.779 344.482 153.131L344.432 153.181Z" fill="#40BF93"/>
<path d="M381.684 115.124C381.684 115.124 381.734 115.425 381.584 115.726C381.483 116.028 381.082 116.329 380.68 116.73C379.877 117.534 378.672 118.739 377.266 120.094C374.454 122.906 370.689 126.621 366.923 130.387C359.443 137.918 351.761 145.248 351.761 145.248C351.41 145.599 350.857 145.549 350.506 145.198C350.205 144.846 350.205 144.344 350.506 143.993C350.506 143.993 357.786 136.261 365.216 128.73C368.932 124.914 372.647 121.149 375.408 118.287C376.814 116.881 377.969 115.676 378.772 114.873C379.174 114.471 379.475 114.12 379.776 113.969C380.078 113.818 380.379 113.869 380.379 113.869C381.032 113.969 381.534 114.471 381.634 115.074L381.684 115.124Z" fill="#40BF93"/>
<path d="M423.41 72.6491C423.41 72.6491 423.56 73.0508 423.51 73.4022C423.46 73.7537 423.058 74.0047 422.707 74.4063C421.903 75.1594 420.799 76.3142 419.443 77.6196C416.732 80.2805 413.218 83.8452 409.603 87.3597C402.423 94.4388 394.993 101.267 394.993 101.267C394.742 101.468 394.39 101.468 394.139 101.217C393.938 100.966 393.938 100.664 394.139 100.413C394.139 100.413 400.917 92.9326 407.946 85.7029C411.41 82.0378 414.975 78.4731 417.636 75.7619C418.941 74.4063 420.046 73.3018 420.849 72.4985C421.251 72.147 421.452 71.7454 421.853 71.6952C422.205 71.645 422.606 71.7956 422.606 71.7956C423.008 71.9462 423.309 72.2475 423.46 72.6491H423.41Z" fill="#40BF93"/>
<path d="M212.24 377.454C212.24 377.454 212.24 377.253 212.291 376.852C212.391 376.45 212.542 375.898 212.692 375.195C213.094 373.789 213.646 371.781 214.299 369.371C215.604 364.551 217.361 358.124 219.169 351.698C222.683 338.845 226.248 325.992 226.248 325.992C226.449 325.339 227.102 324.988 227.754 325.139C228.407 325.339 228.758 325.992 228.608 326.645C228.608 326.645 225.144 339.498 221.679 352.401C219.922 358.827 218.215 365.254 216.91 370.124C216.257 372.534 215.705 374.542 215.353 375.948C215.152 376.651 215.002 377.203 214.901 377.554C214.751 377.906 214.65 378.107 214.65 378.107C214.299 378.709 213.546 378.91 212.943 378.559C212.542 378.308 212.341 377.906 212.341 377.454H212.24Z" fill="#40BF93"/>
<path d="M198.581 428.916C198.581 428.916 198.381 428.715 198.33 428.364C198.28 428.013 198.481 427.611 198.632 427.059C198.933 425.954 199.385 424.347 199.937 422.44C200.991 418.624 202.447 413.503 203.853 408.382C206.665 398.14 209.727 387.998 209.727 387.998C209.878 387.546 210.33 387.295 210.832 387.395C211.284 387.546 211.535 387.998 211.434 388.45C211.434 388.45 208.924 398.742 206.163 408.984C204.807 414.105 203.451 419.226 202.447 423.092C201.945 425 201.493 426.607 201.242 427.761C201.092 428.314 201.042 428.766 200.791 429.017C200.59 429.268 200.339 429.368 200.339 429.368C199.736 429.619 199.033 429.368 198.682 428.916H198.581Z" fill="#40BF93"/>
<path d="M183.218 486.453C183.218 486.453 182.917 486.202 182.766 485.85C182.616 485.499 182.867 485.097 182.967 484.595C183.268 483.541 183.67 482.035 184.172 480.177C185.226 476.562 186.532 471.692 187.938 466.822C190.699 457.132 193.762 447.543 193.762 447.543C193.862 447.241 194.213 447.04 194.515 447.141C194.816 447.241 194.967 447.543 194.916 447.844C194.916 447.844 192.707 457.684 190.197 467.424C188.992 472.294 187.636 477.165 186.682 480.83C186.18 482.637 185.779 484.193 185.528 485.248C185.377 485.75 185.377 486.202 185.076 486.453C184.775 486.704 184.373 486.754 184.373 486.754C183.971 486.804 183.519 486.704 183.218 486.453Z" fill="#40BF93"/>
<path d="M284.384 117.534C284.384 117.534 284.384 117.735 284.333 118.136C284.283 118.538 284.082 119.09 283.932 119.793C283.58 121.199 283.028 123.207 282.375 125.617C281.07 130.437 279.363 136.914 277.656 143.34C274.242 156.243 270.778 169.096 270.778 169.096C270.627 169.749 269.924 170.151 269.271 169.95C268.619 169.799 268.217 169.096 268.418 168.494C268.418 168.494 271.782 155.591 275.146 142.687C276.853 136.261 278.509 129.784 279.765 124.965C280.417 122.555 280.919 120.546 281.271 119.141C281.472 118.438 281.572 117.885 281.723 117.484C281.873 117.132 281.974 116.931 281.974 116.931C282.325 116.329 283.078 116.128 283.681 116.48C284.082 116.731 284.333 117.132 284.333 117.584L284.384 117.534Z" fill="#40BF93"/>
<path d="M297.639 65.9212C297.639 65.9212 297.839 66.122 297.89 66.4734C297.94 66.8249 297.739 67.2266 297.639 67.7788C297.337 68.8834 296.885 70.49 296.383 72.3978C295.329 76.2136 293.973 81.3346 292.568 86.4557C289.856 96.6979 286.844 106.89 286.844 106.89C286.693 107.342 286.242 107.593 285.74 107.492C285.288 107.342 285.037 106.89 285.137 106.438C285.137 106.438 287.547 96.0954 290.258 85.8532C291.563 80.7322 292.869 75.5609 293.873 71.7452C294.375 69.8373 294.777 68.2307 295.078 67.0759C295.229 66.5237 295.279 66.0718 295.48 65.7706C295.68 65.5195 295.931 65.4191 295.931 65.4191C296.534 65.1681 297.237 65.3689 297.639 65.871V65.9212Z" fill="#40BF93"/>
<path d="M312.549 8.28401C312.549 8.28401 312.85 8.53504 313.001 8.88649C313.151 9.23793 312.9 9.63959 312.8 10.1417C312.499 11.196 312.097 12.7022 311.595 14.5598C310.591 18.2249 309.336 23.095 307.93 27.9148C305.219 37.6047 302.257 47.2444 302.257 47.2444C302.156 47.5457 301.805 47.7465 301.503 47.6461C301.202 47.5457 301.052 47.2444 301.102 46.9432C301.102 46.9432 303.261 37.1027 305.671 27.3124C306.876 22.3921 308.181 17.5723 309.085 13.9072C309.537 12.0997 309.938 10.5433 310.239 9.48897C310.39 8.9869 310.39 8.53504 310.691 8.28401C310.993 8.03297 311.394 7.98277 311.394 7.98277C311.796 7.93256 312.248 8.03297 312.549 8.28401Z" fill="#40BF93"/>
<path d="M282.024 377.856C282.024 377.856 281.923 377.655 281.773 377.304C281.622 376.952 281.522 376.4 281.321 375.647C280.969 374.241 280.417 372.233 279.815 369.823C278.559 365.003 276.852 358.526 275.196 352.1C271.832 339.197 268.468 326.294 268.468 326.294C268.317 325.641 268.669 324.988 269.321 324.838C269.974 324.687 270.627 325.038 270.777 325.691C270.777 325.691 274.191 338.594 277.656 351.447C279.363 357.874 281.07 364.35 282.375 369.17C283.028 371.58 283.53 373.588 283.932 374.994C284.132 375.697 284.283 376.249 284.333 376.651C284.383 377.053 284.383 377.253 284.383 377.253C284.383 377.956 283.831 378.509 283.128 378.509C282.676 378.509 282.275 378.258 282.024 377.856Z" fill="#40BF93"/>
<path d="M295.935 429.268C295.935 429.268 295.684 429.167 295.483 428.916C295.282 428.665 295.232 428.213 295.081 427.611C294.78 426.506 294.378 424.9 293.876 422.942C292.872 419.076 291.567 413.955 290.261 408.834C287.55 398.591 285.14 388.249 285.14 388.249C285.04 387.797 285.341 387.295 285.793 387.195C286.245 387.094 286.697 387.345 286.847 387.797C286.847 387.797 289.81 397.989 292.571 408.231C293.977 413.352 295.332 418.473 296.387 422.289C296.889 424.197 297.341 425.803 297.642 426.908C297.792 427.46 297.943 427.912 297.893 428.213C297.843 428.565 297.642 428.766 297.642 428.766C297.24 429.268 296.537 429.418 295.935 429.218V429.268Z" fill="#40BF93"/>
<path d="M311.398 486.755C311.398 486.755 310.997 486.704 310.695 486.453C310.394 486.253 310.394 485.801 310.243 485.248C309.992 484.194 309.591 482.638 309.089 480.83C308.185 477.165 306.88 472.295 305.675 467.425C303.215 457.635 301.106 447.794 301.106 447.794C301.056 447.493 301.256 447.141 301.558 447.091C301.859 447.041 302.16 447.192 302.261 447.493C302.261 447.493 305.273 457.133 307.934 466.822C309.29 471.693 310.595 476.563 311.599 480.177C312.101 481.985 312.503 483.541 312.804 484.596C312.904 485.148 313.155 485.499 313.005 485.851C312.854 486.202 312.553 486.453 312.553 486.453C312.202 486.704 311.8 486.805 311.398 486.755Z" fill="#40BF93"/>
<path d="M214.546 116.68C214.546 116.68 214.647 116.881 214.797 117.233C214.948 117.584 215.048 118.136 215.249 118.839C215.651 120.245 216.153 122.253 216.806 124.663C218.111 129.483 219.868 135.91 221.575 142.386C225.04 155.239 228.504 168.142 228.504 168.142C228.654 168.795 228.303 169.448 227.65 169.649C226.998 169.799 226.345 169.448 226.144 168.795C226.144 168.795 222.63 155.942 219.065 143.089C217.308 136.663 215.55 130.236 214.195 125.416C213.542 123.007 212.99 120.998 212.588 119.592C212.387 118.89 212.237 118.337 212.187 117.936C212.136 117.534 212.136 117.333 212.136 117.333C212.136 116.63 212.689 116.078 213.392 116.078C213.843 116.078 214.245 116.329 214.496 116.68H214.546Z" fill="#40BF93"/>
<path d="M200.241 65.3692C200.241 65.3692 200.492 65.4696 200.692 65.7207C200.893 65.9717 200.943 66.4236 201.144 66.9758C201.446 68.0804 201.847 69.687 202.349 71.6451C203.353 75.511 204.709 80.6321 206.065 85.7531C208.826 95.9953 211.336 106.288 211.336 106.288C211.437 106.74 211.186 107.242 210.684 107.342C210.232 107.442 209.78 107.191 209.629 106.74C209.629 106.74 206.567 96.5978 203.755 86.3556C202.349 81.2345 200.893 76.1637 199.839 72.2977C199.287 70.3899 198.835 68.7833 198.534 67.6787C198.383 67.1264 198.182 66.6746 198.232 66.3733C198.282 66.0219 198.483 65.8211 198.483 65.8211C198.885 65.319 199.588 65.1684 200.14 65.3692H200.241Z" fill="#40BF93"/>
<path d="M184.324 7.98277C184.324 7.98277 184.725 8.03297 185.027 8.28401C185.328 8.48483 185.328 8.93669 185.479 9.48897C185.78 10.5433 186.181 12.0997 186.633 13.9072C187.587 17.5723 188.943 22.4423 190.148 27.3124C192.658 37.0525 194.867 46.893 194.867 46.893C194.917 47.1942 194.717 47.5457 194.415 47.5959C194.114 47.6461 193.813 47.4955 193.712 47.1942C193.712 47.1942 190.65 37.6047 187.888 27.9148C186.483 23.095 185.177 18.2249 184.123 14.5598C183.621 12.7524 183.169 11.2462 182.918 10.1417C182.818 9.58938 182.567 9.23793 182.717 8.88649C182.868 8.53504 183.169 8.28401 183.169 8.28401C183.52 8.03297 183.922 7.93256 184.324 7.98277Z" fill="#40BF93"/>
<path d="M125.028 33.0861C125.028 33.0861 125.681 33.4376 126.484 34.3915C127.287 35.3454 128.091 36.952 129.245 38.9101C131.505 42.8764 134.718 48.4996 138.584 55.2273C146.316 68.7329 156.658 86.7571 167.001 104.781C177.293 122.806 187.686 140.78 195.317 154.386C202.999 167.941 208.12 176.979 208.12 176.979C208.271 177.28 208.17 177.631 207.919 177.782C207.618 177.933 207.267 177.832 207.116 177.581C207.116 177.581 201.844 168.644 193.962 155.189C186.029 141.784 175.636 123.81 165.193 105.836C154.75 87.8617 144.307 69.9379 136.475 56.4825C132.559 49.7548 129.296 44.1316 127.036 40.2155C125.932 38.2574 124.928 36.7512 124.526 35.5965C124.124 34.4417 124.124 33.6886 124.124 33.6886C124.124 33.287 124.426 32.9857 124.827 32.9857C124.928 32.9857 125.078 33.0359 125.179 33.0861H125.028Z" fill="#40BF93"/>
<path d="M370.742 461.049C370.742 461.049 370.089 460.697 369.286 459.743C368.482 458.789 367.679 457.183 366.524 455.225C364.265 451.258 361.052 445.635 357.186 438.907C349.454 425.402 339.111 407.378 328.769 389.353C318.476 371.329 308.084 353.355 300.452 339.749C292.771 326.193 287.649 317.156 287.649 317.156C287.499 316.855 287.599 316.503 287.85 316.353C288.152 316.202 288.503 316.303 288.654 316.554C288.654 316.554 293.925 325.49 301.808 338.946C309.74 352.351 320.133 370.325 330.576 388.299C341.019 406.273 351.462 424.197 359.294 437.652C363.211 444.38 366.474 450.003 368.733 453.919C369.838 455.877 370.842 457.383 371.244 458.538C371.645 459.693 371.645 460.446 371.645 460.446C371.645 460.798 371.344 461.149 370.942 461.149C370.842 461.149 370.691 461.099 370.591 461.049H370.742Z" fill="#40BF93"/>
<path d="M34.5078 123.207C34.5078 123.207 35.2609 123.207 36.4157 123.609C37.5704 124.011 39.0766 125.015 41.0347 126.119C44.9508 128.378 50.574 131.642 57.3017 135.558C70.7571 143.39 88.7311 153.833 106.655 164.276C124.579 174.719 142.603 185.112 156.008 193.045C169.413 200.927 178.4 206.199 178.4 206.199C178.702 206.35 178.752 206.751 178.601 207.002C178.451 207.303 178.099 207.354 177.798 207.203C177.798 207.203 168.761 202.082 155.205 194.4C141.599 186.769 123.625 176.376 105.601 166.084C87.5764 155.741 69.5521 145.399 56.0465 137.667C49.2686 133.801 43.6455 130.588 39.7293 128.328C37.7713 127.174 36.1647 126.37 35.2107 125.567C34.2568 124.764 33.9054 124.111 33.9054 124.111C33.7045 123.759 33.8551 123.358 34.1564 123.157C34.2568 123.107 34.3572 123.057 34.5078 123.057V123.207Z" fill="#40BF93"/>
<path d="M461.263 370.978C461.263 370.978 460.51 370.978 459.355 370.576C458.201 370.174 456.694 369.17 454.736 368.066C450.82 365.756 445.197 362.543 438.469 358.627C425.014 350.794 407.04 340.351 389.116 329.908C371.192 319.465 353.168 309.073 339.763 301.14C326.358 293.258 317.371 287.986 317.371 287.986C317.07 287.835 317.019 287.434 317.17 287.182C317.321 286.881 317.672 286.831 317.973 286.982C317.973 286.982 327.01 292.103 340.566 299.784C354.172 307.416 372.146 317.809 390.17 328.101C408.195 338.444 426.219 348.786 439.725 356.518C446.502 360.384 452.126 363.597 456.042 365.856C458 367.011 459.606 367.815 460.56 368.618C461.514 369.421 461.866 370.074 461.866 370.074C462.067 370.425 461.966 370.827 461.615 371.028C461.514 371.078 461.364 371.128 461.263 371.128V370.978Z" fill="#40BF93"/>
<path d="M1.16935 246.465C1.16935 246.465 1.82204 246.114 3.027 245.863C4.23196 245.612 6.0394 245.762 8.2987 245.712C12.8173 245.712 19.3442 245.762 27.1262 245.762C42.6903 245.812 63.4759 245.863 84.2615 245.913C105.047 246.013 125.782 246.013 141.397 246.164C156.961 246.314 167.354 246.415 167.354 246.415C167.655 246.415 167.956 246.666 167.956 247.017C167.956 247.319 167.705 247.62 167.354 247.62C167.354 247.62 156.961 247.72 141.397 247.871C125.833 248.072 105.047 248.072 84.2615 248.122C63.4759 248.172 42.7405 248.272 27.1262 248.272C19.3442 248.272 12.8675 248.323 8.2987 248.323C6.0394 248.323 4.23196 248.423 3.027 248.172C1.82204 247.971 1.16935 247.57 1.16935 247.57C0.968522 247.469 0.817902 247.218 0.817902 247.017V246.967C0.817902 246.867 0.868108 246.766 0.918315 246.666C0.968522 246.565 1.06894 246.465 1.16935 246.415V246.465Z" fill="#40BF93"/>
<path d="M494.649 247.67C494.649 247.67 493.996 248.021 492.791 248.272C491.586 248.523 489.779 248.373 487.519 248.423C483.001 248.423 476.474 248.373 468.692 248.373C453.128 248.323 432.342 248.272 411.556 248.222C390.771 248.122 370.035 248.122 354.421 247.971C338.857 247.82 328.464 247.72 328.464 247.72C328.113 247.72 327.862 247.469 327.862 247.118C327.862 246.816 328.113 246.515 328.464 246.515C328.464 246.515 338.857 246.415 354.421 246.264C369.985 246.063 390.771 246.063 411.556 246.013C432.342 245.963 453.077 245.862 468.692 245.862C476.474 245.862 482.95 245.812 487.519 245.812C489.779 245.812 491.586 245.712 492.791 245.963C493.996 246.164 494.649 246.565 494.649 246.565C494.849 246.666 495 246.917 495 247.118V247.168C495 247.268 494.95 247.369 494.9 247.469C494.849 247.569 494.749 247.67 494.649 247.72V247.67Z" fill="#40BF93"/>
<path d="M33.9022 369.923C33.9022 369.923 34.2537 369.271 35.2076 368.467C36.1616 367.664 37.7682 366.861 39.7262 365.706C43.6424 363.447 49.3157 360.234 56.0434 356.368C69.549 348.636 87.5732 338.293 105.597 327.951C123.622 317.658 141.596 307.265 155.202 299.634C168.758 291.952 177.795 286.831 177.795 286.831C178.096 286.681 178.447 286.781 178.598 287.032C178.749 287.333 178.648 287.685 178.397 287.835C178.397 287.835 169.46 293.107 156.005 300.99C142.6 308.922 124.626 319.315 106.652 329.758C88.6778 340.201 70.754 350.644 57.2986 358.476C50.5709 362.392 44.9477 365.656 41.0316 367.915C39.0735 369.02 37.5673 370.024 36.4126 370.426C35.2578 370.827 34.5047 370.827 34.5047 370.827C34.1031 370.827 33.8018 370.526 33.8018 370.124C33.8018 370.024 33.852 369.873 33.9022 369.773V369.923Z" fill="#40BF93"/>
<path d="M461.866 124.212C461.866 124.212 461.515 124.864 460.561 125.668C459.607 126.471 458.001 127.274 456.043 128.429C452.076 130.688 446.453 133.901 439.725 137.767C426.22 145.499 408.195 155.842 390.171 166.184C372.147 176.477 354.173 186.87 340.567 194.501C327.011 202.183 317.974 207.304 317.974 207.304C317.673 207.454 317.321 207.354 317.171 207.103C317.02 206.802 317.12 206.45 317.372 206.3C317.372 206.3 326.308 201.028 339.764 193.145C353.169 185.213 371.143 174.82 389.117 164.377C407.091 153.934 425.015 143.491 438.47 135.659C445.198 131.743 450.821 128.479 454.737 126.22C456.695 125.115 458.201 124.111 459.356 123.71C460.511 123.308 461.264 123.308 461.264 123.308C461.666 123.308 461.967 123.609 461.967 124.011C461.967 124.111 461.917 124.262 461.866 124.362V124.212Z" fill="#40BF93"/>
<path d="M124.024 460.446C124.024 460.446 124.024 459.693 124.425 458.538C124.827 457.383 125.831 455.877 126.936 453.919C129.195 450.003 132.458 444.38 136.375 437.652C144.207 424.197 154.65 406.223 165.093 388.299C175.536 370.375 185.929 352.351 193.861 338.946C201.744 325.541 207.015 316.554 207.015 316.554C207.166 316.252 207.568 316.202 207.819 316.353C208.12 316.503 208.17 316.855 208.02 317.156C208.02 317.156 202.898 326.193 195.217 339.749C187.585 353.355 177.193 371.329 166.9 389.353C156.558 407.378 146.265 425.402 138.483 438.907C134.617 445.685 131.404 451.308 129.145 455.225C127.99 457.183 127.187 458.789 126.383 459.743C125.58 460.697 124.927 461.049 124.927 461.049C124.576 461.249 124.174 461.149 123.973 460.798C123.923 460.697 123.873 460.597 123.873 460.446H124.024Z" fill="#40BF93"/>
<path d="M371.798 33.6887C371.798 33.6887 371.798 34.4418 371.396 35.5965C370.994 36.7513 369.99 38.2575 368.886 40.2155C366.626 44.1317 363.363 49.7548 359.447 56.4825C351.615 69.9379 341.172 87.9119 330.729 105.836C320.286 123.76 309.893 141.784 301.96 155.189C294.078 168.594 288.806 177.581 288.806 177.581C288.655 177.882 288.254 177.933 288.003 177.782C287.701 177.631 287.651 177.28 287.802 176.979C287.802 176.979 292.923 167.941 300.604 154.386C308.236 140.78 318.629 122.806 328.921 104.781C339.264 86.7572 349.556 68.733 357.338 55.2273C361.204 48.4494 364.417 42.8263 366.677 38.9102C367.831 36.9521 368.635 35.3455 369.438 34.3916C370.241 33.4376 370.894 33.0862 370.894 33.0862C371.245 32.8854 371.647 32.9858 371.848 33.3372C371.898 33.4376 371.948 33.538 371.948 33.6887H371.798Z" fill="#40BF93"/>
</g>
<rect x="190.441" y="188.11" width="117.263" height="117.263" rx="58.6313" fill="url(#paint0_linear)"/>
<path opacity="0.6" fill-rule="evenodd" clip-rule="evenodd" d="M250.129 289.989C275.961 289.066 293.921 266.659 292.369 246.614C292.009 242.451 288.32 239.224 284.151 239.424C279.983 239.624 276.766 243.168 276.966 247.339C277.55 259.521 266.61 274.405 249.343 274.884C249.133 274.89 248.925 274.904 248.72 274.926C248.832 274.925 248.945 274.923 249.057 274.92C253.228 274.818 256.694 278.119 256.796 282.293C256.893 286.231 253.963 289.54 250.129 289.989Z" fill="url(#paint1_linear)"/>
<path d="M265.275 247.143C265.275 242.867 268.77 239.401 273.081 239.401H284.456C288.766 239.401 292.369 242.867 292.369 247.143C292.369 251.418 288.766 254.884 284.456 254.884H273.081C268.77 254.884 265.275 251.418 265.275 247.143Z" fill="white"/>
<path d="M241.408 247.154C241.408 242.872 244.88 239.401 249.159 239.401C253.438 239.401 256.91 242.872 256.91 247.154C256.91 251.436 253.438 254.906 249.159 254.906C244.88 254.906 241.408 251.436 241.408 247.154Z" fill="white"/>
<path fill-rule="evenodd" clip-rule="evenodd" d="M256.695 210.933C256.868 215.105 253.629 218.628 249.459 218.801C231.46 219.549 220.472 233.666 221.007 247.071C221.173 251.243 217.996 254.761 213.826 254.927C209.656 255.094 205.99 251.726 205.823 247.554C204.951 225.71 223.178 204.116 248.832 203.692C253.002 203.519 256.522 206.76 256.695 210.933Z" fill="white"/>
<path opacity="0.7" fill-rule="evenodd" clip-rule="evenodd" d="M205.799 246.743C205.901 273.136 227.545 290.577 249.428 290.038C253.6 289.935 256.899 286.468 256.796 282.293C256.694 278.119 253.228 274.818 249.057 274.92C235.34 275.258 221.608 264.48 221.007 247.705C220.846 251.594 217.783 254.769 213.826 254.927C209.656 255.094 205.99 251.726 205.823 247.554C205.812 247.284 205.804 247.013 205.799 246.743Z" fill="url(#paint2_linear)"/>
<defs>
<linearGradient id="paint0_linear" x1="21.2298" y1="259.02" x2="184.327" y2="400.627" gradientUnits="userSpaceOnUse">
<stop stop-color="#27A59B"/>
<stop offset="1" stop-color="#4BCB8F"/>
</linearGradient>
<linearGradient id="paint1_linear" x1="288.891" y1="255.713" x2="166.843" y2="288.498" gradientUnits="userSpaceOnUse">
<stop stop-color="white" stop-opacity="0.89"/>
<stop offset="1" stop-color="white" stop-opacity="0.51"/>
</linearGradient>
<linearGradient id="paint2_linear" x1="246.314" y1="277.856" x2="181.56" y2="207.81" gradientUnits="userSpaceOnUse">
<stop stop-color="white"/>
<stop offset="1" stop-color="white" stop-opacity="0.8"/>
</linearGradient>
</defs>
</svg>
