<svg width="30" height="43" viewBox="0 0 30 43" fill="none" xmlns="http://www.w3.org/2000/svg">
<path d="M14.5865 38.1699H20.412C29.1687 12.4528 14.5865 2 14.5865 2C14.5865 2 0.022638 12.4528 8.76093 38.1699H14.5865Z" fill="#FBFCFC" stroke="#00A672" stroke-width="2" stroke-miterlimit="10"/>
<path d="M6.43845 29.7979L2.25366 31.2542C1.51625 31.5308 1.00006 32.2682 1.00006 33.0978V41.0065C1.00006 41.5042 1.47938 41.8545 1.92182 41.6701L8.65067 38.6652L6.43845 29.7979Z" fill="#FBFCFC" stroke="#00A672" stroke-width="2" stroke-miterlimit="10"/>
<path d="M22.8825 29.7979L27.0673 31.2542C27.8231 31.5123 28.3209 32.2497 28.3209 33.0793V40.988C28.3209 41.4858 27.8416 41.836 27.3991 41.6517L20.6703 38.6468L22.8825 29.7979Z" fill="#FBFCFC" stroke="#00A672" stroke-width="2" stroke-miterlimit="10"/>
<path d="M14.5866 27.5687C16.6535 27.5687 18.329 25.8932 18.329 23.8263C18.329 21.7595 16.6535 20.084 14.5866 20.084C12.5198 20.084 10.8443 21.7595 10.8443 23.8263C10.8443 25.8932 12.5198 27.5687 14.5866 27.5687Z" fill="white" stroke="#1AE5A6" stroke-width="1.5" stroke-miterlimit="10"/>
</svg>
