<svg width="50" height="50" viewBox="0 0 50 50" fill="none" xmlns="http://www.w3.org/2000/svg">
<g clip-path="url(#clip0)">
<path d="M22.531 6.47739L5.38911 13.4543C4.43584 13.8423 4.44572 15.1742 5.40496 15.5482L22.6186 22.2625C24.1311 22.8525 25.8154 22.8525 27.3277 22.2625L44.5416 15.5482C45.5006 15.1742 45.5107 13.8423 44.5572 13.4543L27.4156 6.47739C25.8516 5.84087 24.0947 5.84087 22.531 6.47739Z" fill="#FFBF00"/>
<path d="M26.5004 25.9291V42.7025C26.5004 43.5004 27.3182 44.0466 28.0722 43.7527L47.2534 36.4294C47.6913 36.2586 47.9785 35.8425 47.9785 35.3793V18.6058C47.9785 17.808 47.1606 17.2617 46.4067 17.5557L27.2254 24.879C26.7878 25.0498 26.5004 25.4659 26.5004 25.9291Z" fill="#26B5F8"/>
<path d="M22.0213 26.7946L16.3288 29.4981L15.7508 29.773L3.73413 35.4364C2.97241 35.7979 2.00017 35.2519 2.00017 34.4195V18.6763C2.00017 18.3752 2.15714 18.1152 2.36765 17.9194C2.45549 17.8327 2.55503 17.7614 2.65846 17.7049C2.94564 17.5354 3.35522 17.4902 3.70347 17.6257L21.9257 24.7273C22.8519 25.0888 22.9247 26.3654 22.0213 26.7946Z" fill="#ED3049"/>
<path d="M22.0213 26.7946L16.3287 29.4982L2.36761 17.9194C2.45546 17.8327 2.55499 17.7614 2.65843 17.7049C2.9456 17.5354 3.35519 17.4902 3.70343 17.6257L21.9257 24.7273C22.8519 25.0888 22.9247 26.3654 22.0213 26.7946Z" fill="black" fill-opacity="0.25"/>
</g>
<defs>
<clipPath id="clip0">
<rect width="46" height="38" fill="white" transform="translate(2 6)"/>
</clipPath>
</defs>
</svg>
