<?xml version="1.0" encoding="UTF-8"?>
<svg xmlns="http://www.w3.org/2000/svg" xmlns:xlink="http://www.w3.org/1999/xlink" width="50pt" height="50pt" viewBox="0 0 50 50" version="1.1">
<g id="surface1">
<path style=" stroke:none;fill-rule:nonzero;fill:rgb(92.156863%,32.941176%,14.117647%);fill-opacity:1;" d="M 39.695312 40.335938 L 34.082031 24.929688 L 48.773438 15.410156 L 30.613281 15.410156 L 25.003906 0.00390625 L 25 0 L 43.160156 0 L 48.773438 15.410156 L 48.78125 15.40625 C 52.039062 24.34375 48.683594 34.511719 39.695312 40.335938 Z M 10.308594 40.335938 L 10.304688 40.339844 L 25 49.859375 L 39.695312 40.335938 L 25.003906 30.816406 L 10.3125 40.335938 Z M 1.230469 15.40625 C -2.203125 24.828125 1.78125 34.8125 10.308594 40.339844 L 10.308594 40.332031 L 15.921875 24.925781 L 1.234375 15.410156 L 19.386719 15.410156 L 25 0.00390625 L 25 0 L 6.839844 0 Z M 1.230469 15.40625 "/>
</g>
</svg>
