<svg width="50" height="50" viewBox="0 0 50 50" fill="none" xmlns="http://www.w3.org/2000/svg">
<g clip-path="url(#clip0)">
<path d="M21.3498 17.9901C22.2643 17.2277 23.1084 16.4653 24.0228 15.7723C23.3194 15.2871 22.6863 14.8713 22.0532 14.4554C21.2795 15.0792 20.5057 15.7723 19.7319 16.4653C20.5057 16.7426 21.0684 17.297 21.3498 17.9901Z" fill="#29ABE2"/>
<path d="M19.0912 21.4554C20.7617 21.4598 22.1193 20.1911 22.1235 18.6217C22.1278 17.0523 20.7769 15.7766 19.1064 15.7722C17.4359 15.7679 16.0783 17.0366 16.0741 18.606C16.0699 20.1753 17.4207 21.4511 19.0912 21.4554Z" fill="#29ABE2"/>
<path d="M21.8422 34.5545C17.692 36.7723 14.1046 37.3267 12.4867 35.802C10.2357 33.6535 12.2757 28.0396 17.1996 22.3564C16.4259 22.1485 15.7928 21.5941 15.4411 20.901C8.26617 28.802 5.03042 36.7723 8.19582 39.7525C10.7985 42.2475 17.0589 40.5842 23.9525 36.1485C23.2491 35.6634 22.5456 35.1089 21.8422 34.5545Z" fill="#29ABE2"/>
<path d="M26.7662 15.6337C26.9772 14.8713 27.5399 14.2475 28.2434 13.901C19.943 7.17821 11.5019 4.19802 8.33652 7.17821C5.73386 9.67326 7.42207 15.5644 12.135 22.0792C12.6977 21.3861 13.2605 20.7624 13.8232 20.0693C11.5019 16.1188 10.8688 12.7228 12.4867 11.1287C14.808 8.98019 20.7167 10.9901 26.7662 15.6337Z" fill="#29ABE2"/>
<path d="M32.3935 17.5742C32.1122 18.2673 31.4791 18.8218 30.7757 19.099C31.8308 20.1386 32.8156 21.1089 33.6597 22.1485C34.1521 21.5247 34.6445 20.901 34.9962 20.2772C34.2224 19.3762 33.308 18.4752 32.3935 17.5742Z" fill="#29ABE2"/>
<path d="M30.7053 20.3465C32.3935 20.3465 33.73 19.099 33.73 17.5049C33.73 15.9109 32.3935 14.6634 30.7053 14.6634C29.0171 14.6634 27.6806 15.9109 27.6806 17.5049C27.6806 19.0297 29.0171 20.3465 30.7053 20.3465Z" fill="#29ABE2"/>
<path d="M38.5133 11.198C40.7643 13.3465 38.7244 18.9604 33.8004 24.6436C34.5742 24.8515 35.2072 25.4059 35.559 26.099C42.6635 18.198 45.8993 10.1584 42.7339 7.17821C40.1312 4.75247 33.8707 6.41584 27.0475 10.8515C27.751 11.3366 28.4544 11.8911 29.1578 12.4455C33.308 10.2277 36.8955 9.67326 38.5133 11.198Z" fill="#29ABE2"/>
<path d="M30.1426 28.5247C29.0875 29.495 27.962 30.396 26.9069 31.2277C27.6103 31.7129 28.2434 32.1287 28.9468 32.5446C29.9316 31.7822 30.846 30.9505 31.8308 30.0495C31.0571 29.7723 30.4943 29.2178 30.1426 28.5247Z" fill="#29ABE2"/>
<path d="M31.8737 25.5807C30.2032 25.5762 28.8454 26.8447 28.841 28.4141C28.8366 29.9834 30.1873 31.2593 31.8578 31.2639C33.5283 31.2684 34.8861 29.9999 34.8905 28.4305C34.8948 26.8611 33.5442 25.5852 31.8737 25.5807Z" fill="#29ABE2"/>
<path d="M20.2243 27.9703C19.1692 26.9307 18.1844 25.9604 17.3403 24.9208C16.8479 25.5446 16.3555 26.1683 16.0038 26.7921C16.8479 27.6931 17.692 28.5941 18.6065 29.4951C18.8878 28.802 19.4506 28.2475 20.2243 27.9703Z" fill="#29ABE2"/>
<path d="M38.865 24.9901C38.3023 25.6832 37.7395 26.3069 37.1768 27C39.4981 30.9505 40.1312 34.2772 38.443 35.8713C36.1217 38.0198 30.2129 36.0099 24.1635 31.4356C23.9525 32.198 23.3897 32.8218 22.6863 33.1683C31.057 39.8911 39.4981 42.9406 42.6635 39.9604C45.2662 37.396 43.5779 31.4356 38.865 24.9901Z" fill="#29ABE2"/>
<path d="M23.3325 29.5324C23.3367 27.963 21.9859 26.6873 20.3154 26.683C18.6449 26.6786 17.2873 27.9474 17.2831 29.5167C17.2789 31.0861 18.6298 32.3618 20.3003 32.3661C21.9708 32.3705 23.3284 31.1017 23.3325 29.5324Z" fill="#29ABE2"/>
</g>
<defs>
<clipPath id="clip0">
<rect width="37" height="35" fill="white" transform="translate(7 6)"/>
</clipPath>
</defs>
</svg>
