<svg width="50" height="50" viewBox="0 0 50 50" fill="none" xmlns="http://www.w3.org/2000/svg">
<rect x="3" y="6" width="45" height="39" rx="5" fill="#E44731"/>
<path fill-rule="evenodd" clip-rule="evenodd" d="M40.0223 24.6531H42.6894L43 23.0093H40.3331L40.7876 20.605H40.7785L38.7558 22.2038L38.604 23.0093H36.5089L37.1213 19.7697C37.2655 18.5474 39.1124 18.9174 39.3875 18.9867L39.6827 17.4256C36.3615 16.1391 35.3918 19.7697 35.3918 19.7697L34.7798 23.0093H34.769L32.689 24.6531H34.4692L32.5133 35H34.2428L36.1983 24.6531H38.2932L37.5275 28.7031C37.0408 31.652 39.9715 31.329 40.9066 31.1395L41.1991 29.5952C38.9617 30.1042 39.2566 28.7031 39.2566 28.7031L40.0223 24.6531ZM29.7932 28.9001C27.9936 30.7609 26.8413 29.5422 26.8413 29.5422C26.0612 28.7769 26.9234 27.9907 26.9234 27.9907C28.1139 26.8943 29.9355 28.0988 29.9355 28.0988L29.7932 28.9001ZM30.1913 26.6556C30.1913 26.6556 27.7137 25.3741 25.9792 26.8013C25.9792 26.8013 24.9633 27.4839 24.9633 28.8491C24.9633 30.2146 26.2051 30.9484 26.2051 30.9484C26.2051 30.9484 28.0728 31.9417 29.5351 30.3544L29.3736 31.093H31.0093L32.0371 26.179C32.8086 21.3301 27.076 23.0486 27.076 23.0486L26.7636 24.7918C30.9895 22.9358 30.2776 26.1697 30.2776 26.1697L30.1913 26.6556ZM25.6114 23.0142C24.2777 23.0284 23.0657 23.7784 23.0657 23.7784L23.2205 23.0426H21.6196L20.1591 31.1081H21.7949L22.785 25.8019C23.5169 24.3031 25.3264 24.7689 25.3264 24.7689L25.6114 23.0142ZM19.3701 19.5578C19.4529 19.6208 19.5313 19.6874 19.6083 19.7554L20.8498 18.7739L20.8885 18.723C20.6983 18.5296 20.4942 18.3465 20.2731 18.1781C17.4242 16.011 13.1192 16.9182 10.6581 20.2048C8.19723 23.4908 8.51174 27.911 11.3609 30.0785C13.6871 31.8478 16.9831 31.5672 19.4544 29.6161L19.4518 29.6111L18.27 28.6768C16.439 29.8636 14.1671 29.9489 12.5237 28.699C10.3353 27.0344 10.0938 23.6386 11.984 21.1142C13.8747 18.5899 17.1816 17.8931 19.3701 19.5578Z" fill="white"/>
</svg>
