<svg width="50" height="50" viewBox="0 -28 188 160" xmlns="http://www.w3.org/2000/svg">
    <path d="M150.299 71.999c-.867-.217-1.59-.433-2.24-.722a5.145 5.145 0 0 1-1.588-1.084c.433-3.828 0-7.15.361-10.906 1.445-14.589 10.617-9.967 18.85-12.35 5.129-1.444 10.257-4.406 11.557-10.472-5.634-6.573-11.917-12.35-18.779-17.262-22.317-15.89-51.496-22.245-78.002-17.84a40.053 40.053 0 0 0 17.531 16.25s-7.183 0-13.34-4.598c-1.805.722-5.419 2.143-7.152 3.01 14.083 13.506 36.112 15.023 51.929 2.889-.072.144-1.444 2.239-3.106 10.978-3.683 18.634-14.3 17.19-27.445 12.495-27.3-9.895-42.323-.722-55.974-19.5a12.6 12.6 0 0 0-6.428 10.977c0 4.695 2.6 8.667 6.356 10.834 2.05-2.72 2.97-3.494 6.545-3.494-5.533 3.138-6.184 5.877-8.567 13.461-2.89 9.173-1.661 18.562-15.167 21.017-7.15.361-7.006 5.2-9.606 12.423C12.784 97.495 8.45 101.25 0 110.133c3.467 4.19 7.078 4.695 10.761 3.178 7.584-3.178 13.434-13 18.923-19.356 6.14-7.078 20.873-4.044 31.996-10.978 7.655-4.695 11.411-11.05 6.355-21.812 3.25 3.611 5.2 8.162 5.49 13 12.855-1.66 30.045 14.012 45.717 16.612-1.589-2.022-2.889-4.189-3.827-6.428-1.806-4.333-2.384-8.306-2.023-11.772 1.445 8.594 10.112 19.645 24.05 20.656 3.54.289 7.44-.145 11.485-1.372 4.839-1.445 9.317-3.323 14.661-2.312 3.973.723 7.656 2.745 9.967 6.14 3.467 5.055 11.05 6.139 14.445-.073C180.344 75.61 159.255 74.31 150.299 72z"
          fill="#37474F" fill-rule="evenodd"/>
</svg>
