<svg width="50" height="50" viewBox="0 0 50 50" fill="none" xmlns="http://www.w3.org/2000/svg">
<path d="M35.9246 9.29777C33.3639 7.70633 30.9429 7.08184 28.5276 5.48994C27.0302 4.47893 24.9528 2.07061 23.2099 0C22.8744 3.32389 21.8585 4.67562 20.6966 5.63944C18.2362 7.56299 16.6878 8.13994 14.5588 9.29777C12.7704 10.2138 3.05539 15.9919 3.05539 28.4221C3.05539 40.8489 13.5454 50 25.1918 50C36.8426 50 46.9447 41.5711 46.9447 28.8057C46.9447 16.0402 37.4708 10.2605 35.9246 9.29777ZM36.121 45.1409C35.878 45.3803 33.6546 46.9221 31.0461 47.1652C28.4354 47.4039 24.9058 47.5488 22.7805 45.6216C22.4434 45.2831 22.5366 44.8052 22.7805 44.6131C23.0216 44.4172 23.2145 44.2723 23.5061 44.2723C23.7978 44.2723 23.7451 44.2723 23.8932 44.3688C24.8595 45.1409 26.3085 45.7643 29.4 45.7643C32.4951 45.7643 34.6724 44.9022 35.637 44.1757C36.0721 43.8393 36.2652 44.1291 36.3152 44.3223C36.3619 44.5137 36.459 44.8051 36.121 45.1409ZM27.7442 41.086C28.2758 40.6026 29.1482 39.8316 29.9707 39.4958C30.7921 39.1572 31.2228 39.2061 31.9988 39.2061C32.7713 39.2061 33.5959 39.2544 34.1743 39.6423C34.7527 40.028 35.0928 40.8923 35.2821 41.3708C35.4775 41.8559 35.2821 42.1434 34.899 42.3381C34.5627 42.5286 34.5129 42.4331 34.1743 41.8086C33.8384 41.183 33.5471 40.5542 31.8544 40.5542C30.1639 40.5542 29.6311 41.1342 28.8097 41.8086C27.9883 42.4813 27.6976 42.7227 27.4061 42.3381C27.117 41.9535 27.2136 41.5662 27.7442 41.086ZM45.19 31.9035C45.19 33.3956 44.7082 36.0925 43.5451 37.7781C42.389 39.4665 41.6647 40.0937 40.3062 39.996C38.5647 39.8496 35.087 34.4556 32.8636 34.3568C30.0642 34.262 23.9712 40.1903 19.1846 40.1903C16.2834 40.1903 15.4166 39.7572 14.4506 39.1279C12.9982 38.1166 12.2726 36.5759 12.3204 34.4556C12.3722 30.6958 15.8961 27.1834 20.3457 27.1368C25.9973 27.0868 29.9177 32.7195 32.766 32.6739C35.1842 32.6283 39.8266 27.905 42.0977 27.905C44.5136 27.9049 45.19 30.4061 45.19 31.9035Z" fill="#039AEE"/>
</svg>
