<svg id="Layer_1" data-name="Layer 1" 
  xmlns="http://www.w3.org/2000/svg" 
  xmlns:xlink="http://www.w3.org/1999/xlink" viewBox="0 0 100 100">
  <defs>
    <style>.cls-1{fill:none;}.cls-2{clip-path:url(#clip-path);}.cls-3{fill:#344da1;}.cls-4{fill:#333;}</style>
  </defs>
  <title>elastic-path-software-inc-vector-logo-2019</title>
  <g class="cls-2">
    <path class="cls-3" d="M34.77,54a7.7,7.7,0,0,1-5.44-13.14L44.61,25.55a2.88,2.88,0,1,0-4.07-4.07L25.1,36.92A7.69,7.69,0,0,1,14.22,26L29.66,10.6A18.26,18.26,0,0,1,55.49,36.43L40.21,51.71A7.68,7.68,0,0,1,34.77,54Z"/>
    <path class="cls-3" d="M74.51,55.45,52.09,77.88a2.89,2.89,0,0,1-4.07,0,2.86,2.86,0,0,1,0-4.07l5.6-5.61L70.44,51.38a2.89,2.89,0,0,1,4.92,2,2.84,2.84,0,0,1-.85,2Zm10.88-15a18.26,18.26,0,0,0-25.83,0L42.74,57.32l-5.6,5.61L18.45,81.62A7.69,7.69,0,0,0,29.33,92.5l5.93-5.94a18.54,18.54,0,0,0,1.88,2.2,18.26,18.26,0,0,0,25.83,0L85.39,66.33a18.26,18.26,0,0,0,0-25.83Z"/>
    <path class="cls-3" d="M74.57,40.44a10.57,10.57,0,0,0-14.95,0h0L44.86,55.2h0l-.26.25a13.45,13.45,0,1,1-19-19l.25-.26h0L40.6,21.43a2.88,2.88,0,0,1,4.06,4.06h0a10.57,10.57,0,0,0-15-14.95h0L15,25.3h0a3.07,3.07,0,0,0-.26.25A28.85,28.85,0,0,0,14.44,66a2.44,2.44,0,0,0,.27.29,28.83,28.83,0,0,0,40.78,0,3.07,3.07,0,0,0,.25-.26h0L70.5,51.33h0a2.88,2.88,0,0,1,4.06,4.06h0a10.57,10.57,0,0,0,0-15Z"/>
  </g>
</svg>