<svg width="50" height="50" viewBox="0 0 50 50" fill="none" xmlns="http://www.w3.org/2000/svg">
<path fill-rule="evenodd" clip-rule="evenodd" d="M26.9495 5.50464L41.2929 13.8334C42.4431 14.5012 43.1509 15.7307 43.1509 17.0608V33.7479C43.1509 35.0779 42.4431 36.3074 41.2929 36.9753L26.9495 45.304C25.7907 45.9769 24.3602 45.9769 23.2014 45.304L8.858 36.9753C7.70782 36.3074 7 35.0779 7 33.7479V17.0608C7 15.7307 7.70782 14.5012 8.858 13.8334L23.2014 5.50464C24.3602 4.83179 25.7907 4.83179 26.9495 5.50464Z" stroke="white" stroke-width="3"/>
<mask id="mask0" mask-type="alpha" maskUnits="userSpaceOnUse" x="9" y="7" width="32" height="35">
<path d="M9.41827 17.0902C9.41827 16.5588 9.70078 16.0675 10.1601 15.8001L24.3269 7.55299C24.7904 7.2832 25.363 7.28272 25.8269 7.55174L31.6097 10.9053C31.6472 10.927 31.6784 10.9582 31.7001 10.9957C31.7691 11.1145 31.7286 11.2668 31.6098 11.3357L16.4019 20.1597C16.3252 20.2042 16.278 20.2862 16.278 20.3749V24.3472C16.278 24.3912 16.2663 24.4344 16.2442 24.4725C16.175 24.5912 16.0227 24.6314 15.9039 24.5622L12.7151 22.7048C12.6771 22.6827 12.6339 22.671 12.5899 22.671C12.4525 22.671 12.3411 22.7824 12.3411 22.9198V32.4806C12.3411 32.5694 12.3885 32.6515 12.4654 32.696L16.1537 34.8275C16.2306 34.872 16.278 34.9541 16.278 35.0429V37.9647C16.278 38.0087 16.2663 38.0519 16.2441 38.09C16.1749 38.2087 16.0226 38.2488 15.9039 38.1796L10.1592 34.8306C9.70043 34.5631 9.41827 34.072 9.41827 33.541V17.0902V17.0902ZM18.2143 39.3869V21.5043C18.2143 21.4155 18.2617 21.3333 18.3386 21.2889L24.9431 17.474C25.0204 17.4294 25.1157 17.4296 25.1929 17.4746L31.7985 21.3281C31.875 21.3727 31.922 21.4545 31.922 21.543V39.3878C31.922 39.4765 31.8747 39.5585 31.7979 39.603L29.3896 40.9988C29.2707 41.0677 29.1185 41.0271 29.0496 40.9083C29.0276 40.8703 29.016 40.8273 29.016 40.7835V31.4536C29.016 31.3162 28.9046 31.2048 28.7672 31.2048C28.7231 31.2048 28.6798 31.2165 28.6417 31.2387L25.2023 33.2476C25.1246 33.293 25.0285 33.2929 24.9509 33.2473L21.5311 31.2401C21.4126 31.1705 21.2601 31.2102 21.1905 31.3287C21.1681 31.3669 21.1563 31.4104 21.1563 31.4546V40.7861C21.1563 40.9236 21.0449 41.0349 20.9075 41.0349C20.8641 41.0349 20.8215 41.0236 20.7839 41.0021L18.3395 39.6028C18.262 39.5585 18.2143 39.4761 18.2143 39.3869V39.3869ZM40.7287 17.0612V20.6007C40.7287 20.6888 40.6821 20.7703 40.6062 20.815L36.9324 22.9795C36.8565 23.0242 36.8099 23.1057 36.8099 23.1938V25.9929C36.8099 26.1303 36.9212 26.2417 37.0587 26.2417C37.1024 26.2417 37.1454 26.2302 37.1833 26.2083L40.3553 24.3731C40.4742 24.3043 40.6264 24.3449 40.6952 24.4639C40.7171 24.5017 40.7287 24.5447 40.7287 24.5885V33.5381C40.7287 34.0696 40.4461 34.5611 39.9867 34.8284L34.2651 38.158C34.1464 38.2271 33.9941 38.1869 33.925 38.0681C33.9028 38.0301 33.8912 37.9869 33.8912 37.943V35.1128C33.8912 35.024 33.9384 34.942 34.0152 34.8975L37.6799 32.7733C37.7566 32.7288 37.8039 32.6467 37.8039 32.558V29.7184C37.8039 29.581 37.6925 29.4696 37.5551 29.4696C37.5112 29.4696 37.468 29.4813 37.43 29.5034L34.2651 31.3438C34.1463 31.4129 33.994 31.3726 33.9249 31.2538C33.9028 31.2158 33.8912 31.1726 33.8912 31.1287V20.4022C33.8912 20.3136 33.8441 20.2318 33.7676 20.1872L27.3631 16.4561C27.2443 16.3869 27.2042 16.2346 27.2733 16.1159C27.295 16.0787 27.326 16.0477 27.3632 16.0261L33.7662 12.3016C33.8435 12.2567 33.9389 12.2566 34.0163 12.3016L39.9859 15.7705C40.4457 16.0377 40.7287 16.5294 40.7287 17.0612V17.0612Z" fill="white"/>
</mask>
<g mask="url(#mask0)">
<g style="mix-blend-mode:multiply">
<path d="M9.41827 17.0902C9.41827 16.5588 9.70078 16.0675 10.1601 15.8001L24.3269 7.55299C24.7904 7.2832 25.363 7.28272 25.8269 7.55174L31.6097 10.9053C31.6472 10.927 31.6784 10.9582 31.7001 10.9957C31.7691 11.1145 31.7286 11.2668 31.6098 11.3357L16.4019 20.1597C16.3252 20.2042 16.278 20.2862 16.278 20.3749V24.3472C16.278 24.3912 16.2663 24.4344 16.2442 24.4725C16.175 24.5912 16.0227 24.6314 15.9039 24.5622L12.7151 22.7048C12.6771 22.6827 12.6339 22.671 12.5899 22.671C12.4525 22.671 12.3411 22.7824 12.3411 22.9198V32.4806C12.3411 32.5694 12.3885 32.6515 12.4654 32.696L16.1537 34.8275C16.2306 34.872 16.278 34.9541 16.278 35.0429V37.9647C16.278 38.0087 16.2663 38.0519 16.2441 38.09C16.1749 38.2087 16.0226 38.2488 15.9039 38.1796L10.1592 34.8306C9.70043 34.5631 9.41827 34.072 9.41827 33.541V17.0902V17.0902ZM18.2143 39.3869V21.5043C18.2143 21.4155 18.2617 21.3333 18.3386 21.2889L24.9431 17.474C25.0204 17.4294 25.1157 17.4296 25.1929 17.4746L31.7985 21.3281C31.875 21.3727 31.922 21.4545 31.922 21.543V39.3878C31.922 39.4765 31.8747 39.5585 31.7979 39.603L29.3896 40.9988C29.2707 41.0677 29.1185 41.0271 29.0496 40.9083C29.0276 40.8703 29.016 40.8273 29.016 40.7835V31.4536C29.016 31.3162 28.9046 31.2048 28.7672 31.2048C28.7231 31.2048 28.6798 31.2165 28.6417 31.2387L25.2023 33.2476C25.1246 33.293 25.0285 33.2929 24.9509 33.2473L21.5311 31.2401C21.4126 31.1705 21.2601 31.2102 21.1905 31.3287C21.1681 31.3669 21.1563 31.4104 21.1563 31.4546V40.7861C21.1563 40.9236 21.0449 41.0349 20.9075 41.0349C20.8641 41.0349 20.8215 41.0236 20.7839 41.0021L18.3395 39.6028C18.262 39.5585 18.2143 39.4761 18.2143 39.3869V39.3869ZM40.7287 17.0612V20.6007C40.7287 20.6888 40.6821 20.7703 40.6062 20.815L36.9324 22.9795C36.8565 23.0242 36.8099 23.1057 36.8099 23.1938V25.9929C36.8099 26.1303 36.9212 26.2417 37.0587 26.2417C37.1024 26.2417 37.1454 26.2302 37.1833 26.2083L40.3553 24.3731C40.4742 24.3043 40.6264 24.3449 40.6952 24.4639C40.7171 24.5017 40.7287 24.5447 40.7287 24.5885V33.5381C40.7287 34.0696 40.4461 34.5611 39.9867 34.8284L34.2651 38.158C34.1464 38.2271 33.9941 38.1869 33.925 38.0681C33.9028 38.0301 33.8912 37.9869 33.8912 37.943V35.1128C33.8912 35.024 33.9384 34.942 34.0152 34.8975L37.6799 32.7733C37.7566 32.7288 37.8039 32.6467 37.8039 32.558V29.7184C37.8039 29.581 37.6925 29.4696 37.5551 29.4696C37.5112 29.4696 37.468 29.4813 37.43 29.5034L34.2651 31.3438C34.1463 31.4129 33.994 31.3726 33.9249 31.2538C33.9028 31.2158 33.8912 31.1726 33.8912 31.1287V20.4022C33.8912 20.3136 33.8441 20.2318 33.7676 20.1872L27.3631 16.4561C27.2443 16.3869 27.2042 16.2346 27.2733 16.1159C27.295 16.0787 27.326 16.0477 27.3632 16.0261L33.7662 12.3016C33.8435 12.2567 33.9389 12.2566 34.0163 12.3016L39.9859 15.7705C40.4457 16.0377 40.7287 16.5294 40.7287 17.0612V17.0612Z" fill="#639AE0"/>
</g>
<path fill-rule="evenodd" clip-rule="evenodd" d="M25.11 7.09378L40.7892 16.1987L25.0765 25.3035L9.43069 16.1987L25.11 7.09378Z" fill="white"/>
<path fill-rule="evenodd" clip-rule="evenodd" d="M40.7892 16.1987V34.4084L25.11 43.5133L25.0765 25.2599L40.7892 16.1987Z" fill="#E6E6E6"/>
<path fill-rule="evenodd" clip-rule="evenodd" d="M25.11 25.2902V43.5133L9.43069 34.4084V16.1987L25.11 25.2902Z" fill="#D2D2D2"/>
<g style="mix-blend-mode:multiply">
<path fill-rule="evenodd" clip-rule="evenodd" d="M9.41827 19.093C9.41827 17.3216 10.36 15.6837 11.8909 14.7925L22.5779 8.57119C24.1227 7.67187 26.0313 7.67028 27.5776 8.56703L31.2387 10.6901C31.3137 10.7336 31.376 10.7959 31.4195 10.8709C31.5574 11.1086 31.4765 11.4131 31.2388 11.551L16.5259 20.0878C16.3724 20.1768 16.278 20.3408 16.278 20.5182V23.9144C16.278 24.0024 16.2546 24.0888 16.2104 24.1648C16.072 24.4023 15.7674 24.4827 15.5299 24.3444L13.0891 22.9227C13.0131 22.8784 12.9267 22.8551 12.8387 22.8551C12.5639 22.8551 12.3411 23.0779 12.3411 23.3527V32.337C12.3411 32.5147 12.4358 32.6789 12.5897 32.7678L16.0294 34.7557C16.1832 34.8446 16.278 35.0088 16.278 35.1865V37.5316C16.278 37.6197 16.2546 37.7062 16.2103 37.7822C16.0718 38.0197 15.7672 38.0999 15.5298 37.9615L11.8882 35.8385C10.3588 34.947 9.41827 33.31 9.41827 31.5397V19.093ZM18.2143 39.2426V21.6479C18.2143 21.4702 18.3091 21.306 18.463 21.2171L24.818 17.5463C24.9727 17.4569 25.1633 17.4573 25.3176 17.5473L31.6751 21.2561C31.828 21.3453 31.922 21.5089 31.922 21.6859V39.2444C31.922 39.4219 31.8274 39.5859 31.6739 39.6749L29.7631 40.7823C29.5254 40.9201 29.2209 40.839 29.0831 40.6013C29.0392 40.5254 29.016 40.4394 29.016 40.3517V31.887C29.016 31.6122 28.7932 31.3894 28.5184 31.3894C28.4302 31.3894 28.3436 31.4129 28.2675 31.4573L25.3281 33.1742C25.1727 33.2649 24.9805 33.2647 24.8253 33.1736L21.9058 31.46C21.6688 31.3209 21.3639 31.4003 21.2248 31.6373C21.1799 31.7137 21.1563 31.8006 21.1563 31.8892V40.3571C21.1563 40.6319 20.9335 40.8547 20.6587 40.8547C20.572 40.8547 20.4868 40.832 20.4115 40.7889L18.4647 39.6745C18.3098 39.5858 18.2143 39.4211 18.2143 39.2426ZM40.7287 18.4725V20.4585C40.7287 20.6347 40.6355 20.7978 40.4837 20.8872L37.0549 22.9073C36.9031 22.9967 36.8099 23.1598 36.8099 23.336V25.5615C36.8099 25.8363 37.0326 26.0591 37.3075 26.0591C37.395 26.0591 37.4809 26.0361 37.5566 25.9922L39.9819 24.5891C40.2198 24.4515 40.5242 24.5328 40.6618 24.7707C40.7056 24.8464 40.7287 24.9324 40.7287 25.0198V31.5351C40.7287 33.3067 39.7867 34.9448 38.2554 35.8359L34.6391 37.9404C34.4015 38.0786 34.0969 37.9981 33.9587 37.7606C33.9145 37.6846 33.8912 37.5982 33.8912 37.5103V35.2561C33.8912 35.0787 33.9857 34.9146 34.1392 34.8256L37.5558 32.8452C37.7094 32.7562 37.8039 32.5921 37.8039 32.4146V30.1509C37.8039 29.8761 37.5811 29.6533 37.3063 29.6533C37.2184 29.6533 37.1321 29.6766 37.0562 29.7208L34.6389 31.1264C34.4014 31.2645 34.0968 31.1839 33.9586 30.9464C33.9145 30.8704 33.8912 30.7841 33.8912 30.6962V20.5452C33.8912 20.3681 33.7971 20.2043 33.6441 20.1152L27.7324 16.6712C27.4949 16.5329 27.4146 16.2283 27.5529 15.9908C27.5963 15.9164 27.6582 15.8545 27.7327 15.8112L33.6411 12.3744C33.7957 12.2844 33.9867 12.2844 34.1413 12.3742L38.7657 15.0615C39.9809 15.7676 40.7287 17.067 40.7287 18.4725V18.4725Z" fill="white"/>
</g>
</g>
</svg>
