<?xml version="1.0" encoding="UTF-8"?>
<svg xmlns="http://www.w3.org/2000/svg" xmlns:xlink="http://www.w3.org/1999/xlink" width="50pt" height="49pt" viewBox="0 0 50 49" version="1.1">
<g id="surface1">
<rect x="0" y="0" width="50" height="49" style="fill:rgb(100%,47.843137%,34.901961%);fill-opacity:1;stroke:none;"/>
<path style=" stroke:none;fill-rule:evenodd;fill:rgb(100%,100%,100%);fill-opacity:1;" d="M 31.652344 31.074219 C 29.425781 31.074219 27.621094 29.289062 27.621094 27.089844 C 27.621094 24.890625 29.425781 23.105469 31.652344 23.105469 C 33.878906 23.105469 35.683594 24.890625 35.683594 27.089844 C 35.683594 29.289062 33.878906 31.074219 31.652344 31.074219 M 32.839844 19.460938 L 32.839844 15.953125 C 33.777344 15.519531 34.4375 14.59375 34.4375 13.519531 L 34.4375 13.4375 C 34.4375 11.953125 33.191406 10.738281 31.671875 10.738281 L 31.589844 10.738281 C 30.066406 10.738281 28.820312 11.953125 28.820312 13.4375 L 28.820312 13.519531 C 28.820312 14.59375 29.480469 15.519531 30.417969 15.953125 L 30.417969 19.460938 C 29.019531 19.671875 27.742188 20.234375 26.691406 21.0625 L 16.8125 13.566406 C 16.878906 13.324219 16.925781 13.074219 16.925781 12.808594 C 16.925781 11.128906 15.53125 9.761719 13.808594 9.761719 C 12.085938 9.757812 10.6875 11.121094 10.683594 12.800781 C 10.683594 14.480469 12.078125 15.847656 13.800781 15.847656 C 14.363281 15.847656 14.882812 15.695312 15.339844 15.441406 L 25.054688 22.816406 C 24.226562 24.03125 23.742188 25.488281 23.742188 27.058594 C 23.742188 28.699219 24.273438 30.21875 25.171875 31.46875 L 22.21875 34.351562 C 21.984375 34.285156 21.742188 34.238281 21.488281 34.238281 C 20.070312 34.238281 18.921875 35.355469 18.921875 36.738281 C 18.921875 38.121094 20.070312 39.238281 21.488281 39.238281 C 22.902344 39.238281 24.050781 38.121094 24.050781 36.738281 C 24.050781 36.488281 24 36.25 23.929688 36.023438 L 26.855469 33.171875 C 28.179688 34.160156 29.832031 34.753906 31.628906 34.753906 C 35.984375 34.753906 39.515625 31.308594 39.515625 27.058594 C 39.515625 23.210938 36.621094 20.03125 32.839844 19.460938 "/>
</g>
</svg>
