<svg width="50" height="50" viewBox="0 0 50 50" fill="none" xmlns="http://www.w3.org/2000/svg">
<path d="M46.3942 9.375H3.60576C1.61753 9.375 0 10.9925 0 12.9808V37.0192C0 39.0076 1.61753 40.625 3.60576 40.625H46.3942C48.3826 40.625 50 39.0076 50 37.0192V12.9808C50 10.9925 48.3826 9.375 46.3942 9.375ZM28.125 34.3689L21.875 34.375V25L17.1875 31.0096L12.5 25V34.375H6.25V15.625H12.5L17.1875 21.875L21.875 15.625L28.125 15.6189V34.3689ZM37.4556 35.9314L29.6875 25H34.375V15.625H40.625V25H45.3125L37.4556 35.9314Z" fill="#a0a0a0"/>
</svg>
