<svg width="39" height="46" viewBox="0 0 39 46" fill="none" xmlns="http://www.w3.org/2000/svg">
<path fill-rule="evenodd" clip-rule="evenodd" d="M20.6905 16.4214L19.0781 21.6206C19.0781 21.6206 17.6168 20.7855 15.8783 20.7855C13.2834 20.7855 13.1573 22.5363 13.1573 22.9676C13.1573 25.338 18.952 26.254 18.952 31.8303C18.952 36.2212 16.3571 39.0499 12.855 39.0499C8.62236 39.0499 6.50616 36.2483 6.50616 36.2483L7.63983 32.2612C7.63983 32.2612 9.85679 34.3088 11.7214 34.3088C12.9558 34.3088 13.4596 33.285 13.4596 32.5309C13.4596 29.4328 8.72312 29.298 8.72312 24.1797C8.72312 19.8966 11.5953 15.7479 17.4153 15.7479C19.5819 15.7211 20.6905 16.4214 20.6905 16.4214ZM18.1206 1.57825C18.3725 1.57825 18.6247 1.68598 18.8262 1.84758C17.0373 2.73654 15.1477 4.97246 14.3667 9.49817C13.1826 9.90231 12.0487 10.2523 10.9654 10.6297C11.8725 7.1813 14.1398 1.57825 18.1206 1.57825ZM19.733 3.24842C20.0606 4.16445 20.2875 5.45726 20.2875 7.23517V7.50479C18.927 7.96252 17.4907 8.42054 16.0044 8.93242C16.8358 5.53821 18.4229 3.86803 19.733 3.24842ZM23.8399 6.31943C23.2351 6.5081 22.5044 6.75036 21.7738 7.0197V6.53489C21.7738 5.08019 21.5976 3.89483 21.27 2.95201C22.5298 3.11361 23.3108 4.59539 23.8399 6.31943ZM33.8169 8.95949C33.7916 8.71695 33.59 8.60921 33.4389 8.60921C33.2878 8.60921 29.9872 8.33988 29.9872 8.33988C29.9872 8.33988 27.6946 5.88849 27.4174 5.64594C27.1655 5.3766 26.6867 5.45726 26.4852 5.51113C26.4601 5.51113 25.9814 5.67273 25.2004 5.94235C24.4194 3.54483 23.0839 1.36278 20.6905 1.36278H20.4637C19.8087 0.446748 18.952 0.0158081 18.2467 0.0158081C12.7039 0.0158081 10.0333 7.42385 9.20186 11.1954C7.03501 11.9228 5.49831 12.4076 5.32185 12.4882C4.11247 12.8924 4.08741 12.9195 3.93628 14.1316C3.8102 15.0476 0.661079 41.0972 0.661079 41.0972L25.1751 46L38.4776 42.929C38.503 42.8751 33.8419 9.20175 33.8169 8.95949Z" fill="#30B12E"/>
<path fill-rule="evenodd" clip-rule="evenodd" d="M33.4389 8.55536C33.2878 8.55536 29.9873 8.28602 29.9873 8.28602C29.9873 8.28602 27.6946 5.83463 27.4174 5.59208C27.3166 5.48435 27.1908 5.43048 27.0901 5.43048L25.2508 46L38.5533 42.929C38.5533 42.929 33.8923 9.20177 33.8673 8.9595C33.7665 8.71696 33.59 8.60922 33.4389 8.55536Z" fill="#30B12E"/>
</svg>
