<svg width="50" height="50" viewBox="0 0 50 50" fill="none" xmlns="http://www.w3.org/2000/svg">
<g clip-path="url(#clip0)">
<path fill-rule="evenodd" clip-rule="evenodd" d="M17.2425 10.7959H15.4383C12.7994 10.7959 10.6616 12.9703 10.6616 15.6526V30.0051C12.3791 31.0732 14.282 31.5714 15.8021 31.8004C15.5891 31.3657 15.4693 30.8768 15.4693 30.3618V18.9299C15.4693 18.9265 15.4693 18.923 15.4693 18.9195C15.4688 18.7301 15.4752 14.4601 17.2425 10.7959Z" fill="#175C8F"/>
<path fill-rule="evenodd" clip-rule="evenodd" d="M37.8908 17.4877V15.6531C37.8908 12.9697 35.7524 10.7959 33.1146 10.7959L18.9998 10.7959C17.9494 12.5424 17.4594 14.4773 17.2342 16.0231C17.6617 15.8065 18.1425 15.6847 18.649 15.6847H29.8915C29.8949 15.6847 29.8983 15.6847 29.9017 15.6847C30.088 15.6841 34.2873 15.6906 37.8908 17.4877Z" fill="#175C8F"/>
<path fill-rule="evenodd" clip-rule="evenodd" d="M31.2027 38.4397H33.0069C35.6458 38.4397 37.7836 36.2653 37.7836 33.5831V19.2306C36.066 18.1625 34.1632 17.6643 32.643 17.4353C32.856 17.87 32.9758 18.3588 32.9758 18.8739V30.3057C32.9758 30.3092 32.9758 30.3127 32.9758 30.3161C32.9764 30.5055 32.97 34.7756 31.2027 38.4397Z" fill="#175C8F"/>
<path fill-rule="evenodd" clip-rule="evenodd" d="M10.575 31.639L10.575 33.4736C10.575 36.157 12.7133 38.3308 15.3512 38.3308H29.4659C30.5163 36.5843 31.0063 34.6494 31.2315 33.1037C30.804 33.3203 30.3233 33.4421 29.8167 33.4421H18.5742C18.5708 33.4421 18.5674 33.4421 18.564 33.442C18.3777 33.4427 14.1784 33.4361 10.575 31.639Z" fill="#175C8F"/>
<path fill-rule="evenodd" clip-rule="evenodd" d="M26.3652 4.33191H13.9279C8.6537 4.33191 4.36473 8.67614 4.34785 14.0416L4.36263 14.0411C4.36263 14.0411 4.76006 23.3458 8.337 27.7958C8.58454 28.1038 8.8473 28.3885 9.122 28.6517V15.6693C9.122 12.089 11.9666 9.18651 15.4974 9.18651H18.1877C18.6443 8.53222 19.178 7.92835 19.802 7.40976C21.4383 6.04984 23.9107 5.05037 26.3652 4.33191V4.33191Z" fill="#175C8F"/>
<path fill-rule="evenodd" clip-rule="evenodd" d="M44.1355 26.7201V14.0733C44.1355 8.71029 39.8632 4.34909 34.5867 4.33192L34.5871 4.34695C34.5871 4.34695 25.4366 4.75108 21.0603 8.38825C20.7574 8.63996 20.4774 8.90715 20.2186 9.18648L32.9859 9.18648C36.5069 9.18648 39.3613 12.079 39.3613 15.6693V18.4049C40.0048 18.8691 40.5987 19.4119 41.1087 20.0464C42.446 21.7102 43.429 24.2242 44.1355 26.7201Z" fill="#175C8F"/>
<path fill-rule="evenodd" clip-rule="evenodd" d="M22.1213 44.7897H34.5586C39.8329 44.7897 44.1218 40.4455 44.1387 35.08L44.1239 35.0805C44.1239 35.0805 43.7265 25.7759 40.1496 21.3258C39.902 21.0179 39.6393 20.7332 39.3646 20.4699V33.4523C39.3646 37.0327 36.52 39.9351 32.9891 39.9351H30.2989C29.8423 40.5894 29.3085 41.1933 28.6846 41.7119C27.0483 43.0718 24.5759 44.0713 22.1213 44.7897Z" fill="#175C8F"/>
<path fill-rule="evenodd" clip-rule="evenodd" d="M4.39105 22.4047L4.39105 35.0515C4.39105 40.4146 8.66333 44.7758 13.9399 44.7929L13.9395 44.7779C13.9395 44.7779 23.09 44.3738 27.4663 40.7366C27.7692 40.4849 28.0492 40.2177 28.308 39.9384L15.5407 39.9384C12.0196 39.9384 9.16525 37.0459 9.16525 33.4556L9.16525 30.72C8.52179 30.2557 7.92792 29.713 7.41792 29.0785C6.08053 27.4147 5.09761 24.9006 4.39105 22.4047Z" fill="#175C8F"/>
</g>
<defs>
<clipPath id="clip0">
<rect width="40.2174" height="40.8947" fill="white" transform="translate(4.34782 4.33191)"/>
</clipPath>
</defs>
</svg>
