<svg width="50" height="50" viewBox="0 0 50 50" fill="none" xmlns="http://www.w3.org/2000/svg">
<path d="M11.6804 7.82457C11.6804 14.1831 15.3914 17.9982 22.8133 20.0061L30.6755 21.9472C37.72 23.6874 41.997 27.971 41.997 34.9319C42.0599 37.9439 41.1165 40.8889 39.4182 43.2984C39.4182 36.3375 36.0218 32.5893 27.908 30.3136L20.1716 28.4396C13.9448 26.9671 9.16454 23.4197 9.16454 15.8564C9.16454 12.9783 10.0451 10.1002 11.6804 7.82457Z" fill="#F04939"/>
<path d="M34.5752 33.1917C37.9087 35.4673 39.4183 38.6801 39.4183 43.2984C36.5879 47.1135 31.7448 49.1884 26.0211 49.1884C16.3978 49.1884 9.54198 44.1015 8.09534 35.3335H17.3413C18.5363 39.3494 21.6812 41.2235 25.9582 41.2235C31.0529 41.2904 34.5123 38.3454 34.5752 33.1917ZM16.5236 17.2619C13.3787 15.254 11.5547 11.6397 11.6805 7.75762C14.3851 4.00944 19.0395 1.73376 24.7003 1.73376C34.5752 1.73376 40.2359 7.2891 41.6826 15.0532H32.7511C31.7448 11.9743 29.2918 9.56478 24.8261 9.56478C19.983 9.63171 16.7123 12.5767 16.5236 17.2619Z" fill="#F37368"/>
</svg>
