<svg width="50" height="50" viewBox="0 0 50 50" fill="none" xmlns="http://www.w3.org/2000/svg">
<path fill-rule="evenodd" clip-rule="evenodd" d="M25.6905 18.4214L24.0781 23.6206C24.0781 23.6206 22.6168 22.7855 20.8783 22.7855C18.2834 22.7855 18.1573 24.5363 18.1573 24.9676C18.1573 27.338 23.952 28.254 23.952 33.8303C23.952 38.2212 21.3571 41.0499 17.855 41.0499C13.6224 41.0499 11.5062 38.2483 11.5062 38.2483L12.6398 34.2612C12.6398 34.2612 14.8568 36.3088 16.7214 36.3088C17.9558 36.3088 18.4596 35.285 18.4596 34.5309C18.4596 31.4328 13.7231 31.298 13.7231 26.1797C13.7231 21.8966 16.5953 17.7479 22.4153 17.7479C24.5819 17.7211 25.6905 18.4214 25.6905 18.4214ZM23.1206 3.57825C23.3725 3.57825 23.6247 3.68598 23.8262 3.84758C22.0373 4.73654 20.1477 6.97246 19.3667 11.4982C18.1826 11.9023 17.0487 12.2523 15.9654 12.6297C16.8725 9.1813 19.1398 3.57825 23.1206 3.57825ZM24.733 5.24842C25.0606 6.16445 25.2875 7.45726 25.2875 9.23517V9.50479C23.927 9.96252 22.4907 10.4205 21.0044 10.9324C21.8358 7.53821 23.4229 5.86803 24.733 5.24842ZM28.8399 8.31943C28.2351 8.5081 27.5044 8.75036 26.7738 9.0197V8.53489C26.7738 7.08019 26.5976 5.89483 26.27 4.95201C27.5298 5.11361 28.3108 6.59539 28.8399 8.31943ZM38.8169 10.9595C38.7916 10.7169 38.59 10.6092 38.4389 10.6092C38.2878 10.6092 34.9872 10.3399 34.9872 10.3399C34.9872 10.3399 32.6946 7.88849 32.4174 7.64594C32.1655 7.3766 31.6867 7.45726 31.4852 7.51113C31.4601 7.51113 30.9814 7.67273 30.2004 7.94235C29.4194 5.54483 28.0839 3.36278 25.6905 3.36278H25.4637C24.8087 2.44675 23.952 2.01581 23.2467 2.01581C17.7039 2.01581 15.0333 9.42385 14.2019 13.1954C12.035 13.9228 10.4983 14.4076 10.3218 14.4882C9.11247 14.8924 9.08741 14.9195 8.93628 16.1316C8.8102 17.0476 5.66108 43.0972 5.66108 43.0972L30.1751 48L43.4776 44.929C43.503 44.8751 38.8419 11.2018 38.8169 10.9595Z" fill="#30B12E"/>
<path fill-rule="evenodd" clip-rule="evenodd" d="M38.4389 10.5554C38.2878 10.5554 34.9873 10.286 34.9873 10.286C34.9873 10.286 32.6946 7.83463 32.4174 7.59208C32.3166 7.48435 32.1908 7.43048 32.0901 7.43048L30.2508 48L43.5533 44.929C43.5533 44.929 38.8923 11.2018 38.8673 10.9595C38.7665 10.717 38.59 10.6092 38.4389 10.5554Z" fill="#30B12E"/>
</svg>
