<svg width="50" height="50" viewBox="0 0 50 50" fill="none" xmlns="http://www.w3.org/2000/svg">
<path d="M25.8853 26.4352L19.6149 26.7549C18.1557 26.8217 17.6183 27.4322 17.6208 28.2273C17.622 29.0218 18.2921 29.6439 19.5186 29.6439L26.0587 29.6077C27.4987 29.6028 28.2878 28.8813 28.286 27.9733C28.2841 27.0721 27.337 26.3684 25.8853 26.4352Z" fill="url(#paint0_linear)"/>
<path d="M27.0871 15.0963C26.9199 15.0963 26.7484 15.1092 26.5763 15.135L19.4341 16.2227C18.0231 16.4332 17.4739 17.0749 17.4739 17.9627C17.4739 18.632 18.3661 19.3148 19.4797 19.2455C19.618 19.2455 19.7586 19.2388 19.8999 19.2234L26.596 18.8216C28.0206 18.6762 29.1793 17.7099 29.1793 16.67C29.1793 15.7589 28.3001 15.0963 27.0871 15.0963Z" fill="url(#paint1_linear)"/>
<path d="M42.5173 3.78687C42.1897 3.44269 41.7245 3.2525 41.2068 3.2525C41.092 3.2525 40.9724 3.26232 40.8527 3.28072L8.55054 8.35814C7.26968 8.55998 6.27202 9.77167 6.32693 11.06L7.41035 36.5631C7.46403 37.8478 8.57645 38.9036 9.86903 38.9189L15.3966 38.9809V45.7755L20.6199 39.038L39.4632 39.2478C40.7385 39.2478 41.7917 38.2165 41.817 36.9496L42.9961 5.21144C43.0288 4.65131 42.8579 4.147 42.5173 3.78687ZM32.7875 21.91C37.0983 22.2204 36.68 26.653 36.68 26.653L36.614 30.6881C36.369 33.3477 34.1726 34.4072 32.3062 34.3937L30.591 34.4035L14.4723 34.1667C13.036 34.1526 11.8181 32.9685 11.7576 31.5709L11.0524 15.3301C10.9919 13.9374 12.0932 12.6276 13.5074 12.4098L32.7184 9.4551C32.7184 9.4551 37.4111 8.679 37.3161 13.3472L36.9336 17.297C36.8435 18.6786 36.3906 21.2885 32.7875 21.91Z" fill="url(#paint2_linear)"/>
<defs>
<linearGradient id="paint0_linear" x1="17.6207" y1="28.0374" x2="28.286" y2="28.0374" gradientUnits="userSpaceOnUse">
<stop stop-color="#09B3AF"/>
<stop offset="1" stop-color="#09B3AF"/>
</linearGradient>
<linearGradient id="paint1_linear" x1="17.4743" y1="17.174" x2="29.1795" y2="17.174" gradientUnits="userSpaceOnUse">
<stop stop-color="#09B3AF"/>
<stop offset="1" stop-color="#09B3AF"/>
</linearGradient>
<linearGradient id="paint2_linear" x1="6.32465" y1="24.514" x2="42.9999" y2="24.514" gradientUnits="userSpaceOnUse">
<stop stop-color="#09B3AF"/>
<stop offset="1" stop-color="#09B3AF"/>
</linearGradient>
</defs>
</svg>
