<svg width="50" height="50" viewBox="0 0 50 50" fill="none" xmlns="http://www.w3.org/2000/svg">
<path d="M23.122 3L4 14.2837V19.289L12.1482 24.235L18.9897 20.4625V16.0749L33.4763 7.65509L43.6557 13.5891L43.6436 25.4538L29.6868 33.5919L25.0135 31.8422L18.7927 35.8586L18.9507 45.4735L23.2335 47.9764L42.5125 36.8574V30.1744L40.3449 31.3551V35.6037L23.2391 45.4197L21.1202 44.1816L21.0041 37.1203L25.0187 34.405L29.8574 36.1535L46 26.7308L45.8466 12.2418L33.4784 5.09773L16.7995 14.7912V19.1766L12.1743 21.6659L6.19023 18.0337V15.5572L23.0711 5.59638L26.6145 7.88175L28.7554 6.63421L23.122 3ZM34.527 14.8049L30.937 17.0094L31.0282 21.2583L34.7095 23.3028L38.2995 21.0983L38.2083 16.8495L34.527 14.8049ZM34.5682 16.7243L36.5865 17.8453L36.6366 20.1749L34.6683 21.3834L32.65 20.2625L32.6 17.933L34.5682 16.7243ZM16.0916 26.4172L15.6055 25.485C15.4985 25.2801 15.2478 25.2017 15.0453 25.3098L11.8637 27.0087C11.6612 27.1168 11.5836 27.3707 11.6906 27.5757L12.1769 28.5084C12.2837 28.7133 12.5345 28.7919 12.737 28.6836L15.9183 26.9843C16.1209 26.876 16.1984 26.6221 16.0916 26.4172ZM17.9317 29.2478L17.4457 28.3153C17.3356 28.1039 17.0736 28.0282 16.8697 28.1487L11.5042 31.3238C11.3126 31.4374 11.2432 31.6833 11.3467 31.8819L11.8326 32.8145C11.9429 33.0258 12.2049 33.1016 12.4087 32.981L17.7743 29.8059C17.9658 29.6925 18.0352 29.4466 17.9317 29.2478ZM18.4327 31.1633L12.1248 34.8332C11.9314 34.9456 11.8605 35.193 11.9648 35.3928L12.4509 36.3252C12.5605 36.5354 12.8206 36.6116 13.0242 36.4932L19.3321 32.8233C19.5256 32.7107 19.5964 32.4633 19.4922 32.2635L19.0059 31.3312C18.8963 31.1211 18.6363 31.0449 18.4327 31.1633Z" fill="#a0a0a0"/>
</svg>
