<svg width="50" height="50" xmlns="http://www.w3.org/2000/svg">
<g fill-rule="nonzero" fill="none"><path fill="#1A1A1D" d="M0 0h50v50H0z"/><path d="M9.093 28.677c.39 0 .72-.092.992-.277.272-.185.466-.43.583-.734h.054v.943h1.383v-5.193h-1.44v3.004c-.002.336-.102.593-.3.77-.201.18-.432.27-.69.27-.274 0-.491-.09-.653-.267-.163-.178-.245-.42-.247-.727v-3.05h-1.44v3.307c.002.606.165 1.083.488 1.432.323.348.747.522 1.27.522zm5.602-.068v-3.002c.003-.336.095-.597.276-.783.181-.186.418-.279.708-.279.289 0 .515.09.68.269.165.18.246.428.243.746v3.05h1.44v-3.307c0-.607-.163-1.084-.49-1.432-.326-.349-.76-.523-1.301-.523-.386 0-.713.089-.982.266a1.48 1.48 0 0 0-.58.718h-.061v-.916h-1.373v5.193h1.44zm5.962.099c.383 0 .7-.077.951-.229.252-.152.44-.349.567-.59h.04v.72h1.366v-3.502c0-.413-.103-.748-.309-1.006a1.8 1.8 0 0 0-.813-.57 3.152 3.152 0 0 0-1.082-.183c-.622 0-1.13.139-1.523.416-.394.277-.64.653-.74 1.126l1.333.108a.793.793 0 0 1 .304-.43c.154-.112.36-.168.619-.168.246 0 .436.058.57.176.134.117.2.283.2.497v.02c0 .167-.096.275-.29.325-.194.05-.516.097-.967.142a4.061 4.061 0 0 0-.958.2 1.578 1.578 0 0 0-.719.486c-.183.22-.274.525-.274.913 0 .514.164.9.49 1.16.327.259.739.389 1.235.389zm.412-.995a.922.922 0 0 1-.546-.152c-.143-.101-.215-.251-.215-.45 0-.202.078-.357.232-.463.154-.106.358-.177.61-.213.106-.015.226-.034.36-.055.134-.022.26-.047.379-.077a.843.843 0 0 0 .262-.101v.551a.886.886 0 0 1-.304.685c-.203.184-.462.275-.778.275zm5.072.896v-6.924h-1.44v6.924h1.44zm1.873-5.863a.78.78 0 0 0 .551-.214.68.68 0 0 0 .23-.516c0-.2-.076-.372-.23-.514a.783.783 0 0 0-.55-.213.778.778 0 0 0-.549.213.676.676 0 0 0-.23.514c0 .2.077.373.23.516a.775.775 0 0 0 .548.214zm.717 5.863v-5.193h-1.44v5.193h1.44zm2.59 0v-1.65l.389-.443 1.417 2.093h1.687l-2.025-2.945 1.927-2.248h-1.654L31.4 25.387h-.078v-3.702h-1.44v6.924h1.44zm6.465.102c.642 0 1.17-.144 1.582-.433.413-.288.67-.674.771-1.156l-1.332-.088a.828.828 0 0 1-.372.45 1.23 1.23 0 0 1-.625.152c-.36 0-.647-.112-.86-.335-.211-.223-.317-.529-.317-.916v-.004h3.537v-.395c0-.589-.108-1.078-.325-1.47a2.123 2.123 0 0 0-.877-.877 2.62 2.62 0 0 0-1.24-.29c-.509 0-.952.112-1.33.337-.378.226-.67.54-.877.944-.208.403-.311.872-.311 1.406 0 .548.103 1.022.31 1.422.208.4.504.71.89.927.385.217.844.326 1.376.326zm1.028-3.222h-2.181c.016-.296.126-.547.331-.754a1.06 1.06 0 0 1 .788-.312c.314 0 .568.1.764.301.197.201.296.456.298.765zm3.138 3.208a.784.784 0 0 0 .566-.236.786.786 0 0 0 0-1.143.784.784 0 0 0-.566-.237.79.79 0 0 0-.575.237.758.758 0 0 0-.237.568.766.766 0 0 0 .237.575.79.79 0 0 0 .575.236z" fill="#FFF"/></g>
</svg>