<svg width="50" height="50" viewBox="0 0 50 50" fill="none" xmlns="http://www.w3.org/2000/svg">
<g clip-path="url(#clip0)">
<path fill-rule="evenodd" clip-rule="evenodd" d="M24.9995 3.50308C30.607 3.50308 35.7127 5.65193 39.54 9.17013C37.6641 9.1198 35.7921 10.2349 35.7147 12.7883C35.5569 17.9504 41.8873 19.05 38.4762 29.4332L35.6546 38.0218L27.9701 15.3853C27.851 15.0349 27.9895 14.8355 28.4202 14.8355H30.5928C30.7057 14.8355 30.798 14.7391 30.798 14.6211V13.3343C30.798 13.2163 30.7054 13.115 30.5928 13.1198C26.4785 13.2998 22.3884 13.301 18.323 13.1198C18.2098 13.115 18.1178 13.2166 18.1178 13.3347V14.6215C18.1178 14.7395 18.2102 14.836 18.323 14.836H20.5075C20.9934 14.836 21.1295 14.9979 21.244 15.3111L24.4015 23.9462L19.6517 38.2883L11.8443 15.2918C11.7475 15.0033 11.8646 14.8359 12.1424 14.8359H14.6315C14.7443 14.8359 14.8367 14.7395 14.8367 14.6214V13.3346C14.8367 13.2166 14.744 13.1143 14.6315 13.1202C12.0199 13.2589 9.39845 13.2868 6.95651 13.3119C10.7885 7.40891 17.4375 3.50265 24.9981 3.50265L24.9981 3.50259L24.9995 3.50308ZM43.9054 14.7632C45.5573 17.8066 46.4952 21.2934 46.4952 24.9983C46.4952 33.1296 41.9773 40.2068 35.3163 43.8598L42.0204 24.8715C43.059 21.9328 44.0231 17.9613 43.905 14.7632H43.9049H43.9054ZM32.1962 45.2575C29.9457 46.058 27.5239 46.4946 24.9995 46.4946C22.8245 46.4946 20.726 46.1703 18.7475 45.5702L25.3697 26.5926L32.1961 45.2585L32.1962 45.2575ZM15.801 44.4309C8.53163 40.9834 3.50323 33.5773 3.50323 24.9993C3.50323 21.8194 4.19497 18.8008 5.43477 16.0849L15.8015 44.4313L15.8015 44.4313L15.801 44.4309ZM24.9988 1.48587C37.9819 1.48587 48.5112 12.0152 48.5112 24.9983C48.5112 37.9815 37.9819 48.5108 24.9988 48.5108C12.0157 48.5108 1.48631 37.9815 1.48631 24.9983C1.48631 12.0152 12.0157 1.48587 24.9988 1.48587ZM24.9988 -0.000320435C38.8027 -0.000320435 49.998 11.195 49.998 24.9989C49.998 38.8029 38.8027 49.9982 24.9988 49.9982C11.1948 49.9982 -0.000457764 38.8029 -0.000457764 24.9989C-0.000457764 11.195 11.1948 -0.000320435 24.9988 -0.000320435Z" fill="#a0a0a0"/>
</g>
<defs>
<clipPath id="clip0">
<rect width="50" height="50" fill="white"/>
</clipPath>
</defs>
</svg>
