<svg width="50" height="50" viewBox="0 0 50 50" fill="none" xmlns="http://www.w3.org/2000/svg">
<g fill="none" fill-rule="evenodd">
<path fill="none" d="M0 0h50v50H0z"/>
<g fill="#09B3AF" fill-rule="nonzero">
<path d="M29.064 24H19v5h9.822c.58 0 1.113-.25 1.548-.65.387-.4.63-1 .63-1.75a3.07 3.07 0 0 0-.533-1.8c-.387-.5-.822-.8-1.403-.8zm.339-6.05c.435-.3.629-.95.629-1.8 0-.75-.194-1.3-.533-1.65a1.9 1.9 0 0 0-1.258-.5H19v4.5h9.048c.484 0 .968-.25 1.355-.55z"/>
<path d="M44.115 0H6.175C4.967 0 4 .975 4 2.144v38.304c0 1.17.967 1.9 2.127 1.9h5.606V50l6.96-7.602h25.422c1.16 0 1.885-.731 1.885-1.95V2.193c0-1.17-.725-2.144-1.933-2.144L44.115 0zm-6.38 31.043c-.483.877-1.208 1.608-2.078 2.144-.918.585-1.933 1.121-3.093 1.365-1.16.292-2.417.536-3.722.536H11.733V7.798h19.43c.966 0 1.788.194 2.56.633a6.67 6.67 0 0 1 1.934 1.56 7.348 7.348 0 0 1 1.643 4.726c0 1.267-.338 2.486-.966 3.655a6.06 6.06 0 0 1-2.9 2.632c1.546.438 2.755 1.218 3.673 2.34.87 1.169 1.305 2.68 1.305 4.58 0 1.218-.242 2.242-.725 3.119h.048z"/>
</g>
</g>
</svg>


