<svg width="1289" height="245" viewBox="0 0 1289 245" fill="none" xmlns="http://www.w3.org/2000/svg">
<path d="M221.494 101.381C233.274 100.815 243.701 109.953 244.718 121.743C249.124 178.78 196.925 242.674 123.366 244.717C61.3771 246.247 0.0683594 196.619 0.0683594 121.58C0.0683594 109.754 9.84059 100.167 21.6338 100.167C33.427 100.167 42.9873 109.754 42.9873 121.58C42.9873 170.939 82.675 202.883 122.316 201.905C171.115 200.549 202.839 158.295 201.189 123.795C200.623 111.983 209.715 101.948 221.494 101.381Z" fill="url(#paint0_linear)"/>
<path d="M168.15 123.24C168.15 111.133 178.026 101.318 190.208 101.318L222.354 101.318C234.537 101.318 244.718 111.133 244.718 123.24C244.718 135.348 234.537 145.163 222.354 145.163H190.208C178.026 145.163 168.15 135.348 168.15 123.24Z" fill="#00A672"/>
<path d="M100.7 123.272C100.7 111.147 110.513 101.318 122.604 101.318C134.696 101.318 144.509 111.147 144.509 123.272C144.509 135.397 134.696 145.227 122.604 145.227C110.513 145.227 100.7 135.397 100.7 123.272Z" fill="#00A672"/>
<path fill-rule="evenodd" clip-rule="evenodd" d="M143.902 20.6961C144.392 32.5119 135.236 42.4882 123.453 42.9789C72.5875 45.0972 41.5346 85.0757 43.0461 123.036C43.5166 134.852 34.5367 144.814 22.7528 145.286C10.969 145.758 0.606386 136.221 0.135873 124.405C-2.32727 62.5448 49.1805 1.39121 121.681 0.190226C133.464 -0.300477 143.413 8.88031 143.902 20.6961Z" fill="#00A672"/>
<g clip-path="url(#clip0)">
<path d="M408.102 137.495H449.305C447.219 145.221 443.929 152.224 439.436 158.502C435.103 164.618 429.405 169.528 422.344 173.231C415.283 176.933 406.697 178.784 396.587 178.784C385.513 178.784 375.483 176.209 366.496 171.057C357.67 165.906 350.688 158.743 345.553 149.568C340.418 140.231 337.85 129.446 337.85 117.212C337.85 104.817 340.418 94.1123 345.553 85.0978C350.849 75.9223 357.91 68.8395 366.737 63.8493C375.724 58.8591 385.674 56.3641 396.587 56.3641C408.302 56.3641 418.252 58.7787 426.437 63.6079C434.782 68.437 441.281 74.876 445.935 82.9246L469.045 67.2297C461.663 55.4787 451.793 46.3032 439.436 39.7034C427.239 33.1035 412.956 29.8035 396.587 29.8035C383.909 29.8035 372.113 31.9766 361.2 36.3229C350.448 40.5082 341.06 46.4642 333.035 54.1909C325.172 61.9176 318.993 71.1736 314.5 81.9588C310.167 92.583 308 104.334 308 117.212C308 130.09 310.167 141.921 314.5 152.706C318.833 163.492 324.931 172.828 332.795 180.716C340.819 188.604 350.207 194.72 360.959 199.067C371.712 203.252 383.427 205.345 396.105 205.345C409.586 205.345 421.542 202.93 431.973 198.101C442.405 193.111 451.151 186.35 458.212 177.818C465.273 169.287 470.569 159.548 474.1 148.602C477.631 137.495 479.235 125.743 478.914 113.349H411.539L408.102 137.495Z" fill="#0D2C38"/>
<path d="M557.159 118.661L569.918 96.4464C567.35 93.5489 564.301 91.4562 560.77 90.1684C557.24 88.8806 553.468 88.2367 549.456 88.2367C544.802 88.2367 540.228 89.6855 535.735 92.583C531.241 95.3196 527.39 99.1829 524.18 104.173V90.6514H498.423V201.723H524.18V139.185C524.18 131.136 525.624 124.697 528.513 119.868C531.402 115.039 536.056 112.624 542.475 112.624C545.685 112.624 548.333 113.188 550.419 114.314C552.505 115.28 554.752 116.729 557.159 118.661Z" fill="#0D2C38"/>
<path d="M582.945 90.6514V201.723H608.462V90.6514H582.945ZM579.334 49.9105C579.334 54.4178 580.939 58.2007 584.149 61.2592C587.358 64.3176 591.21 65.8469 595.704 65.8469C600.358 65.8469 604.289 64.3176 607.499 61.2592C610.709 58.2007 612.314 54.4178 612.314 49.9105C612.314 45.4033 610.709 41.6204 607.499 38.5619C604.289 35.5034 600.358 33.9742 595.704 33.9742C591.21 33.9742 587.358 35.5034 584.149 38.5619C580.939 41.6204 579.334 45.4033 579.334 49.9105Z" fill="#0D2C38"/>
<path d="M652.116 146.187C652.116 135.08 655.406 126.468 661.986 120.351C668.566 114.073 676.349 110.934 685.336 110.934C690.311 110.934 695.206 112.302 700.021 115.039C704.835 117.775 708.847 121.8 712.057 127.112C715.266 132.263 716.871 138.621 716.871 146.187C716.871 153.753 715.266 160.192 712.057 165.504C708.847 170.655 704.835 174.599 700.021 177.335C695.206 180.072 690.311 181.44 685.336 181.44C676.349 181.44 668.566 178.382 661.986 172.265C655.406 165.987 652.116 157.294 652.116 146.187ZM625.155 146.187C625.155 158.421 627.643 168.884 632.618 177.577C637.593 186.108 644.172 192.708 652.357 197.377C660.542 201.884 669.449 204.137 679.078 204.137C687.102 204.137 694.323 202.367 700.743 198.825C707.323 195.123 712.699 189.972 716.871 183.372V201.723H743.11V21.3108H716.871V109.002C712.699 102.402 707.323 97.3317 700.743 93.7903C694.323 90.0879 687.102 88.2367 679.078 88.2367C669.449 88.2367 660.542 90.5709 652.357 95.2391C644.172 99.7463 637.593 106.346 632.618 115.039C627.643 123.57 625.155 133.953 625.155 146.187Z" fill="#0D2C38"/>
<path d="M772.658 161.641L757.493 176.37C762.628 184.579 769.449 191.421 777.954 196.894C786.62 202.367 796.33 205.103 807.082 205.103C818.797 205.103 828.346 202.286 835.728 196.652C843.271 190.857 847.042 182.084 847.042 170.333C847.042 163.733 845.598 158.341 842.709 154.155C839.821 149.97 836.049 146.509 831.395 143.772C826.741 140.875 821.766 138.38 816.47 136.287C812.298 134.517 808.045 132.907 803.712 131.458C799.539 130.009 796.089 128.319 793.361 126.387C790.632 124.456 789.268 121.961 789.268 118.902C789.268 115.522 790.552 113.107 793.12 111.658C795.848 110.049 799.459 109.244 803.953 109.244C808.446 109.244 813.1 110.532 817.915 113.107C822.89 115.683 827.223 118.983 830.914 123.007L845.357 108.036C841.185 102.402 835.247 97.7342 827.544 94.0318C820.001 90.1684 811.736 88.2367 802.749 88.2367C796.169 88.2367 789.991 89.444 784.213 91.8586C778.436 94.2732 773.782 97.7342 770.251 102.241C766.721 106.749 764.955 112.222 764.955 118.661C764.955 125.583 766.48 131.217 769.529 135.563C772.739 139.748 776.751 143.129 781.565 145.704C786.38 148.28 791.355 150.614 796.49 152.706C802.909 155.121 808.526 157.697 813.341 160.433C818.316 163.17 820.803 166.953 820.803 171.782C820.803 175.484 819.439 178.301 816.711 180.233C814.143 182.004 810.532 182.889 805.878 182.889C801.064 182.889 795.607 180.957 789.509 177.094C783.571 173.07 777.954 167.918 772.658 161.641Z" fill="#0D2C38"/>
<path d="M884.632 146.187C884.632 135.724 887.762 127.273 894.021 120.834C900.44 114.395 908.304 111.175 917.612 111.175C927.08 111.175 934.944 114.395 941.203 120.834C947.462 127.273 950.591 135.724 950.591 146.187C950.591 156.489 947.462 164.94 941.203 171.54C934.944 177.979 927.08 181.199 917.612 181.199C908.304 181.199 900.44 177.979 894.021 171.54C887.762 164.94 884.632 156.489 884.632 146.187ZM857.912 146.187C857.912 157.616 860.48 167.677 865.615 176.37C870.911 185.062 878.053 191.903 887.04 196.894C896.187 201.723 906.378 204.137 917.612 204.137C929.006 204.137 939.197 201.723 948.184 196.894C957.171 191.903 964.232 185.062 969.367 176.37C974.663 167.677 977.311 157.616 977.311 146.187C977.311 134.758 974.663 124.697 969.367 116.005C964.232 107.312 957.171 100.551 948.184 95.722C939.197 90.7318 929.006 88.2367 917.612 88.2367C906.378 88.2367 896.187 90.7318 887.04 95.722C878.053 100.551 870.911 107.312 865.615 116.005C860.48 124.697 857.912 134.758 857.912 146.187Z" fill="#0D2C38"/>
<path d="M1150.99 131.217C1150.99 117.212 1148.1 106.588 1142.32 99.3439C1136.55 91.9391 1127.64 88.2367 1115.6 88.2367C1108.22 88.2367 1101.48 90.0074 1095.38 93.5489C1089.28 96.9293 1084.39 101.678 1080.7 107.795C1075.72 94.7562 1065.13 88.2367 1048.92 88.2367C1041.7 88.2367 1035.44 89.927 1030.15 93.3074C1025.01 96.6878 1020.92 101.195 1017.87 106.829V90.6514H992.352V201.723H1017.87V134.114C1017.87 126.709 1019.71 120.753 1023.41 116.246C1027.26 111.578 1032.71 109.244 1039.77 109.244C1046.52 109.244 1051.25 111.417 1053.98 115.763C1056.71 119.948 1058.07 126.065 1058.07 134.114V201.723H1084.31V134.114C1084.31 126.709 1086.15 120.753 1089.85 116.246C1093.7 111.578 1099.15 109.244 1106.21 109.244C1112.96 109.244 1117.69 111.417 1120.42 115.763C1123.31 119.948 1124.75 126.065 1124.75 134.114V201.723H1150.99V131.217Z" fill="#0D2C38"/>
<path d="M1193.64 152.224H1281.99C1282.15 150.936 1282.23 149.648 1282.23 148.36C1282.39 147.072 1282.47 145.946 1282.47 144.98C1282.47 127.434 1275.09 113.59 1265.14 103.449C1255.35 93.3074 1241.87 88.2367 1224.7 88.2367C1208.81 88.2367 1195.89 92.5025 1185.94 101.034C1176.15 109.566 1170.13 120.673 1167.89 134.356C1167.56 136.287 1167.32 138.219 1167.16 140.151C1167 142.082 1166.92 144.094 1166.92 146.187C1166.92 157.294 1169.25 167.275 1173.9 176.128C1178.56 184.821 1185.14 191.662 1193.64 196.652C1202.15 201.642 1212.1 204.137 1223.49 204.137C1237.29 204.137 1248.61 201.401 1257.43 195.928C1266.42 190.455 1276.05 183.211 1281.51 174.196L1256.47 165.021C1253.26 170.494 1249.01 174.84 1243.71 178.06C1238.58 181.118 1232.24 182.647 1224.7 182.647C1216.19 182.647 1209.13 180.152 1203.51 175.162C1197.9 170.011 1194.61 162.365 1193.64 152.224ZM1194.12 134.114C1195.25 125.904 1198.62 119.546 1204.23 115.039C1209.85 110.371 1216.59 108.036 1224.46 108.036C1232.8 108.036 1239.22 110.371 1243.71 115.039C1248.21 119.707 1250.94 126.065 1251.9 134.114H1194.12Z" fill="#0D2C38"/>
</g>
<defs>
<linearGradient id="paint0_linear" x1="122.523" y1="100.167" x2="122.523" y2="244.752" gradientUnits="userSpaceOnUse">
<stop stop-color="#00583E"/>
<stop offset="1" stop-color="#00835C"/>
</linearGradient>
<clipPath id="clip0">
<rect width="981" height="183" fill="white" transform="translate(308 22)"/>
</clipPath>
</defs>
</svg>
