<svg width="1292" height="248" viewBox="0 0 1292 248" fill="none" xmlns="http://www.w3.org/2000/svg">
<path d="M170.405 124.39C170.405 112.169 180.413 102.263 192.759 102.263L225.336 102.263C237.682 102.263 248 112.169 248 124.39C248 136.61 237.682 146.517 225.336 146.517H192.759C180.413 146.517 170.405 136.61 170.405 124.39Z" fill="white"/>
<path d="M102.05 124.422C102.05 112.184 111.995 102.263 124.249 102.263C136.503 102.263 146.447 112.184 146.447 124.422C146.447 136.66 136.503 146.581 124.249 146.581C111.995 146.581 102.05 136.66 102.05 124.422Z" fill="white"/>
<path fill-rule="evenodd" clip-rule="evenodd" d="M145.832 20.8891C146.328 32.8151 137.05 42.8845 125.109 43.3798C73.5606 45.5179 42.0912 85.8691 43.623 124.183C44.0998 136.11 34.9994 146.165 23.0575 146.641C11.1157 147.117 0.614054 137.492 0.137225 125.565C-2.35895 63.1281 49.8396 1.40421 123.313 0.192026C135.254 -0.303252 145.336 8.96316 145.832 20.8891Z" fill="white"/>
<path fill-rule="evenodd" clip-rule="evenodd" d="M0.0698242 123.251C0.363169 198.689 62.3487 248.54 125.02 247C199.001 244.362 252.444 180.175 248 122.879C246.97 110.978 236.402 101.755 224.465 102.327C212.527 102.899 203.314 113.027 203.886 124.95C205.559 159.772 173.41 202.419 123.956 203.788C84.673 204.753 45.3446 173.945 43.6221 125.997C43.162 137.113 34.389 146.189 23.0577 146.641C11.1158 147.117 0.614181 137.492 0.137357 125.565C0.10652 124.794 0.0840299 124.022 0.0698242 123.251Z" fill="url(#paint0_linear)"/>
<g clip-path="url(#clip0)">
<path d="M405.407 133.248H443.658C440.756 143.033 435.639 151.212 428.308 157.786C420.976 164.36 410.742 167.647 397.606 167.647C387.678 167.647 378.742 165.43 370.799 160.996C363.009 156.41 356.823 149.989 352.241 141.733C347.659 133.477 345.367 123.769 345.367 112.609C345.367 101.449 347.659 91.8935 352.241 83.9436C356.976 75.8409 363.315 69.6491 371.258 65.3684C379.2 60.9348 387.983 58.7181 397.606 58.7181C407.993 58.7181 416.623 60.9348 423.496 65.3684C430.522 69.802 436.098 75.4587 440.222 82.3384L468.403 65.8271C461.071 54.6667 451.525 45.7995 439.763 39.2256C428.002 32.4988 413.95 29.1353 397.606 29.1353C380.957 29.1353 366.064 32.6516 352.928 39.6842C339.945 46.5639 329.711 56.2719 322.227 68.8083C314.742 81.3446 311 95.9449 311 112.609C311 129.273 314.666 143.95 321.998 156.639C329.329 169.328 339.41 179.266 352.241 186.451C365.224 193.484 380.04 197 396.69 197C409.978 197 421.74 194.63 431.973 189.891C442.207 185.152 450.761 178.654 457.634 170.399C464.508 162.143 469.625 152.588 472.985 141.733C476.346 130.878 477.797 119.336 477.338 107.105H405.407V133.248Z" fill="white"/>
<path d="M555.525 118.571L569.043 93.3459C567.057 90.594 564.308 88.5301 560.795 87.1542C557.282 85.7782 553.616 85.0902 549.797 85.0902C545.062 85.0902 540.48 86.4662 536.05 89.2181C531.621 91.9699 527.802 95.7156 524.595 100.455V87.3835H495.268V192.872H524.595V137.147C524.595 129.503 526.046 123.54 528.948 119.259C531.85 114.826 536.127 112.609 541.778 112.609C544.833 112.609 547.353 113.144 549.339 114.214C551.478 115.284 553.54 116.737 555.525 118.571Z" fill="white"/>
<path d="M582.704 87.3835V192.872H611.573V87.3835H582.704ZM579.496 50.0103C579.496 54.7496 581.177 58.801 584.537 62.1644C588.05 65.3749 592.327 66.9802 597.367 66.9802C602.408 66.9802 606.608 65.3749 609.969 62.1644C613.482 58.801 615.239 54.7496 615.239 50.0103C615.239 45.118 613.482 41.0666 609.969 37.8561C606.608 34.6456 602.408 33.0403 597.367 33.0403C592.327 33.0403 588.05 34.6456 584.537 37.8561C581.177 41.0666 579.496 45.118 579.496 50.0103Z" fill="white"/>
<path d="M663.229 140.128C663.229 130.649 665.979 123.234 671.477 117.883C677.129 112.533 683.85 109.857 691.64 109.857C695.917 109.857 700.117 111.08 704.241 113.526C708.518 115.82 712.031 119.259 714.78 123.846C717.683 128.279 719.134 133.707 719.134 140.128C719.134 146.549 717.683 152.053 714.78 156.639C712.031 161.073 708.518 164.513 704.241 166.959C700.117 169.252 695.917 170.399 691.64 170.399C683.85 170.399 677.129 167.723 671.477 162.372C665.979 156.868 663.229 149.454 663.229 140.128ZM632.299 140.128C632.299 151.9 634.666 161.914 639.401 170.169C644.136 178.272 650.322 184.464 657.96 188.744C665.75 193.025 674.074 195.165 682.933 195.165C690.571 195.165 697.52 193.484 703.783 190.12C710.045 186.604 715.162 181.712 719.134 175.444V192.872H748.919V20.8927H719.134V104.812C715.162 98.5439 710.045 93.7281 703.783 90.3647C697.52 86.8484 690.571 85.0902 682.933 85.0902C674.074 85.0902 665.75 87.2306 657.96 91.5113C650.322 95.792 644.136 102.06 639.401 110.316C634.666 118.419 632.299 128.356 632.299 140.128Z" fill="white"/>
<path d="M778.369 153.887L763.706 171.774C769.204 178.96 776.307 184.922 785.013 189.662C793.72 194.248 803.343 196.541 813.882 196.541C825.796 196.541 835.266 193.713 842.292 188.056C849.471 182.4 853.061 174.068 853.061 163.06C853.061 156.639 851.686 151.441 848.937 147.466C846.187 143.338 842.598 139.975 838.168 137.376C833.739 134.777 829.004 132.484 823.963 130.496C819.839 128.815 815.791 127.362 811.82 126.139C807.849 124.763 804.565 123.234 801.968 121.553C799.524 119.871 798.302 117.807 798.302 115.361C798.302 110.163 802.426 107.564 810.674 107.564C814.951 107.564 819.457 108.711 824.192 111.004C829.08 113.297 833.662 116.431 837.939 120.406L850.999 102.519C846.417 97.4737 840.383 93.3459 832.899 90.1354C825.567 86.7719 817.472 85.0902 808.612 85.0902C801.739 85.0902 795.476 86.3133 789.825 88.7594C784.173 91.2055 779.667 94.6454 776.307 99.079C772.947 103.513 771.266 108.634 771.266 114.444C771.266 121.018 772.717 126.445 775.62 130.726C778.522 134.853 782.264 138.217 786.846 140.816C791.429 143.415 796.164 145.632 801.052 147.466C807.009 149.759 812.278 152.129 816.861 154.575C821.596 156.868 823.963 160.003 823.963 163.977C823.963 169.787 819.839 172.692 811.591 172.692C807.314 172.692 802.273 170.934 796.469 167.417C790.665 163.901 784.631 159.391 778.369 153.887Z" fill="white"/>
<path d="M896.718 140.128C896.718 131.108 899.391 123.922 904.737 118.571C910.236 113.068 916.881 110.316 924.671 110.316C932.46 110.316 939.028 113.068 944.374 118.571C949.873 123.922 952.623 131.108 952.623 140.128C952.623 148.995 949.873 156.18 944.374 161.684C939.028 167.188 932.46 169.94 924.671 169.94C916.881 169.94 910.236 167.188 904.737 161.684C899.391 156.18 896.718 148.995 896.718 140.128ZM866.246 140.128C866.246 151.135 868.766 160.767 873.807 169.023C879 177.278 885.95 183.699 894.656 188.286C903.515 192.872 913.52 195.165 924.671 195.165C935.821 195.165 945.826 192.872 954.685 188.286C963.544 183.699 970.494 177.278 975.534 169.023C980.728 160.767 983.324 151.135 983.324 140.128C983.324 129.12 980.728 119.489 975.534 111.233C970.494 102.977 963.544 96.5564 954.685 91.9699C945.826 87.3835 935.821 85.0902 924.671 85.0902C913.52 85.0902 903.515 87.3835 894.656 91.9699C885.95 96.5564 879 102.977 873.807 111.233C868.766 119.489 866.246 129.12 866.246 140.128Z" fill="white"/>
<path d="M1157.72 125.451C1157.72 112.303 1155.04 102.289 1149.7 95.4098C1144.5 88.5301 1135.95 85.0902 1124.04 85.0902C1117.01 85.0902 1110.59 86.6955 1104.79 89.906C1099.14 93.1166 1094.48 97.4737 1090.81 102.977C1086.23 91.0526 1076.15 85.0902 1060.57 85.0902C1053.54 85.0902 1047.51 86.6955 1042.47 89.906C1037.43 93.1166 1033.46 97.3973 1030.56 102.748V87.3835H1001.69V192.872H1030.56V128.662C1030.56 121.935 1032.16 116.66 1035.37 112.838C1038.58 109.016 1043 107.105 1048.66 107.105C1054.46 107.105 1058.43 109.016 1060.57 112.838C1062.86 116.508 1064.01 121.782 1064.01 128.662V192.872H1094.02V128.662C1094.02 121.935 1095.63 116.66 1098.83 112.838C1102.04 109.016 1106.47 107.105 1112.12 107.105C1117.93 107.105 1121.97 109.016 1124.26 112.838C1126.56 116.508 1127.7 121.782 1127.7 128.662V192.872H1157.72V125.451Z" fill="white"/>
<path d="M1205.51 146.549H1285.7C1286 144.867 1286.16 143.415 1286.16 142.192C1286.16 140.816 1286.16 139.669 1286.16 138.752C1286.16 127.591 1283.87 118.036 1279.28 110.086C1274.85 102.137 1268.59 96.0213 1260.5 91.7406C1252.55 87.307 1243.39 85.0902 1233 85.0902C1218.03 85.0902 1205.58 89.1416 1195.66 97.2444C1185.73 105.194 1179.69 115.667 1177.56 128.662C1177.25 130.496 1177.02 132.407 1176.87 134.395C1176.72 136.229 1176.64 138.14 1176.64 140.128C1176.64 150.677 1179.08 160.155 1183.97 168.564C1189.01 176.82 1195.81 183.317 1204.36 188.056C1213.07 192.796 1222.92 195.165 1233.92 195.165C1243.69 195.165 1251.71 193.942 1257.98 191.496C1264.39 189.05 1269.66 185.687 1273.78 181.406C1278.06 177.125 1281.73 172.157 1284.78 166.5L1259.58 157.327C1257.14 162.066 1254 165.659 1250.19 168.105C1246.37 170.551 1241.4 171.774 1235.29 171.774C1227.81 171.774 1221.24 169.711 1215.59 165.583C1210.09 161.302 1206.73 154.957 1205.51 146.549ZM1206.2 127.744C1207.42 121.17 1210.4 116.125 1215.13 112.609C1219.87 108.94 1225.67 107.105 1232.54 107.105C1239.72 107.105 1245.3 108.94 1249.27 112.609C1253.39 116.278 1255.99 121.323 1257.06 127.744H1206.2Z" fill="white"/>
</g>
<defs>
<linearGradient id="paint0_linear" x1="124" y1="247" x2="124" y2="102.23" gradientUnits="userSpaceOnUse">
<stop stop-color="white" stop-opacity="0.95"/>
<stop offset="1" stop-color="white" stop-opacity="0.5"/>
</linearGradient>
<clipPath id="clip0">
<rect width="981" height="183" fill="white" transform="translate(311 14)"/>
</clipPath>
</defs>
</svg>
