<svg width="512" height="512" viewBox="0 0 512 512" fill="none" xmlns="http://www.w3.org/2000/svg">
<rect width="512" height="512" rx="256" fill="white"/>
<path d="M395.45 230.097C411.96 229.303 426.575 242.112 428.001 258.637C434.176 338.58 361.013 428.135 257.912 430.999C171.027 433.144 85.0957 363.583 85.0957 258.408C85.0957 241.832 98.7926 228.395 115.322 228.395C131.852 228.395 145.251 241.832 145.251 258.408C145.251 327.59 200.878 372.364 256.439 370.993C324.838 369.093 369.302 309.869 366.989 261.513C366.197 244.957 378.939 230.892 395.45 230.097Z" fill="url(#paint0_linear)"/>
<path d="M320.682 260.735C320.682 243.765 334.524 230.008 351.598 230.008H396.655C413.73 230.008 428 243.765 428 260.735C428 277.705 413.73 291.462 396.655 291.462H351.598C334.524 291.462 320.682 277.705 320.682 260.735Z" fill="#45C492"/>
<path d="M226.143 260.78C226.143 243.785 239.897 230.008 256.845 230.008C273.792 230.008 287.547 243.785 287.547 260.78C287.547 277.775 273.792 291.552 256.845 291.552C239.897 291.552 226.143 277.775 226.143 260.78Z" fill="#45C492"/>
<path fill-rule="evenodd" clip-rule="evenodd" d="M286.696 117.008C287.382 133.569 274.549 147.552 258.034 148.24C186.74 151.209 143.215 207.243 145.334 260.449C145.993 277.011 133.407 290.974 116.891 291.635C100.374 292.296 85.8498 278.93 85.1904 262.367C81.738 175.664 153.932 89.95 255.55 88.2667C272.066 87.5789 286.01 100.447 286.696 117.008Z" fill="#45C492"/>
<defs>
<linearGradient id="paint0_linear" x1="256.501" y1="431" x2="256.501" y2="271.41" gradientUnits="userSpaceOnUse">
<stop stop-color="#45C492"/>
<stop offset="1" stop-color="#1F9179"/>
</linearGradient>
</defs>
</svg>
