<svg width="512" height="512" viewBox="0 0 512 512" fill="none" xmlns="http://www.w3.org/2000/svg">
<rect width="512" height="512" rx="256" fill="#0D2538"/>
<path d="M395.45 227.097C411.96 226.303 426.575 239.112 428.001 255.637C434.176 335.58 361.013 425.135 257.912 427.999C171.027 430.144 85.0957 360.583 85.0957 255.408C85.0957 238.832 98.7926 225.395 115.322 225.395C131.852 225.395 145.251 238.832 145.251 255.408C145.251 324.59 200.878 369.364 256.439 367.993C324.838 366.093 369.302 306.869 366.989 258.513C366.197 241.957 378.939 227.892 395.45 227.097Z" fill="url(#paint0_linear)"/>
<path d="M320.682 257.735C320.682 240.765 334.524 227.008 351.598 227.008H396.655C413.73 227.008 428 240.765 428 257.735C428 274.705 413.73 288.462 396.655 288.462H351.598C334.524 288.462 320.682 274.705 320.682 257.735Z" fill="#45C492"/>
<path d="M226.143 257.78C226.143 240.785 239.897 227.008 256.845 227.008C273.792 227.008 287.547 240.785 287.547 257.78C287.547 274.775 273.792 288.552 256.845 288.552C239.897 288.552 226.143 274.775 226.143 257.78Z" fill="#45C492"/>
<path fill-rule="evenodd" clip-rule="evenodd" d="M286.696 114.008C287.382 130.569 274.549 144.552 258.034 145.24C186.74 148.209 143.215 204.243 145.334 257.449C145.993 274.011 133.407 287.974 116.891 288.635C100.374 289.296 85.8499 275.93 85.1904 259.367C81.738 172.664 153.932 86.95 255.55 85.2667C272.066 84.5789 286.01 97.4468 286.696 114.008Z" fill="#45C492"/>
<defs>
<linearGradient id="paint0_linear" x1="256.501" y1="428" x2="256.501" y2="279.605" gradientUnits="userSpaceOnUse">
<stop stop-color="#45C492"/>
<stop offset="1" stop-color="#1B8770"/>
</linearGradient>
</defs>
</svg>
