<svg width="1406" height="248" viewBox="0 0 1406 248" fill="none" xmlns="http://www.w3.org/2000/svg">
<path d="M170.405 124.39C170.405 112.169 180.413 102.263 192.759 102.263L225.336 102.263C237.682 102.263 248 112.169 248 124.39C248 136.61 237.682 146.517 225.336 146.517H192.759C180.413 146.517 170.405 136.61 170.405 124.39Z" fill="white"/>
<path d="M102.05 124.422C102.05 112.184 111.995 102.263 124.249 102.263C136.503 102.263 146.447 112.184 146.447 124.422C146.447 136.66 136.503 146.581 124.249 146.581C111.995 146.581 102.05 136.66 102.05 124.422Z" fill="white"/>
<path fill-rule="evenodd" clip-rule="evenodd" d="M145.832 20.8891C146.328 32.8151 137.05 42.8845 125.109 43.3798C73.5606 45.5179 42.0912 85.8691 43.623 124.183C44.0998 136.11 34.9994 146.165 23.0575 146.641C11.1157 147.117 0.614053 137.492 0.13723 125.565C-2.35895 63.1281 49.8396 1.40421 123.313 0.192027C135.254 -0.303252 145.336 8.96316 145.832 20.8891Z" fill="white"/>
<path fill-rule="evenodd" clip-rule="evenodd" d="M0.0698242 123.251C0.363169 198.689 62.3487 248.54 125.02 247C199.001 244.362 252.444 180.175 248 122.879C246.97 110.978 236.402 101.755 224.465 102.327C212.527 102.899 203.314 113.027 203.886 124.95C205.559 159.772 173.41 202.419 123.956 203.788C84.673 204.753 45.3446 173.945 43.6221 125.997C43.162 137.113 34.389 146.189 23.0577 146.641C11.1158 147.117 0.614181 137.492 0.137357 125.565C0.10652 124.794 0.0840299 124.022 0.0698242 123.251Z" fill="url(#paint0_linear)"/>
<path d="M423.539 137.723H448.207C446.363 144.587 443.455 150.808 439.484 156.385C435.654 161.819 430.619 166.181 424.378 169.47C418.137 172.759 410.548 174.404 401.612 174.404C391.825 174.404 382.959 172.116 375.016 167.54C367.215 162.964 361.045 156.6 356.506 148.448C351.967 140.154 349.697 130.573 349.697 119.704C349.697 108.693 351.967 99.1828 356.506 91.1745C361.187 83.0232 367.428 76.7309 375.229 72.2977C383.172 67.8645 391.966 65.6479 401.612 65.6479C411.966 65.6479 420.761 67.793 427.995 72.0832C435.37 76.3734 441.115 82.0936 445.229 89.2439L465.654 75.3008C459.129 64.8614 450.406 56.7101 439.484 50.8468C428.704 44.9836 416.08 42.0519 401.612 42.0519C390.406 42.0519 379.981 43.9825 370.335 47.8437C360.832 51.5618 352.534 56.8531 345.442 63.7174C338.492 70.5816 333.031 78.8045 329.059 88.3859C325.229 97.8243 323.314 108.264 323.314 119.704C323.314 131.145 325.229 141.656 329.059 151.237C332.889 160.818 338.279 169.113 345.229 176.12C352.321 183.127 360.619 188.562 370.123 192.423C379.626 196.141 389.981 198 401.186 198C413.101 198 423.668 195.855 432.888 191.565C442.108 187.132 449.838 181.125 456.08 173.546C462.321 165.967 467.001 157.315 470.122 147.59C473.243 137.723 474.661 127.284 474.377 116.272H423.539V137.723Z" fill="white"/>
<path d="M525.024 137.937H540.343L578.002 194.782H608.427L566.3 135.149C576.654 132.003 584.739 126.64 590.555 119.061C596.512 111.481 599.491 102.257 599.491 91.389C599.491 81.9506 597.222 73.7278 592.683 66.7205C588.286 59.7132 582.044 54.279 573.959 50.4178C566.016 46.5566 556.655 44.626 545.874 44.626H499.917V194.782H525.024V137.937ZM525.024 117.13V66.506H544.811C553.463 66.506 560.413 68.7226 565.662 73.1557C570.91 77.5889 573.534 83.8097 573.534 91.818C573.534 99.8264 570.91 106.047 565.662 110.48C560.413 114.914 553.463 117.13 544.811 117.13H525.024Z" fill="white"/>
<path d="M626.454 44.626V194.782H651.986V44.626H626.454Z" fill="white"/>
<path d="M733.132 194.782C748.309 194.782 761.643 191.708 773.132 185.558C784.621 179.266 793.557 170.543 799.94 159.388C806.465 148.091 809.727 134.863 809.727 119.704C809.727 104.546 806.465 91.389 799.94 80.2345C793.557 68.9371 784.621 60.2137 773.132 54.0644C761.643 47.7722 748.309 44.626 733.132 44.626H685.047V194.782H733.132ZM710.579 170.972V68.4365H732.494C742.281 68.4365 751.004 70.3671 758.664 74.2283C766.465 78.0895 772.565 83.8097 776.962 91.389C781.501 98.9683 783.77 108.407 783.77 119.704C783.77 131.002 781.501 140.44 776.962 148.019C772.565 155.599 766.465 161.319 758.664 165.18C751.004 169.041 742.281 170.972 732.494 170.972H710.579Z" fill="white"/>
<path d="M844.87 144.158L825.721 156.814C830.402 169.113 837.707 179.052 847.636 186.631C857.707 194.21 869.125 198 881.891 198C897.778 198 910.047 194.067 918.699 186.202C927.352 178.194 931.678 167.325 931.678 153.597C931.678 144.73 929.763 137.365 925.933 131.502C922.104 125.496 917.281 120.705 911.465 117.13C905.792 113.412 899.976 110.48 894.019 108.335C888.061 106.047 882.459 103.759 877.21 101.471C871.962 99.1828 867.707 96.5372 864.444 93.5341C861.324 90.531 859.764 86.8843 859.764 82.5941C859.764 77.1599 861.679 72.8697 865.508 69.7236C869.48 66.4345 874.728 64.7899 881.253 64.7899C888.487 64.7899 894.302 66.935 898.7 71.2252C903.239 75.5153 907.068 80.6636 910.189 86.6698L929.763 74.4428C927.777 69.2946 924.657 64.2894 920.402 59.4272C916.146 54.422 910.685 50.2748 904.019 46.9856C897.352 43.6965 889.48 42.0519 880.402 42.0519C871.466 42.0519 863.452 43.6965 856.359 46.9856C849.409 50.1318 843.877 54.6365 839.764 60.4997C835.65 66.363 833.594 73.2988 833.594 81.3071C833.594 88.0284 834.87 93.8916 837.423 98.8968C839.977 103.759 843.239 107.906 847.211 111.338C851.182 114.771 855.366 117.631 859.764 119.919C864.303 122.064 868.416 123.851 872.104 125.281C877.778 127.427 883.097 129.715 888.061 132.146C893.168 134.434 897.281 137.365 900.402 140.941C903.664 144.516 905.295 149.092 905.295 154.669C905.295 161.104 903.38 166.11 899.551 169.685C895.863 173.26 890.26 175.048 882.742 175.048C874.09 175.048 866.785 172.33 860.827 166.896C854.87 161.462 849.551 153.883 844.87 144.158Z" fill="white"/>
<path d="M948.934 119.704C948.934 130.859 950.848 141.227 954.678 150.808C958.508 160.246 963.898 168.541 970.848 175.691C977.799 182.698 985.955 188.204 995.316 192.208C1004.68 196.069 1014.96 198 1026.17 198C1037.37 198 1047.66 196.069 1057.02 192.208C1066.52 188.204 1074.75 182.698 1081.7 175.691C1088.65 168.541 1094.04 160.246 1097.87 150.808C1101.7 141.227 1103.61 130.859 1103.61 119.704C1103.61 108.55 1101.7 98.2533 1097.87 88.8149C1094.04 79.2335 1088.58 71.0107 1081.49 64.1464C1074.54 57.1391 1066.31 51.7048 1056.81 47.8437C1047.44 43.9825 1037.23 42.0519 1026.17 42.0519C1015.1 42.0519 1004.89 43.9825 995.529 47.8437C986.167 51.7048 977.94 57.1391 970.848 64.1464C963.898 71.0107 958.508 79.2335 954.678 88.8149C950.848 98.2533 948.934 108.55 948.934 119.704ZM975.529 119.704C975.529 109.408 977.657 100.255 981.912 92.2471C986.309 84.0957 992.338 77.7319 999.997 73.1557C1007.66 68.5796 1016.38 66.2915 1026.17 66.2915C1036.1 66.2915 1044.82 68.5796 1052.34 73.1557C1060 77.7319 1065.95 84.0957 1070.21 92.2471C1074.61 100.255 1076.81 109.408 1076.81 119.704C1076.81 130.001 1074.61 139.225 1070.21 147.376C1065.95 155.384 1060 161.676 1052.34 166.253C1044.82 170.829 1036.1 173.117 1026.17 173.117C1016.38 173.117 1007.66 170.829 999.997 166.253C992.338 161.676 986.309 155.384 981.912 147.376C977.657 139.225 975.529 130.001 975.529 119.704Z" fill="white"/>
<path d="M1155.69 112.339L1201.01 180.839L1246.33 112.554L1256.54 194.782H1282.71L1262.28 46.0561L1201.01 130.072L1139.94 46.0561L1119.52 194.782H1145.48L1155.69 112.339Z" fill="white"/>
<path d="M1331.81 125.281H1393.52V103.402H1331.81V66.935H1397.77V44.626H1307.13V194.782H1397.77V172.473H1331.81V125.281Z" fill="white"/>
<defs>
<linearGradient id="paint0_linear" x1="124" y1="247" x2="124" y2="102.23" gradientUnits="userSpaceOnUse">
<stop stop-color="white" stop-opacity="0.95"/>
<stop offset="1" stop-color="white" stop-opacity="0.5"/>
</linearGradient>
</defs>
</svg>
