<svg width="1236" height="248" viewBox="0 0 1236 248" fill="none" xmlns="http://www.w3.org/2000/svg">
<path opacity="0.6" fill-rule="evenodd" clip-rule="evenodd" d="M127.028 246.858C201.009 244.221 252.444 180.175 248 122.879C246.97 110.979 236.402 101.755 224.465 102.327C212.527 102.899 203.314 113.028 203.887 124.95C205.559 159.772 174.229 202.315 124.775 203.683C124.174 203.7 123.579 203.741 122.992 203.805C123.313 203.802 123.635 203.796 123.956 203.788C135.904 203.494 145.828 212.929 146.122 224.862C146.399 236.118 138.009 245.575 127.028 246.858Z" fill="url(#paint0_linear)"/>
<path d="M170.405 124.39C170.405 112.169 180.413 102.263 192.759 102.263L225.336 102.263C237.682 102.263 248 112.169 248 124.39C248 136.61 237.682 146.517 225.336 146.517H192.759C180.413 146.517 170.405 136.61 170.405 124.39Z" fill="white"/>
<path d="M102.05 124.422C102.05 112.184 111.995 102.263 124.249 102.263C136.503 102.263 146.447 112.184 146.447 124.422C146.447 136.66 136.503 146.581 124.249 146.581C111.995 146.581 102.05 136.66 102.05 124.422Z" fill="white"/>
<path fill-rule="evenodd" clip-rule="evenodd" d="M145.832 20.8891C146.328 32.8151 137.05 42.8845 125.109 43.3798C73.5606 45.5179 42.0912 85.8691 43.623 124.183C44.0998 136.11 34.9994 146.165 23.0575 146.641C11.1157 147.117 0.614053 137.492 0.13723 125.565C-2.35895 63.1281 49.8396 1.40421 123.313 0.192027C135.254 -0.303252 145.336 8.96316 145.832 20.8891Z" fill="white"/>
<path opacity="0.7" fill-rule="evenodd" clip-rule="evenodd" d="M0.0698242 123.253C0.364167 198.69 62.3492 248.54 125.02 247C136.968 246.706 146.415 236.795 146.121 224.862C145.827 212.929 135.903 203.494 123.956 203.788C84.6728 204.753 45.3443 173.945 43.622 125.997C43.1621 137.113 34.3891 146.189 23.0576 146.641C11.1158 147.117 0.614143 137.492 0.13732 125.565C0.10651 124.794 0.084032 124.024 0.0698242 123.253Z" fill="url(#paint1_linear)"/>
<path d="M572.994 50.0619C566.396 50.0619 561.449 55.0308 561.449 61.6559C561.449 68.2811 566.396 73.2499 572.758 73.2499C579.12 73.2499 584.303 68.2811 584.303 61.8925C584.303 55.2674 579.355 50.0619 572.994 50.0619Z" fill="white"/>
<path fill-rule="evenodd" clip-rule="evenodd" d="M411.02 114.256H468.45L468.571 115.948C468.811 119.325 468.811 123.631 468.811 125.054V125.068C468.811 146.477 463.995 161.558 452.164 176.591L452.16 176.596L452.157 176.6C436.741 195.951 415.958 206.154 391.59 206.154C345.732 206.154 312.249 170.944 312.249 122.938C312.249 74.2379 345.482 39.0134 391.59 39.0134C415.948 39.0134 436.971 49.2079 452.159 68.3329L453.277 69.7413L435.685 84.0424L434.525 82.7429C428.406 75.8887 425.709 73.2033 421.676 70.5032L421.644 70.4816L421.613 70.4587C413.221 64.3094 402.529 60.8739 391.59 60.8739C360.26 60.8739 336.158 87.3181 336.158 122.702C336.158 157.623 360.269 184.293 391.119 184.293C407.982 184.293 425.552 175.337 434.857 161.891L434.874 161.867L434.891 161.844C440.452 154.326 442.803 147.231 444.422 134.933H411.02V114.256ZM488.811 90.5948H510.365V102.938C512.347 99.5479 514.416 97.2677 517.311 95.0063C523.1 90.4568 531.055 87.992 539.172 87.992H545.236V110.096L543.185 109.838C541.428 109.618 539.65 109.616 538.465 109.616C529.411 109.616 521.496 113.81 516.416 121.352L516.411 121.359L516.407 121.365C511.977 127.816 510.365 133.796 510.365 146.126V203.314H488.811V90.5948ZM583.535 90.5948V203.314H561.981V90.5948H583.535ZM691.109 104.062C680.899 93.0311 669.038 87.992 654.055 87.992C623.389 87.992 601.103 113.635 601.103 147.546C601.103 181.498 622.955 205.917 654.055 205.917C662.551 205.917 669.874 204.268 676.493 200.634C681.797 197.722 686.572 193.577 691.109 188.122V203.314H712.662V41.8527H691.109V104.062ZM811.669 124.049H790.03V121.046C790.03 116.499 788.211 112.889 785.036 110.375C781.818 107.827 777.071 106.303 771.119 106.303C765.404 106.303 760.956 107.767 757.978 110.16C755.039 112.521 753.386 115.895 753.386 120.099C753.386 122.324 753.665 124.052 754.282 125.496C754.888 126.914 755.871 128.174 757.467 129.386C760.772 131.895 766.504 134.069 776.315 136.799C790.295 140.607 797.983 144.258 803.513 149.812C809.273 155.595 812.762 163.865 812.762 172.39C812.762 182.395 808.633 190.839 801.434 196.748C794.266 202.633 784.166 205.917 772.297 205.917C759.661 205.917 749.533 202.957 742.297 196.949C735.034 190.917 730.927 182.018 729.954 170.653L729.785 168.677H751.099L751.257 170.324C751.811 176.105 753.939 180.35 757.35 183.174C760.785 186.018 765.744 187.606 772.297 187.606C778.123 187.606 782.754 186.086 785.887 183.595C788.982 181.134 790.737 177.639 790.737 173.337C790.737 171.168 790.386 169.375 789.66 167.823C788.937 166.278 787.794 164.871 786.06 163.542C782.52 160.828 776.655 158.533 767.37 156.172L767.356 156.169L767.342 156.165C755.437 152.937 746.556 148.752 740.641 143.093C734.651 137.363 731.832 130.246 731.832 121.519C731.832 111.524 735.894 103.081 743.003 97.1684C750.084 91.279 760.069 87.992 771.826 87.992C783.668 87.992 793.383 91.0269 800.283 96.9173C807.21 102.83 811.091 111.442 811.581 122.145L811.669 124.049ZM957.339 90.5948H978.893V101.928C982.176 97.8241 985.7 94.6677 989.651 92.4039C994.99 89.3448 1000.97 87.992 1007.94 87.992C1015.62 87.992 1022.07 89.6471 1027.28 93.1878C1031.62 96.1389 1034.98 100.319 1037.47 105.682C1041.14 100.077 1045.32 95.8535 1050.34 92.9405C1056.26 89.5127 1063.2 87.992 1071.55 87.992C1084.42 87.992 1094.48 92.1509 1100.58 100.31C1103.31 103.926 1105.08 107.416 1106.14 112.255C1107.19 117.016 1107.54 123.04 1107.54 131.693V203.314H1085.99V135.952C1085.99 129.31 1085.87 125.359 1085.45 122.524C1085.04 119.796 1084.37 118.119 1083.17 116.044C1080.28 111.073 1073.92 107.723 1065.9 107.723C1058.45 107.723 1052.88 110.215 1049.14 114.802C1045.35 119.447 1043.22 126.49 1043.22 135.952V203.314H1021.66V136.189C1021.66 125.61 1020.71 120.554 1018.35 116.24L1018.34 116.209L1018.32 116.177C1015.65 110.812 1009.81 107.723 1002.28 107.723C994.86 107.723 989.099 110.372 985.158 115.11C981.181 119.892 978.893 127.004 978.893 136.189V203.314H957.339V90.5948ZM1235.59 154.572H1145.48C1145.92 158.123 1146.51 160.884 1147.37 163.324C1148.38 166.184 1149.81 168.682 1151.97 171.529L1151.98 171.542L1151.99 171.556C1158.71 180.785 1168.53 185.713 1179.73 185.713C1192.52 185.713 1204.62 178.716 1210.65 167.952L1211.42 166.587L1230.55 173.757L1229.67 175.559C1220.39 194.434 1201.12 205.917 1179.73 205.917C1146.4 205.917 1122.53 181.395 1122.53 147.309C1122.53 112.792 1146.12 87.992 1179.02 87.992C1211.63 87.992 1235.98 112.73 1235.98 145.653V145.675C1235.98 147.093 1235.98 150.232 1235.74 152.915L1235.59 154.572ZM559.625 61.6559C559.625 54.035 565.38 48.2412 572.994 48.2412C580.444 48.2412 586.127 54.3456 586.127 61.8925C586.127 69.3257 580.087 75.0706 572.758 75.0706C565.355 75.0706 559.625 69.252 559.625 61.6559ZM681.764 118.556C675.929 111.692 667.663 107.723 657.825 107.723C647.623 107.723 639.121 111.76 633.143 118.712C627.147 125.686 623.599 135.709 623.599 147.783C623.599 159.374 627.083 169.106 632.91 175.91C638.72 182.693 646.932 186.659 656.647 186.659C676.394 186.659 691.109 170.195 691.109 147.309C691.109 135.351 687.618 125.443 681.764 118.556ZM843.581 104.366C853.735 93.9535 868.124 87.992 885.06 87.992C918.191 87.992 941.782 112.787 941.782 147.309C941.782 180.223 916.496 205.917 884.353 205.917C867.749 205.917 853.537 199.822 843.481 189.324C833.43 178.832 827.631 164.049 827.631 146.836C827.631 129.506 833.43 114.775 843.581 104.366ZM910.179 118.8C904.158 112.085 895.536 108.196 885.06 108.196C874.336 108.196 865.534 112.094 859.4 118.812C853.251 125.545 849.656 135.254 849.656 147.073C849.656 158.77 853.249 168.421 859.37 175.127C865.478 181.818 874.223 185.713 884.824 185.713C905.097 185.713 919.757 169.898 919.757 147.073C919.757 135.246 916.216 125.532 910.179 118.8ZM1145.83 137.681H1213.06C1212.3 130.668 1210.71 126.568 1207.46 121.869C1200.97 113.121 1190.45 107.723 1179.02 107.723C1167.59 107.723 1157.34 113.114 1151.33 122.041C1148.49 126.527 1147.11 130.445 1145.83 137.681ZM572.994 50.0619C566.396 50.0619 561.449 55.0308 561.449 61.6559C561.449 68.2811 566.396 73.2499 572.758 73.2499C579.12 73.2499 584.303 68.2811 584.303 61.8925C584.303 55.2674 579.355 50.0619 572.994 50.0619Z" fill="white"/>
<defs>
<linearGradient id="paint0_linear" x1="238.039" y1="148.886" x2="-111.408" y2="242.94" gradientUnits="userSpaceOnUse">
<stop stop-color="white" stop-opacity="0.89"/>
<stop offset="1" stop-color="white" stop-opacity="0.51"/>
</linearGradient>
<linearGradient id="paint1_linear" x1="116.1" y1="212.182" x2="-68.95" y2="11.6044" gradientUnits="userSpaceOnUse">
<stop stop-color="white"/>
<stop offset="1" stop-color="white" stop-opacity="0.8"/>
</linearGradient>
</defs>
</svg>
