<svg width="512" height="512" viewBox="0 0 512 512" fill="none" xmlns="http://www.w3.org/2000/svg">
<rect width="512" height="512" rx="256" fill="#0D2538"/>
<path d="M323.368 255.735C323.368 238.765 337.25 225.008 354.375 225.008H399.563C416.688 225.008 431 238.765 431 255.735C431 272.705 416.688 286.462 399.563 286.462H354.375C337.25 286.462 323.368 272.705 323.368 255.735Z" fill="white"/>
<path d="M228.554 255.78C228.554 238.785 242.348 225.008 259.345 225.008C276.342 225.008 290.137 238.785 290.137 255.78C290.137 272.775 276.342 286.552 259.345 286.552C242.348 286.552 228.554 272.775 228.554 255.78Z" fill="white"/>
<path fill-rule="evenodd" clip-rule="evenodd" d="M289.284 112.008C289.971 128.569 277.102 142.552 260.538 143.24C189.036 146.209 145.385 202.243 147.51 255.449C148.171 272.011 135.548 285.974 118.983 286.635C102.419 287.296 87.8521 273.93 87.1907 257.367C83.7283 170.664 156.133 84.95 258.047 83.2667C274.611 82.5789 288.596 95.4468 289.284 112.008Z" fill="white"/>
<path fill-rule="evenodd" clip-rule="evenodd" d="M87.0967 254.154C87.5034 358.913 173.483 428.138 260.415 425.999C363.033 422.337 437.165 333.203 431 253.637C429.57 237.112 414.913 224.303 398.354 225.097C381.795 225.892 369.016 239.957 369.81 256.513C372.13 304.869 327.536 364.092 258.938 365.993C204.449 367.333 149.897 324.551 147.508 257.968C146.87 273.404 134.701 286.008 118.983 286.635C102.419 287.296 87.8518 273.93 87.1904 257.367C87.1476 256.296 87.1164 255.225 87.0967 254.154Z" fill="url(#paint0_linear)"/>
<defs>
<linearGradient id="paint0_linear" x1="259" y1="426" x2="259" y2="224.964" gradientUnits="userSpaceOnUse">
<stop stop-color="white" stop-opacity="0.95"/>
<stop offset="1" stop-color="white" stop-opacity="0.5"/>
</linearGradient>
</defs>
</svg>
