<svg width="1289" height="245" viewBox="0 0 1289 245" fill="none" xmlns="http://www.w3.org/2000/svg">
<path d="M221.494 101.381C233.274 100.815 243.701 109.953 244.718 121.743C249.124 178.78 196.925 242.674 123.366 244.717C61.3771 246.247 0.0683594 196.619 0.0683594 121.58C0.0683594 109.754 9.84059 100.167 21.6338 100.167C33.427 100.167 42.9873 109.754 42.9873 121.58C42.9873 170.939 82.675 202.883 122.316 201.905C171.115 200.549 202.839 158.295 201.189 123.795C200.623 111.983 209.715 101.948 221.494 101.381Z" fill="url(#paint0_linear)"/>
<path d="M168.15 123.24C168.15 111.133 178.026 101.318 190.208 101.318L222.354 101.318C234.537 101.318 244.718 111.133 244.718 123.24C244.718 135.348 234.537 145.163 222.354 145.163H190.208C178.026 145.163 168.15 135.348 168.15 123.24Z" fill="#00A672"/>
<path d="M100.7 123.272C100.7 111.147 110.513 101.318 122.604 101.318C134.696 101.318 144.509 111.147 144.509 123.272C144.509 135.397 134.696 145.227 122.604 145.227C110.513 145.227 100.7 135.397 100.7 123.272Z" fill="#00A672"/>
<path fill-rule="evenodd" clip-rule="evenodd" d="M143.902 20.6961C144.392 32.5119 135.236 42.4882 123.453 42.9789C72.5875 45.0972 41.5346 85.0757 43.0461 123.036C43.5166 134.852 34.5367 144.814 22.7528 145.286C10.969 145.758 0.606386 136.221 0.135873 124.405C-2.32727 62.5448 49.1805 1.39121 121.681 0.190226C133.464 -0.300477 143.413 8.88031 143.902 20.6961Z" fill="#00A672"/>
<g clip-path="url(#clip0)">
<path d="M408.102 134.495H449.305C447.219 142.221 443.929 149.224 439.436 155.502C435.103 161.618 429.405 166.528 422.344 170.231C415.283 173.933 406.697 175.784 396.587 175.784C385.513 175.784 375.483 173.209 366.496 168.057C357.67 162.906 350.688 155.743 345.553 146.568C340.418 137.231 337.85 126.446 337.85 114.212C337.85 101.817 340.418 91.1123 345.553 82.0978C350.849 72.9223 357.91 65.8395 366.737 60.8493C375.724 55.8591 385.674 53.3641 396.587 53.3641C408.302 53.3641 418.252 55.7787 426.437 60.6079C434.782 65.437 441.281 71.876 445.935 79.9246L469.045 64.2297C461.663 52.4787 451.793 43.3032 439.436 36.7034C427.239 30.1035 412.956 26.8035 396.587 26.8035C383.909 26.8035 372.113 28.9766 361.2 33.3229C350.448 37.5082 341.06 43.4642 333.035 51.1909C325.172 58.9176 318.993 68.1736 314.5 78.9588C310.167 89.583 308 101.334 308 114.212C308 127.09 310.167 138.921 314.5 149.706C318.833 160.492 324.931 169.828 332.795 177.716C340.819 185.604 350.207 191.72 360.959 196.067C371.712 200.252 383.427 202.345 396.105 202.345C409.586 202.345 421.542 199.93 431.973 195.101C442.405 190.111 451.151 183.35 458.212 174.818C465.273 166.287 470.569 156.548 474.1 145.602C477.631 134.495 479.235 122.743 478.914 110.349H411.539L408.102 134.495Z" fill="white"/>
<path d="M557.159 115.661L569.918 93.4464C567.35 90.5489 564.301 88.4562 560.77 87.1684C557.24 85.8806 553.468 85.2367 549.456 85.2367C544.802 85.2367 540.228 86.6855 535.735 89.583C531.241 92.3196 527.39 96.1829 524.18 101.173V87.6514H498.423V198.723H524.18V136.185C524.18 128.136 525.624 121.697 528.513 116.868C531.402 112.039 536.056 109.624 542.475 109.624C545.685 109.624 548.333 110.188 550.419 111.314C552.505 112.28 554.752 113.729 557.159 115.661Z" fill="white"/>
<path d="M582.945 87.6514V198.723H608.462V87.6514H582.945ZM579.334 46.9105C579.334 51.4178 580.939 55.2007 584.149 58.2592C587.358 61.3176 591.21 62.8469 595.704 62.8469C600.358 62.8469 604.289 61.3176 607.499 58.2592C610.709 55.2007 612.314 51.4178 612.314 46.9105C612.314 42.4033 610.709 38.6204 607.499 35.5619C604.289 32.5034 600.358 30.9742 595.704 30.9742C591.21 30.9742 587.358 32.5034 584.149 35.5619C580.939 38.6204 579.334 42.4033 579.334 46.9105Z" fill="white"/>
<path d="M652.116 143.187C652.116 132.08 655.406 123.468 661.986 117.351C668.566 111.073 676.349 107.934 685.336 107.934C690.311 107.934 695.206 109.302 700.021 112.039C704.835 114.775 708.847 118.8 712.057 124.112C715.266 129.263 716.871 135.621 716.871 143.187C716.871 150.753 715.266 157.192 712.057 162.504C708.847 167.655 704.835 171.599 700.021 174.335C695.206 177.072 690.311 178.44 685.336 178.44C676.349 178.44 668.566 175.382 661.986 169.265C655.406 162.987 652.116 154.294 652.116 143.187ZM625.155 143.187C625.155 155.421 627.643 165.884 632.618 174.577C637.593 183.108 644.172 189.708 652.357 194.377C660.542 198.884 669.449 201.137 679.078 201.137C687.102 201.137 694.323 199.367 700.743 195.825C707.323 192.123 712.699 186.972 716.871 180.372V198.723H743.11V18.3108H716.871V106.002C712.699 99.4024 707.323 94.3317 700.743 90.7903C694.323 87.0879 687.102 85.2367 679.078 85.2367C669.449 85.2367 660.542 87.5709 652.357 92.2391C644.172 96.7463 637.593 103.346 632.618 112.039C627.643 120.57 625.155 130.953 625.155 143.187Z" fill="white"/>
<path d="M772.658 158.641L757.493 173.37C762.628 181.579 769.449 188.421 777.954 193.894C786.62 199.367 796.33 202.103 807.082 202.103C818.797 202.103 828.346 199.286 835.728 193.652C843.271 187.857 847.042 179.084 847.042 167.333C847.042 160.733 845.598 155.341 842.709 151.155C839.821 146.97 836.049 143.509 831.395 140.772C826.741 137.875 821.766 135.38 816.47 133.287C812.298 131.517 808.045 129.907 803.712 128.458C799.539 127.009 796.089 125.319 793.361 123.387C790.632 121.456 789.268 118.961 789.268 115.902C789.268 112.522 790.552 110.107 793.12 108.658C795.848 107.049 799.459 106.244 803.953 106.244C808.446 106.244 813.1 107.532 817.915 110.107C822.89 112.683 827.223 115.983 830.914 120.007L845.357 105.036C841.185 99.4024 835.247 94.7342 827.544 91.0318C820.001 87.1684 811.736 85.2367 802.749 85.2367C796.169 85.2367 789.991 86.444 784.213 88.8586C778.436 91.2732 773.782 94.7342 770.251 99.2414C766.721 103.749 764.955 109.222 764.955 115.661C764.955 122.583 766.48 128.217 769.529 132.563C772.739 136.748 776.751 140.129 781.565 142.704C786.38 145.28 791.355 147.614 796.49 149.706C802.909 152.121 808.526 154.697 813.341 157.433C818.316 160.17 820.803 163.953 820.803 168.782C820.803 172.484 819.439 175.301 816.711 177.233C814.143 179.004 810.532 179.889 805.878 179.889C801.064 179.889 795.607 177.957 789.509 174.094C783.571 170.07 777.954 164.918 772.658 158.641Z" fill="white"/>
<path d="M884.632 143.187C884.632 132.724 887.762 124.273 894.021 117.834C900.44 111.395 908.304 108.175 917.612 108.175C927.08 108.175 934.944 111.395 941.203 117.834C947.462 124.273 950.591 132.724 950.591 143.187C950.591 153.489 947.462 161.94 941.203 168.54C934.944 174.979 927.08 178.199 917.612 178.199C908.304 178.199 900.44 174.979 894.021 168.54C887.762 161.94 884.632 153.489 884.632 143.187ZM857.912 143.187C857.912 154.616 860.48 164.677 865.615 173.37C870.911 182.062 878.053 188.903 887.04 193.894C896.187 198.723 906.378 201.137 917.612 201.137C929.006 201.137 939.197 198.723 948.184 193.894C957.171 188.903 964.232 182.062 969.367 173.37C974.663 164.677 977.311 154.616 977.311 143.187C977.311 131.758 974.663 121.697 969.367 113.005C964.232 104.312 957.171 97.5512 948.184 92.722C939.197 87.7318 929.006 85.2367 917.612 85.2367C906.378 85.2367 896.187 87.7318 887.04 92.722C878.053 97.5512 870.911 104.312 865.615 113.005C860.48 121.697 857.912 131.758 857.912 143.187Z" fill="white"/>
<path d="M1150.99 128.217C1150.99 114.212 1148.1 103.588 1142.32 96.3439C1136.55 88.9391 1127.64 85.2367 1115.6 85.2367C1108.22 85.2367 1101.48 87.0074 1095.38 90.5489C1089.28 93.9293 1084.39 98.678 1080.7 104.795C1075.72 91.7562 1065.13 85.2367 1048.92 85.2367C1041.7 85.2367 1035.44 86.927 1030.15 90.3074C1025.01 93.6878 1020.92 98.1951 1017.87 103.829V87.6514H992.352V198.723H1017.87V131.114C1017.87 123.709 1019.71 117.753 1023.41 113.246C1027.26 108.578 1032.71 106.244 1039.77 106.244C1046.52 106.244 1051.25 108.417 1053.98 112.763C1056.71 116.948 1058.07 123.065 1058.07 131.114V198.723H1084.31V131.114C1084.31 123.709 1086.15 117.753 1089.85 113.246C1093.7 108.578 1099.15 106.244 1106.21 106.244C1112.96 106.244 1117.69 108.417 1120.42 112.763C1123.31 116.948 1124.75 123.065 1124.75 131.114V198.723H1150.99V128.217Z" fill="white"/>
<path d="M1193.64 149.224H1281.99C1282.15 147.936 1282.23 146.648 1282.23 145.36C1282.39 144.072 1282.47 142.946 1282.47 141.98C1282.47 124.434 1275.09 110.59 1265.14 100.449C1255.35 90.3074 1241.87 85.2367 1224.7 85.2367C1208.81 85.2367 1195.89 89.5025 1185.94 98.0341C1176.15 106.566 1170.13 117.673 1167.89 131.356C1167.56 133.287 1167.32 135.219 1167.16 137.151C1167 139.082 1166.92 141.094 1166.92 143.187C1166.92 154.294 1169.25 164.275 1173.9 173.128C1178.56 181.821 1185.14 188.662 1193.64 193.652C1202.15 198.642 1212.1 201.137 1223.49 201.137C1237.29 201.137 1248.61 198.401 1257.43 192.928C1266.42 187.455 1276.05 180.211 1281.51 171.196L1256.47 162.021C1253.26 167.494 1249.01 171.84 1243.71 175.06C1238.58 178.118 1232.24 179.647 1224.7 179.647C1216.19 179.647 1209.13 177.152 1203.51 172.162C1197.9 167.011 1194.61 159.365 1193.64 149.224ZM1194.12 131.114C1195.25 122.904 1198.62 116.546 1204.23 112.039C1209.85 107.371 1216.59 105.036 1224.46 105.036C1232.8 105.036 1239.22 107.371 1243.71 112.039C1248.21 116.707 1250.94 123.065 1251.9 131.114H1194.12Z" fill="white"/>
</g>
<defs>
<linearGradient id="paint0_linear" x1="122.523" y1="100.167" x2="122.523" y2="244.752" gradientUnits="userSpaceOnUse">
<stop stop-color="#00583E"/>
<stop offset="1" stop-color="#00835C"/>
</linearGradient>
<clipPath id="clip0">
<rect width="981" height="183" fill="white" transform="translate(308 19)"/>
</clipPath>
</defs>
</svg>
