<svg width="1292" height="245" viewBox="0 0 1292 245" fill="none" xmlns="http://www.w3.org/2000/svg">
<path d="M221.494 101.381C233.274 100.815 243.701 109.953 244.718 121.743C249.124 178.78 196.925 242.674 123.366 244.717C61.3771 246.247 0.0683594 196.619 0.0683594 121.58C0.0683594 109.754 9.84059 100.167 21.6338 100.167C33.427 100.167 42.9873 109.754 42.9873 121.58C42.9873 170.939 82.675 202.883 122.316 201.905C171.115 200.549 202.839 158.295 201.189 123.795C200.623 111.983 209.715 101.948 221.494 101.381Z" fill="url(#paint0_linear)"/>
<path d="M168.15 123.24C168.15 111.133 178.026 101.318 190.208 101.318L222.354 101.318C234.537 101.318 244.718 111.133 244.718 123.24C244.718 135.348 234.537 145.163 222.354 145.163H190.208C178.026 145.163 168.15 135.348 168.15 123.24Z" fill="#00A672"/>
<path d="M100.7 123.272C100.7 111.147 110.513 101.318 122.604 101.318C134.696 101.318 144.509 111.147 144.509 123.272C144.509 135.397 134.696 145.227 122.604 145.227C110.513 145.227 100.7 135.397 100.7 123.272Z" fill="#00A672"/>
<path fill-rule="evenodd" clip-rule="evenodd" d="M143.902 20.6961C144.392 32.5119 135.236 42.4882 123.453 42.979C72.5875 45.0972 41.5346 85.0757 43.0461 123.036C43.5166 134.852 34.5367 144.814 22.7528 145.286C10.969 145.758 0.606388 136.221 0.135872 124.405C-2.32727 62.5448 49.1805 1.3912 121.681 0.190227C133.464 -0.300477 143.413 8.88031 143.902 20.6961Z" fill="#00A672"/>
<g clip-path="url(#clip0)">
<path d="M402.696 137.248H441.064C438.153 147.033 433.02 155.212 425.666 161.786C418.312 168.36 408.047 171.647 394.871 171.647C384.912 171.647 375.949 169.43 367.982 164.996C360.168 160.41 353.963 153.989 349.367 145.733C344.771 137.477 342.473 127.769 342.473 116.609C342.473 105.449 344.771 95.8935 349.367 87.9437C354.117 79.8409 360.475 73.6492 368.442 69.3685C376.409 64.9349 385.219 62.7181 394.871 62.7181C405.289 62.7181 413.946 64.9349 420.84 69.3685C427.888 73.8021 433.48 79.4587 437.617 86.3384L465.884 69.8271C458.53 58.6667 448.954 49.7995 437.157 43.2256C425.36 36.4988 411.264 33.1354 394.871 33.1354C378.171 33.1354 363.233 36.6517 350.057 43.6843C337.034 50.564 326.768 60.272 319.261 72.8083C311.754 85.3447 308 99.9449 308 116.609C308 133.273 311.677 147.95 319.031 160.639C326.385 173.328 336.497 183.266 349.367 190.451C362.39 197.484 377.252 201 393.952 201C407.281 201 419.078 198.63 429.343 193.891C439.609 189.152 448.188 182.654 455.083 174.399C461.977 166.143 467.11 156.588 470.481 145.733C473.851 134.878 475.307 123.336 474.847 111.105H402.696V137.248Z" fill="white"/>
<path d="M553.273 122.571L566.832 97.3459C564.841 94.594 562.083 92.5301 558.559 91.1542C555.035 89.7782 551.358 89.0903 547.528 89.0903C542.778 89.0903 538.182 90.4662 533.739 93.2181C529.295 95.97 525.465 99.7156 522.248 104.455V91.3835H492.831V196.872H522.248V141.147C522.248 133.503 523.703 127.54 526.614 123.259C529.525 118.826 533.815 116.609 539.484 116.609C542.548 116.609 545.076 117.144 547.068 118.214C549.213 119.285 551.281 120.737 553.273 122.571Z" fill="white"/>
<path d="M580.535 91.3835V196.872H609.492V91.3835H580.535ZM577.318 54.0103C577.318 58.7496 579.003 62.801 582.373 66.1644C585.897 69.3749 590.187 70.9802 595.243 70.9802C600.299 70.9802 604.513 69.3749 607.883 66.1644C611.407 62.801 613.169 58.7496 613.169 54.0103C613.169 49.1181 611.407 45.0667 607.883 41.8561C604.513 38.6456 600.299 37.0404 595.243 37.0404C590.187 37.0404 585.897 38.6456 582.373 41.8561C579.003 45.0667 577.318 49.1181 577.318 54.0103Z" fill="white"/>
<path d="M661.306 144.128C661.306 134.649 664.064 127.234 669.58 121.883C675.249 116.533 681.99 113.857 689.804 113.857C694.094 113.857 698.307 115.08 702.444 117.526C706.734 119.82 710.257 123.259 713.015 127.846C715.926 132.28 717.382 137.707 717.382 144.128C717.382 150.549 715.926 156.053 713.015 160.639C710.257 165.073 706.734 168.513 702.444 170.959C698.307 173.252 694.094 174.399 689.804 174.399C681.99 174.399 675.249 171.723 669.58 166.372C664.064 160.868 661.306 153.454 661.306 144.128ZM630.281 144.128C630.281 155.9 632.656 165.914 637.406 174.169C642.155 182.272 648.36 188.464 656.021 192.744C663.834 197.025 672.184 199.165 681.071 199.165C688.731 199.165 695.702 197.484 701.984 194.12C708.266 190.604 713.398 185.712 717.382 179.444V196.872H747.258V24.8927H717.382V108.812C713.398 102.544 708.266 97.7281 701.984 94.3647C695.702 90.8484 688.731 89.0903 681.071 89.0903C672.184 89.0903 663.834 91.2306 656.021 95.5113C648.36 99.792 642.155 106.06 637.406 114.316C632.656 122.419 630.281 132.356 630.281 144.128Z" fill="white"/>
<path d="M776.798 157.887L762.09 175.774C767.606 182.96 774.73 188.922 783.463 193.662C792.196 198.248 801.848 200.541 812.42 200.541C824.37 200.541 833.87 197.713 840.917 192.056C848.118 186.4 851.719 178.068 851.719 167.06C851.719 160.639 850.34 155.441 847.582 151.466C844.824 147.338 841.224 143.975 836.781 141.376C832.337 138.777 827.588 136.484 822.532 134.496C818.395 132.815 814.335 131.362 810.352 130.139C806.368 128.763 803.074 127.234 800.469 125.553C798.018 123.871 796.792 121.807 796.792 119.361C796.792 114.163 800.929 111.564 809.203 111.564C813.492 111.564 818.012 112.711 822.762 115.004C827.664 117.297 832.261 120.431 836.551 124.406L849.65 106.519C845.054 101.474 839.002 97.3459 831.495 94.1354C824.141 90.772 816.02 89.0903 807.134 89.0903C800.24 89.0903 793.958 90.3133 788.289 92.7595C782.62 95.2056 778.101 98.6454 774.73 103.079C771.359 107.513 769.674 112.634 769.674 118.444C769.674 125.018 771.129 130.445 774.04 134.726C776.952 138.853 780.705 142.217 785.302 144.816C789.898 147.415 794.647 149.632 799.55 151.466C805.525 153.759 810.811 156.129 815.408 158.575C820.157 160.868 822.532 164.003 822.532 167.977C822.532 173.787 818.395 176.692 810.122 176.692C805.832 176.692 800.776 174.934 794.954 171.417C789.132 167.901 783.08 163.391 776.798 157.887Z" fill="white"/>
<path d="M895.51 144.128C895.51 135.108 898.191 127.922 903.553 122.571C909.069 117.068 915.733 114.316 923.547 114.316C931.361 114.316 937.949 117.068 943.311 122.571C948.827 127.922 951.585 135.108 951.585 144.128C951.585 152.995 948.827 160.181 943.311 165.684C937.949 171.188 931.361 173.94 923.547 173.94C915.733 173.94 909.069 171.188 903.553 165.684C898.191 160.181 895.51 152.995 895.51 144.128ZM864.944 144.128C864.944 155.135 867.472 164.767 872.528 173.023C877.737 181.278 884.708 187.699 893.441 192.286C902.327 196.872 912.363 199.165 923.547 199.165C934.732 199.165 944.767 196.872 953.653 192.286C962.54 187.699 969.511 181.278 974.567 173.023C979.776 164.767 982.38 155.135 982.38 144.128C982.38 133.12 979.776 123.489 974.567 115.233C969.511 106.977 962.54 100.556 953.653 95.97C944.767 91.3835 934.732 89.0903 923.547 89.0903C912.363 89.0903 902.327 91.3835 893.441 95.97C884.708 100.556 877.737 106.977 872.528 115.233C867.472 123.489 864.944 133.12 864.944 144.128Z" fill="white"/>
<path d="M1157.31 129.451C1157.31 116.303 1154.62 106.29 1149.26 99.4098C1144.05 92.5301 1135.47 89.0903 1123.52 89.0903C1116.47 89.0903 1110.04 90.6955 1104.22 93.9061C1098.55 97.1166 1093.88 101.474 1090.2 106.977C1085.6 95.0527 1075.49 89.0903 1059.86 89.0903C1052.81 89.0903 1046.76 90.6955 1041.71 93.9061C1036.65 97.1166 1032.67 101.397 1029.76 106.748V91.3835H1000.8V196.872H1029.76V132.662C1029.76 125.935 1031.37 120.66 1034.58 116.838C1037.8 113.016 1042.24 111.105 1047.91 111.105C1053.73 111.105 1057.72 113.016 1059.86 116.838C1062.16 120.508 1063.31 125.782 1063.31 132.662V196.872H1093.42V132.662C1093.42 125.935 1095.02 120.66 1098.24 116.838C1101.46 113.016 1105.9 111.105 1111.57 111.105C1117.39 111.105 1121.45 113.016 1123.75 116.838C1126.05 120.508 1127.2 125.782 1127.2 132.662V196.872H1157.31V129.451Z" fill="white"/>
<path d="M1205.24 150.549H1285.68C1285.99 148.867 1286.14 147.415 1286.14 146.192C1286.14 144.816 1286.14 143.669 1286.14 142.752C1286.14 131.592 1283.84 122.036 1279.24 114.087C1274.8 106.137 1268.52 100.021 1260.4 95.7407C1252.43 91.3071 1243.24 89.0903 1232.82 89.0903C1217.81 89.0903 1205.32 93.1416 1195.36 101.244C1185.4 109.194 1179.35 119.667 1177.21 132.662C1176.9 134.496 1176.67 136.407 1176.52 138.395C1176.36 140.229 1176.29 142.14 1176.29 144.128C1176.29 154.677 1178.74 164.155 1183.64 172.564C1188.7 180.82 1195.51 187.317 1204.09 192.056C1212.83 196.796 1222.71 199.165 1233.74 199.165C1243.55 199.165 1251.59 197.942 1257.87 195.496C1264.31 193.05 1269.59 189.687 1273.73 185.406C1278.02 181.125 1281.7 176.157 1284.76 170.5L1259.48 161.327C1257.03 166.066 1253.89 169.659 1250.06 172.105C1246.23 174.551 1241.25 175.774 1235.12 175.774C1227.61 175.774 1221.02 173.711 1215.36 169.583C1209.84 165.302 1206.47 158.957 1205.24 150.549ZM1205.93 131.744C1207.16 125.17 1210.15 120.125 1214.9 116.609C1219.65 112.94 1225.47 111.105 1232.36 111.105C1239.56 111.105 1245.15 112.94 1249.14 116.609C1253.28 120.278 1255.88 125.323 1256.95 131.744H1205.93Z" fill="white"/>
</g>
<defs>
<linearGradient id="paint0_linear" x1="122.359" y1="244.718" x2="122.359" y2="138.843" gradientUnits="userSpaceOnUse">
<stop stop-color="#00A672"/>
<stop offset="1" stop-color="#006B4A"/>
</linearGradient>
<clipPath id="clip0">
<rect width="984" height="183" fill="white" transform="translate(308 18)"/>
</clipPath>
</defs>
</svg>
