<svg width="512" height="512" viewBox="0 0 512 512" fill="none" xmlns="http://www.w3.org/2000/svg">
<rect width="512" height="512" rx="256" fill="white"/>
<path d="M405.171 228.04C422.837 227.19 438.475 240.895 440 258.577C446.608 344.114 368.326 439.935 258.01 442.999C165.046 445.294 73.1016 370.866 73.1016 258.331C73.1016 240.596 87.7568 226.219 105.443 226.219C123.129 226.219 137.466 240.596 137.466 258.331C137.466 332.355 196.986 380.261 256.434 378.794C329.618 376.761 377.194 313.393 374.719 261.654C373.871 243.939 387.505 228.89 405.171 228.04Z" fill="url(#paint0_linear)"/>
<path d="M325.172 260.822C325.172 242.664 339.982 227.945 358.252 227.945H406.462C424.731 227.945 440 242.664 440 260.822C440 278.979 424.731 293.699 406.462 293.699H358.252C339.982 293.699 325.172 278.979 325.172 260.822Z" fill="#00A672"/>
<path d="M224.018 260.87C224.018 242.686 238.735 227.945 256.868 227.945C275.002 227.945 289.719 242.686 289.719 260.87C289.719 279.054 275.002 293.795 256.868 293.795C238.735 293.795 224.018 279.054 224.018 260.87Z" fill="#00A672"/>
<path fill-rule="evenodd" clip-rule="evenodd" d="M288.808 107.038C289.542 124.758 275.812 139.719 258.141 140.455C181.858 143.632 135.288 203.587 137.555 260.515C138.261 278.236 124.794 293.176 107.122 293.883C89.4496 294.591 73.9088 280.289 73.2032 262.568C69.5093 169.798 146.755 78.0864 255.483 76.2853C273.154 75.5494 288.074 89.3177 288.808 107.038Z" fill="#00A672"/>
<defs>
<linearGradient id="paint0_linear" x1="256.745" y1="226.219" x2="256.745" y2="443.051" gradientUnits="userSpaceOnUse">
<stop stop-color="#00583E"/>
<stop offset="1" stop-color="#00835C"/>
</linearGradient>
</defs>
</svg>
