<svg width="1292" height="248" viewBox="0 0 1292 248" fill="none" xmlns="http://www.w3.org/2000/svg">
<path fill-rule="evenodd" clip-rule="evenodd" d="M0.0698242 123.26C0.368024 198.693 62.3511 248.54 125.02 247C199.001 244.363 252.444 180.175 248 122.879C246.97 110.978 236.402 101.755 224.465 102.327C212.527 102.899 203.314 113.027 203.886 124.95C205.559 159.772 173.41 202.419 123.956 203.788C84.6725 204.753 45.3436 173.944 43.622 125.995C43.1628 137.112 34.3894 146.189 23.0575 146.641C11.1156 147.117 0.614015 137.492 0.137193 125.565C0.106474 124.797 0.0840387 124.028 0.0698242 123.26Z" fill="url(#paint0_linear)"/>
<path d="M102.05 124.422C102.05 112.184 111.995 102.263 124.249 102.263C136.503 102.263 146.447 112.184 146.447 124.422C146.447 136.66 136.503 146.581 124.249 146.581C111.995 146.581 102.05 136.66 102.05 124.422Z" fill="white"/>
<path d="M170.405 124.39C170.405 112.169 180.413 102.263 192.759 102.263L225.336 102.263C237.682 102.263 248 112.169 248 124.39C248 136.61 237.682 146.517 225.336 146.517H192.759C180.413 146.517 170.405 136.61 170.405 124.39Z" fill="white"/>
<path fill-rule="evenodd" clip-rule="evenodd" d="M145.832 20.8892C146.328 32.8151 137.05 42.8846 125.109 43.3798C73.5606 45.5179 42.0912 85.8692 43.623 124.183C44.0998 136.11 34.9994 146.165 23.0575 146.641C11.1157 147.117 0.614052 137.492 0.137236 125.565C-2.35896 63.1282 49.8396 1.40424 123.313 0.192061C135.254 -0.303218 145.336 8.96319 145.832 20.8892Z" fill="white"/>
<g clip-path="url(#clip0)">
<path d="M411.102 129.494H452.305C450.219 137.221 446.929 144.224 442.436 150.501C438.103 156.618 432.405 161.528 425.344 165.231C418.283 168.933 409.697 170.784 399.587 170.784C388.513 170.784 378.483 168.208 369.496 163.057C360.67 157.906 353.688 150.743 348.553 141.567C343.418 132.231 340.85 121.446 340.85 109.212C340.85 96.8169 343.418 86.1122 348.553 77.0977C353.849 67.9222 360.91 60.8394 369.737 55.8493C378.724 50.8591 388.674 48.364 399.587 48.364C411.302 48.364 421.252 50.7786 429.437 55.6078C437.782 60.437 444.281 66.8759 448.935 74.9246L472.045 59.2297C464.663 47.4786 454.793 38.3032 442.436 31.7033C430.239 25.1034 415.956 21.8034 399.587 21.8034C386.909 21.8034 375.113 23.9766 364.2 28.3228C353.448 32.5081 344.06 38.4642 336.035 46.1909C328.172 53.9176 321.993 63.1735 317.5 73.9587C313.167 84.583 311 96.334 311 109.212C311 122.09 313.167 133.921 317.5 144.706C321.833 155.492 327.931 164.828 335.795 172.716C343.819 180.603 353.207 186.72 363.959 191.067C374.712 195.252 386.427 197.345 399.105 197.345C412.586 197.345 424.542 194.93 434.973 190.101C445.405 185.111 454.151 178.35 461.212 169.818C468.273 161.287 473.569 151.548 477.1 140.602C480.631 129.494 482.235 117.743 481.914 105.348H414.539L411.102 129.494Z" fill="white"/>
<path d="M560.159 110.661L572.918 88.4463C570.35 85.5488 567.301 83.4561 563.77 82.1684C560.24 80.8806 556.468 80.2367 552.456 80.2367C547.802 80.2367 543.228 81.6854 538.735 84.583C534.241 87.3195 530.39 91.1829 527.18 96.173V82.6513H501.423V193.723H527.18V131.185C527.18 123.136 528.624 116.697 531.513 111.868C534.402 107.039 539.056 104.624 545.475 104.624C548.685 104.624 551.333 105.188 553.419 106.314C555.505 107.28 557.752 108.729 560.159 110.661Z" fill="white"/>
<path d="M585.945 82.6513V193.723H611.462V82.6513H585.945ZM582.334 41.9105C582.334 46.4177 583.939 50.2006 587.149 53.2591C590.358 56.3176 594.21 57.8468 598.704 57.8468C603.358 57.8468 607.289 56.3176 610.499 53.2591C613.709 50.2006 615.314 46.4177 615.314 41.9105C615.314 37.4032 613.709 33.6204 610.499 30.5619C607.289 27.5034 603.358 25.9741 598.704 25.9741C594.21 25.9741 590.358 27.5034 587.149 30.5619C583.939 33.6204 582.334 37.4032 582.334 41.9105Z" fill="white"/>
<path d="M655.116 138.187C655.116 127.08 658.406 118.468 664.986 112.351C671.566 106.073 679.349 102.934 688.336 102.934C693.311 102.934 698.206 104.302 703.021 107.039C707.835 109.775 711.847 113.8 715.057 119.112C718.266 124.263 719.871 130.621 719.871 138.187C719.871 145.753 718.266 152.192 715.057 157.504C711.847 162.655 707.835 166.599 703.021 169.335C698.206 172.072 693.311 173.44 688.336 173.44C679.349 173.44 671.566 170.382 664.986 164.265C658.406 157.987 655.116 149.294 655.116 138.187ZM628.155 138.187C628.155 150.421 630.643 160.884 635.618 169.577C640.593 178.108 647.172 184.708 655.357 189.376C663.542 193.884 672.449 196.137 682.078 196.137C690.102 196.137 697.323 194.367 703.743 190.825C710.323 187.123 715.699 181.972 719.871 175.372V193.723H746.11V13.3107H719.871V101.002C715.699 94.4023 710.323 89.3317 703.743 85.7903C697.323 82.0879 690.102 80.2367 682.078 80.2367C672.449 80.2367 663.542 82.5708 655.357 87.239C647.172 91.7463 640.593 98.3462 635.618 107.039C630.643 115.57 628.155 125.953 628.155 138.187Z" fill="white"/>
<path d="M775.658 153.64L760.493 168.369C765.628 176.579 772.449 183.42 780.954 188.894C789.62 194.367 799.33 197.103 810.082 197.103C821.797 197.103 831.346 194.286 838.728 188.652C846.271 182.857 850.042 174.084 850.042 162.333C850.042 155.733 848.598 150.34 845.709 146.155C842.821 141.97 839.049 138.509 834.395 135.772C829.741 132.875 824.766 130.38 819.47 128.287C815.298 126.516 811.045 124.907 806.712 123.458C802.539 122.009 799.089 120.319 796.361 118.387C793.632 116.456 792.268 113.961 792.268 110.902C792.268 107.522 793.552 105.107 796.12 103.658C798.848 102.049 802.459 101.244 806.953 101.244C811.446 101.244 816.1 102.531 820.915 105.107C825.89 107.683 830.223 110.983 833.914 115.007L848.357 100.036C844.185 94.4023 838.247 89.7341 830.544 86.0317C823.001 82.1684 814.736 80.2367 805.749 80.2367C799.169 80.2367 792.991 81.444 787.213 83.8586C781.436 86.2732 776.782 89.7341 773.251 94.2413C769.721 98.7486 767.955 104.222 767.955 110.661C767.955 117.582 769.48 123.217 772.529 127.563C775.739 131.748 779.751 135.129 784.565 137.704C789.38 140.28 794.355 142.614 799.49 144.706C805.909 147.121 811.526 149.697 816.341 152.433C821.316 155.17 823.803 158.953 823.803 163.782C823.803 167.484 822.439 170.301 819.711 172.233C817.143 174.004 813.532 174.889 808.878 174.889C804.064 174.889 798.607 172.957 792.509 169.094C786.571 165.07 780.954 159.918 775.658 153.64Z" fill="white"/>
<path d="M887.632 138.187C887.632 127.724 890.762 119.273 897.021 112.834C903.44 106.395 911.304 103.175 920.612 103.175C930.08 103.175 937.944 106.395 944.203 112.834C950.462 119.273 953.591 127.724 953.591 138.187C953.591 148.489 950.462 156.94 944.203 163.54C937.944 169.979 930.08 173.199 920.612 173.199C911.304 173.199 903.44 169.979 897.021 163.54C890.762 156.94 887.632 148.489 887.632 138.187ZM860.912 138.187C860.912 149.616 863.48 159.677 868.615 168.369C873.911 177.062 881.053 183.903 890.04 188.894C899.187 193.723 909.378 196.137 920.612 196.137C932.006 196.137 942.197 193.723 951.184 188.894C960.171 183.903 967.232 177.062 972.367 168.369C977.663 159.677 980.311 149.616 980.311 138.187C980.311 126.758 977.663 116.697 972.367 108.005C967.232 99.312 960.171 92.5511 951.184 87.7219C942.197 82.7318 932.006 80.2367 920.612 80.2367C909.378 80.2367 899.187 82.7318 890.04 87.7219C881.053 92.5511 873.911 99.312 868.615 108.005C863.48 116.697 860.912 126.758 860.912 138.187Z" fill="white"/>
<path d="M1153.99 123.217C1153.99 109.212 1151.1 98.5876 1145.32 91.3438C1139.55 83.9391 1130.64 80.2367 1118.6 80.2367C1111.22 80.2367 1104.48 82.0074 1098.38 85.5488C1092.28 88.9292 1087.39 93.6779 1083.7 99.7949C1078.72 86.7561 1068.13 80.2367 1051.92 80.2367C1044.7 80.2367 1038.44 81.9269 1033.15 85.3073C1028.01 88.6878 1023.92 93.195 1020.87 98.8291V82.6513H995.352V193.723H1020.87V126.114C1020.87 118.709 1022.71 112.753 1026.41 108.246C1030.26 103.578 1035.71 101.244 1042.77 101.244C1049.52 101.244 1054.25 103.417 1056.98 107.763C1059.71 111.948 1061.07 118.065 1061.07 126.114V193.723H1087.31V126.114C1087.31 118.709 1089.15 112.753 1092.85 108.246C1096.7 103.578 1102.15 101.244 1109.21 101.244C1115.96 101.244 1120.69 103.417 1123.42 107.763C1126.31 111.948 1127.75 118.065 1127.75 126.114V193.723H1153.99V123.217Z" fill="white"/>
<path d="M1196.64 144.223H1284.99C1285.15 142.936 1285.23 141.648 1285.23 140.36C1285.39 139.072 1285.47 137.946 1285.47 136.98C1285.47 119.434 1278.09 105.59 1268.14 95.4487C1258.35 85.3073 1244.87 80.2367 1227.7 80.2367C1211.81 80.2367 1198.89 84.5025 1188.94 93.034C1179.15 101.566 1173.13 112.673 1170.89 126.355C1170.56 128.287 1170.32 130.219 1170.16 132.151C1170 134.082 1169.92 136.094 1169.92 138.187C1169.92 149.294 1172.25 159.274 1176.9 168.128C1181.56 176.821 1188.14 183.662 1196.64 188.652C1205.15 193.642 1215.1 196.137 1226.49 196.137C1240.29 196.137 1251.61 193.401 1260.43 187.928C1269.42 182.455 1279.05 175.211 1284.51 166.196L1259.47 157.021C1256.26 162.494 1252.01 166.84 1246.71 170.06C1241.58 173.118 1235.24 174.647 1227.7 174.647C1219.19 174.647 1212.13 172.152 1206.51 167.162C1200.9 162.011 1197.61 154.365 1196.64 144.223ZM1197.12 126.114C1198.25 117.904 1201.62 111.546 1207.23 107.039C1212.85 102.37 1219.59 100.036 1227.46 100.036C1235.8 100.036 1242.22 102.37 1246.71 107.039C1251.21 111.707 1253.94 118.065 1254.9 126.114H1197.12Z" fill="white"/>
</g>
<defs>
<linearGradient id="paint0_linear" x1="129.668" y1="259.522" x2="129.668" y2="119.898" gradientUnits="userSpaceOnUse">
<stop stop-color="white" stop-opacity="0.95"/>
<stop offset="1" stop-color="white" stop-opacity="0.5"/>
</linearGradient>
<clipPath id="clip0">
<rect width="981" height="183" fill="white" transform="translate(311 14)"/>
</clipPath>
</defs>
</svg>
