<svg width="512" height="512" viewBox="0 0 512 512" fill="none" xmlns="http://www.w3.org/2000/svg">
<rect width="512" height="512" rx="256" fill="url(#paint0_linear)"/>
<path opacity="0.6" fill-rule="evenodd" clip-rule="evenodd" d="M260.2 427.803C362.818 424.141 434.165 335.203 428 255.638C426.571 239.112 411.913 226.303 395.354 227.098C378.796 227.892 366.016 241.957 366.81 258.514C369.13 306.869 325.672 365.948 257.075 367.848C256.241 367.871 255.417 367.928 254.603 368.017C255.048 368.012 255.493 368.004 255.939 367.993C272.511 367.585 286.277 380.687 286.685 397.258C287.069 412.889 275.431 426.022 260.2 427.803Z" fill="url(#paint1_linear)"/>
<path d="M320.368 257.735C320.368 240.765 334.25 227.008 351.375 227.008H396.563C413.688 227.008 428 240.765 428 257.735C428 274.705 413.688 288.462 396.563 288.462H351.375C334.25 288.462 320.368 274.705 320.368 257.735Z" fill="white"/>
<path d="M225.554 257.78C225.554 240.785 239.348 227.008 256.345 227.008C273.342 227.008 287.137 240.785 287.137 257.78C287.137 274.775 273.342 288.552 256.345 288.552C239.348 288.552 225.554 274.775 225.554 257.78Z" fill="white"/>
<path fill-rule="evenodd" clip-rule="evenodd" d="M286.284 114.008C286.971 130.569 274.102 144.552 257.538 145.24C186.036 148.209 142.385 204.243 144.51 257.449C145.171 274.011 132.548 287.974 115.983 288.635C99.4189 289.296 84.8521 275.93 84.1907 259.367C80.7283 172.664 153.133 86.95 255.047 85.2667C271.611 84.5789 285.596 97.4468 286.284 114.008Z" fill="white"/>
<path opacity="0.7" fill-rule="evenodd" clip-rule="evenodd" d="M84.0967 256.155C84.5034 360.913 170.483 430.139 257.415 428C273.988 427.592 287.092 413.828 286.684 397.258C286.277 380.687 272.511 367.585 255.938 367.993C201.449 369.333 146.897 326.551 144.508 259.968C143.87 275.404 131.701 288.007 115.983 288.635C99.4185 289.296 84.8518 275.93 84.1904 259.367C84.1476 258.296 84.1164 257.225 84.0967 256.155Z" fill="url(#paint2_linear)"/>
<defs>
<linearGradient id="paint0_linear" x1="-738.82" y1="309.611" x2="-26.6955" y2="927.904" gradientUnits="userSpaceOnUse">
<stop stop-color="#27A59B"/>
<stop offset="1" stop-color="#4BCB8F"/>
</linearGradient>
<linearGradient id="paint1_linear" x1="414.183" y1="291.753" x2="-70.6069" y2="422.086" gradientUnits="userSpaceOnUse">
<stop stop-color="white" stop-opacity="0.89"/>
<stop offset="1" stop-color="white" stop-opacity="0.51"/>
</linearGradient>
<linearGradient id="paint2_linear" x1="245.041" y1="379.648" x2="-11.9582" y2="101.403" gradientUnits="userSpaceOnUse">
<stop stop-color="white"/>
<stop offset="1" stop-color="white" stop-opacity="0.8"/>
</linearGradient>
</defs>
</svg>
