<svg width="249" height="248" viewBox="0 0 249 248" fill="none" xmlns="http://www.w3.org/2000/svg">
<path d="M170.405 124.39C170.405 112.169 180.413 102.263 192.759 102.263L225.336 102.263C237.682 102.263 248 112.169 248 124.39C248 136.61 237.682 146.517 225.336 146.517H192.759C180.413 146.517 170.405 136.61 170.405 124.39Z" fill="white"/>
<path d="M102.05 124.422C102.05 112.184 111.995 102.263 124.249 102.263C136.503 102.263 146.447 112.184 146.447 124.422C146.447 136.66 136.503 146.581 124.249 146.581C111.995 146.581 102.05 136.66 102.05 124.422Z" fill="white"/>
<path fill-rule="evenodd" clip-rule="evenodd" d="M145.832 20.8891C146.328 32.8151 137.05 42.8845 125.109 43.3798C73.5606 45.5179 42.0912 85.8691 43.623 124.183C44.0998 136.11 34.9994 146.165 23.0575 146.641C11.1157 147.117 0.614054 137.492 0.137225 125.565C-2.35895 63.1281 49.8396 1.40421 123.313 0.192026C135.254 -0.303252 145.336 8.96316 145.832 20.8891Z" fill="white"/>
<path fill-rule="evenodd" clip-rule="evenodd" d="M0.0698242 123.251C0.363169 198.689 62.3487 248.54 125.02 247C199.001 244.362 252.444 180.175 248 122.879C246.97 110.978 236.402 101.755 224.465 102.327C212.527 102.899 203.314 113.027 203.886 124.95C205.559 159.772 173.41 202.419 123.956 203.788C84.673 204.753 45.3446 173.945 43.6221 125.997C43.162 137.113 34.389 146.189 23.0577 146.641C11.1158 147.117 0.614181 137.492 0.137357 125.565C0.10652 124.794 0.0840299 124.022 0.0698242 123.251Z" fill="url(#paint0_linear)"/>
<defs>
<linearGradient id="paint0_linear" x1="124" y1="247" x2="124" y2="102.23" gradientUnits="userSpaceOnUse">
<stop stop-color="white" stop-opacity="0.95"/>
<stop offset="1" stop-color="white" stop-opacity="0.5"/>
</linearGradient>
</defs>
</svg>
