<svg width="249" height="248" viewBox="0 0 249 248" fill="none" xmlns="http://www.w3.org/2000/svg">
<path opacity="0.6" fill-rule="evenodd" clip-rule="evenodd" d="M127.028 246.858C201.009 244.221 252.444 180.175 248 122.879C246.97 110.979 236.402 101.755 224.465 102.327C212.527 102.899 203.314 113.028 203.887 124.95C205.559 159.772 174.229 202.315 124.775 203.683C124.174 203.7 123.579 203.741 122.992 203.805C123.313 203.802 123.635 203.796 123.956 203.788C135.904 203.494 145.828 212.929 146.122 224.862C146.399 236.118 138.009 245.575 127.028 246.858Z" fill="url(#paint0_linear)"/>
<path d="M170.405 124.39C170.405 112.169 180.413 102.263 192.759 102.263L225.336 102.263C237.682 102.263 248 112.169 248 124.39C248 136.61 237.682 146.517 225.336 146.517H192.759C180.413 146.517 170.405 136.61 170.405 124.39Z" fill="white"/>
<path d="M102.05 124.422C102.05 112.184 111.995 102.263 124.249 102.263C136.503 102.263 146.447 112.184 146.447 124.422C146.447 136.66 136.503 146.581 124.249 146.581C111.995 146.581 102.05 136.66 102.05 124.422Z" fill="white"/>
<path fill-rule="evenodd" clip-rule="evenodd" d="M145.832 20.8891C146.328 32.8151 137.05 42.8845 125.109 43.3798C73.5606 45.5179 42.0912 85.8691 43.623 124.183C44.0998 136.11 34.9994 146.165 23.0575 146.641C11.1157 147.117 0.614053 137.492 0.13723 125.565C-2.35895 63.1281 49.8396 1.40421 123.313 0.192027C135.254 -0.303252 145.336 8.96316 145.832 20.8891Z" fill="white"/>
<path opacity="0.7" fill-rule="evenodd" clip-rule="evenodd" d="M0.0698242 123.253C0.364167 198.69 62.3492 248.54 125.02 247C136.968 246.706 146.415 236.795 146.121 224.862C145.827 212.929 135.903 203.494 123.956 203.788C84.6728 204.753 45.3443 173.945 43.622 125.997C43.1621 137.113 34.3891 146.189 23.0576 146.641C11.1158 147.117 0.614143 137.492 0.13732 125.565C0.10651 124.794 0.084032 124.024 0.0698242 123.253Z" fill="url(#paint1_linear)"/>
<defs>
<linearGradient id="paint0_linear" x1="238.039" y1="148.886" x2="-111.408" y2="242.94" gradientUnits="userSpaceOnUse">
<stop stop-color="white" stop-opacity="0.89"/>
<stop offset="1" stop-color="white" stop-opacity="0.51"/>
</linearGradient>
<linearGradient id="paint1_linear" x1="116.1" y1="212.182" x2="-68.95" y2="11.6044" gradientUnits="userSpaceOnUse">
<stop stop-color="white"/>
<stop offset="1" stop-color="white" stop-opacity="0.8"/>
</linearGradient>
</defs>
</svg>
