<svg width="650" height="650" viewBox="0 0 650 650" fill="none" xmlns="http://www.w3.org/2000/svg">
<g opacity="0.3">
<path d="M58.5793 264.865L28.038 277.502C26.3396 278.205 26.3572 280.618 28.0663 281.295L58.7354 293.457C61.4302 294.526 64.4311 294.526 67.1255 293.457L97.7951 281.295C99.5037 280.618 99.5217 278.205 97.8229 277.502L67.282 264.865C64.4955 263.712 61.3654 263.712 58.5793 264.865Z" fill="white"/>
<path d="M65.6512 300.099V330.481C65.6512 331.926 67.1084 332.916 68.4517 332.383L102.626 319.118C103.407 318.809 103.918 318.055 103.918 317.216V286.834C103.918 285.388 102.461 284.399 101.118 284.931L66.9431 298.196C66.1634 298.506 65.6512 299.26 65.6512 300.099Z" fill="white"/>
<path d="M57.6712 301.666L47.5289 306.563L46.4991 307.061L25.0894 317.319C23.7322 317.974 22 316.985 22 315.477V286.961C22 286.415 22.2797 285.944 22.6547 285.59C22.8112 285.433 22.9886 285.303 23.1729 285.201C23.6845 284.894 24.4143 284.812 25.0347 285.058L57.5008 297.921C59.1511 298.576 59.2807 300.888 57.6712 301.666Z" fill="white"/>
<path d="M57.6712 301.666L47.5289 306.563L22.6547 285.59C22.8112 285.433 22.9885 285.303 23.1728 285.201C23.6845 284.894 24.4142 284.812 25.0347 285.058L57.5008 297.921C59.151 298.576 59.2807 300.888 57.6712 301.666Z" fill="white"/>
</g>
<g opacity="0.3">
<path d="M31.1018 395.338C31.1018 407.174 38.453 414.276 53.1552 418.014L68.7296 421.627C82.6842 424.867 91.1567 432.841 91.1567 445.799C91.2813 451.406 89.4124 456.888 86.0483 461.373C86.0483 448.415 79.3202 441.438 63.2474 437.202L47.9222 433.713C35.5873 430.972 26.118 424.368 26.118 410.289C26.118 404.932 27.8624 399.574 31.1018 395.338" fill="white"/>
<path d="M76.4545 442.56C83.0581 446.796 86.0484 452.777 86.0484 461.374C80.4416 468.475 70.8478 472.338 59.5096 472.338C40.4466 472.338 26.8657 462.869 24 446.547H42.3155C44.6828 454.022 50.9125 457.511 59.385 457.511C69.4772 457.636 76.3299 452.154 76.4545 442.56ZM40.6957 412.906C34.466 409.168 30.8527 402.44 31.1019 395.214C36.4595 388.236 45.6795 384 56.8931 384C76.4545 384 87.6681 394.341 90.5338 408.794H72.8413C70.8478 403.063 65.9886 398.578 57.1423 398.578C47.5485 398.702 41.0695 404.184 40.6957 412.906Z" fill="white" fill-opacity="0.8"/>
</g>
<g opacity="0.3">
<path d="M377.157 127L339.701 148.838V158.525L355.661 168.097L369.062 160.796V152.304L397.438 136.009L417.378 147.493L417.354 170.455L390.016 186.205L380.862 182.819L368.676 190.592L368.986 209.2L377.375 214.044L415.139 192.525V179.591L410.893 181.876V190.099L377.386 209.096L373.236 206.7L373.008 193.034L380.872 187.779L390.35 191.163L421.97 172.927L421.669 144.886L397.443 131.06L364.772 149.82V158.307L355.712 163.125L343.991 156.095V151.302L377.057 132.025L383.998 136.448L388.191 134.033L377.157 127ZM399.497 149.846L392.465 154.113L392.643 162.336L399.854 166.292L406.886 162.026L406.707 153.803L399.497 149.846ZM399.577 153.561L403.531 155.731L403.629 160.239L399.773 162.578L395.82 160.409L395.722 155.9L399.577 153.561ZM363.385 172.32L362.433 170.516C362.224 170.119 361.733 169.967 361.336 170.177L355.104 173.465C354.707 173.674 354.555 174.165 354.765 174.562L355.717 176.367C355.927 176.764 356.418 176.916 356.814 176.706L363.046 173.417C363.443 173.208 363.595 172.716 363.385 172.32ZM366.99 177.798L366.038 175.993C365.822 175.584 365.309 175.438 364.91 175.671L354.4 181.816C354.024 182.036 353.888 182.512 354.091 182.896L355.043 184.701C355.259 185.11 355.772 185.256 356.171 185.023L366.682 178.878C367.057 178.659 367.193 178.183 366.99 177.798ZM367.971 181.505L355.615 188.608C355.236 188.825 355.098 189.304 355.302 189.691L356.254 191.495C356.469 191.902 356.978 192.049 357.377 191.82L369.733 184.718C370.112 184.5 370.251 184.021 370.046 183.634L369.094 181.83C368.879 181.423 368.37 181.276 367.971 181.505Z" fill="white"/>
</g>
<g opacity="0.3" clip-path="url(#clip0)">
<path d="M223.624 36.864C225.206 35.4703 226.665 34.0765 228.247 32.8094C227.03 31.9225 225.936 31.1622 224.841 30.402C223.503 31.5423 222.164 32.8094 220.826 34.0765C222.164 34.5833 223.138 35.597 223.624 36.864Z" fill="white"/>
<path d="M219.718 43.1993C222.607 43.2072 224.955 40.8878 224.962 38.0187C224.97 35.1495 222.634 32.8172 219.745 32.8093C216.856 32.8014 214.508 35.1208 214.501 37.9899C214.493 40.859 216.829 43.1913 219.718 43.1993Z" fill="white"/>
<path d="M224.476 67.147C217.299 71.2016 211.095 72.2153 208.297 69.4277C204.404 65.4998 207.932 55.2365 216.447 44.8465C215.109 44.4664 214.014 43.4527 213.406 42.1857C200.998 56.6303 195.402 71.2016 200.876 76.65C205.377 81.2115 216.204 78.1705 228.125 70.0613C226.909 69.1743 225.692 68.1607 224.476 67.147Z" fill="white"/>
<path d="M232.988 32.5551C233.353 31.1614 234.326 30.021 235.542 29.3875C221.188 17.0969 206.59 11.6485 201.116 17.0969C196.615 21.6583 199.534 32.4284 207.685 44.3389C208.658 43.0718 209.631 41.9315 210.604 40.6644C206.59 33.4421 205.495 27.2334 208.293 24.3192C212.307 20.3913 222.526 24.0658 232.988 32.5551Z" fill="white"/>
<path d="M242.723 36.1038C242.236 37.3708 241.142 38.3845 239.925 38.8913C241.75 40.7919 243.453 42.5658 244.913 44.4664C245.764 43.3261 246.616 42.1857 247.224 41.0453C245.886 39.3981 244.305 37.751 242.723 36.1038Z" fill="white"/>
<path d="M239.804 41.1721C242.723 41.1721 245.034 38.8914 245.034 35.9771C245.034 33.0628 242.723 30.7821 239.804 30.7821C236.884 30.7821 234.573 33.0628 234.573 35.9771C234.573 38.7647 236.884 41.1721 239.804 41.1721Z" fill="white"/>
<path d="M253.307 24.4468C257.199 28.3747 253.671 38.638 245.156 49.028C246.494 49.4081 247.589 50.4218 248.197 51.6888C260.484 37.2442 266.08 22.5462 260.605 17.0978C256.104 12.663 245.278 15.704 233.478 23.8133C234.694 24.7002 235.911 25.7139 237.127 26.7275C244.305 22.6729 250.509 21.6592 253.307 24.4468Z" fill="white"/>
<path d="M238.83 56.1235C237.006 57.8974 235.059 59.5446 233.234 61.0651C234.451 61.9521 235.546 62.7123 236.762 63.4726C238.465 62.0788 240.047 60.5583 241.75 58.9111C240.412 58.4043 239.439 57.3906 238.83 56.1235Z" fill="white"/>
<path d="M241.824 50.7412C238.935 50.733 236.587 53.0521 236.579 55.9212C236.572 58.7903 238.908 61.1229 241.797 61.1312C244.686 61.1395 247.034 58.8204 247.041 55.9512C247.049 53.0821 244.713 50.7495 241.824 50.7412Z" fill="white"/>
<path d="M221.678 55.1098C219.853 53.2092 218.15 51.4353 216.69 49.5347C215.839 50.675 214.987 51.8154 214.379 52.9558C215.839 54.6029 217.298 56.2501 218.88 57.8973C219.366 56.6303 220.34 55.6166 221.678 55.1098Z" fill="white"/>
<path d="M253.915 49.6613C252.942 50.9283 251.968 52.0687 250.995 53.3358C255.01 60.5581 256.105 66.64 253.185 69.5543C249.171 73.4822 238.952 69.8077 228.49 61.445C228.125 62.8388 227.152 63.9792 225.936 64.6127C240.412 76.9033 255.01 82.4784 260.484 77.03C264.985 72.3419 262.065 61.445 253.915 49.6613Z" fill="white"/>
<path d="M227.053 57.9657C227.06 55.0965 224.724 52.7643 221.835 52.7564C218.946 52.7485 216.599 55.068 216.591 57.9371C216.584 60.8062 218.92 63.1385 221.809 63.1464C224.698 63.1543 227.046 60.8348 227.053 57.9657Z" fill="white"/>
</g>
<g opacity="0.3">
<path d="M191.607 407.673V450.441L201.833 456.554V413.564L201.966 413.475L191.674 407.629L191.607 407.673ZM257.916 413.475L258.071 413.564V456.643L268.297 450.441V407.673L268.23 407.629L257.916 413.475ZM235.531 461.4L229.974 464.912L224.373 461.4V426.256L211.858 419.121V462.845L229.974 474.115L248.046 462.845V419.076L235.531 426.167V461.4Z" fill="white"/>
<path d="M229.973 384L191.672 407.629L201.964 413.475L229.973 396.092L257.914 413.475L268.228 407.629L229.973 384Z" fill="white"/>
<path d="M224.373 411.275L211.858 419.032V419.121L224.373 426.257V411.275ZM235.532 411.275V426.168L248.046 419.077V419.032L235.532 411.275Z" fill="white"/>
</g>
<path d="M64.959 137.383C75.8951 137.383 77.1922 137.424 81.5133 137.622C92.6132 138.127 97.798 143.394 98.3031 154.412C98.5011 158.729 98.5386 160.026 98.5386 170.962C98.5386 181.902 98.4977 183.196 98.3031 187.513C97.7945 198.521 92.6235 203.798 81.5133 204.303C77.1922 204.501 75.9019 204.542 64.959 204.542C54.023 204.542 52.7259 204.501 48.4082 204.303C37.281 203.795 32.1235 198.504 31.6184 187.51C31.4204 183.192 31.3795 181.899 31.3795 170.959C31.3795 160.023 31.4238 158.729 31.6184 154.408C32.127 143.394 37.298 138.124 48.4082 137.618C52.7294 137.424 54.023 137.383 64.959 137.383V137.383ZM64.959 130C53.8353 130 52.4426 130.048 48.0737 130.246C33.1987 130.928 24.9318 139.182 24.2492 154.07C24.0478 158.443 24 159.835 24 170.959C24 182.083 24.0478 183.479 24.2458 187.848C24.9284 202.723 33.1817 210.99 48.0703 211.672C52.4426 211.87 53.8353 211.918 64.959 211.918C76.0828 211.918 77.4789 211.87 81.8478 211.672C96.7091 210.99 104.997 202.736 105.669 187.848C105.87 183.479 105.918 182.083 105.918 170.959C105.918 159.835 105.87 158.443 105.672 154.074C105.003 139.212 96.7399 130.932 81.8512 130.249C77.4789 130.048 76.0828 130 64.959 130V130ZM64.959 149.927C53.3437 149.927 43.9266 159.344 43.9266 170.959C43.9266 182.574 53.3437 191.995 64.959 191.995C76.5744 191.995 85.9915 182.578 85.9915 170.959C85.9915 159.344 76.5744 149.927 64.959 149.927ZM64.959 184.612C57.4192 184.612 51.306 178.502 51.306 170.959C51.306 163.419 57.4192 157.306 64.959 157.306C72.4989 157.306 78.6121 163.419 78.6121 170.959C78.6121 178.502 72.4989 184.612 64.959 184.612ZM86.8244 144.182C84.1074 144.182 81.9059 146.384 81.9059 149.097C81.9059 151.811 84.1074 154.012 86.8244 154.012C89.5379 154.012 91.736 151.811 91.736 149.097C91.736 146.384 89.5379 144.182 86.8244 144.182Z" fill="white" fill-opacity="0.3"/>
<path fill-rule="evenodd" clip-rule="evenodd" d="M435.852 552.319H444.695L445.725 547.31H436.882L438.389 539.985H438.359L431.652 544.856L431.149 547.31H424.202L426.232 537.439C426.711 533.715 432.834 534.842 433.747 535.053L434.726 530.297C423.713 526.377 420.498 537.439 420.498 537.439L418.468 547.31H418.432L411.536 552.319H417.438L410.953 583.846H416.688L423.172 552.319H430.118L427.579 564.66C425.965 573.645 435.683 572.661 438.784 572.083L439.754 567.378C432.335 568.929 433.313 564.66 433.313 564.66L435.852 552.319ZM401.933 565.26C395.966 570.929 392.145 567.216 392.145 567.216C389.558 564.884 392.417 562.489 392.417 562.489C396.365 559.148 402.405 562.818 402.405 562.818L401.933 565.26ZM403.253 558.421C403.253 558.421 395.038 554.516 389.287 558.865C389.287 558.865 385.918 560.944 385.918 565.104C385.918 569.265 390.036 571.501 390.036 571.501C390.036 571.501 396.229 574.527 401.078 569.691L400.542 571.942H405.966L409.374 556.968C411.932 542.194 392.923 547.43 392.923 547.43L391.888 552.742C405.9 547.086 403.54 556.94 403.54 556.94L403.253 558.421ZM388.067 547.325C383.645 547.369 379.626 549.654 379.626 549.654L380.139 547.412H374.831L369.988 571.987H375.412L378.695 555.819C381.122 551.253 387.122 552.672 387.122 552.672L388.067 547.325ZM367.372 536.794C367.646 536.986 367.906 537.189 368.162 537.396L372.278 534.405L372.406 534.25C371.776 533.661 371.099 533.103 370.366 532.59C360.92 525.987 346.645 528.751 338.484 538.765C330.324 548.778 331.367 562.246 340.814 568.85C348.528 574.241 359.457 573.386 367.651 567.441L367.643 567.426L363.724 564.579C357.653 568.196 350.119 568.455 344.67 564.647C337.414 559.575 336.613 549.228 342.881 541.536C349.15 533.844 360.115 531.721 367.372 536.794Z" fill="white" fill-opacity="0.3"/>
<path d="M528.98 71.9484C523.8 67.0732 520.753 60.3698 520.753 52.7522C520.753 45.1347 523.8 38.4313 528.675 33.5561C532.941 29.2903 532.941 22.5869 528.675 18.3211C524.409 14.0553 517.706 14.0553 513.44 18.3211C504.908 27.1574 499.424 39.3454 499.424 52.7522C499.424 66.1591 504.908 78.3471 513.745 87.1834C518.011 91.4492 524.714 91.4492 528.98 87.1834C532.941 82.9176 532.941 76.2142 528.98 71.9484Z" fill="white" fill-opacity="0.2"/>
<path d="M528.98 33.556C533.855 28.3761 540.558 25.329 548.176 25.329C555.793 25.329 562.497 28.3761 567.372 33.2513C571.638 37.5171 578.341 37.5171 582.607 33.2513C586.873 28.9855 586.873 22.282 582.607 18.0162C573.771 9.48461 561.583 4 548.176 4C534.769 4 522.581 9.48461 513.745 18.3209C509.479 22.5867 509.479 29.2902 513.745 33.556C518.011 37.5171 524.714 37.5171 528.98 33.556Z" fill="white" fill-opacity="0.2"/>
<path d="M567.372 71.948C562.497 77.1279 555.793 80.1749 548.176 80.1749C540.558 80.1749 533.855 77.1279 528.98 72.2527C524.714 67.9869 518.011 67.9869 513.745 72.2527C509.479 76.5185 509.479 83.2219 513.745 87.4877C522.581 96.0194 534.769 101.504 548.176 101.504C561.583 101.504 573.771 96.0194 582.607 87.183C586.873 82.9172 586.873 76.2138 582.607 71.948C578.341 67.9869 571.638 67.9869 567.372 71.948Z" fill="white" fill-opacity="0.2"/>
<path d="M388.018 11.4578H349.929V87.6329H388.018C407.066 87.6329 426.105 70.5795 426.105 49.5506C426.105 28.5217 407.066 11.4578 388.018 11.4578ZM388.018 66.8522C384.572 66.8509 381.205 65.8345 378.341 63.9317C375.478 62.0289 373.246 59.3251 371.929 56.1621C370.612 52.9991 370.268 49.5191 370.942 46.1621C371.615 42.8051 373.275 39.7219 375.712 37.3023C378.149 34.8827 381.253 33.2355 384.632 32.5689C388.011 31.9023 391.513 32.2462 394.696 33.5573C397.878 34.8683 400.598 37.0875 402.511 39.9343C404.424 42.7811 405.444 46.1276 405.443 49.5506C405.443 51.8238 404.992 54.0747 404.117 56.1747C403.241 58.2747 401.957 60.1826 400.339 61.7894C398.72 63.3962 396.799 64.6703 394.685 65.5391C392.571 66.4078 390.305 66.854 388.018 66.8522Z" fill="white" fill-opacity="0.3"/>
<path d="M571.756 530.287C571.756 530.287 571.68 529.867 571.441 529.715C571.203 529.562 570.945 529.533 570.945 529.533L563.429 528.971L557.896 523.476C557.686 523.314 557.448 523.219 557.2 523.171C556.608 523.057 555.817 523.19 555.674 523.228L552.802 524.115C551.553 520.433 549.855 517.82 547.718 516.303C546.135 515.187 544.399 514.71 542.529 514.853C542.138 514.329 541.699 513.871 541.232 513.489C539.162 511.81 536.482 511.553 533.286 512.707C523.69 516.198 519.617 528.637 518.148 534.846L509.783 537.441C509.783 537.441 507.818 538.004 507.35 538.557C506.845 539.168 506.749 540.808 506.749 540.808L499.653 595.513L553.098 605.481L581.953 599.233L571.756 530.287ZM542.138 527.416L532.895 530.277C534.116 525.479 536.472 520.586 540.974 518.669C541.909 521.12 542.167 524.468 542.138 527.416ZM534.383 515.731C536.339 515.025 537.836 515.054 538.971 515.817C532.933 518.564 530.301 525.499 529.165 531.432L521.763 533.721C523.423 527.75 527.105 518.373 534.383 515.731ZM539.563 556.051C539.143 555.841 538.637 555.622 538.075 555.422C537.512 555.212 536.892 555.011 536.215 554.849C535.547 554.687 534.822 554.554 534.068 554.477C533.315 554.401 532.523 554.372 531.703 554.42C530.949 554.468 530.272 554.601 529.671 554.811C529.08 555.021 528.555 555.317 528.135 555.679C527.716 556.042 527.372 556.471 527.143 556.967C526.905 557.463 526.771 558.016 526.743 558.636C526.724 559.094 526.79 559.533 526.952 559.962C527.115 560.391 527.363 560.811 527.706 561.231C528.049 561.65 528.488 562.07 529.013 562.49C529.547 562.919 530.177 563.358 530.901 563.806C531.922 564.455 532.962 565.189 533.954 566.038C534.955 566.897 535.909 567.86 536.72 568.957C537.55 570.073 538.237 571.313 538.695 572.715C539.162 574.127 539.4 575.682 539.324 577.389C539.2 580.194 538.59 582.607 537.569 584.61C536.567 586.585 535.184 588.139 533.515 589.265C531.884 590.362 529.995 591.049 527.944 591.325C525.951 591.592 523.814 591.478 521.611 590.992C521.592 590.992 521.573 590.982 521.554 590.982C521.534 590.982 521.515 590.972 521.506 590.972C521.487 590.972 521.468 590.963 521.449 590.963C521.43 590.963 521.41 590.953 521.391 590.953C520.361 590.705 519.36 590.381 518.425 590C517.5 589.627 516.632 589.208 515.849 588.74C515.067 588.283 514.361 587.796 513.751 587.3C513.15 586.804 512.635 586.289 512.234 585.764L514.667 577.695C515.077 578.038 515.582 578.439 516.155 578.839C516.736 579.249 517.385 579.66 518.072 580.051C518.778 580.442 519.522 580.804 520.294 581.1C521.077 581.396 521.887 581.634 522.679 581.748C523.385 581.853 524.015 581.834 524.568 581.71C525.121 581.586 525.598 581.357 525.989 581.033C526.38 580.718 526.685 580.318 526.895 579.86C527.105 579.392 527.229 578.877 527.248 578.324C527.277 577.771 527.22 577.246 527.086 576.741C526.943 576.235 526.714 575.739 526.39 575.253C526.065 574.766 525.636 574.27 525.102 573.765C524.568 573.259 523.929 572.744 523.175 572.191C522.24 571.494 521.372 570.75 520.59 569.93C519.817 569.119 519.131 568.251 518.577 567.297C518.024 566.353 517.585 565.342 517.299 564.235C517.013 563.138 516.889 561.946 516.946 560.649C517.042 558.483 517.471 556.49 518.196 554.687C518.93 552.875 519.97 551.244 521.267 549.841C522.593 548.411 524.205 547.199 526.065 546.274C527.983 545.32 530.167 544.643 532.59 544.328C533.715 544.175 534.793 544.109 535.814 544.109C536.854 544.109 537.827 544.166 538.723 544.28C539.629 544.395 540.459 544.566 541.194 544.776C541.938 544.986 542.577 545.234 543.102 545.501L539.563 556.051ZM545.343 526.424C545.343 526.061 545.334 525.689 545.315 525.317C545.21 522.446 544.818 520.023 544.151 518.058C544.876 518.135 545.534 518.373 546.135 518.793C547.804 519.976 549.016 522.36 549.864 525.022L545.343 526.424Z" fill="white" fill-opacity="0.3"/>
<path d="M90.6135 540.522C89.231 540.27 87.9742 541.024 86.7174 542.847C85.712 544.292 85.0836 545.8 84.7066 547.308C84.518 548.188 84.4552 549.131 84.4552 550.073C84.4552 551.142 84.7066 552.336 85.1464 553.467C85.712 554.912 86.4661 555.729 87.3458 555.918C88.2884 556.106 89.2939 555.666 90.3622 554.724C91.7447 553.467 92.6873 551.644 93.19 549.194C93.3785 548.314 93.4413 547.371 93.4413 546.429C93.4413 545.36 93.19 544.166 92.7501 543.035C92.2474 541.464 91.4933 540.71 90.6135 540.522Z" fill="white" fill-opacity="0.3"/>
<path d="M69.2479 542.973C68.6823 541.527 67.9282 540.71 67.0485 540.522C65.666 540.27 64.4092 541.024 63.1524 542.847C62.1469 544.292 61.5185 545.8 61.1415 547.308C60.953 548.188 60.8901 549.131 60.8901 550.073C60.8901 551.142 61.1415 552.336 61.5814 553.467C62.1469 554.912 62.901 555.729 63.7808 555.918C64.7234 556.106 65.7288 555.666 66.7971 554.724C68.1796 553.467 69.1222 551.644 69.6249 549.194C69.8134 548.314 69.9391 547.371 69.8763 546.429C69.9391 545.298 69.7506 544.104 69.2479 542.973Z" fill="white" fill-opacity="0.3"/>
<path d="M95.7666 525H20.547C15.834 525 11.9379 528.896 12.0007 533.609V562.327C12.0007 567.103 15.834 570.936 20.6098 570.936H56.2402L72.5158 579.985L68.8082 570.936H95.7666C100.542 570.936 104.376 567.103 104.376 562.327V533.609C104.376 528.833 100.542 525 95.7666 525ZM50.2704 562.641C50.3332 563.584 50.2075 564.401 49.8305 565.092C49.3906 565.909 48.6994 566.349 47.8196 566.474C46.8142 566.537 45.8087 566.097 44.8661 565.092C41.3471 561.51 38.5821 556.169 36.5712 549.068C34.1205 553.844 32.2981 557.488 31.167 559.876C28.9676 564.149 27.0824 566.349 25.5114 566.474C24.5059 566.537 23.6262 565.658 22.8721 563.898C20.9869 558.997 18.9132 549.508 16.6509 535.369C16.5252 534.363 16.7138 533.546 17.2793 532.855C17.782 532.164 18.599 531.787 19.6672 531.661C21.5524 531.535 22.6836 532.415 22.9349 534.363C24.1289 542.218 25.3857 548.879 26.7053 554.283L34.9374 538.636C35.6915 537.191 36.6341 536.437 37.7652 536.374C39.399 536.248 40.4045 537.317 40.8444 539.516C41.787 544.48 42.9809 548.754 44.4262 552.335C45.4317 542.784 47.0655 535.934 49.3906 531.661C49.9562 530.593 50.7731 530.09 51.8414 530.027C52.6583 530.027 53.4752 530.279 54.1665 530.844C54.8577 531.41 55.2347 532.101 55.3604 532.981C55.4233 533.672 55.2976 534.237 54.9834 534.803C53.5381 537.505 52.3441 542.03 51.3387 548.377C50.3961 554.472 50.019 559.248 50.2704 562.641ZM73.3327 556.797C71.0705 560.568 68.1798 562.453 64.5351 562.453C63.9067 562.453 63.2154 562.39 62.5242 562.201C59.8849 561.636 57.874 560.19 56.4916 557.865C55.2976 555.792 54.6692 553.341 54.6692 550.45C54.6692 546.554 55.6746 543.035 57.6227 539.83C59.8849 536.06 62.8384 534.175 66.4203 534.175C67.0487 534.175 67.7399 534.237 68.4312 534.426C71.0705 534.992 73.0813 536.437 74.4638 538.762C75.6578 540.773 76.2862 543.224 76.2862 546.177C76.2233 550.01 75.2807 553.529 73.3327 556.797ZM96.8349 556.797C94.5727 560.568 91.682 562.453 88.0373 562.453C87.4089 562.453 86.7176 562.39 86.0264 562.201C83.3871 561.636 81.3762 560.19 79.9938 557.865C78.7998 555.792 78.1714 553.341 78.1714 550.45C78.1714 546.554 79.1768 543.035 81.1249 539.83C83.3871 536.06 86.3406 534.175 89.9225 534.175C90.5509 534.175 91.2421 534.237 91.9334 534.426C94.5727 534.992 96.5835 536.437 97.966 538.762C99.16 540.773 99.7884 543.224 99.7884 546.177C99.7884 550.01 98.7829 553.529 96.8349 556.797Z" fill="white" fill-opacity="0.3"/>
<path d="M588.121 141H491.17C486.665 141 483 144.699 483 149.245V204.215C483 208.762 486.665 212.46 491.17 212.46H588.121C592.626 212.46 596.291 208.762 596.291 204.215V149.245C596.291 144.699 592.626 141 588.121 141ZM546.726 198.154L532.565 198.168V176.73L521.944 190.473L511.323 176.73V198.168H497.161V155.292H511.323L521.944 169.584L532.565 155.292L546.726 155.278V198.154ZM567.868 201.727L550.267 176.73H560.888V155.292H575.049V176.73H585.67L567.868 201.727Z" fill="white" fill-opacity="0.3"/>
<path opacity="0.7" d="M219.771 320.316H194.113V333.146H219.771V320.316Z" fill="white" fill-opacity="0.3"/>
<path opacity="0.7" d="M258.242 320.316H232.6V333.146H258.242V320.316Z" fill="white" fill-opacity="0.3"/>
<path opacity="0.7" d="M258.25 294.657H194.093V307.487H258.25V294.657Z" fill="white" fill-opacity="0.3"/>
<path opacity="0.7" d="M232.601 269H194.11V281.829H232.601V269Z" fill="white" fill-opacity="0.3"/>
<path opacity="0.7" d="M258.258 269H245.429V281.829H258.258V269Z" fill="white" fill-opacity="0.3"/>
<path fill-rule="evenodd" clip-rule="evenodd" d="M215.459 526.252H211.982C206.896 526.252 202.776 530.373 202.776 535.457V562.661C206.086 564.685 209.753 565.629 212.683 566.063C212.273 565.239 212.042 564.313 212.042 563.337V541.669C212.042 541.662 212.042 541.656 212.042 541.649C212.041 541.29 212.053 533.197 215.459 526.252Z" fill="white" fill-opacity="0.3"/>
<path fill-rule="evenodd" clip-rule="evenodd" d="M255.255 538.935V535.458C255.255 530.372 251.133 526.252 246.049 526.252H218.846C216.821 529.562 215.877 533.229 215.443 536.159C216.267 535.749 217.194 535.518 218.17 535.518H239.838C239.844 535.518 239.851 535.518 239.857 535.518C240.216 535.517 248.31 535.529 255.255 538.935Z" fill="white" fill-opacity="0.3"/>
<path fill-rule="evenodd" clip-rule="evenodd" d="M242.365 578.647H245.842C250.928 578.647 255.048 574.526 255.048 569.442V542.239C251.738 540.214 248.07 539.27 245.14 538.836C245.551 539.66 245.782 540.586 245.782 541.563V563.23C245.782 563.237 245.782 563.244 245.782 563.25C245.783 563.609 245.771 571.702 242.365 578.647Z" fill="white" fill-opacity="0.3"/>
<path fill-rule="evenodd" clip-rule="evenodd" d="M202.609 565.758V569.235C202.609 574.321 206.73 578.441 211.814 578.441H239.017C241.042 575.131 241.986 571.464 242.42 568.534C241.596 568.944 240.67 569.175 239.694 569.175H218.026C218.019 569.175 218.013 569.175 218.006 569.175C217.647 569.176 209.554 569.164 202.609 565.758Z" fill="white" fill-opacity="0.3"/>
<path fill-rule="evenodd" clip-rule="evenodd" d="M233.042 514.001H209.071C198.906 514.001 190.64 522.235 190.607 532.404L190.636 532.403C190.636 532.403 191.402 550.039 198.296 558.474C198.773 559.058 199.279 559.597 199.809 560.096V535.49C199.809 528.703 205.291 523.202 212.096 523.202H217.281C218.161 521.962 219.19 520.817 220.392 519.834C223.546 517.257 228.311 515.362 233.042 514.001V514.001Z" fill="white" fill-opacity="0.3"/>
<path fill-rule="evenodd" clip-rule="evenodd" d="M267.29 556.434V532.464C267.29 522.299 259.056 514.033 248.887 514L248.887 514.028C248.887 514.028 231.252 514.794 222.817 521.688C222.233 522.165 221.694 522.672 221.195 523.201H245.801C252.588 523.201 258.089 528.684 258.089 535.489V540.674C259.329 541.554 260.474 542.582 261.456 543.785C264.034 546.939 265.928 551.704 267.29 556.434Z" fill="white" fill-opacity="0.3"/>
<path fill-rule="evenodd" clip-rule="evenodd" d="M224.862 590.683H248.833C258.998 590.683 267.264 582.449 267.297 572.28L267.268 572.281C267.268 572.281 266.502 554.645 259.608 546.21C259.131 545.627 258.625 545.087 258.095 544.588V569.195C258.095 575.981 252.613 581.482 245.808 581.482H240.623C239.743 582.722 238.714 583.867 237.512 584.85C234.358 587.427 229.593 589.322 224.862 590.683Z" fill="white" fill-opacity="0.3"/>
<path fill-rule="evenodd" clip-rule="evenodd" d="M190.69 548.255V572.225C190.69 582.391 198.924 590.657 209.094 590.689L209.093 590.661C209.093 590.661 226.729 589.895 235.164 583.001C235.747 582.524 236.287 582.017 236.786 581.488H212.179C205.393 581.488 199.892 576.006 199.892 569.2V564.016C198.652 563.136 197.507 562.107 196.524 560.904C193.947 557.751 192.052 552.986 190.69 548.255Z" fill="white" fill-opacity="0.3"/>
<path fill-rule="evenodd" clip-rule="evenodd" d="M394.061 393.595C404.616 393.595 414.228 397.64 421.432 404.263C417.901 404.168 414.377 406.267 414.231 411.074C413.934 420.791 425.851 422.861 419.43 442.407L414.118 458.574L399.653 415.962C399.429 415.303 399.689 414.927 400.5 414.927H404.59C404.802 414.927 404.976 414.746 404.976 414.524V412.101C404.976 411.879 404.802 411.689 404.59 411.698C396.845 412.036 389.146 412.039 381.493 411.698C381.28 411.689 381.106 411.88 381.106 412.102V414.525C381.106 414.747 381.28 414.928 381.493 414.928H385.605C386.52 414.928 386.776 415.233 386.991 415.823L392.935 432.078L383.994 459.076L369.297 415.786C369.115 415.243 369.335 414.928 369.858 414.928H374.544C374.756 414.928 374.93 414.747 374.93 414.524V412.102C374.93 411.88 374.755 411.687 374.544 411.698C369.628 411.96 364.693 412.012 360.096 412.059C367.31 400.947 379.826 393.594 394.058 393.594L394.058 393.594L394.061 393.595ZM429.65 414.791C432.759 420.52 434.525 427.084 434.525 434.058C434.525 449.365 426.02 462.687 413.481 469.564L426.101 433.82C428.056 428.288 429.871 420.812 429.649 414.791H429.649H429.65ZM407.608 472.195C403.372 473.702 398.813 474.523 394.061 474.523C389.966 474.523 386.016 473.913 382.292 472.783L394.758 437.059L407.608 472.197V472.197L407.608 472.195ZM376.745 470.639C363.061 464.149 353.595 450.207 353.595 434.06C353.595 428.074 354.898 422.392 357.231 417.279L376.746 470.639L376.746 470.639L376.745 470.639ZM394.059 389.798C418.499 389.798 438.32 409.618 438.32 434.058C438.32 458.498 418.499 478.319 394.059 478.319C369.62 478.319 349.799 458.498 349.799 434.058C349.799 409.618 369.62 389.798 394.059 389.798V389.798ZM394.059 387C420.044 387 441.119 408.074 441.119 434.059C441.119 460.044 420.044 481.119 394.059 481.119C368.074 481.119 347 460.044 347 434.059C347 408.074 368.074 387 394.059 387V387Z" fill="white" fill-opacity="0.3"/>
<path d="M248.949 136.831C243.763 133.608 238.86 132.343 233.968 129.119C230.935 127.071 226.728 122.194 223.198 118C222.518 124.732 220.461 127.47 218.108 129.422C213.125 133.317 209.989 134.486 205.677 136.831C202.054 138.686 182.379 150.389 182.379 175.564C182.379 200.732 203.624 219.266 227.212 219.266C250.808 219.266 271.268 202.195 271.268 176.341C271.268 150.486 252.081 138.781 248.949 136.831ZM249.347 209.425C248.855 209.91 244.352 213.032 239.069 213.525C233.781 214.008 226.633 214.302 222.328 210.398C221.645 209.713 221.834 208.745 222.328 208.356C222.817 207.959 223.207 207.666 223.798 207.666C224.389 207.666 224.282 207.666 224.582 207.861C226.539 209.425 229.474 210.687 235.735 210.687C242.003 210.687 246.413 208.941 248.367 207.47C249.248 206.789 249.639 207.376 249.74 207.767C249.835 208.154 250.031 208.745 249.347 209.425ZM232.381 201.212C233.458 200.233 235.225 198.672 236.891 197.992C238.554 197.306 239.427 197.405 240.998 197.405C242.563 197.405 244.233 197.503 245.404 198.288C246.576 199.069 247.265 200.82 247.648 201.789C248.044 202.772 247.648 203.354 246.872 203.748C246.191 204.134 246.09 203.94 245.404 202.676C244.724 201.409 244.134 200.135 240.706 200.135C237.282 200.135 236.203 201.31 234.539 202.676C232.876 204.038 232.287 204.527 231.697 203.748C231.111 202.969 231.307 202.185 232.381 201.212ZM267.715 182.615C267.715 185.637 266.739 191.099 264.383 194.513C262.042 197.932 260.575 199.203 257.823 199.005C254.296 198.708 247.253 187.784 242.75 187.584C237.08 187.391 224.74 199.398 215.045 199.398C209.169 199.398 207.414 198.521 205.458 197.246C202.516 195.198 201.046 192.078 201.143 187.784C201.248 180.169 208.385 173.055 217.397 172.961C228.843 172.859 236.783 184.267 242.552 184.175C247.45 184.083 256.852 174.517 261.452 174.517C266.345 174.516 267.715 179.582 267.715 182.615Z" fill="white" fill-opacity="0.3"/>
<g opacity="0.3">
<path d="M507.043 325.864L510.279 327.748L546.319 264.785L543.084 262.901L507.043 325.864Z" fill="white"/>
<path d="M578.384 320.834H506.303V324.602H578.384V320.834Z" fill="white"/>
<path d="M507.729 322.951L543.783 343.947L545.651 340.684L509.597 319.687L507.729 322.951Z" fill="white"/>
<path d="M539.049 268.228L575.103 289.224L576.971 285.961L540.917 264.965L539.049 268.228Z" fill="white"/>
<path d="M507.739 285.947L509.607 289.21L545.661 268.213L543.793 264.95L507.739 285.947Z" fill="white"/>
<path d="M538.398 264.786L574.439 327.749L577.674 325.865L541.633 262.902L538.398 264.786Z" fill="white"/>
<path d="M512.896 283.448H509.161V325.442H512.896V283.448Z" fill="white"/>
<path d="M575.548 283.448H571.813V325.442H575.548V283.448Z" fill="white"/>
<path d="M541.516 339.502L543.147 342.352L574.505 324.091L572.873 321.24L541.516 339.502Z" fill="white"/>
<path d="M580.499 326.667C578.339 330.458 573.523 331.752 569.765 329.573C566.007 327.394 564.724 322.536 566.884 318.745C569.045 314.955 573.861 313.661 577.619 315.84C581.4 318.042 582.682 322.877 580.499 326.667Z" fill="white"/>
<path d="M517.802 290.144C515.642 293.935 510.826 295.229 507.068 293.05C503.309 290.871 502.027 286.013 504.187 282.222C506.348 278.432 511.163 277.138 514.922 279.317C518.68 281.519 519.963 286.354 517.802 290.144Z" fill="white"/>
<path d="M504.21 326.667C502.049 322.877 503.332 318.042 507.09 315.84C510.848 313.661 515.642 314.955 517.825 318.745C519.985 322.536 518.702 327.371 514.944 329.573C511.163 331.752 506.37 330.458 504.21 326.667Z" fill="white"/>
<path d="M566.907 290.144C564.746 286.354 566.029 281.519 569.787 279.317C573.546 277.138 578.339 278.432 580.522 282.222C582.682 286.013 581.4 290.848 577.641 293.05C573.883 295.229 569.067 293.935 566.907 290.144Z" fill="white"/>
<path d="M542.355 348.89C538.011 348.89 534.501 345.349 534.501 340.968C534.501 336.587 538.011 333.046 542.355 333.046C546.698 333.046 550.209 336.587 550.209 340.968C550.209 345.326 546.698 348.89 542.355 348.89Z" fill="white"/>
<path d="M542.355 275.844C538.011 275.844 534.501 272.303 534.501 267.922C534.501 263.541 538.011 260 542.355 260C546.698 260 550.209 263.541 550.209 267.922C550.209 272.303 546.698 275.844 542.355 275.844Z" fill="white"/>
</g>
<g opacity="0.3">
<path d="M359.446 284H350.963L334.729 324.22H344.577L347.551 316.176H362.859L365.833 324.22H375.681L359.446 284ZM359.739 308.132H350.671L355.156 296.432H355.253L359.739 308.132Z" fill="white"/>
<path d="M377.249 284V324.22H386.415V309.302H391.924C399.773 309.302 405.672 304.671 405.672 296.383C405.672 288.046 399.773 284 391.924 284H377.249ZM386.415 301.99V291.313H388.999C392.606 291.313 396.019 292.532 396.019 296.676C396.019 300.771 392.606 301.99 388.999 301.99H386.415Z" fill="white"/>
<path d="M418.884 284H409.719V324.22H418.884V284Z" fill="white"/>
<path d="M435.588 298.479C429.006 298.479 424.667 301.405 424.667 306.523C424.667 310.277 427.202 312.032 429.737 313.349C432.565 314.811 435.295 314.958 435.295 316.761C435.295 318.419 433.833 318.565 432.614 318.565C429.835 318.565 426.422 315.689 426.422 315.689L422.912 321.588C422.912 321.588 426.52 324.952 432.565 324.952C437.684 324.952 444.412 323.782 444.412 316.42C444.412 311.301 440.122 309.449 436.807 308.425C434.661 307.742 432.906 307.352 432.906 306.036C432.906 304.866 433.686 304.525 435.588 304.525C438.22 304.525 441.145 306.085 441.145 306.085L443.973 300.429C443.973 300.429 440.414 298.479 435.588 298.479Z" fill="white"/>
</g>
<g opacity="0.3">
<path d="M507.552 406H498.427V434.219C498.427 438.524 496.437 440.236 493.815 440.236C491.485 440.236 488.621 437.331 488.621 437.331L485.709 445.475C485.709 445.475 489.35 449.573 495.077 449.573C503.087 449.573 507.552 445.112 507.552 436.709V406Z" fill="white"/>
<path d="M523.704 421.406C517.151 421.406 512.831 424.519 512.831 429.965C512.831 433.96 515.355 435.827 517.879 437.228C520.695 438.784 523.413 438.939 523.413 440.859C523.413 442.622 521.957 442.778 520.743 442.778C517.977 442.778 514.579 439.718 514.579 439.718L511.084 445.994C511.084 445.994 514.676 449.573 520.695 449.573C525.792 449.573 532.49 448.328 532.49 440.496C532.49 435.049 528.219 433.078 524.918 431.988C522.782 431.262 521.035 430.847 521.035 429.447C521.035 428.202 521.811 427.839 523.704 427.839C526.326 427.839 529.238 429.499 529.238 429.499L532.053 423.481C532.053 423.481 528.51 421.406 523.704 421.406Z" fill="white"/>
<path d="M534.975 435.516C534.975 443.712 540.994 449.573 549.974 449.573C558.566 449.573 564.828 443.712 564.828 435.516C564.828 427.216 558.226 421.406 549.974 421.406C541.576 421.406 534.975 427.216 534.975 435.516ZM544.101 435.516C544.101 431.833 546.673 429.239 549.926 429.239C553.129 429.239 555.702 431.833 555.702 435.516C555.702 439.147 553.275 441.741 549.926 441.741C546.431 441.741 544.101 439.147 544.101 435.516Z" fill="white"/>
<path d="M568.768 448.795H577.36V433.752C577.36 431.107 579.884 428.565 582.457 428.565C585.223 428.565 586.922 431.107 586.922 433.752V448.795H595.514V431.262C595.514 423.844 589.155 421.406 584.592 421.406C581.874 421.406 579.399 422.911 577.457 424.986H577.36V422.184H568.768V448.795Z" fill="white"/>
</g>
<path d="M104 27.744C101.424 28.8884 98.6592 29.6646 95.7546 30.0111C98.7204 28.2307 100.991 25.4069 102.067 22.0524C99.2846 23.7011 96.2139 24.8982 92.9419 25.5472C90.3218 22.7452 86.595 21 82.4614 21C74.531 21 68.1009 27.4459 68.1009 35.3914C68.1009 36.5183 68.2278 37.6189 68.4728 38.6714C56.54 38.0706 45.9589 32.3395 38.8771 23.6309C37.6392 25.7533 36.935 28.2263 36.935 30.8661C36.935 35.8606 39.472 40.2675 43.3213 42.8457C40.968 42.7668 38.7546 42.1179 36.8169 41.0391V41.2189C36.8169 48.191 41.7685 54.0098 48.3341 55.3341C47.1312 55.6586 45.8627 55.8384 44.5505 55.8384C43.6232 55.8384 42.7265 55.7463 41.8472 55.5709C43.6756 61.2933 48.9772 65.4545 55.2585 65.5686C50.3463 69.4274 44.1524 71.7207 37.425 71.7207C36.2659 71.7207 35.1241 71.6506 34 71.5234C40.3557 75.6146 47.9012 78 56.0109 78C82.4266 78 96.8658 56.0664 96.8658 37.0446L96.8177 35.181C99.6389 33.1638 102.08 30.6293 104 27.744Z" fill="white" fill-opacity="0.3"/>
<defs>
<clipPath id="clip0">
<rect width="63.9871" height="63.9871" fill="white" transform="translate(198.808 14.9436)"/>
</clipPath>
</defs>
</svg>
