<svg width="500" height="500" viewBox="0 0 500 500" fill="none" xmlns="http://www.w3.org/2000/svg">
<g opacity="0.3">
<path d="M45.061 203.742L21.5677 213.463C20.2612 214.004 20.2747 215.86 21.5894 216.381L45.181 225.736C47.254 226.558 49.5624 226.558 51.635 225.736L75.2269 216.381C76.5413 215.86 76.5551 214.004 75.2483 213.463L51.7554 203.742C49.6119 202.855 47.2041 202.855 45.061 203.742Z" fill="white"/>
<path d="M50.501 230.845V254.216C50.501 255.328 51.6219 256.089 52.6552 255.679L78.9434 245.475C79.5436 245.238 79.9371 244.658 79.9371 244.012V220.641C79.9371 219.53 78.8163 218.768 77.783 219.178L51.4947 229.382C50.8949 229.62 50.501 230.2 50.501 230.845Z" fill="white"/>
<path d="M44.3624 232.051L36.5607 235.818L35.7685 236.2L19.2995 244.092C18.2555 244.595 16.923 243.834 16.923 242.675V220.739C16.923 220.319 17.1382 219.957 17.4267 219.684C17.5471 219.564 17.6835 219.464 17.8252 219.386C18.2188 219.149 18.7802 219.086 19.2574 219.275L44.2314 229.17C45.5008 229.674 45.6005 231.453 44.3624 232.051Z" fill="white"/>
<path d="M44.3624 232.051L36.5607 235.818L17.4267 219.684C17.547 219.564 17.6835 219.464 17.8252 219.386C18.2188 219.149 18.7801 219.086 19.2574 219.275L44.2313 229.17C45.5008 229.674 45.6005 231.453 44.3624 232.051Z" fill="white"/>
</g>
<g opacity="0.3">
<path d="M23.9245 304.106C23.9245 313.211 29.5792 318.674 40.8887 321.549L52.8689 324.329C63.6033 326.821 70.1206 332.955 70.1206 342.922C70.2164 347.235 68.7788 351.452 66.191 354.903C66.191 344.935 61.0156 339.568 48.6519 336.309L36.8633 333.626C27.3749 331.517 20.0909 326.437 20.0909 315.607C20.0909 311.486 21.4326 307.365 23.9245 304.106" fill="white"/>
<path d="M58.8112 340.431C63.8908 343.689 66.1911 348.29 66.1911 354.903C61.8782 360.366 54.4983 363.337 45.7766 363.337C31.1127 363.337 20.6659 356.053 18.4615 343.498H32.5504C34.3714 349.248 39.1635 351.932 45.6808 351.932C53.444 352.028 58.7154 347.81 58.8112 340.431ZM31.3044 317.62C26.5123 314.745 23.7329 309.569 23.9246 304.01C28.0458 298.643 35.1381 295.385 43.7639 295.385C58.8112 295.385 67.437 303.34 69.6414 314.457H56.0318C54.4983 310.049 50.7604 306.598 43.9556 306.598C36.5758 306.694 31.592 310.911 31.3044 317.62Z" fill="white" fill-opacity="0.8"/>
</g>
<g opacity="0.3">
<path d="M290.12 97.6923L261.308 114.49V121.942L273.585 129.305L283.894 123.689V117.157L305.722 104.622L321.06 113.456L321.042 131.12L300.012 143.235L292.97 140.63L283.597 146.609L283.835 160.923L290.289 164.649L319.337 148.096V138.147L316.071 139.905V146.23L290.297 160.843L287.104 159L286.929 148.488L292.978 144.445L300.269 147.048L324.592 133.021L324.361 111.451L305.725 100.815L280.594 115.246V121.775L273.625 125.48L264.608 120.073V116.386L290.044 101.558L295.383 104.96L298.609 103.103L290.12 97.6923ZM307.305 115.266L301.896 118.548L302.033 124.874L307.58 127.917L312.989 124.635L312.852 118.31L307.305 115.266ZM307.367 118.124L310.408 119.793L310.484 123.261L307.518 125.06L304.477 123.391L304.401 119.923L307.367 118.124ZM279.527 132.554L278.795 131.166C278.634 130.861 278.256 130.744 277.951 130.905L273.157 133.434C272.852 133.595 272.735 133.973 272.896 134.278L273.629 135.667C273.79 135.972 274.168 136.089 274.473 135.928L279.266 133.398C279.572 133.237 279.688 132.859 279.527 132.554ZM282.3 136.768L281.568 135.379C281.402 135.065 281.007 134.952 280.7 135.131L272.615 139.858C272.326 140.027 272.222 140.393 272.378 140.689L273.11 142.077C273.276 142.392 273.671 142.505 273.978 142.325L282.063 137.599C282.351 137.43 282.456 137.064 282.3 136.768ZM283.055 139.619L273.55 145.083C273.259 145.25 273.152 145.618 273.309 145.916L274.042 147.304C274.207 147.617 274.599 147.73 274.905 147.554L284.41 142.091C284.702 141.923 284.808 141.555 284.651 141.257L283.918 139.869C283.753 139.556 283.362 139.443 283.055 139.619Z" fill="white"/>
</g>
<g opacity="0.3" clip-path="url(#clip0)">
<path d="M172.019 28.3569C173.235 27.2848 174.358 26.2127 175.575 25.238C174.639 24.5557 173.797 23.9709 172.954 23.3861C171.925 24.2633 170.896 25.238 169.866 26.2127C170.896 26.6025 171.644 27.3823 172.019 28.3569Z" fill="white"/>
<path d="M169.014 33.23C171.236 33.2361 173.042 31.452 173.048 29.2449C173.054 27.0379 171.257 25.2438 169.034 25.2377C166.812 25.2316 165.006 27.0158 165.001 29.2228C164.995 31.4298 166.792 33.2239 169.014 33.23Z" fill="white"/>
<path d="M172.674 51.6516C167.153 54.7705 162.38 55.5503 160.228 53.406C157.234 50.3845 159.947 42.4897 166.498 34.4974C165.468 34.205 164.626 33.4252 164.158 32.4506C154.614 43.5618 150.309 54.7705 154.52 58.9616C157.982 62.4704 166.311 60.1312 175.481 53.8933C174.545 53.2111 173.609 52.4313 172.674 51.6516Z" fill="white"/>
<path d="M179.221 25.0424C179.502 23.9702 180.251 23.093 181.186 22.6057C170.144 13.1514 158.915 8.96028 154.704 13.1514C151.242 16.6602 153.488 24.9449 159.757 34.1068C160.506 33.1321 161.255 32.2549 162.003 31.2802C158.915 25.7246 158.073 20.9487 160.225 18.707C163.313 15.6855 171.174 18.5121 179.221 25.0424Z" fill="white"/>
<path d="M186.71 27.772C186.336 28.7466 185.494 29.5264 184.558 29.9162C185.961 31.3783 187.272 32.7428 188.394 34.2048C189.049 33.3276 189.704 32.4504 190.172 31.5732C189.143 30.3061 187.927 29.039 186.71 27.772Z" fill="white"/>
<path d="M184.464 31.6708C186.71 31.6708 188.488 29.9164 188.488 27.6746C188.488 25.4329 186.71 23.6785 184.464 23.6785C182.218 23.6785 180.441 25.4329 180.441 27.6746C180.441 29.8189 182.218 31.6708 184.464 31.6708Z" fill="white"/>
<path d="M194.851 18.8052C197.846 21.8266 195.132 29.7215 188.582 37.7138C189.611 38.0062 190.453 38.7859 190.921 39.7606C200.372 28.6493 204.677 17.3432 200.466 13.1521C197.003 9.74073 188.675 12.0799 179.598 18.3178C180.534 19.0001 181.47 19.7798 182.406 20.5596C187.927 17.4406 192.699 16.6609 194.851 18.8052Z" fill="white"/>
<path d="M183.716 43.1718C182.312 44.5363 180.815 45.8034 179.411 46.973C180.347 47.6552 181.189 48.24 182.125 48.8248C183.435 47.7527 184.651 46.5831 185.962 45.316C184.932 44.9262 184.184 44.1464 183.716 43.1718Z" fill="white"/>
<path d="M186.019 39.0317C183.796 39.0253 181.99 40.8093 181.984 43.0163C181.978 45.2233 183.775 47.0176 185.997 47.024C188.22 47.0304 190.026 45.2464 190.032 43.0394C190.038 40.8324 188.241 39.0381 186.019 39.0317Z" fill="white"/>
<path d="M170.521 42.3922C169.118 40.9302 167.808 39.5656 166.685 38.1036C166.03 38.9808 165.375 39.858 164.907 40.7352C166.03 42.0023 167.153 43.2694 168.369 44.5365C168.743 43.5618 169.492 42.7821 170.521 42.3922Z" fill="white"/>
<path d="M195.319 38.2009C194.571 39.1756 193.822 40.0528 193.073 41.0275C196.161 46.5831 197.003 51.2615 194.758 53.5033C191.67 56.5247 183.809 53.6982 175.762 47.2654C175.481 48.3375 174.732 49.2147 173.797 49.702C184.932 59.1564 196.161 63.4449 200.372 59.2538C203.835 55.6475 201.589 47.2654 195.319 38.2009Z" fill="white"/>
<path d="M174.656 44.5888C174.662 42.3818 172.865 40.5877 170.643 40.5817C168.42 40.5756 166.614 42.3598 166.609 44.5668C166.603 46.7738 168.4 48.5679 170.622 48.574C172.845 48.5801 174.651 46.7958 174.656 44.5888Z" fill="white"/>
</g>
<g opacity="0.3">
<path d="M147.39 313.595V346.493L155.256 351.195V318.126L155.359 318.057L147.442 313.56L147.39 313.595ZM198.397 318.057L198.517 318.126V351.264L206.382 346.493V313.595L206.331 313.56L198.397 318.057ZM181.178 354.923L176.903 357.625L172.594 354.923V327.889L162.968 322.401V356.034L176.903 364.704L190.805 356.034V322.366L181.178 327.821V354.923Z" fill="white"/>
<path d="M176.902 295.385L147.44 313.561L155.357 318.058L176.902 304.686L198.395 318.058L206.329 313.561L176.902 295.385Z" fill="white"/>
<path d="M172.595 316.365L162.968 322.333V322.401L172.595 327.89V316.365ZM181.178 316.365V327.821L190.805 322.367V322.333L181.178 316.365Z" fill="white"/>
</g>
<path d="M49.9685 105.679C58.3809 105.679 59.3786 105.711 62.7026 105.863C71.241 106.252 75.2292 110.303 75.6178 118.778C75.7701 122.1 75.799 123.097 75.799 131.51C75.799 139.925 75.7675 140.92 75.6178 144.241C75.2266 152.709 71.2488 156.768 62.7026 157.156C59.3786 157.309 58.3861 157.34 49.9685 157.34C41.5562 157.34 40.5584 157.309 37.2371 157.156C28.6777 156.765 24.7104 152.695 24.3218 144.238C24.1696 140.917 24.1381 139.922 24.1381 131.507C24.1381 123.095 24.1722 122.1 24.3218 118.776C24.7131 110.303 28.6908 106.249 37.2371 105.86C40.5611 105.711 41.5562 105.679 49.9685 105.679V105.679ZM49.9685 100C41.4117 100 40.3405 100.037 36.9798 100.189C25.5375 100.714 19.1783 107.063 18.6532 118.516C18.4983 121.879 18.4615 122.95 18.4615 131.507C18.4615 140.064 18.4983 141.138 18.6506 144.498C19.1757 155.941 25.5244 162.3 36.9771 162.825C40.3405 162.977 41.4117 163.014 49.9685 163.014C58.5253 163.014 59.5991 162.977 62.9599 162.825C74.3917 162.3 80.7666 155.951 81.2838 144.498C81.4387 141.138 81.4755 140.064 81.4755 131.507C81.4755 122.95 81.4387 121.879 81.2864 118.518C80.7718 107.086 74.4153 100.717 62.9625 100.192C59.5991 100.037 58.5253 100 49.9685 100V100ZM49.9685 115.328C41.0337 115.328 33.7897 122.572 33.7897 131.507C33.7897 140.442 41.0337 147.688 49.9685 147.688C58.9034 147.688 66.1473 140.444 66.1473 131.507C66.1473 122.572 58.9034 115.328 49.9685 115.328ZM49.9685 142.009C44.1686 142.009 39.4662 137.309 39.4662 131.507C39.4662 125.707 44.1686 121.005 49.9685 121.005C55.7684 121.005 60.4708 125.707 60.4708 131.507C60.4708 137.309 55.7684 142.009 49.9685 142.009ZM66.788 110.909C64.698 110.909 63.0045 112.603 63.0045 114.69C63.0045 116.777 64.698 118.471 66.788 118.471C68.8753 118.471 70.5662 116.777 70.5662 114.69C70.5662 112.603 68.8753 110.909 66.788 110.909Z" fill="white" fill-opacity="0.3"/>
<path fill-rule="evenodd" clip-rule="evenodd" d="M335.271 424.861H342.073L342.866 421.008H336.063L337.223 415.373H337.199L332.04 419.12L331.653 421.008H326.309L327.871 413.415C328.239 410.55 332.95 411.417 333.651 411.58L334.404 407.921C325.933 404.905 323.46 413.415 323.46 413.415L321.899 421.008H321.871L316.566 424.861H321.106L316.117 449.112H320.529L325.517 424.861H330.86L328.907 434.354C327.666 441.265 335.141 440.508 337.526 440.064L338.272 436.444C332.565 437.637 333.317 434.354 333.317 434.354L335.271 424.861ZM309.179 434.815C304.589 439.177 301.65 436.32 301.65 436.32C299.66 434.526 301.86 432.684 301.86 432.684C304.896 430.114 309.542 432.937 309.542 432.937L309.179 434.815ZM310.195 429.554C310.195 429.554 303.875 426.551 299.451 429.896C299.451 429.896 296.86 431.496 296.86 434.696C296.86 437.896 300.027 439.616 300.027 439.616C300.027 439.616 304.791 441.944 308.521 438.224L308.109 439.955H312.281L314.903 428.437C316.871 417.072 302.249 421.1 302.249 421.1L301.452 425.186C312.231 420.836 310.415 428.415 310.415 428.415L310.195 429.554ZM298.513 421.019C295.111 421.053 292.02 422.811 292.02 422.811L292.415 421.086H288.332L284.606 439.99H288.778L291.304 427.553C293.171 424.04 297.786 425.132 297.786 425.132L298.513 421.019ZM282.594 412.918C282.805 413.066 283.005 413.222 283.201 413.381L286.368 411.081L286.467 410.962C285.981 410.508 285.461 410.079 284.897 409.684C277.63 404.605 266.65 406.731 260.372 414.435C254.095 422.137 254.898 432.497 262.165 437.577C268.098 441.724 276.505 441.066 282.809 436.493L282.802 436.482L279.788 434.292C275.117 437.074 269.323 437.273 265.131 434.344C259.549 430.442 258.933 422.483 263.754 416.566C268.577 410.65 277.011 409.016 282.594 412.918Z" fill="white" fill-opacity="0.3"/>
<path d="M406.908 55.345C402.923 51.5949 400.579 46.4384 400.579 40.5788C400.579 34.7191 402.923 29.5627 406.673 25.8125C409.955 22.5311 409.955 17.3746 406.673 14.0932C403.392 10.8119 398.235 10.8119 394.954 14.0932C388.391 20.8904 384.172 30.2658 384.172 40.5788C384.172 50.8917 388.391 60.2671 395.188 67.0643C398.47 70.3457 403.626 70.3457 406.908 67.0643C409.955 63.7829 409.955 58.6264 406.908 55.345Z" fill="white" fill-opacity="0.2"/>
<path d="M406.908 25.8123C410.658 21.8277 415.814 19.4839 421.674 19.4839C427.533 19.4839 432.69 21.8277 436.44 25.5779C439.721 28.8593 444.878 28.8593 448.159 25.5779C451.441 22.2965 451.441 17.14 448.159 13.8586C441.362 7.29584 431.987 3.0769 421.674 3.0769C411.361 3.0769 401.985 7.29584 395.188 14.093C391.907 17.3744 391.907 22.5309 395.188 25.8123C398.47 28.8593 403.626 28.8593 406.908 25.8123Z" fill="white" fill-opacity="0.2"/>
<path d="M436.44 55.3446C432.69 59.3291 427.533 61.673 421.674 61.673C415.814 61.673 410.658 59.3291 406.908 55.579C403.626 52.2976 398.47 52.2976 395.188 55.579C391.907 58.8604 391.907 64.0168 395.188 67.2982C401.985 73.861 411.361 78.0799 421.674 78.0799C431.987 78.0799 441.362 73.861 448.159 67.0638C451.441 63.7824 451.441 58.626 448.159 55.3446C444.878 52.2976 439.721 52.2976 436.44 55.3446Z" fill="white" fill-opacity="0.2"/>
<path d="M298.475 8.8136H269.176V67.4099H298.475C313.128 67.4099 327.773 54.2919 327.773 38.1158C327.773 21.9397 313.128 8.8136 298.475 8.8136ZM298.475 51.4247C295.825 51.4237 293.235 50.6419 291.032 49.1782C288.829 47.7145 287.112 45.6346 286.099 43.2016C285.086 40.7685 284.822 38.0916 285.34 35.5093C285.858 32.927 287.135 30.5552 289.009 28.694C290.884 26.8328 293.272 25.5657 295.871 25.0529C298.47 24.5402 301.164 24.8047 303.612 25.8132C306.06 26.8217 308.152 28.5288 309.624 30.7187C311.095 32.9085 311.88 35.4827 311.879 38.1158C311.879 39.8644 311.533 41.5959 310.859 43.2112C310.185 44.8266 309.198 46.2943 307.953 47.5302C306.708 48.7662 305.23 49.7464 303.604 50.4146C301.978 51.0828 300.235 51.4261 298.475 51.4247Z" fill="white" fill-opacity="0.3"/>
<path d="M439.812 407.913C439.812 407.913 439.754 407.59 439.57 407.473C439.387 407.355 439.189 407.333 439.189 407.333L433.407 406.901L429.151 402.674C428.989 402.549 428.806 402.476 428.615 402.439C428.16 402.351 427.551 402.454 427.441 402.483L425.233 403.166C424.271 400.333 422.965 398.323 421.322 397.156C420.104 396.298 418.768 395.931 417.33 396.041C417.029 395.637 416.692 395.285 416.332 394.992C414.74 393.7 412.678 393.502 410.22 394.39C402.839 397.076 399.706 406.644 398.576 411.42L392.141 413.416C392.141 413.416 390.629 413.849 390.269 414.275C389.881 414.744 389.807 416.006 389.807 416.006L384.348 458.087L425.46 465.755L447.656 460.949L439.812 407.913ZM417.029 405.705L409.919 407.906C410.858 404.215 412.671 400.451 416.134 398.976C416.853 400.862 417.051 403.437 417.029 405.705ZM411.064 396.716C412.568 396.173 413.72 396.195 414.593 396.782C409.949 398.895 407.923 404.23 407.05 408.794L401.356 410.555C402.633 405.961 405.465 398.749 411.064 396.716ZM415.048 427.732C414.725 427.57 414.336 427.401 413.904 427.247C413.471 427.086 412.994 426.932 412.473 426.807C411.959 426.682 411.401 426.58 410.822 426.521C410.242 426.462 409.633 426.44 409.002 426.477C408.422 426.514 407.901 426.616 407.439 426.778C406.984 426.939 406.581 427.167 406.258 427.446C405.935 427.724 405.671 428.055 405.495 428.436C405.311 428.818 405.209 429.243 405.187 429.72C405.172 430.072 405.223 430.41 405.348 430.74C405.473 431.07 405.664 431.393 405.928 431.716C406.192 432.039 406.529 432.362 406.933 432.684C407.344 433.015 407.828 433.352 408.386 433.697C409.171 434.196 409.971 434.761 410.734 435.414C411.504 436.074 412.238 436.816 412.862 437.659C413.5 438.518 414.028 439.472 414.38 440.55C414.74 441.636 414.923 442.832 414.865 444.146C414.769 446.303 414.3 448.159 413.515 449.7C412.744 451.219 411.68 452.415 410.396 453.281C409.142 454.125 407.689 454.653 406.111 454.866C404.578 455.071 402.934 454.983 401.239 454.609C401.224 454.609 401.21 454.602 401.195 454.602C401.18 454.602 401.166 454.594 401.158 454.594C401.144 454.594 401.129 454.587 401.114 454.587C401.1 454.587 401.085 454.58 401.07 454.58C400.278 454.389 399.507 454.139 398.788 453.846C398.077 453.56 397.409 453.237 396.807 452.877C396.206 452.525 395.663 452.151 395.193 451.769C394.731 451.388 394.334 450.992 394.026 450.588L395.897 444.38C396.213 444.645 396.602 444.953 397.042 445.261C397.49 445.576 397.989 445.892 398.517 446.193C399.06 446.494 399.632 446.772 400.226 447C400.828 447.227 401.452 447.411 402.061 447.499C402.604 447.58 403.088 447.565 403.514 447.47C403.939 447.374 404.306 447.198 404.607 446.949C404.908 446.706 405.143 446.398 405.304 446.046C405.465 445.687 405.561 445.29 405.575 444.865C405.598 444.439 405.553 444.036 405.451 443.647C405.341 443.258 405.165 442.876 404.915 442.502C404.666 442.128 404.335 441.746 403.925 441.357C403.514 440.969 403.022 440.572 402.442 440.147C401.723 439.611 401.056 439.039 400.454 438.408C399.86 437.784 399.331 437.116 398.906 436.383C398.48 435.656 398.143 434.878 397.922 434.027C397.702 433.183 397.607 432.266 397.651 431.268C397.724 429.603 398.055 428.069 398.612 426.682C399.177 425.288 399.977 424.034 400.975 422.955C401.995 421.854 403.235 420.922 404.666 420.211C406.14 419.477 407.821 418.956 409.684 418.714C410.55 418.596 411.379 418.545 412.165 418.545C412.964 418.545 413.713 418.589 414.402 418.677C415.1 418.765 415.738 418.897 416.303 419.059C416.875 419.22 417.367 419.411 417.77 419.616L415.048 427.732ZM419.495 404.941C419.495 404.663 419.487 404.376 419.473 404.09C419.392 401.882 419.091 400.018 418.578 398.506C419.135 398.565 419.641 398.749 420.104 399.071C421.388 399.981 422.32 401.816 422.973 403.863L419.495 404.941Z" fill="white" fill-opacity="0.3"/>
<path d="M69.7027 415.786C68.6392 415.593 67.6725 416.173 66.7057 417.574C65.9323 418.686 65.4489 419.846 65.1589 421.006C65.0138 421.683 64.9655 422.408 64.9655 423.133C64.9655 423.955 65.1589 424.874 65.4972 425.744C65.9323 426.855 66.5123 427.484 67.1891 427.629C67.9142 427.774 68.6876 427.435 69.5093 426.71C70.5728 425.744 71.2979 424.342 71.6846 422.457C71.8296 421.78 71.8779 421.055 71.8779 420.33C71.8779 419.508 71.6846 418.59 71.3462 417.719C70.9595 416.511 70.3794 415.931 69.7027 415.786Z" fill="white" fill-opacity="0.3"/>
<path d="M53.2676 417.671C52.8326 416.559 52.2525 415.931 51.5758 415.786C50.5123 415.593 49.5455 416.173 48.5788 417.574C47.8053 418.686 47.322 419.846 47.0319 421.006C46.8869 421.683 46.8386 422.408 46.8386 423.133C46.8386 423.955 47.0319 424.874 47.3703 425.744C47.8053 426.855 48.3854 427.484 49.0622 427.629C49.7872 427.774 50.5606 427.435 51.3824 426.71C52.4458 425.744 53.1709 424.342 53.5576 422.457C53.7027 421.78 53.7993 421.055 53.751 420.33C53.7993 419.46 53.6543 418.541 53.2676 417.671Z" fill="white" fill-opacity="0.3"/>
<path d="M73.6666 403.846H15.8054C12.18 403.846 9.18301 406.843 9.23135 410.468V432.559C9.23135 436.233 12.18 439.182 15.8537 439.182H43.2617L55.7814 446.142L52.9294 439.182H73.6666C77.3404 439.182 80.289 436.233 80.289 432.559V410.468C80.289 406.795 77.3404 403.846 73.6666 403.846ZM38.6695 432.801C38.7179 433.526 38.6212 434.154 38.3312 434.686C37.9928 435.314 37.4611 435.653 36.7843 435.75C36.0109 435.798 35.2375 435.459 34.5124 434.686C31.8055 431.931 29.6786 427.822 28.1317 422.36C26.2465 426.033 24.8447 428.837 23.9746 430.674C22.2828 433.961 20.8326 435.653 19.6241 435.75C18.8507 435.798 18.174 435.121 17.5939 433.768C16.1438 429.997 14.5486 422.698 12.8084 411.822C12.7117 411.049 12.8567 410.42 13.2918 409.888C13.6785 409.357 14.3069 409.067 15.1287 408.97C16.5788 408.873 17.4489 409.55 17.6423 411.049C18.5607 417.091 19.5275 422.215 20.5426 426.372L26.8749 414.336C27.455 413.224 28.1801 412.644 29.0502 412.595C30.307 412.499 31.0804 413.32 31.4187 415.012C32.1438 418.831 33.0623 422.118 34.174 424.873C34.9475 417.526 36.2043 412.257 37.9928 408.97C38.4278 408.148 39.0562 407.761 39.878 407.713C40.5064 407.713 41.1348 407.907 41.6665 408.342C42.1982 408.777 42.4883 409.308 42.585 409.985C42.6333 410.517 42.5366 410.952 42.2949 411.387C41.1831 413.465 40.2647 416.946 39.4913 421.828C38.7662 426.517 38.4762 430.191 38.6695 432.801ZM56.4098 428.305C54.6696 431.206 52.446 432.656 49.6424 432.656C49.159 432.656 48.6273 432.608 48.0955 432.462C46.0653 432.027 44.5185 430.916 43.455 429.127C42.5366 427.532 42.0532 425.647 42.0532 423.423C42.0532 420.426 42.8266 417.719 44.3251 415.254C46.0653 412.354 48.3372 410.903 51.0925 410.903C51.5759 410.903 52.1076 410.952 52.6394 411.097C54.6696 411.532 56.2164 412.644 57.2799 414.432C58.1983 415.979 58.6817 417.864 58.6817 420.136C58.6334 423.085 57.9083 425.792 56.4098 428.305ZM74.4884 428.305C72.7482 431.206 70.5246 432.656 67.721 432.656C67.2376 432.656 66.7059 432.608 66.1742 432.462C64.1439 432.027 62.5971 430.916 61.5337 429.127C60.6152 427.532 60.1318 425.647 60.1318 423.423C60.1318 420.426 60.9053 417.719 62.4038 415.254C64.1439 412.354 66.4159 410.903 69.1712 410.903C69.6545 410.903 70.1863 410.952 70.718 411.097C72.7482 411.532 74.295 412.644 75.3585 414.432C76.2769 415.979 76.7603 417.864 76.7603 420.136C76.7603 423.085 75.9869 425.792 74.4884 428.305Z" fill="white" fill-opacity="0.3"/>
<path d="M452.401 108.462H377.823C374.358 108.462 371.538 111.307 371.538 114.804V157.089C371.538 160.586 374.358 163.431 377.823 163.431H452.401C455.866 163.431 458.685 160.586 458.685 157.089V114.804C458.685 111.307 455.866 108.462 452.401 108.462ZM420.559 152.426L409.665 152.437V135.946L401.495 146.517L393.325 135.946V152.437H382.432V119.455H393.325L401.495 130.449L409.665 119.455L420.559 119.445V152.426ZM436.821 155.175L423.282 135.946H431.452V119.455H442.345V135.946H450.515L436.821 155.175Z" fill="white" fill-opacity="0.3"/>
<path opacity="0.7" d="M169.055 246.397H149.317V256.266H169.055V246.397Z" fill="white" fill-opacity="0.3"/>
<path opacity="0.7" d="M198.648 246.397H178.923V256.266H198.648V246.397Z" fill="white" fill-opacity="0.3"/>
<path opacity="0.7" d="M198.654 226.659H149.303V236.528H198.654V226.659Z" fill="white" fill-opacity="0.3"/>
<path opacity="0.7" d="M178.924 206.923H149.315V216.792H178.924V206.923Z" fill="white" fill-opacity="0.3"/>
<path opacity="0.7" d="M198.66 206.923H188.792V216.792H198.66V206.923Z" fill="white" fill-opacity="0.3"/>
<path fill-rule="evenodd" clip-rule="evenodd" d="M165.738 404.809H163.063C159.151 404.809 155.981 407.979 155.981 411.89V432.816C158.528 434.373 161.349 435.099 163.603 435.433C163.287 434.8 163.109 434.087 163.109 433.336V416.668C163.109 416.663 163.109 416.658 163.109 416.653C163.108 416.377 163.118 410.151 165.738 404.809Z" fill="white" fill-opacity="0.3"/>
<path fill-rule="evenodd" clip-rule="evenodd" d="M196.35 414.566V411.891C196.35 407.978 193.179 404.809 189.269 404.809H168.343C166.786 407.355 166.059 410.176 165.725 412.43C166.359 412.114 167.072 411.937 167.823 411.937H184.49C184.495 411.937 184.501 411.937 184.506 411.937C184.782 411.936 191.007 411.945 196.35 414.566Z" fill="white" fill-opacity="0.3"/>
<path fill-rule="evenodd" clip-rule="evenodd" d="M186.434 445.113H189.109C193.021 445.113 196.191 441.943 196.191 438.032V417.107C193.644 415.549 190.823 414.823 188.57 414.489C188.885 415.123 189.063 415.836 189.063 416.587V433.254C189.063 433.259 189.063 433.264 189.063 433.269C189.064 433.545 189.054 439.771 186.434 445.113Z" fill="white" fill-opacity="0.3"/>
<path fill-rule="evenodd" clip-rule="evenodd" d="M155.853 435.198V437.873C155.853 441.785 159.023 444.955 162.934 444.955H183.86C185.417 442.408 186.143 439.587 186.477 437.334C185.843 437.649 185.131 437.827 184.38 437.827H167.712C167.707 437.827 167.702 437.827 167.697 437.827C167.421 437.828 161.195 437.818 155.853 435.198Z" fill="white" fill-opacity="0.3"/>
<path fill-rule="evenodd" clip-rule="evenodd" d="M179.263 395.385H160.824C153.005 395.385 146.646 401.719 146.621 409.542L146.643 409.541C146.643 409.541 147.232 423.107 152.535 429.595C152.902 430.044 153.292 430.459 153.699 430.843V411.915C153.699 406.695 157.916 402.463 163.151 402.463H167.139C167.816 401.509 168.608 400.629 169.533 399.873C171.958 397.89 175.624 396.433 179.263 395.385V395.385Z" fill="white" fill-opacity="0.3"/>
<path fill-rule="evenodd" clip-rule="evenodd" d="M205.608 428.026V409.587C205.608 401.768 199.274 395.41 191.451 395.385L191.452 395.406C191.452 395.406 177.886 395.996 171.398 401.299C170.949 401.666 170.534 402.055 170.15 402.462H189.078C194.298 402.462 198.53 406.68 198.53 411.914V415.903C199.484 416.58 200.364 417.371 201.12 418.296C203.103 420.722 204.56 424.387 205.608 428.026Z" fill="white" fill-opacity="0.3"/>
<path fill-rule="evenodd" clip-rule="evenodd" d="M172.971 454.372H191.41C199.229 454.372 205.588 448.038 205.613 440.215L205.591 440.216C205.591 440.216 205.002 426.65 199.699 420.162C199.332 419.713 198.942 419.297 198.535 418.914V437.842C198.535 443.062 194.318 447.294 189.083 447.294H185.095C184.418 448.248 183.626 449.128 182.701 449.884C180.275 451.867 176.61 453.324 172.971 454.372Z" fill="white" fill-opacity="0.3"/>
<path fill-rule="evenodd" clip-rule="evenodd" d="M146.685 421.735V440.173C146.685 447.993 153.019 454.351 160.842 454.376L160.841 454.354C160.841 454.354 174.407 453.765 180.895 448.462C181.344 448.095 181.759 447.706 182.143 447.298H163.215C157.995 447.298 153.763 443.081 153.763 437.847V433.858C152.809 433.181 151.929 432.39 151.172 431.465C149.19 429.039 147.732 425.374 146.685 421.735Z" fill="white" fill-opacity="0.3"/>
<path fill-rule="evenodd" clip-rule="evenodd" d="M303.124 302.765C311.243 302.765 318.637 305.877 324.179 310.971C321.462 310.898 318.751 312.513 318.639 316.211C318.411 323.685 327.577 325.278 322.638 340.313L318.552 352.749L307.425 319.971C307.253 319.464 307.453 319.175 308.077 319.175H311.223C311.386 319.175 311.52 319.035 311.52 318.864V317.001C311.52 316.83 311.386 316.683 311.223 316.691C305.265 316.951 299.343 316.953 293.456 316.691C293.292 316.684 293.159 316.831 293.159 317.002V318.865C293.159 319.036 293.292 319.176 293.456 319.176H296.619C297.323 319.176 297.52 319.41 297.686 319.864L302.258 332.367L295.38 353.135L284.074 319.836C283.934 319.418 284.104 319.175 284.506 319.175H288.11C288.274 319.175 288.408 319.036 288.408 318.865V317.002C288.408 316.831 288.273 316.682 288.11 316.691C284.329 316.892 280.533 316.932 276.997 316.969C282.546 308.421 292.174 302.765 303.122 302.765L303.122 302.765L303.124 302.765ZM330.5 319.07C332.892 323.477 334.25 328.526 334.25 333.891C334.25 345.665 327.708 355.913 318.063 361.203L327.77 333.707C329.274 329.452 330.67 323.701 330.499 319.07H330.499H330.5ZM313.545 363.227C310.286 364.386 306.779 365.018 303.124 365.018C299.974 365.018 296.935 364.548 294.07 363.679L303.66 336.199L313.544 363.228V363.228L313.545 363.227ZM289.804 362.03C279.278 357.038 271.996 346.313 271.996 333.892C271.996 329.288 272.998 324.917 274.793 320.984L289.805 362.03L289.805 362.03L289.804 362.03ZM303.123 299.844C321.922 299.844 337.169 315.091 337.169 333.891C337.169 352.691 321.922 367.937 303.123 367.937C284.323 367.937 269.076 352.691 269.076 333.891C269.076 315.091 284.323 299.844 303.123 299.844V299.844ZM303.123 297.692C323.111 297.692 339.322 313.903 339.322 333.892C339.322 353.88 323.111 370.091 303.123 370.091C283.134 370.091 266.923 353.88 266.923 333.892C266.923 313.903 283.134 297.692 303.123 297.692V297.692Z" fill="white" fill-opacity="0.3"/>
<path d="M191.499 105.255C187.51 102.775 183.738 101.802 179.975 99.3222C177.642 97.7471 174.406 93.9951 171.691 90.7692C171.168 95.9476 169.585 98.0535 167.775 99.5551C163.942 102.552 161.53 103.451 158.213 105.255C155.427 106.682 140.291 115.684 140.291 135.049C140.291 154.409 156.634 168.666 174.778 168.666C192.93 168.666 208.668 155.534 208.668 135.647C208.668 115.759 193.908 106.754 191.499 105.255ZM191.805 161.096C191.427 161.469 187.963 163.871 183.899 164.25C179.832 164.622 174.333 164.847 171.022 161.845C170.496 161.317 170.642 160.573 171.022 160.274C171.397 159.968 171.698 159.743 172.152 159.743C172.607 159.743 172.525 159.743 172.755 159.893C174.261 161.096 176.518 162.067 181.335 162.067C186.157 162.067 189.548 160.724 191.051 159.592C191.729 159.068 192.03 159.52 192.108 159.821C192.181 160.119 192.332 160.573 191.805 161.096ZM178.755 154.779C179.583 154.026 180.942 152.824 182.224 152.301C183.503 151.774 184.174 151.85 185.383 151.85C186.587 151.85 187.871 151.925 188.773 152.529C189.674 153.13 190.204 154.477 190.498 155.222C190.803 155.978 190.498 156.426 189.902 156.729C189.378 157.026 189.3 156.877 188.773 155.904C188.249 154.93 187.795 153.95 185.158 153.95C182.525 153.95 181.695 154.854 180.415 155.904C179.135 156.952 178.682 157.329 178.228 156.729C177.778 156.13 177.928 155.527 178.755 154.779ZM205.934 140.473C205.934 142.797 205.184 146.999 203.372 149.625C201.571 152.256 200.442 153.233 198.326 153.08C195.612 152.852 190.194 144.449 186.731 144.295C182.369 144.147 172.877 153.383 165.42 153.383C160.9 153.383 159.549 152.708 158.044 151.728C155.782 150.153 154.651 147.752 154.725 144.449C154.806 138.591 160.296 133.119 167.228 133.047C176.033 132.969 182.141 141.744 186.578 141.673C190.346 141.602 197.578 134.243 201.117 134.243C204.88 134.243 205.934 138.14 205.934 140.473Z" fill="white" fill-opacity="0.3"/>
<g opacity="0.3">
<path d="M390.033 250.664L392.522 252.114L420.246 203.681L417.757 202.232L390.033 250.664Z" fill="white"/>
<path d="M444.911 246.795H389.464V249.694H444.911V246.795Z" fill="white"/>
<path d="M390.561 248.424L418.295 264.575L419.732 262.065L391.997 245.913L390.561 248.424Z" fill="white"/>
<path d="M414.653 206.329L442.387 222.48L443.824 219.97L416.09 203.819L414.653 206.329Z" fill="white"/>
<path d="M390.568 219.959L392.005 222.469L419.739 206.318L418.302 203.808L390.568 219.959Z" fill="white"/>
<path d="M414.152 203.681L441.876 252.114L444.364 250.665L416.641 202.232L414.152 203.681Z" fill="white"/>
<path d="M394.536 218.037H391.662V250.34H394.536V218.037Z" fill="white"/>
<path d="M442.73 218.037H439.856V250.34H442.73V218.037Z" fill="white"/>
<path d="M416.55 261.155L417.805 263.348L441.927 249.301L440.672 247.108L416.55 261.155Z" fill="white"/>
<path d="M446.538 251.283C444.876 254.199 441.172 255.194 438.281 253.518C435.39 251.841 434.403 248.105 436.065 245.189C437.727 242.273 441.431 241.278 444.322 242.954C447.23 244.647 448.217 248.367 446.538 251.283Z" fill="white"/>
<path d="M398.309 223.188C396.648 226.104 392.943 227.099 390.052 225.423C387.161 223.747 386.174 220.01 387.836 217.094C389.498 214.178 393.203 213.183 396.094 214.859C398.985 216.553 399.971 220.272 398.309 223.188Z" fill="white"/>
<path d="M387.854 251.283C386.192 248.367 387.178 244.647 390.069 242.954C392.96 241.278 396.648 242.273 398.327 245.189C399.989 248.105 399.002 251.824 396.111 253.518C393.203 255.194 389.515 254.199 387.854 251.283Z" fill="white"/>
<path d="M436.082 223.188C434.42 220.272 435.407 216.553 438.298 214.859C441.189 213.183 444.876 214.178 446.555 217.094C448.217 220.01 447.23 223.729 444.34 225.423C441.449 227.099 437.744 226.104 436.082 223.188Z" fill="white"/>
<path d="M417.196 268.377C413.855 268.377 411.154 265.653 411.154 262.283C411.154 258.913 413.855 256.189 417.196 256.189C420.537 256.189 423.237 258.913 423.237 262.283C423.237 265.635 420.537 268.377 417.196 268.377Z" fill="white"/>
<path d="M417.196 212.188C413.855 212.188 411.154 209.464 411.154 206.094C411.154 202.724 413.855 200 417.196 200C420.537 200 423.237 202.724 423.237 206.094C423.237 209.464 420.537 212.188 417.196 212.188Z" fill="white"/>
</g>
<g opacity="0.3">
<path d="M276.497 218.462H269.972L257.484 249.4H265.059L267.347 243.213H279.122L281.41 249.4H288.985L276.497 218.462ZM276.722 237.025H269.747L273.197 228.024H273.272L276.722 237.025Z" fill="white"/>
<path d="M290.192 218.462V249.4H297.242V237.925H301.48C307.518 237.925 312.055 234.362 312.055 227.987C312.055 221.574 307.518 218.462 301.48 218.462H290.192ZM297.242 232.3V224.087H299.23C302.005 224.087 304.63 225.024 304.63 228.212C304.63 231.362 302.005 232.3 299.23 232.3H297.242Z" fill="white"/>
<path d="M322.219 218.462H315.169V249.4H322.219V218.462Z" fill="white"/>
<path d="M335.068 229.6C330.005 229.6 326.667 231.85 326.667 235.787C326.667 238.675 328.617 240.025 330.567 241.038C332.742 242.163 334.842 242.275 334.842 243.663C334.842 244.938 333.717 245.05 332.78 245.05C330.642 245.05 328.017 242.838 328.017 242.838L325.317 247.375C325.317 247.375 328.092 249.963 332.742 249.963C336.68 249.963 341.855 249.063 341.855 243.4C341.855 239.462 338.555 238.037 336.005 237.25C334.355 236.725 333.005 236.425 333.005 235.412C333.005 234.512 333.605 234.25 335.068 234.25C337.093 234.25 339.343 235.45 339.343 235.45L341.518 231.1C341.518 231.1 338.78 229.6 335.068 229.6Z" fill="white"/>
</g>
<g opacity="0.3">
<path d="M390.425 312.308H383.405V334.015C383.405 337.326 381.874 338.643 379.858 338.643C378.066 338.643 375.863 336.409 375.863 336.409L373.622 342.673C373.622 342.673 376.423 345.826 380.829 345.826C386.99 345.826 390.425 342.394 390.425 335.93V312.308Z" fill="white"/>
<path d="M402.849 324.159C397.809 324.159 394.486 326.553 394.486 330.743C394.486 333.815 396.427 335.252 398.369 336.329C400.534 337.526 402.625 337.646 402.625 339.122C402.625 340.479 401.505 340.598 400.572 340.598C398.443 340.598 395.83 338.244 395.83 338.244L393.141 343.072C393.141 343.072 395.904 345.826 400.534 345.826C404.455 345.826 409.608 344.868 409.608 338.843C409.608 334.653 406.322 333.137 403.783 332.299C402.14 331.74 400.796 331.421 400.796 330.344C400.796 329.386 401.393 329.107 402.849 329.107C404.866 329.107 407.106 330.383 407.106 330.383L409.272 325.755C409.272 325.755 406.546 324.159 402.849 324.159Z" fill="white"/>
<path d="M411.519 335.012C411.519 341.317 416.149 345.826 423.057 345.826C429.666 345.826 434.483 341.317 434.483 335.012C434.483 328.628 429.405 324.159 423.057 324.159C416.597 324.159 411.519 328.628 411.519 335.012ZM418.539 335.012C418.539 332.179 420.518 330.184 423.02 330.184C425.484 330.184 427.463 332.179 427.463 335.012C427.463 337.805 425.596 339.8 423.02 339.8C420.331 339.8 418.539 337.805 418.539 335.012Z" fill="white"/>
<path d="M437.514 345.227H444.123V333.655C444.123 331.62 446.065 329.665 448.044 329.665C450.172 329.665 451.479 331.62 451.479 333.655V345.227H458.088V331.74C458.088 326.034 453.196 324.159 449.686 324.159C447.596 324.159 445.691 325.316 444.198 326.912H444.123V324.757H437.514V345.227Z" fill="white"/>
</g>
<path d="M80 21.3415C78.0182 22.2218 75.8917 22.8189 73.6574 23.0854C75.9387 21.7159 77.6851 19.5437 78.5127 16.9633C76.3728 18.2315 74.0107 19.1524 71.4938 19.6517C69.4783 17.4963 66.6116 16.1538 63.4318 16.1538C57.3315 16.1538 52.3853 21.1122 52.3853 27.2241C52.3853 28.091 52.4829 28.9376 52.6714 29.7472C43.4923 29.285 35.353 24.8765 29.9055 18.1776C28.9532 19.8102 28.4115 21.7125 28.4115 23.7431C28.4115 27.585 30.3631 30.9749 33.3241 32.9582C31.5138 32.8975 29.8113 32.3983 28.3207 31.5685V31.7068C28.3207 37.0699 32.1296 41.5459 37.1801 42.5647C36.2548 42.8143 35.279 42.9526 34.2696 42.9526C33.5563 42.9526 32.8665 42.8817 32.1902 42.7468C33.5966 47.1486 37.6747 50.3496 42.5066 50.4373C38.7279 53.4056 33.9634 55.1697 28.7884 55.1697C27.8968 55.1697 27.0186 55.1158 26.1539 55.018C31.0429 58.165 36.8471 60 43.0853 60C63.4051 60 74.5122 43.128 74.5122 28.4958L74.4751 27.0623C76.6453 25.5106 78.5228 23.561 80 21.3415Z" fill="white" fill-opacity="0.3"/>
<defs>
<clipPath id="clip0">
<rect width="49.2209" height="49.2209" fill="white" transform="translate(152.929 11.495)"/>
</clipPath>
</defs>
</svg>
