<svg width="325" height="325" viewBox="0 0 325 325" fill="none" xmlns="http://www.w3.org/2000/svg">
<g opacity="0.3">
<path d="M29.2896 132.432L14.019 138.751C13.1698 139.103 13.1786 140.309 14.0331 140.648L29.3676 146.729C30.7151 147.263 32.2155 147.263 33.5627 146.729L48.8975 140.648C49.7518 140.309 49.7608 139.103 48.9114 138.751L33.641 132.432C32.2477 131.856 30.6827 131.856 29.2896 132.432Z" fill="white"/>
<path d="M32.8257 150.049V165.241C32.8257 165.963 33.5542 166.458 34.2259 166.192L51.3132 159.559C51.7033 159.404 51.9592 159.028 51.9592 158.608V143.417C51.9592 142.694 51.2306 142.199 50.5589 142.466L33.4716 149.098C33.0817 149.253 32.8257 149.63 32.8257 150.049Z" fill="white"/>
<path d="M28.8356 150.833L23.7644 153.281L23.2495 153.53L12.5447 158.66C11.8661 158.987 11 158.492 11 157.739V143.48C11 143.208 11.1398 142.972 11.3273 142.795C11.4056 142.716 11.4943 142.652 11.5864 142.601C11.8422 142.447 12.2071 142.406 12.5173 142.529L28.7504 148.961C29.5755 149.288 29.6403 150.444 28.8356 150.833Z" fill="white"/>
<path d="M28.8356 150.833L23.7644 153.281L11.3273 142.795C11.4056 142.716 11.4943 142.652 11.5864 142.601C11.8422 142.447 12.2071 142.406 12.5173 142.529L28.7504 148.961C29.5755 149.288 29.6403 150.444 28.8356 150.833Z" fill="white"/>
</g>
<g opacity="0.3">
<path d="M15.551 197.669C15.551 203.587 19.2265 207.138 26.5776 209.007L34.3648 210.814C41.3421 212.433 45.5784 216.421 45.5784 222.899C45.6407 225.703 44.7062 228.444 43.0242 230.687C43.0242 224.208 39.6601 220.719 31.6237 218.601L23.9611 216.857C17.7937 215.486 13.0591 212.184 13.0591 205.145C13.0591 202.466 13.9312 199.787 15.551 197.669" fill="white"/>
<path d="M38.2273 221.28C41.529 223.398 43.0242 226.388 43.0242 230.687C40.2208 234.238 35.4239 236.169 29.7548 236.169C20.2233 236.169 13.4328 231.434 12 223.273H21.1577C22.3414 227.011 25.4563 228.756 29.6925 228.756C34.7386 228.818 38.165 226.077 38.2273 221.28ZM20.3479 206.453C17.233 204.584 15.4264 201.22 15.551 197.607C18.2298 194.118 22.8398 192 28.4466 192C38.2273 192 43.8341 197.171 45.2669 204.397H36.4206C35.4239 201.532 32.9943 199.289 28.5712 199.289C23.7742 199.351 20.5348 202.092 20.3479 206.453Z" fill="white" fill-opacity="0.8"/>
</g>
<g opacity="0.3">
<path d="M188.578 63.5L169.85 74.4188V79.2623L177.831 84.0483L184.531 80.3978V76.1521L198.719 68.0046L208.689 73.7467L208.677 85.2277L195.008 93.1026L190.431 91.4095L184.338 95.2961L184.493 104.6L188.688 107.022L207.569 96.2626V89.7956L205.446 90.9382V95.0494L188.693 104.548L186.618 103.35L186.504 96.5169L190.436 93.8895L195.175 95.5814L210.985 86.4634L210.835 72.4429L198.721 65.5299L182.386 74.9099V79.1535L177.856 81.5623L171.995 78.0475V75.6511L188.528 66.0124L191.999 68.2239L194.096 67.0167L188.578 63.5ZM199.748 74.9232L196.232 77.0564L196.322 81.1679L199.927 83.1462L203.443 81.013L203.354 76.9017L199.748 74.9232ZM199.789 76.7805L201.765 77.8653L201.814 80.1195L199.887 81.2889L197.91 80.2043L197.861 77.9501L199.789 76.7805ZM181.693 86.1599L181.217 85.2579C181.112 85.0596 180.866 84.9837 180.668 85.0884L177.552 86.7323C177.354 86.8369 177.278 87.0826 177.382 87.281L177.859 88.1836C177.963 88.3818 178.209 88.4579 178.407 88.3531L181.523 86.7087C181.721 86.6039 181.797 86.3582 181.693 86.1599ZM183.495 88.8991L183.019 87.9967C182.911 87.7921 182.655 87.7188 182.455 87.8355L177.2 90.9079C177.012 91.0178 176.944 91.2558 177.046 91.448L177.522 92.3503C177.63 92.5549 177.886 92.6282 178.086 92.5115L183.341 89.4391C183.528 89.3294 183.596 89.0914 183.495 88.8991ZM183.986 90.7526L177.808 94.3038C177.618 94.4126 177.549 94.652 177.651 94.8453L178.127 95.7475C178.234 95.9509 178.489 96.0247 178.689 95.9101L184.866 92.3589C185.056 92.2499 185.125 92.0105 185.023 91.8172L184.547 90.915C184.44 90.7117 184.185 90.638 183.986 90.7526Z" fill="white"/>
</g>
<g opacity="0.3" clip-path="url(#clip0)">
<path d="M111.812 18.4321C112.603 17.7352 113.333 17.0383 114.123 16.4048C113.515 15.9613 112.968 15.5812 112.42 15.201C111.751 15.7712 111.082 16.4048 110.413 17.0383C111.082 17.2917 111.569 17.7985 111.812 18.4321Z" fill="white"/>
<path d="M109.859 21.5996C111.304 21.6036 112.478 20.4439 112.481 19.0093C112.485 17.5748 111.317 16.4086 109.872 16.4046C108.428 16.4007 107.254 17.5604 107.25 18.995C107.247 20.4295 108.415 21.5957 109.859 21.5996Z" fill="white"/>
<path d="M112.238 33.5736C108.649 35.6009 105.547 36.1077 104.148 34.7139C102.202 32.75 103.966 27.6183 108.224 22.4233C107.554 22.2333 107.007 21.7264 106.703 21.0929C100.499 28.3152 97.7009 35.6009 100.438 38.3251C102.689 40.6058 108.102 39.0853 114.063 35.0307C113.454 34.5872 112.846 34.0804 112.238 33.5736Z" fill="white"/>
<path d="M116.494 16.2776C116.676 15.5807 117.163 15.0106 117.771 14.6938C110.594 8.54849 103.295 5.82429 100.558 8.54849C98.3073 10.8292 99.7671 16.2143 103.842 22.1695C104.329 21.536 104.816 20.9658 105.302 20.3323C103.295 16.7211 102.748 13.6168 104.146 12.1596C106.154 10.1957 111.263 12.0329 116.494 16.2776Z" fill="white"/>
<path d="M121.362 18.0519C121.118 18.6854 120.571 19.1922 119.963 19.4457C120.875 20.396 121.726 21.2829 122.456 22.2332C122.882 21.663 123.308 21.0929 123.612 20.5227C122.943 19.6991 122.152 18.8755 121.362 18.0519Z" fill="white"/>
<path d="M119.902 20.5861C121.362 20.5861 122.517 19.4457 122.517 17.9886C122.517 16.5315 121.362 15.3911 119.902 15.3911C118.442 15.3911 117.286 16.5315 117.286 17.9886C117.286 19.3824 118.442 20.5861 119.902 20.5861Z" fill="white"/>
<path d="M126.653 12.2234C128.6 14.1874 126.836 19.319 122.578 24.514C123.247 24.7041 123.795 25.2109 124.099 25.8444C130.242 18.6221 133.04 11.2731 130.303 8.54889C128.052 6.33151 122.639 7.852 116.739 11.9066C117.347 12.3501 117.955 12.8569 118.564 13.3638C122.152 11.3364 125.254 10.8296 126.653 12.2234Z" fill="white"/>
<path d="M119.415 28.0618C118.503 28.9487 117.53 29.7723 116.617 30.5326C117.226 30.976 117.773 31.3562 118.381 31.7363C119.233 31.0394 120.023 30.2791 120.875 29.4555C120.206 29.2021 119.719 28.6953 119.415 28.0618Z" fill="white"/>
<path d="M120.912 25.3707C119.468 25.3666 118.294 26.5262 118.29 27.9607C118.286 29.3953 119.454 30.5616 120.898 30.5657C122.343 30.5699 123.517 29.4103 123.521 27.9757C123.524 26.5412 122.357 25.3749 120.912 25.3707Z" fill="white"/>
<path d="M110.839 27.555C109.927 26.6047 109.075 25.7178 108.345 24.7675C107.919 25.3376 107.494 25.9078 107.189 26.478C107.919 27.3016 108.649 28.1252 109.44 28.9488C109.683 28.3153 110.17 27.8084 110.839 27.555Z" fill="white"/>
<path d="M126.957 24.8307C126.471 25.4642 125.984 26.0344 125.498 26.6679C127.505 30.2791 128.052 33.3201 126.592 34.7772C124.585 36.7412 119.476 34.9039 114.245 30.7226C114.063 31.4195 113.576 31.9896 112.968 32.3064C120.206 38.4517 127.505 41.2393 130.242 38.5151C132.492 36.171 131.033 30.7226 126.957 24.8307Z" fill="white"/>
<path d="M113.527 28.9828C113.53 27.5483 112.362 26.3821 110.918 26.3782C109.473 26.3742 108.299 27.534 108.296 28.9685C108.292 30.4031 109.46 31.5692 110.905 31.5732C112.349 31.5771 113.523 30.4174 113.527 28.9828Z" fill="white"/>
</g>
<g opacity="0.3">
<path d="M95.8037 203.837V225.221L100.916 228.277V206.782L100.983 206.737L95.8371 203.814L95.8037 203.837ZM128.958 206.737L129.036 206.782V228.322L134.148 225.221V203.837L134.115 203.814L128.958 206.737ZM117.766 230.7L114.987 232.456L112.186 230.7V213.128L105.929 209.56V231.422L114.987 237.057L124.023 231.422V209.538L117.766 213.084V230.7Z" fill="white"/>
<path d="M114.986 192L95.8362 203.815L100.982 206.738L114.986 198.046L128.957 206.738L134.114 203.815L114.986 192Z" fill="white"/>
<path d="M112.186 205.637L105.929 209.516V209.561L112.186 213.128V205.637ZM117.766 205.637V213.084L124.023 209.538V209.516L117.766 205.637Z" fill="white"/>
</g>
<path d="M32.4795 68.6914C37.9476 68.6914 38.5961 68.7119 40.7567 68.8109C46.3066 69.0635 48.899 71.6968 49.1516 77.2058C49.2505 79.3647 49.2693 80.0132 49.2693 85.4812C49.2693 90.951 49.2488 91.5978 49.1516 93.7567C48.8973 99.2605 46.3117 101.899 40.7567 102.152C38.5961 102.251 37.951 102.271 32.4795 102.271C27.0115 102.271 26.363 102.251 24.2041 102.152C18.6405 101.897 16.0618 99.252 15.8092 93.755C15.7102 91.5961 15.6897 90.9493 15.6897 85.4795C15.6897 80.0115 15.7119 79.3647 15.8092 77.2041C16.0635 71.6968 18.649 69.0618 24.2041 68.8092C26.3647 68.7119 27.0115 68.6914 32.4795 68.6914V68.6914ZM32.4795 65C26.9176 65 26.2213 65.0239 24.0368 65.1229C16.5994 65.4642 12.4659 69.5908 12.1246 77.0351C12.0239 79.2213 12 79.9176 12 85.4795C12 91.0414 12.0239 91.7394 12.1229 93.9239C12.4642 101.361 16.5908 105.495 24.0351 105.836C26.2213 105.935 26.9176 105.959 32.4795 105.959C38.0414 105.959 38.7394 105.935 40.9239 105.836C48.3546 105.495 52.4983 101.368 52.8345 93.9239C52.9352 91.7394 52.959 91.0414 52.959 85.4795C52.959 79.9176 52.9352 79.2213 52.8362 77.0368C52.5017 69.6062 48.3699 65.4659 40.9256 65.1246C38.7394 65.0239 38.0414 65 32.4795 65V65ZM32.4795 74.9633C26.6719 74.9633 21.9633 79.6719 21.9633 85.4795C21.9633 91.2872 26.6719 95.9975 32.4795 95.9975C38.2872 95.9975 42.9958 91.2889 42.9958 85.4795C42.9958 79.6719 38.2872 74.9633 32.4795 74.9633ZM32.4795 92.306C28.7096 92.306 25.653 89.2512 25.653 85.4795C25.653 81.7096 28.7096 78.653 32.4795 78.653C36.2495 78.653 39.306 81.7096 39.306 85.4795C39.306 89.2512 36.2495 92.306 32.4795 92.306ZM43.4122 72.091C42.0537 72.091 40.9529 73.1918 40.9529 74.5486C40.9529 75.9053 42.0537 77.0061 43.4122 77.0061C44.7689 77.0061 45.868 75.9053 45.868 74.5486C45.868 73.1918 44.7689 72.091 43.4122 72.091Z" fill="white" fill-opacity="0.3"/>
<path fill-rule="evenodd" clip-rule="evenodd" d="M217.926 276.16H222.348L222.863 273.655H218.441L219.195 269.992H219.18L215.826 272.428L215.574 273.655H212.101L213.116 268.72C213.355 266.858 216.417 267.421 216.873 267.527L217.363 265.148C211.856 263.188 210.249 268.72 210.249 268.72L209.234 273.655H209.216L205.768 276.16H208.719L205.476 291.923H208.344L211.586 276.16H215.059L213.79 282.33C212.983 286.822 217.842 286.33 219.392 286.042L219.877 283.689C216.167 284.464 216.656 282.33 216.656 282.33L217.926 276.16ZM200.967 282.63C197.983 285.465 196.073 283.608 196.073 283.608C194.779 282.442 196.209 281.244 196.209 281.244C198.182 279.574 201.203 281.409 201.203 281.409L200.967 282.63ZM201.627 279.21C201.627 279.21 197.519 277.258 194.643 279.432C194.643 279.432 192.959 280.472 192.959 282.552C192.959 284.632 195.018 285.75 195.018 285.75C195.018 285.75 198.114 287.264 200.539 284.845L200.271 285.971H202.983L204.687 278.484C205.966 271.097 196.462 273.715 196.462 273.715L195.944 276.371C202.95 273.543 201.77 278.47 201.77 278.47L201.627 279.21ZM194.034 273.663C191.822 273.684 189.813 274.827 189.813 274.827L190.07 273.706H187.415L184.994 285.994H187.706L189.348 277.91C190.561 275.626 193.561 276.336 193.561 276.336L194.034 273.663ZM183.686 268.397C183.823 268.493 183.953 268.594 184.081 268.698L186.139 267.202L186.203 267.125C185.888 266.83 185.55 266.551 185.183 266.295C180.46 262.993 173.322 264.375 169.242 269.382C165.162 274.389 165.684 281.123 170.407 284.425C174.264 287.121 179.728 286.693 183.826 283.721L183.821 283.713L181.862 282.29C178.826 284.098 175.06 284.228 172.335 282.323C168.707 279.787 168.306 274.614 171.44 270.768C174.575 266.922 180.057 265.861 183.686 268.397Z" fill="white" fill-opacity="0.3"/>
<path d="M264.49 35.9742C261.9 33.5366 260.376 30.1849 260.376 26.3762C260.376 22.5674 261.9 19.2157 264.338 16.7781C266.47 14.6452 266.47 11.2935 264.338 9.16059C262.205 7.02769 258.853 7.02769 256.72 9.16059C252.454 13.5788 249.712 19.6728 249.712 26.3762C249.712 33.0796 252.454 39.1736 256.872 43.5918C259.005 45.7247 262.357 45.7247 264.49 43.5918C266.47 41.4589 266.47 38.1072 264.49 35.9742Z" fill="white" fill-opacity="0.2"/>
<path d="M264.49 16.778C266.927 14.188 270.279 12.6645 274.088 12.6645C277.897 12.6645 281.248 14.188 283.686 16.6256C285.819 18.7585 289.171 18.7585 291.304 16.6256C293.436 14.4927 293.436 11.141 291.304 9.00811C286.885 4.74231 280.791 2 274.088 2C267.385 2 261.291 4.74231 256.872 9.16046C254.739 11.2934 254.739 14.6451 256.872 16.778C259.005 18.7585 262.357 18.7585 264.49 16.778Z" fill="white" fill-opacity="0.2"/>
<path d="M283.686 35.9739C281.248 38.5639 277.897 40.0874 274.088 40.0874C270.279 40.0874 266.927 38.5639 264.49 36.1263C262.357 33.9934 259.005 33.9934 256.872 36.1263C254.739 38.2592 254.739 41.6109 256.872 43.7438C261.291 48.0096 267.385 50.7519 274.088 50.7519C280.791 50.7519 286.885 48.0096 291.304 43.5915C293.436 41.4586 293.436 38.1068 291.304 35.9739C289.171 33.9934 285.819 33.9934 283.686 35.9739Z" fill="white" fill-opacity="0.2"/>
<path d="M194.009 5.72888H174.965V43.8165H194.009C203.533 43.8165 213.052 35.2898 213.052 24.7753C213.052 14.2609 203.533 5.72888 194.009 5.72888ZM194.009 33.4261C192.286 33.4254 190.603 32.9173 189.171 31.9659C187.739 31.0144 186.623 29.6625 185.965 28.0811C185.306 26.4996 185.134 24.7596 185.471 23.0811C185.807 21.4026 186.638 19.8609 187.856 18.6512C189.074 17.4414 190.627 16.6178 192.316 16.2844C194.006 15.9511 195.757 16.1231 197.348 16.7786C198.939 17.4342 200.299 18.5438 201.255 19.9672C202.212 21.3906 202.722 23.0638 202.721 24.7753C202.722 25.9119 202.496 27.0374 202.058 28.0874C201.62 29.1373 200.978 30.0913 200.169 30.8947C199.36 31.6981 198.4 32.3352 197.343 32.7695C196.286 33.2039 195.153 33.427 194.009 33.4261Z" fill="white" fill-opacity="0.3"/>
<path d="M285.878 265.143C285.878 265.143 285.84 264.934 285.721 264.857C285.601 264.781 285.473 264.767 285.473 264.767L281.714 264.485L278.948 261.738C278.843 261.657 278.724 261.609 278.6 261.586C278.304 261.528 277.908 261.595 277.837 261.614L276.401 262.058C275.776 260.217 274.927 258.91 273.859 258.152C273.067 257.594 272.199 257.355 271.265 257.427C271.069 257.164 270.85 256.935 270.616 256.745C269.581 255.905 268.241 255.776 266.643 256.354C261.845 258.099 259.809 264.318 259.074 267.423L254.891 268.721C254.891 268.721 253.909 269.002 253.675 269.279C253.422 269.584 253.375 270.404 253.375 270.404L249.826 297.756L276.549 302.74L290.976 299.617L285.878 265.143ZM271.069 263.708L266.448 265.139C267.058 262.74 268.236 260.293 270.487 259.334C270.955 260.56 271.083 262.234 271.069 263.708ZM267.192 257.865C268.169 257.512 268.918 257.527 269.486 257.908C266.467 259.282 265.15 262.749 264.583 265.716L260.882 266.86C261.712 263.875 263.553 259.187 267.192 257.865ZM269.781 278.026C269.571 277.921 269.319 277.811 269.037 277.711C268.756 277.606 268.446 277.506 268.107 277.425C267.773 277.344 267.411 277.277 267.034 277.239C266.657 277.2 266.262 277.186 265.851 277.21C265.475 277.234 265.136 277.301 264.835 277.406C264.54 277.51 264.277 277.658 264.068 277.84C263.858 278.021 263.686 278.235 263.572 278.483C263.452 278.731 263.386 279.008 263.371 279.318C263.362 279.547 263.395 279.766 263.476 279.981C263.557 280.196 263.681 280.405 263.853 280.615C264.025 280.825 264.244 281.035 264.506 281.245C264.773 281.46 265.088 281.679 265.451 281.903C265.961 282.227 266.481 282.595 266.977 283.019C267.478 283.448 267.955 283.93 268.36 284.479C268.775 285.037 269.118 285.657 269.347 286.358C269.581 287.064 269.7 287.841 269.662 288.695C269.6 290.097 269.295 291.304 268.785 292.305C268.284 293.292 267.592 294.07 266.758 294.633C265.942 295.181 264.998 295.524 263.972 295.663C262.975 295.796 261.907 295.739 260.805 295.496C260.796 295.496 260.786 295.491 260.777 295.491C260.767 295.491 260.758 295.486 260.753 295.486C260.743 295.486 260.734 295.481 260.724 295.481C260.715 295.481 260.705 295.477 260.696 295.477C260.181 295.353 259.68 295.191 259.212 295C258.75 294.814 258.316 294.604 257.925 294.37C257.534 294.141 257.181 293.898 256.875 293.65C256.575 293.402 256.317 293.144 256.117 292.882L257.333 288.847C257.538 289.019 257.791 289.219 258.077 289.42C258.368 289.625 258.693 289.83 259.036 290.025C259.389 290.221 259.761 290.402 260.147 290.55C260.538 290.698 260.944 290.817 261.34 290.874C261.692 290.927 262.007 290.917 262.284 290.855C262.56 290.793 262.799 290.679 262.995 290.517C263.19 290.359 263.343 290.159 263.448 289.93C263.553 289.696 263.615 289.439 263.624 289.162C263.638 288.885 263.61 288.623 263.543 288.37C263.471 288.118 263.357 287.87 263.195 287.626C263.033 287.383 262.818 287.135 262.551 286.882C262.284 286.63 261.964 286.372 261.588 286.095C261.12 285.747 260.686 285.375 260.295 284.965C259.909 284.56 259.565 284.126 259.289 283.649C259.012 283.177 258.793 282.671 258.65 282.118C258.507 281.569 258.445 280.973 258.473 280.324C258.521 279.242 258.735 278.245 259.098 277.344C259.465 276.437 259.985 275.622 260.634 274.921C261.297 274.205 262.103 273.6 263.033 273.137C263.991 272.66 265.083 272.321 266.295 272.164C266.858 272.088 267.397 272.054 267.907 272.054C268.427 272.054 268.913 272.083 269.362 272.14C269.815 272.197 270.23 272.283 270.597 272.388C270.969 272.493 271.288 272.617 271.551 272.751L269.781 278.026ZM272.672 263.212C272.672 263.031 272.667 262.845 272.657 262.659C272.605 261.223 272.409 260.012 272.075 259.029C272.438 259.067 272.767 259.187 273.067 259.396C273.902 259.988 274.508 261.18 274.932 262.511L272.672 263.212Z" fill="white" fill-opacity="0.3"/>
<path d="M45.3067 270.261C44.6155 270.135 43.9871 270.512 43.3587 271.423C42.856 272.146 42.5418 272.9 42.3532 273.654C42.259 274.094 42.2276 274.565 42.2276 275.037C42.2276 275.571 42.3532 276.168 42.5732 276.733C42.856 277.456 43.233 277.864 43.6729 277.959C44.1442 278.053 44.6469 277.833 45.1811 277.362C45.8723 276.733 46.3436 275.822 46.595 274.597C46.6892 274.157 46.7206 273.686 46.7206 273.214C46.7206 272.68 46.595 272.083 46.375 271.518C46.1237 270.732 45.7466 270.355 45.3067 270.261Z" fill="white" fill-opacity="0.3"/>
<path d="M34.6239 271.486C34.3412 270.764 33.9641 270.355 33.5242 270.261C32.833 270.135 32.2046 270.512 31.5762 271.423C31.0735 272.146 30.7593 272.9 30.5707 273.654C30.4765 274.094 30.4451 274.565 30.4451 275.037C30.4451 275.571 30.5707 276.168 30.7907 276.733C31.0735 277.456 31.4505 277.864 31.8904 277.959C32.3617 278.053 32.8644 277.833 33.3986 277.362C34.0898 276.733 34.5611 275.822 34.8125 274.597C34.9067 274.157 34.9696 273.686 34.9381 273.214C34.9696 272.649 34.8753 272.052 34.6239 271.486Z" fill="white" fill-opacity="0.3"/>
<path d="M47.8833 262.5H10.2735C7.917 262.5 5.96895 264.448 6.00037 266.805V281.164C6.00037 283.551 7.917 285.468 10.3049 285.468H28.1201L36.2579 289.993L34.4041 285.468H47.8833C50.2712 285.468 52.1879 283.551 52.1879 281.164V266.805C52.1879 264.417 50.2712 262.5 47.8833 262.5ZM25.1352 281.321C25.1666 281.792 25.1038 282.2 24.9153 282.546C24.6953 282.954 24.3497 283.174 23.9098 283.237C23.4071 283.269 22.9044 283.049 22.4331 282.546C20.6735 280.755 19.2911 278.084 18.2856 274.534C17.0602 276.922 16.1491 278.744 15.5835 279.938C14.4838 282.075 13.5412 283.174 12.7557 283.237C12.253 283.269 11.8131 282.829 11.436 281.949C10.4934 279.498 9.45658 274.754 8.32546 267.684C8.26262 267.182 8.35688 266.773 8.63966 266.428C8.89102 266.082 9.29948 265.893 9.83362 265.831C10.7762 265.768 11.3418 266.208 11.4675 267.182C12.0644 271.109 12.6928 274.44 13.3527 277.142L17.4687 269.318C17.8457 268.595 18.317 268.218 18.8826 268.187C19.6995 268.124 20.2022 268.658 20.4222 269.758C20.8935 272.24 21.4905 274.377 22.2131 276.168C22.7158 271.392 23.5328 267.967 24.6953 265.831C24.9781 265.296 25.3866 265.045 25.9207 265.014C26.3292 265.014 26.7376 265.139 27.0832 265.422C27.4289 265.705 27.6174 266.05 27.6802 266.49C27.7116 266.836 27.6488 267.119 27.4917 267.402C26.769 268.753 26.1721 271.015 25.6693 274.188C25.198 277.236 25.0095 279.624 25.1352 281.321ZM36.6664 278.399C35.5352 280.284 34.0899 281.226 32.2675 281.226C31.9533 281.226 31.6077 281.195 31.2621 281.101C29.9425 280.818 28.937 280.095 28.2458 278.933C27.6488 277.896 27.3346 276.67 27.3346 275.225C27.3346 273.277 27.8373 271.518 28.8113 269.915C29.9425 268.03 31.4192 267.087 33.2101 267.087C33.5243 267.087 33.87 267.119 34.2156 267.213C35.5352 267.496 36.5407 268.218 37.2319 269.381C37.8289 270.386 38.1431 271.612 38.1431 273.089C38.1117 275.005 37.6404 276.765 36.6664 278.399ZM48.4175 278.399C47.2863 280.284 45.841 281.226 44.0186 281.226C43.7044 281.226 43.3588 281.195 43.0132 281.101C41.6936 280.818 40.6881 280.095 39.9969 278.933C39.3999 277.896 39.0857 276.67 39.0857 275.225C39.0857 273.277 39.5884 271.518 40.5624 269.915C41.6936 268.03 43.1703 267.087 44.9612 267.087C45.2754 267.087 45.6211 267.119 45.9667 267.213C47.2863 267.496 48.2918 268.218 48.983 269.381C49.58 270.386 49.8942 271.612 49.8942 273.089C49.8942 275.005 49.3915 276.765 48.4175 278.399Z" fill="white" fill-opacity="0.3"/>
<path d="M294.061 70.5H245.585C243.333 70.5 241.5 72.3494 241.5 74.6227V102.108C241.5 104.381 243.333 106.23 245.585 106.23H294.061C296.313 106.23 298.146 104.381 298.146 102.108V74.6227C298.146 72.3494 296.313 70.5 294.061 70.5ZM273.363 99.0772L266.282 99.0842V88.3651L260.972 95.2363L255.661 88.3651V99.0842H248.581V77.646H255.661L260.972 84.7921L266.282 77.646L273.363 77.6391V99.0772ZM283.934 100.864L275.133 88.3651H280.444V77.646H287.524V88.3651H292.835L283.934 100.864Z" fill="white" fill-opacity="0.3"/>
<path opacity="0.7" d="M109.886 160.158H97.0563V166.573H109.886V160.158Z" fill="white" fill-opacity="0.3"/>
<path opacity="0.7" d="M129.121 160.158H116.3V166.573H129.121V160.158Z" fill="white" fill-opacity="0.3"/>
<path opacity="0.7" d="M129.125 147.329H97.0467V153.743H129.125V147.329Z" fill="white" fill-opacity="0.3"/>
<path opacity="0.7" d="M116.301 134.5H97.0548V140.914H116.301V134.5Z" fill="white" fill-opacity="0.3"/>
<path opacity="0.7" d="M129.129 134.5H122.715V140.915H129.129V134.5Z" fill="white" fill-opacity="0.3"/>
<path fill-rule="evenodd" clip-rule="evenodd" d="M107.73 263.126H105.991C103.448 263.126 101.388 265.187 101.388 267.729V281.33C103.043 282.343 104.877 282.815 106.342 283.032C106.136 282.62 106.021 282.157 106.021 281.668V270.835C106.021 270.831 106.021 270.828 106.021 270.825C106.02 270.645 106.027 266.598 107.73 263.126Z" fill="white" fill-opacity="0.3"/>
<path fill-rule="evenodd" clip-rule="evenodd" d="M127.627 269.468V267.729C127.627 265.186 125.567 263.126 123.025 263.126H109.423C108.411 264.781 107.939 266.615 107.722 268.08C108.133 267.874 108.597 267.759 109.085 267.759H119.919C119.922 267.759 119.925 267.759 119.929 267.759C120.108 267.758 124.155 267.765 127.627 269.468Z" fill="white" fill-opacity="0.3"/>
<path fill-rule="evenodd" clip-rule="evenodd" d="M121.182 289.324H122.921C125.464 289.324 127.524 287.263 127.524 284.721V271.119C125.869 270.107 124.035 269.635 122.57 269.418C122.776 269.83 122.891 270.293 122.891 270.781V281.615C122.891 281.618 122.891 281.622 122.891 281.625C122.892 281.805 122.885 285.851 121.182 289.324Z" fill="white" fill-opacity="0.3"/>
<path fill-rule="evenodd" clip-rule="evenodd" d="M101.304 282.879V284.617C101.304 287.16 103.365 289.221 105.907 289.221H119.509C120.521 287.565 120.993 285.732 121.21 284.267C120.798 284.472 120.335 284.588 119.847 284.588H109.013C109.01 284.588 109.006 284.588 109.003 284.588C108.824 284.588 104.777 284.582 101.304 282.879Z" fill="white" fill-opacity="0.3"/>
<path fill-rule="evenodd" clip-rule="evenodd" d="M116.521 257.001H104.536C99.4531 257.001 95.32 261.118 95.3037 266.203L95.318 266.202C95.318 266.202 95.701 275.02 99.1479 279.237C99.3864 279.529 99.6397 279.799 99.9044 280.048V267.745C99.9044 264.352 102.646 261.601 106.048 261.601H108.641C109.081 260.981 109.595 260.409 110.196 259.918C111.773 258.629 114.156 257.682 116.521 257.001V257.001Z" fill="white" fill-opacity="0.3"/>
<path fill-rule="evenodd" clip-rule="evenodd" d="M133.645 278.217V266.232C133.645 261.149 129.528 257.016 124.443 257L124.444 257.014C124.444 257.014 115.626 257.397 111.408 260.844C111.117 261.083 110.847 261.336 110.597 261.601H122.901C126.294 261.601 129.044 264.342 129.044 267.744V270.337C129.664 270.777 130.237 271.291 130.728 271.892C132.017 273.469 132.964 275.852 133.645 278.217Z" fill="white" fill-opacity="0.3"/>
<path fill-rule="evenodd" clip-rule="evenodd" d="M112.431 295.342H124.416C129.499 295.342 133.632 291.225 133.648 286.14L133.634 286.14C133.634 286.14 133.251 277.322 129.804 273.105C129.566 272.813 129.312 272.543 129.048 272.294V284.597C129.048 287.99 126.306 290.741 122.904 290.741H120.311C119.871 291.361 119.357 291.933 118.756 292.425C117.179 293.714 114.796 294.661 112.431 295.342Z" fill="white" fill-opacity="0.3"/>
<path fill-rule="evenodd" clip-rule="evenodd" d="M95.3452 274.128V286.113C95.3452 291.195 99.4622 295.328 104.547 295.345L104.547 295.33C104.547 295.33 113.364 294.947 117.582 291.501C117.874 291.262 118.143 291.009 118.393 290.744H106.09C102.697 290.744 99.9459 288.003 99.9459 284.6V282.008C99.3258 281.568 98.7535 281.054 98.262 280.452C96.9733 278.875 96.0261 276.493 95.3452 274.128Z" fill="white" fill-opacity="0.3"/>
<path fill-rule="evenodd" clip-rule="evenodd" d="M197.03 196.797C202.308 196.797 207.114 198.82 210.716 202.131C208.95 202.084 207.188 203.134 207.116 205.537C206.967 210.395 212.925 211.43 209.715 221.203L207.059 229.287L199.826 207.981C199.714 207.651 199.845 207.464 200.25 207.464H202.295C202.401 207.464 202.488 207.373 202.488 207.262V206.051C202.488 205.94 202.401 205.844 202.295 205.849C198.422 206.018 194.573 206.019 190.746 205.849C190.64 205.844 190.553 205.94 190.553 206.051V207.262C190.553 207.373 190.64 207.464 190.746 207.464H192.802C193.26 207.464 193.388 207.617 193.496 207.911L196.467 216.039L191.997 229.538L184.648 207.893C184.557 207.622 184.668 207.464 184.929 207.464H187.272C187.378 207.464 187.465 207.373 187.465 207.262V206.051C187.465 205.94 187.378 205.844 187.272 205.849C184.814 205.98 182.346 206.006 180.048 206.03C183.655 200.474 189.913 196.797 197.029 196.797L197.029 196.797L197.03 196.797ZM214.825 207.396C216.38 210.26 217.262 213.542 217.262 217.029C217.262 224.682 213.01 231.344 206.741 234.782L213.051 216.91C214.028 214.144 214.936 210.406 214.824 207.396H214.824H214.825ZM203.804 236.097C201.686 236.851 199.406 237.262 197.03 237.262C194.983 237.262 193.008 236.956 191.146 236.392L197.379 218.53L203.804 236.098V236.098L203.804 236.097ZM188.373 235.319C181.531 232.074 176.798 225.104 176.798 217.03C176.798 214.037 177.449 211.196 178.616 208.64L188.373 235.32L188.373 235.32L188.373 235.319ZM197.03 194.899C209.25 194.899 219.16 204.809 219.16 217.029C219.16 229.249 209.25 239.159 197.03 239.159C184.81 239.159 174.899 229.249 174.899 217.029C174.899 204.809 184.81 194.899 197.03 194.899V194.899ZM197.03 193.5C210.022 193.5 220.559 204.037 220.559 217.03C220.559 230.022 210.022 240.559 197.03 240.559C184.037 240.559 173.5 230.022 173.5 217.03C173.5 204.037 184.037 193.5 197.03 193.5V193.5Z" fill="white" fill-opacity="0.3"/>
<path d="M124.475 68.4155C121.881 66.8039 119.43 66.1715 116.984 64.5594C115.468 63.5356 113.364 61.0968 111.599 59C111.259 62.366 110.23 63.7348 109.054 64.7108C106.562 66.6587 104.994 67.243 102.838 68.4155C101.027 69.3431 91.1893 75.1944 91.1893 87.7819C91.1893 100.366 101.812 109.633 113.606 109.633C125.404 109.633 135.634 101.097 135.634 88.1704C135.634 75.2432 126.04 69.3904 124.475 68.4155ZM124.674 104.712C124.427 104.955 122.176 106.516 119.534 106.762C116.891 107.004 113.316 107.151 111.164 105.199C110.823 104.856 110.917 104.372 111.164 104.178C111.408 103.979 111.604 103.833 111.899 103.833C112.194 103.833 112.141 103.833 112.291 103.931C113.269 104.712 114.737 105.344 117.867 105.344C121.002 105.344 123.206 104.471 124.183 103.735C124.624 103.394 124.819 103.688 124.87 103.883C124.917 104.077 125.016 104.372 124.674 104.712ZM116.191 100.606C116.729 100.117 117.612 99.3359 118.445 98.9958C119.277 98.6529 119.713 98.7025 120.499 98.7025C121.281 98.7025 122.116 98.7513 122.702 99.1441C123.288 99.5347 123.632 100.41 123.824 100.895C124.022 101.386 123.824 101.677 123.436 101.874C123.095 102.067 123.045 101.97 122.702 101.338C122.362 100.704 122.067 100.068 120.353 100.068C118.641 100.068 118.101 100.655 117.27 101.338C116.438 102.019 116.143 102.264 115.848 101.874C115.556 101.485 115.653 101.092 116.191 100.606ZM133.857 91.3074C133.857 92.8183 133.369 95.5495 132.192 97.2564C131.021 98.9662 130.287 99.6013 128.912 99.5024C127.148 99.354 123.626 93.8918 121.375 93.7918C118.54 93.6957 112.37 99.6991 107.523 99.6991C104.585 99.6991 103.707 99.2606 102.729 98.6232C101.258 97.5992 100.523 96.0389 100.572 93.8918C100.624 90.0844 104.192 86.5275 108.698 86.4803C114.422 86.4297 118.392 92.1337 121.276 92.0875C123.725 92.0414 128.426 87.2583 130.726 87.2583C133.172 87.2582 133.857 89.7911 133.857 91.3074Z" fill="white" fill-opacity="0.3"/>
<g opacity="0.3">
<path d="M253.522 162.932L255.139 163.874L273.16 132.393L271.542 131.45L253.522 162.932Z" fill="white"/>
<path d="M289.192 160.417H253.151V162.301H289.192V160.417Z" fill="white"/>
<path d="M253.864 161.475L271.892 171.974L272.825 170.342L254.798 159.844L253.864 161.475Z" fill="white"/>
<path d="M269.525 134.114L287.552 144.612L288.486 142.981L270.458 132.482L269.525 134.114Z" fill="white"/>
<path d="M253.869 142.973L254.803 144.605L272.83 134.107L271.897 132.475L253.869 142.973Z" fill="white"/>
<path d="M269.199 132.393L287.219 163.874L288.837 162.932L270.817 131.451L269.199 132.393Z" fill="white"/>
<path d="M256.448 141.724H254.58V162.721H256.448V141.724Z" fill="white"/>
<path d="M287.774 141.724H285.906V162.721H287.774V141.724Z" fill="white"/>
<path d="M270.758 169.751L271.574 171.176L287.252 162.045L286.437 160.62L270.758 169.751Z" fill="white"/>
<path d="M290.25 163.334C289.17 165.229 286.762 165.876 284.882 164.786C283.003 163.697 282.362 161.268 283.442 159.373C284.522 157.477 286.93 156.83 288.809 157.92C290.7 159.021 291.341 161.438 290.25 163.334Z" fill="white"/>
<path d="M258.901 145.072C257.821 146.968 255.413 147.615 253.534 146.525C251.655 145.435 251.013 143.007 252.094 141.111C253.174 139.216 255.582 138.569 257.461 139.658C259.34 140.759 259.981 143.177 258.901 145.072Z" fill="white"/>
<path d="M252.105 163.334C251.025 161.438 251.666 159.021 253.545 157.92C255.424 156.83 257.821 157.477 258.912 159.373C259.993 161.268 259.351 163.686 257.472 164.786C255.582 165.876 253.185 165.229 252.105 163.334Z" fill="white"/>
<path d="M283.453 145.072C282.373 143.177 283.015 140.759 284.894 139.658C286.773 138.569 289.17 139.216 290.261 141.111C291.341 143.007 290.7 145.424 288.821 146.525C286.942 147.615 284.534 146.968 283.453 145.072Z" fill="white"/>
<path d="M271.177 174.445C269.006 174.445 267.25 172.674 267.25 170.484C267.25 168.293 269.006 166.523 271.177 166.523C273.349 166.523 275.104 168.293 275.104 170.484C275.104 172.663 273.349 174.445 271.177 174.445Z" fill="white"/>
<path d="M271.177 137.922C269.006 137.922 267.25 136.151 267.25 133.961C267.25 131.771 269.006 130 271.177 130C273.349 130 275.104 131.771 275.104 133.961C275.104 136.151 273.349 137.922 271.177 137.922Z" fill="white"/>
</g>
<g opacity="0.3">
<path d="M179.723 142H175.482L167.364 162.11H172.288L173.775 158.088H181.429L182.916 162.11H187.84L179.723 142ZM179.869 154.066H175.335L177.578 148.216H177.627L179.869 154.066Z" fill="white"/>
<path d="M188.625 142V162.11H193.207V154.651H195.962C199.886 154.651 202.836 152.335 202.836 148.192C202.836 144.023 199.886 142 195.962 142H188.625ZM193.207 150.995V145.656H194.499C196.303 145.656 198.009 146.266 198.009 148.338C198.009 150.385 196.303 150.995 194.499 150.995H193.207Z" fill="white"/>
<path d="M209.442 142H204.86V162.11H209.442V142Z" fill="white"/>
<path d="M217.794 149.24C214.503 149.24 212.334 150.702 212.334 153.262C212.334 155.139 213.601 156.016 214.869 156.674C216.283 157.406 217.648 157.479 217.648 158.381C217.648 159.21 216.916 159.283 216.307 159.283C214.917 159.283 213.211 157.844 213.211 157.844L211.456 160.794C211.456 160.794 213.26 162.476 216.283 162.476C218.842 162.476 222.206 161.891 222.206 158.21C222.206 155.651 220.061 154.724 218.403 154.212C217.331 153.871 216.453 153.676 216.453 153.018C216.453 152.433 216.843 152.262 217.794 152.262C219.11 152.262 220.573 153.042 220.573 153.042L221.987 150.215C221.987 150.215 220.207 149.24 217.794 149.24Z" fill="white"/>
</g>
<g opacity="0.3">
<path d="M253.776 203H249.213V217.11C249.213 219.262 248.218 220.118 246.908 220.118C245.743 220.118 244.311 218.666 244.311 218.666L242.854 222.738C242.854 222.738 244.675 224.787 247.539 224.787C251.543 224.787 253.776 222.556 253.776 218.354V203Z" fill="white"/>
<path d="M261.852 210.703C258.576 210.703 256.416 212.259 256.416 214.983C256.416 216.98 257.678 217.914 258.94 218.614C260.347 219.392 261.707 219.47 261.707 220.429C261.707 221.311 260.978 221.389 260.372 221.389C258.988 221.389 257.289 219.859 257.289 219.859L255.542 222.997C255.542 222.997 257.338 224.787 260.347 224.787C262.896 224.787 266.245 224.164 266.245 220.248C266.245 217.524 264.109 216.539 262.459 215.994C261.391 215.631 260.517 215.424 260.517 214.723C260.517 214.101 260.906 213.919 261.852 213.919C263.163 213.919 264.619 214.749 264.619 214.749L266.027 211.741C266.027 211.741 264.255 210.703 261.852 210.703Z" fill="white"/>
<path d="M267.487 217.758C267.487 221.856 270.497 224.787 274.987 224.787C279.283 224.787 282.414 221.856 282.414 217.758C282.414 213.608 279.113 210.703 274.987 210.703C270.788 210.703 267.487 213.608 267.487 217.758ZM272.05 217.758C272.05 215.916 273.337 214.62 274.963 214.62C276.565 214.62 277.851 215.916 277.851 217.758C277.851 219.573 276.637 220.87 274.963 220.87C273.215 220.87 272.05 219.573 272.05 217.758Z" fill="white"/>
<path d="M284.384 224.398H288.68V216.876C288.68 215.553 289.942 214.282 291.228 214.282C292.612 214.282 293.461 215.553 293.461 216.876V224.398H297.757V215.631C297.757 211.922 294.578 210.703 292.296 210.703C290.937 210.703 289.699 211.455 288.728 212.493H288.68V211.092H284.384V224.398Z" fill="white"/>
</g>
<path d="M52 13.872C50.7118 14.4442 49.3296 14.8323 47.8773 15.0055C49.3602 14.1154 50.4953 12.7034 51.0333 11.0262C49.6423 11.8505 48.1069 12.4491 46.471 12.7736C45.1609 11.3726 43.2975 10.5 41.2307 10.5C37.2655 10.5 34.0505 13.7229 34.0505 17.6957C34.0505 18.2591 34.1139 18.8095 34.2364 19.3357C28.27 19.0353 22.9795 16.1697 19.4386 11.8154C18.8196 12.8766 18.4675 14.1131 18.4675 15.433C18.4675 17.9303 19.736 20.1337 21.6607 21.4229C20.484 21.3834 19.3773 21.0589 18.4085 20.5196V20.6095C18.4085 24.0955 20.8843 27.0049 24.1671 27.6671C23.5656 27.8293 22.9314 27.9192 22.2752 27.9192C21.8116 27.9192 21.3632 27.8732 20.9236 27.7854C21.8378 30.6466 24.4886 32.7273 27.6293 32.7843C25.1731 34.7137 22.0762 35.8604 18.7125 35.8604C18.1329 35.8604 17.5621 35.8253 17 35.7617C20.1779 37.8073 23.9506 39 28.0055 39C41.2133 39 48.4329 28.0332 48.4329 18.5223L48.4088 17.5905C49.8195 16.5819 51.0398 15.3147 52 13.872Z" fill="white" fill-opacity="0.3"/>
<defs>
<clipPath id="clip0">
<rect width="31.9936" height="31.9936" fill="white" transform="translate(99.404 7.4718)"/>
</clipPath>
</defs>
</svg>
